<svg version="1.1" xmlns="http://www.w3.org/2000/svg" xmlns:xlink="http://www.w3.org/1999/xlink" width="24" height="24" style="" xml:space="preserve"><rect id="backgroundrect" width="100%" height="100%" x="0" y="0" fill="none" stroke="none"/>


<g class="currentLayer" style=""><title>Layer 1</title><g id="Frame_-_24px" class="" opacity="1">
	<rect y="-0.6993007063865662" style="fill: none;" width="24" height="24" id="svg_1" opacity="1" x="1.3986014127731323"/>
</g><g id="Line_Icons" class="selected" fill-opacity="1" fill="#fefefe">
	<g id="svg_2" fill="#fefefe">
		<g id="svg_3" fill="#fefefe">
			<path style="" d="M8.555,20c0.693,1.19,1.969,2,3.445,2s2.752-0.81,3.445-2H8.555z" id="svg_4" fill="#fefefe"/>
		</g>
		<g id="svg_5" fill="#fefefe">
			<path style="" d="M8,11.171V10c0-2.206,1.794-4,4-4c0.355,0,0.694,0.062,1.022,0.149l1.558-1.558     C13.797,4.216,12.924,4,12,4c-3.309,0-6,2.691-6,6v2.838C6,12.96,5.984,13.08,5.971,13.2L8,11.171z" id="svg_6" fill="#fefefe"/>
			<path style="" d="M18,12.838V10c0-0.925-0.216-1.797-0.591-2.581l4.505-4.505L20.5,1.5L0.822,21.178l1.414,1.415     L5.828,19H21v-2.721l-0.684-0.227C18.931,15.589,18,14.298,18,12.838z M7.828,17l8.023-8.022C15.938,9.306,16,9.645,16,10v2.838     c0,1.648,0.745,3.16,1.965,4.162H7.828z" id="svg_7" fill="#fefefe"/>
		</g>
	</g>
</g></g></svg>