<svg version="1.1" xmlns="http://www.w3.org/2000/svg" xmlns:xlink="http://www.w3.org/1999/xlink" width="24" height="24" style="" xml:space="preserve"><rect id="backgroundrect" width="100%" height="100%" x="0" y="0" fill="none" stroke="none"/>


<g class="currentLayer" style=""><title>Layer 1</title><g id="Frame_-_24px">
	<rect style="fill: none;" width="24" height="24" id="svg_1"/>
</g><g id="Line_Icons" class="selected" fill-opacity="1" fill="#fefefe">
	<g id="svg_2" fill="#fefefe">
		<rect x="2" y="20" style="" width="19" height="2" id="svg_3" fill="#fefefe"/>
		<path style="" d="M21.533,8.154l-9.5-6c-0.326-0.206-0.742-0.206-1.068,0l-9.5,6C1.09,8.392,0.916,8.85,1.039,9.278    S1.555,10,2,10h19c0.445,0,0.836-0.294,0.961-0.722C22.084,8.85,21.91,8.392,21.533,8.154z M5.455,8L11.5,4.183L17.543,8H5.455z" id="svg_4" fill="#fefefe"/>
		<path style="" d="M7,19c0.553,0,1-0.447,1-1v-6c0-0.552-0.447-1-1-1H4c-0.552,0-1,0.448-1,1v6c0,0.553,0.448,1,1,1H7    z M5,13h1v4H5V13z" id="svg_5" fill="#fefefe"/>
		<path style="" d="M13,19c0.553,0,1-0.447,1-1v-6c0-0.552-0.447-1-1-1h-3c-0.552,0-1,0.448-1,1v6c0,0.553,0.448,1,1,1    H13z M11,13h1v4h-1V13z" id="svg_6" fill="#fefefe"/>
		<path style="" d="M19,19c0.553,0,1-0.447,1-1v-6c0-0.552-0.447-1-1-1h-3c-0.552,0-1,0.448-1,1v6c0,0.553,0.448,1,1,1    H19z M17,13h1v4h-1V13z" id="svg_7" fill="#fefefe"/>
	</g>
</g></g></svg>