<svg version="1.1" xmlns="http://www.w3.org/2000/svg" xmlns:xlink="http://www.w3.org/1999/xlink" width="24" height="24" style="enable-background:new 0 0 24 24;" xml:space="preserve"><rect id="backgroundrect" width="100%" height="100%" x="0" y="0" fill="none" stroke="none"/>


<g class="currentLayer" style=""><title>Layer 1</title><g id="Frame_-_24px">
	<rect y="0" style="fill: none;" width="24" height="24" id="svg_1"/>
</g><g id="Line_Icons" class="selected" fill-opacity="1" fill="#fefefe">
	<g id="svg_2" fill="#fefefe">
		<g id="svg_3" fill="#fefefe">
			<path style="" d="M12.042,22c-5.514,0-10-4.486-10-10s4.486-10,10-10s10,4.486,10,10S17.556,22,12.042,22z      M12.042,4c-4.411,0-8,3.589-8,8s3.589,8,8,8s8-3.589,8-8S16.453,4,12.042,4z" id="svg_4" fill="#fefefe"/>
		</g>
		<g id="svg_5" fill="#fefefe">
			<polygon style="" points="11.201,16.928 7.158,12.885 8.925,11.117 10.882,13.073 15.024,7.274 17.059,8.727    " id="svg_6" fill="#fefefe"/>
		</g>
	</g>
</g></g></svg>