<svg version="1.1" xmlns="http://www.w3.org/2000/svg" xmlns:xlink="http://www.w3.org/1999/xlink" width="24" height="24" style="" xml:space="preserve"><rect id="backgroundrect" width="100%" height="100%" x="0" y="0" fill="none" stroke="none"/>


<g class="currentLayer" style=""><title>Layer 1</title><g id="Frame_-_24px" class="">
	<rect style="fill: none;" width="24" height="24" id="svg_1"/>
</g><g id="Line_Icons" class="selected" fill-opacity="1" fill="#fefefe">
	<g id="svg_2" fill="#fefefe">
		<path style="" d="M20,4H4C2.896,4,2,4.898,2,6v12c0,1.103,0.896,2,2,2h16c1.104,0,2-0.897,2-2V6    C22,4.898,21.104,4,20,4z M20,6l-0.001,3H4V6H20z M4,18v-7h15.999l-0.002,7H4z" id="svg_3" fill="#fefefe"/>
		<rect x="15" y="12" style="" width="4" height="2" id="svg_4" fill="#fefefe"/>
		<rect x="5" y="12" style="" width="7" height="2" id="svg_5" fill="#fefefe"/>
		<rect x="5" y="15" style="" width="5" height="2" id="svg_6" fill="#fefefe"/>
	</g>
</g></g></svg>