<svg version="1.1" xmlns="http://www.w3.org/2000/svg" xmlns:xlink="http://www.w3.org/1999/xlink" width="24" height="24" style="" xml:space="preserve"><rect id="backgroundrect" width="100%" height="100%" x="0" y="0" fill="none" stroke="none"/>


<g class="currentLayer" style=""><title>Layer 1</title><g id="Frame_-_24px">
	<rect style="fill: none;" width="24" height="24" id="svg_1"/>
</g><g id="Line_Icons" class="selected" fill-opacity="1" fill="#fefefe">
	<g id="svg_2" fill="#fefefe">
		<polygon style="" points="10.293,10.299 6.586,14.006 10.293,17.714 11.707,16.299 9.414,14.006 11.707,11.714   " id="svg_3" fill="#fefefe"/>
		<polygon style="" points="12.293,11.714 14.586,14.006 12.293,16.299 13.707,17.714 17.414,14.006 13.707,10.299       " id="svg_4" fill="#fefefe"/>
		<path style="" d="M16.414,1.003H5c-1.103,0-2,0.896-2,2v18c0,1.103,0.897,2,2,2h14c1.103,0,2-0.897,2-2V5.59    L16.414,1.003z M5,21.003v-18h10v4h4l0.001,14H5z" id="svg_5" fill="#fefefe"/>
	</g>
</g></g></svg>