<svg version="1.1" xmlns="http://www.w3.org/2000/svg" xmlns:xlink="http://www.w3.org/1999/xlink" width="24" height="24" style="enable-background:new 0 0 24 24;" xml:space="preserve"><rect id="backgroundrect" width="100%" height="100%" x="0" y="0" fill="none" stroke="none"/>


<g class="currentLayer" style=""><title>Layer 1</title><g id="Frame_-_24px">
	<rect y="-0.0010000000474974513" style="fill: none;" width="24" height="24" id="svg_1"/>
</g><g id="Line_Icons" class="selected" fill-opacity="1" fill="#fefefe">
	<g id="svg_2" fill="#fefefe">
		<g id="svg_3" fill="#fefefe">
			<path style="" d="M11,22c-0.111,0-0.223-0.018-0.331-0.057C10.268,21.802,10,21.424,10,21v-7H5     c-0.384,0-0.735-0.221-0.901-0.567s-0.12-0.756,0.121-1.058l8-10c0.265-0.331,0.711-0.459,1.112-0.318     C13.732,2.197,14,2.575,14,3v7h5c0.384,0,0.735,0.221,0.901,0.567s0.12,0.757-0.121,1.058l-8,10C11.587,21.866,11.298,22,11,22z      M7.081,12H11c0.552,0,1,0.448,1,1v5.15L16.919,12H13c-0.552,0-1-0.448-1-1V5.85L7.081,12z" id="svg_4" fill="#fefefe"/>
		</g>
	</g>
</g></g></svg>