<svg version="1.1" xmlns="http://www.w3.org/2000/svg" xmlns:xlink="http://www.w3.org/1999/xlink" width="24" height="24" style="" xml:space="preserve"><rect id="backgroundrect" width="100%" height="100%" x="0" y="0" fill="none" stroke="none"/>


<g class="currentLayer" style=""><title>Layer 1</title><g id="Frame_-_24px">
	<rect y="0" style="fill: none;" width="24" height="24" id="svg_1"/>
</g><g id="Line_Icons" class="selected" fill-opacity="1" fill="#fefefe">
	<g id="svg_2" fill="#fefefe">
		<path style="" d="M12,4C5.935,4,1,8.934,1,15v5h7h8h7v-5C23,8.934,18.065,4,12,4z M10.269,18    c0.347-0.597,0.993-1,1.731-1s1.385,0.403,1.731,1H10.269z M21,18h-5.143c-0.363-1.398-1.459-2.493-2.857-2.858V11h-2v4.142    C9.602,15.506,8.506,16.601,8.143,18H3v-3c0-4.962,4.037-9,9-9s9,4.038,9,9V18z" id="svg_3" fill="#fefefe"/>
		<g id="svg_4" fill="#fefefe">
			<g id="svg_5" fill="#fefefe">
				<circle style="" cx="12" cy="8" r="1" id="svg_6" fill="#fefefe"/>
			</g>
		</g>
		<g id="svg_7" fill="#fefefe">
			<g id="svg_8" fill="#fefefe">
				<circle style="" cx="16.950000762939453" cy="10.048999786376953" r="1" id="svg_9" fill="#fefefe"/>
			</g>
		</g>
		<g id="svg_10" fill="#fefefe">
			<g id="svg_11" fill="#fefefe">
				<circle style="" cx="19" cy="15" r="1" id="svg_12" fill="#fefefe"/>
			</g>
		</g>
		<g id="svg_13" fill="#fefefe">
			<g id="svg_14" fill="#fefefe">
				<circle style="" cx="7.050000190734863" cy="10.050000190734863" r="1.0010000467300415" id="svg_15" fill="#fefefe"/>
			</g>
		</g>
		<g id="svg_16" fill="#fefefe">
			<g id="svg_17" fill="#fefefe">
				<circle style="" cx="5" cy="15" r="1" id="svg_18" fill="#fefefe"/>
			</g>
		</g>
	</g>
</g></g></svg>