<svg version="1.1" xmlns="http://www.w3.org/2000/svg" xmlns:xlink="http://www.w3.org/1999/xlink" width="24" height="24" style="" xml:space="preserve"><rect id="backgroundrect" width="100%" height="100%" x="0" y="0" fill="none" stroke="none"/>


<g class="currentLayer" style=""><title>Layer 1</title><g id="Frame_-_24px">
	<rect style="fill: none;" width="24" height="24" id="svg_1"/>
</g><g id="Line_Icons" class="selected" fill-opacity="1" fill="#fefefe">
	<path style="" d="M12,2C6.486,2,2,6.486,2,12v9c0,0.553,0.448,1,1,1h4c1.103,0,2-0.897,2-2v-4c0-1.104-0.897-2-2-2H4   v-2c0-4.411,3.589-8,8-8s8,3.589,8,8v2h-3c-1.103,0-2,0.896-2,2v4c0,1.103,0.897,2,2,2h4c0.552,0,1-0.447,1-1v-9   C22,6.486,17.514,2,12,2z M7,16l0.001,4H4v-4H7z M20,20h-3v-4h3V20z" id="svg_2" fill="#fefefe"/>
</g></g></svg>