<svg version="1.1" xmlns="http://www.w3.org/2000/svg" xmlns:xlink="http://www.w3.org/1999/xlink" width="24" height="24" style="" xml:space="preserve"><rect id="backgroundrect" width="100%" height="100%" x="0" y="0" fill="none" stroke="none"/>


<g class="currentLayer" style=""><title>Layer 1</title><g id="Frame_-_24px">
	<rect style="fill: none;" width="24" height="24" id="svg_1"/>
</g><g id="Line_Icons" class="selected" fill-opacity="1" fill="#fefefe">
	<g id="svg_2" fill="#fefefe">
		<g id="svg_3" fill="#fefefe">
			<g id="svg_4" fill="#fefefe">
				<path style="" d="M5.001,17c0-1.841,1.159-3,3-3l0,0c1.841,0,3,1.159,3,3H5.001z" id="svg_5" fill="#fefefe"/>
			</g>
			<g id="svg_6" fill="#fefefe">
				<circle style="" cx="8.00100040435791" cy="11" r="2" id="svg_7" fill="#fefefe"/>
			</g>
		</g>
		<g id="svg_8" fill="#fefefe">
			<rect x="13.00100040435791" y="11" style="" width="6" height="2" id="svg_9" fill="#fefefe"/>
		</g>
		<g id="svg_10" fill="#fefefe">
			<rect x="13.00100040435791" y="15" style="" width="6" height="2" id="svg_11" fill="#fefefe"/>
		</g>
		<path style="" d="M20.001,5h-5.185c-0.414-1.162-1.514-2-2.815-2S9.6,3.838,9.186,5H4.001c-1.103,0-2,0.896-2,2v12    c0,1.103,0.897,2,2,2h16c1.103,0,2-0.897,2-2V7C22.001,5.896,21.104,5,20.001,5z M12.001,5c0.551,0,1,0.449,1,1s-0.449,1-1,1    s-1-0.449-1-1S11.45,5,12.001,5z M4.001,19V7h5.185c0.414,1.162,1.514,2,2.815,2s2.401-0.838,2.815-2h5.185l0.001,12H4.001z" id="svg_12" fill="#fefefe"/>
	</g>
</g></g></svg>