<svg version="1.1" xmlns="http://www.w3.org/2000/svg" xmlns:xlink="http://www.w3.org/1999/xlink" width="24" height="24" style="" xml:space="preserve"><rect id="backgroundrect" width="100%" height="100%" x="0" y="0" fill="none" stroke="none"/>


<g class="currentLayer" style=""><title>Layer 1</title><g id="Frame_-_24px">
	<rect y="0" style="fill: none;" width="24" height="24" id="svg_1"/>
</g><g id="Line_Icons" class="selected" fill-opacity="1" fill="#fefefe">
	<g id="svg_2" fill="#fefefe">
		<g id="svg_3" fill="#fefefe">
			<path style="" d="M12,22C6.486,22,2,17.515,2,12C2,6.487,6.486,2,12,2s10,4.486,10,10C22,17.515,17.514,22,12,22z      M12,4c-4.411,0-8,3.589-8,8s3.589,8,8,8s8-3.589,8-8S16.411,4,12,4z" id="svg_4" fill="#fefefe"/>
		</g>
		<path style="" d="M13,15v-4c0-0.552-0.447-1-1-1h-2v2h1v3H9v2h6v-2H13z" id="svg_5" fill="#fefefe"/>
		<g id="svg_6" fill="#fefefe">
			<circle style="" cx="12" cy="8" r="1.25" id="svg_7" fill="#fefefe"/>
		</g>
	</g>
</g></g></svg>