<svg version="1.1" xmlns="http://www.w3.org/2000/svg" xmlns:xlink="http://www.w3.org/1999/xlink" width="24" height="24" style="" xml:space="preserve"><rect id="backgroundrect" width="100%" height="100%" x="0" y="0" fill="none" stroke="none"/>


<g class="currentLayer" style=""><title>Layer 1</title><g id="Frame_-_24px" class="">
	<rect style="fill: none;" width="24" height="24" id="svg_1"/>
</g><g id="Line_Icons" class="selected" fill-opacity="1" fill="#fefefe">
	<g id="svg_2" fill="#fefefe">
		<path style="" d="M23.633,19.734L22,14.838V3c0-0.553-0.447-1-1-1H3C2.448,2,2,2.447,2,3v11.838l-1.632,4.896    c-0.187,0.558-0.11,1.13,0.207,1.571C0.894,21.748,1.412,22,2,22h20c0.588,0,1.107-0.252,1.425-0.694    C23.743,20.865,23.818,20.292,23.633,19.734z M20,4v10H4V4H20z M2.388,20l1.333-4h16.559l1.333,4H2.388z" id="svg_3" fill="#fefefe"/>
		<path style="" d="M8,11h1h5h1V7h-5V6c0-0.553-0.447-1-1-1H7v2h1V11z" id="svg_4" fill="#fefefe"/>
		<circle style="" cx="9" cy="12" r="1" id="svg_5" fill="#fefefe"/>
		<circle style="" cx="14" cy="12" r="1" id="svg_6" fill="#fefefe"/>
		<rect x="10" y="17" style="" width="4" height="2" id="svg_7" fill="#fefefe"/>
	</g>
</g></g></svg>