<svg version="1.1" xmlns="http://www.w3.org/2000/svg" xmlns:xlink="http://www.w3.org/1999/xlink" width="24" height="24" style="enable-background:new 0 0 24 24;" xml:space="preserve"><rect id="backgroundrect" width="100%" height="100%" x="0" y="0" fill="none" stroke="none"/>


<g class="currentLayer" style=""><title>Layer 1</title><g id="Frame_-_24px">
	<rect style="fill: none;" width="24" height="24" id="svg_1"/>
</g><g id="Line_Icons" class="selected" fill-opacity="1" fill="#fefefe">
	<g id="svg_2" fill="#fefefe">
		
			<rect x="1.8040000200271606" y="13.616999626159668" transform="matrix(0.7071 -0.7071 0.7071 0.7071 -7.6109 10.8589)" style="" width="14.99899959564209" height="2" id="svg_3" fill="#fefefe"/>
		
			<rect x="15.4350004196167" y="5.485000133514404" transform="matrix(0.7071 -0.7071 0.7071 0.7071 0.5211 14.2278)" style="" width="4.000999927520752" height="2" id="svg_4" fill="#fefefe"/>
		
			<rect x="17.988000869750977" y="10.281000137329102" transform="matrix(0.2588 -0.9659 0.9659 0.2588 2.2106 27.4435)" style="" width="2" height="4.000999927520752" id="svg_5" fill="#fefefe"/>
		
			<rect x="12.744000434875488" y="15.52299976348877" transform="matrix(-0.2587 -0.966 0.966 -0.2587 2.5991 35.0405)" style="" width="4.000999927520752" height="2" id="svg_6" fill="#fefefe"/>
		
			<rect x="9.640000343322754" y="3.931999921798706" transform="matrix(0.2588 0.9659 -0.9659 0.2588 13.3907 -7.5878)" style="" width="4" height="2" id="svg_7" fill="#fefefe"/>
		
			<rect x="5.396999835968018" y="8.175000190734863" transform="matrix(0.9659 0.2588 -0.2588 0.9659 2.626 -1.6015)" style="" width="4.000999927520752" height="1.9989999532699585" id="svg_8" fill="#fefefe"/>
	</g>
</g></g></svg>