<svg version="1.1" xmlns="http://www.w3.org/2000/svg" xmlns:xlink="http://www.w3.org/1999/xlink" width="24" height="24" style="" xml:space="preserve"><rect id="backgroundrect" width="100%" height="100%" x="0" y="0" fill="none" stroke="none"/>


<g class="currentLayer" style=""><title>Layer 1</title><g id="Frame_-_24px">
	<rect style="fill: none;" width="24" height="24" id="svg_1"/>
</g><g id="Line_Icons" class="selected" fill-opacity="1" fill="#fefefe">
	<g id="svg_2" fill="#fefefe">
		<path style="" d="M21,17V5c0-0.552-0.448-1-1-1H2C1.448,4,1,4.448,1,5v12c0,0.552,0.448,1,1,1h18    C20.552,18,21,17.552,21,17z M19,9.586L15.415,6H19V9.586z M3,12.415L6.586,16H3V12.415z M9.414,16L3,9.586V6h9.586L19,12.414V16    H9.414z" id="svg_3" fill="#fefefe"/>
		<path style="" d="M11,7.5c-1.93,0-3.5,1.57-3.5,3.5s1.57,3.5,3.5,3.5s3.5-1.57,3.5-3.5S12.93,7.5,11,7.5z M11,12.5    c-0.827,0-1.5-0.673-1.5-1.5s0.673-1.5,1.5-1.5s1.5,0.673,1.5,1.5S11.827,12.5,11,12.5z" id="svg_4" fill="#fefefe"/>
		<path style="" d="M22,8v11H5v2h18c0.552,0,1-0.448,1-1V8H22z" id="svg_5" fill="#fefefe"/>
	</g>
</g></g></svg>