<svg version="1.1" xmlns="http://www.w3.org/2000/svg" xmlns:xlink="http://www.w3.org/1999/xlink" width="24" height="24" style="" xml:space="preserve"><rect id="backgroundrect" width="100%" height="100%" x="0" y="0" fill="none" stroke="none"/>


<g class="currentLayer" style=""><title>Layer 1</title><g id="Frame_-_24px">
	<rect style="fill: none;" width="24" height="24" id="svg_1"/>
</g><g id="Line_Icons" class="selected" fill-opacity="1" fill="#fefefe">
	<g id="svg_2" fill="#fefefe">
		<path style="" d="M11.764,3.152c-0.739-0.306-1.615-0.131-2.178,0.434L6.479,8H4c-1.103,0-2,0.898-2,2v4    c0,1.103,0.897,2,2,2h2.479l2.995,4.28C9.89,20.776,10.433,21,11,21c0.263,0,0.521-0.051,0.764-0.151    C12.515,20.54,13,19.813,13,19V5C13,4.187,12.515,3.462,11.764,3.152z M7.521,14H4v-4h3.521L11,5.027l0.001,13.948L7.521,14z" id="svg_3" fill="#fefefe"/>
		<path style="" d="M15,4v2c2.757,0,5,2.243,5,5s-2.243,5-5,5v2c3.86,0,7-3.14,7-7C22,7.141,18.86,4,15,4z" id="svg_4" fill="#fefefe"/>
		<path style="" d="M18,11c0-1.654-1.346-3-3-3v2c0.551,0,1,0.449,1,1c0,0.552-0.449,1-1,1v2    C16.654,14,18,12.654,18,11z" id="svg_5" fill="#fefefe"/>
	</g>
</g></g></svg>