<svg version="1.1" xmlns="http://www.w3.org/2000/svg" xmlns:xlink="http://www.w3.org/1999/xlink" width="24" height="24" style="" xml:space="preserve"><rect id="backgroundrect" width="100%" height="100%" x="0" y="0" fill="none" stroke="none"/>


<g class="currentLayer" style=""><title>Layer 1</title><g id="Frame_-_24px">
	<rect y="0" style="fill: none;" width="24" height="24" id="svg_1"/>
</g><g id="Line_Icons" class="selected" fill-opacity="1" fill="#fefefe">
	<g id="svg_2" fill="#fefefe">
		<g id="svg_3" fill="#fefefe">
			<path style="" d="M12,22C6.486,22,2,17.513,2,12S6.486,2,12,2s10,4.486,10,10S17.514,22,12,22z M12,4     c-4.411,0-8,3.589-8,8s3.589,8,8,8s8-3.589,8-8S16.411,4,12,4z" id="svg_4" fill="#fefefe"/>
		</g>
		<g id="svg_5" fill="#fefefe">
			<polygon style="" points="8.707,12.535 11.535,15.364 8,16.071    " id="svg_6" fill="#fefefe"/>
		</g>
		<g id="svg_7" fill="#fefefe">
			<path style="" d="M13.657,7.585c0.78-0.781,2.047-0.781,2.828,0s0.781,2.047,0,2.828l-4.243,4.243l-2.828-2.829     L13.657,7.585z" id="svg_8" fill="#fefefe"/>
		</g>
	</g>
</g></g></svg>