<svg version="1.1" xmlns="http://www.w3.org/2000/svg" xmlns:xlink="http://www.w3.org/1999/xlink" width="24" height="24" style="" xml:space="preserve"><rect id="backgroundrect" width="100%" height="100%" x="0" y="0" fill="none" stroke="none"/>


<g class="currentLayer" style=""><title>Layer 1</title><g id="Frame_-_24px">
	<rect y="0" style="fill: none;" width="24" height="24" id="svg_1"/>
</g><g id="Line_Icons" class="selected" fill-opacity="1" fill="#fefefe">
	<g id="svg_2" fill="#fefefe">
		<path style="" d="M22,11c0-1.654-1.346-3-3-3h-2v2H7V8H5c-1.654,0-3,1.346-3,3v9h3v4h14v-4h3V11z M17,22H7v-4h10V22z     M20,18h-1v-2H5v2H4v-7c0-0.552,0.449-1,1-1v2h14v-2c0.551,0,1,0.448,1,1V18z" id="svg_3" fill="#fefefe"/>
		<polygon style="" points="7,3 17,3 17,7 19,7 19,1 5,1 5,7 7,7   " id="svg_4" fill="#fefefe"/>
		<circle style="" cx="17" cy="14" r="1" id="svg_5" fill="#fefefe"/>
	</g>
</g></g></svg>