<svg version="1.1" xmlns="http://www.w3.org/2000/svg" xmlns:xlink="http://www.w3.org/1999/xlink" width="24" height="24" style="" xml:space="preserve"><rect id="backgroundrect" width="100%" height="100%" x="0" y="0" fill="none" stroke="none"/>


<g class="currentLayer" style=""><title>Layer 1</title><g id="Frame_-_24px">
	<rect style="fill: none;" width="24" height="24" id="svg_1"/>
</g><g id="Line_Icons" class="selected" opacity="1" fill-opacity="1" fill="#fefefe">
	<g id="svg_2" opacity="1" fill="#fefefe">
		<path style="" d="M6.351,6.351C7.824,4.871,9.828,4,12,4c4.411,0,8,3.589,8,8h2c0-5.515-4.486-10-10-10    C9.285,2,6.779,3.089,4.938,4.938L3,3v6h6L6.351,6.351z" id="svg_3" opacity="1" fill="#fefefe"/>
		<path style="" d="M17.649,17.649C16.176,19.129,14.173,20,12,20c-4.411,0-8-3.589-8-8H2c0,5.515,4.486,10,10,10    c2.716,0,5.221-1.089,7.063-2.938L21,21v-6h-6L17.649,17.649z" id="svg_4" opacity="1" fill="#fefefe"/>
	</g>
</g></g></svg>