<svg version="1.1" xmlns="http://www.w3.org/2000/svg" xmlns:xlink="http://www.w3.org/1999/xlink" width="24" height="24" style="enable-background:new 0 0 24 24;" xml:space="preserve"><rect id="backgroundrect" width="100%" height="100%" x="0" y="0" fill="none" stroke="none"/>


<g class="currentLayer" style=""><title>Layer 1</title><g id="Frame_-_24px">
	<rect y="0.0010000000474974513" style="fill: none;" width="24" height="24" id="svg_1"/>
</g><g id="Line_Icons" class="selected" fill-opacity="1" fill="#fefefe">
	<g id="svg_2" fill="#fefefe">
		<g id="svg_3" fill="#fefefe">
			<path style="" d="M12,22.001c-5.514,0-10-4.485-10-10c0-5.514,4.486-10,10-10s10,4.486,10,10     C22,17.516,17.514,22.001,12,22.001z M12,4.001c-4.411,0-8,3.589-8,8s3.589,8,8,8s8-3.589,8-8S16.411,4.001,12,4.001z" id="svg_4" fill="#fefefe"/>
		</g>
		<g id="svg_5" fill="#fefefe">
			<polygon style="" points="12,5.501 13.714,9.787 18,9.787 14.292,12.917 16.285,17.501 12,14.666 7.714,17.501      9.708,12.917 6,9.787 10.285,9.787    " id="svg_6" fill="#fefefe"/>
		</g>
	</g>
</g></g></svg>