<svg version="1.1" xmlns="http://www.w3.org/2000/svg" xmlns:xlink="http://www.w3.org/1999/xlink" width="24" height="24" style="" xml:space="preserve"><rect id="backgroundrect" width="100%" height="100%" x="0" y="0" fill="none" stroke="none"/>


<g class="currentLayer" style=""><title>Layer 1</title><g id="Frame_-_24px">
	<rect style="fill: none;" width="24" height="24" id="svg_1"/>
</g><g id="Line_Icons" class="selected" fill-opacity="1" fill="#fefefe">
	<path style="" d="M20,8h-4V6c0-0.551,0.449-1,1-1h2V3h-2c-0.768,0-1.469,0.29-2,0.766C14.469,3.29,13.768,3,13,3h-2v2   h2c0.551,0,1,0.449,1,1v2H4c-1.103,0-2,0.897-2,2v4c0,1.103,0.897,2,2,2h10v2c0,0.551-0.449,1-1,1h-2v2h2   c0.768,0,1.469-0.29,2-0.766C15.531,20.71,16.232,21,17,21h2v-2h-2c-0.551,0-1-0.449-1-1v-2h4c1.103,0,2-0.897,2-2v-4   C22,8.897,21.103,8,20,8z M4,14v-4h10v4H4z M19.997,14H16v-4h4L19.997,14z" id="svg_2" fill="#fefefe"/>
</g></g></svg>