<svg version="1.1" xmlns="http://www.w3.org/2000/svg" xmlns:xlink="http://www.w3.org/1999/xlink" width="24" height="24" style="enable-background:new 0 0 24 24;" xml:space="preserve"><rect id="backgroundrect" width="100%" height="100%" x="0" y="0" fill="none" stroke="none"/>


<g class="currentLayer" style=""><title>Layer 1</title><g id="Frame_-_24px">
	<rect style="fill: none;" width="24" height="24" id="svg_1"/>
</g><g id="Line_Icons" class="selected" fill-opacity="1" fill="#fefefe">
	<g id="svg_2" fill="#fefefe">
		<g id="svg_3" fill="#fefefe">
			<path style="" d="M15.001,16c-0.152,0-0.306-0.035-0.447-0.105c-0.339-0.169-0.553-0.516-0.553-0.895v-2h-1v-2h2     c0.552,0,1,0.448,1,1v1l2.4-1.8c0.173-0.13,0.384-0.2,0.6-0.2h3V4h-10v3h-2V4c0-1.104,0.897-2,2-2h10c1.103,0,2,0.896,2,2v7     c0,1.103-0.897,2-2,2h-2.667l-3.733,2.8C15.424,15.932,15.213,16,15.001,16z" id="svg_4" fill="#fefefe"/>
		</g>
		<g id="svg_5" fill="#fefefe">
			<path style="" d="M8.001,16c-2.206,0-4-1.794-4-4c0-2.205,1.794-4,4-4s4,1.795,4,4     C12.001,14.206,10.207,16,8.001,16z M8.001,10c-1.103,0-2,0.896-2,2c0,1.103,0.897,2,2,2s2-0.897,2-2     C10.001,10.896,9.104,10,8.001,10z" id="svg_6" fill="#fefefe"/>
		</g>
		<g id="svg_7" fill="#fefefe">
			<path style="" d="M16.001,24h-16v-1c0-3.533,3.29-6,8-6s8,2.467,8,6V24z M2.16,22h11.683     c-0.598-1.808-2.833-3-5.841-3S2.758,20.192,2.16,22z" id="svg_8" fill="#fefefe"/>
		</g>
	</g>
</g></g></svg>