<svg version="1.1" xmlns="http://www.w3.org/2000/svg" xmlns:xlink="http://www.w3.org/1999/xlink" width="24" height="24" style="enable-background:new 0 0 24 24;" xml:space="preserve"><rect id="backgroundrect" width="100%" height="100%" x="0" y="0" fill="none" stroke="none"/>


<g class="currentLayer" style=""><title>Layer 1</title><g id="Frame_-_24px">
	<rect style="fill: none;" width="24" height="24" id="svg_1"/>
</g><g id="Line_Icons" class="" fill-opacity="1" fill="#5e6c7d">
	<g id="svg_2" fill="#5e6c7d">
		<g id="svg_3" fill="#5e6c7d">
			<path style="" d="M12.002,12.006c-2.206,0-4-1.794-4-4c0-2.205,1.794-4,4-4s4,1.795,4,4     C16.002,10.212,14.208,12.006,12.002,12.006z M12.002,6.006c-1.103,0-2,0.896-2,2c0,1.103,0.897,2,2,2s2-0.897,2-2     C14.002,6.902,13.105,6.006,12.002,6.006z" id="svg_4" fill="#5e6c7d"/>
		</g>
		<g id="svg_5" fill="#5e6c7d">
			<path style="" d="M20.002,20.006h-16v-1c0-3.533,3.29-6,8-6s8,2.467,8,6V20.006z M6.161,18.006h11.683     c-0.598-1.808-2.833-3-5.841-3S6.759,16.198,6.161,18.006z" id="svg_6" fill="#5e6c7d"/>
		</g>
	</g>
</g></g></svg>