<svg version="1.1" xmlns="http://www.w3.org/2000/svg" xmlns:xlink="http://www.w3.org/1999/xlink" width="24" height="24" style="" xml:space="preserve"><rect id="backgroundrect" width="100%" height="100%" x="0" y="0" fill="none" stroke="none"/>


<g class="currentLayer" style=""><title>Layer 1</title><g id="Frame_-_24px">
	<rect y="0" style="fill: none;" width="24" height="24" id="svg_1"/>
</g><g id="Line_Icons" class="selected" fill-opacity="1" fill="#fefefe">
	<g id="svg_2" fill="#fefefe">
		<g id="svg_3" fill="#fefefe">
			<path style="" d="M8.555,19c0.693,1.19,1.969,2,3.445,2s2.752-0.81,3.445-2H8.555z" id="svg_4" fill="#fefefe"/>
		</g>
		<g id="svg_5" fill="#fefefe">
			<path style="" d="M21,18H3v-2.721l0.684-0.227C5.069,14.589,6,13.298,6,11.838V9c0-3.309,2.691-6,6-6s6,2.691,6,6     v2.838c0,1.46,0.931,2.751,2.316,3.214L21,15.279V18z M6.035,16h11.931C16.745,14.998,16,13.486,16,11.838V9c0-2.206-1.794-4-4-4     S8,6.794,8,9v2.838C8,13.486,7.255,14.998,6.035,16z" id="svg_6" fill="#fefefe"/>
		</g>
	</g>
</g></g></svg>