<svg version="1.1" xmlns="http://www.w3.org/2000/svg" xmlns:xlink="http://www.w3.org/1999/xlink" width="24" height="24" style="" xml:space="preserve"><rect id="backgroundrect" width="100%" height="100%" x="0" y="0" fill="none" stroke="none"/>


<g class="currentLayer" style=""><title>Layer 1</title><g id="Frame_-_24px">
	<rect style="fill: none;" width="24" height="24" id="svg_1"/>
</g><g id="Line_Icons" class="" opacity="1" fill-opacity="1" fill="#fefefe">
	<g id="svg_2" opacity="1" fill="#fefefe">
		<g id="svg_3" opacity="1" fill="#fefefe">
			<path style="" d="M15,5.589v2.223c1.791,1.04,3,2.974,3,5.188c0,3.309-2.691,6-6,6s-6-2.691-6-6     c0-2.215,1.209-4.148,3-5.188V5.589C6.072,6.779,4,9.65,4,13c0,4.411,3.589,8,8,8s8-3.589,8-8C20,9.65,17.928,6.779,15,5.589z" id="svg_4" opacity="1" fill="#fefefe"/>
		</g>
		<g id="svg_5" opacity="1" fill="#fefefe">
			<rect x="11" y="3" style="" width="2" height="8" id="svg_6" opacity="1" fill="#fefefe"/>
		</g>
	</g>
</g></g></svg>