<svg version="1.1" xmlns="http://www.w3.org/2000/svg" xmlns:xlink="http://www.w3.org/1999/xlink" width="24" height="24" style="enable-background:new 0 0 24 24;" xml:space="preserve"><rect id="backgroundrect" width="100%" height="100%" x="0" y="0" fill="none" stroke="none"/>


<g class="currentLayer" style=""><title>Layer 1</title><g id="Frame_-_24px" class="">
	<rect style="fill: none;" width="24" height="24" id="svg_1"/>
</g><g id="Line_Icons" class="selected" fill-opacity="1" fill="#fefefe">
	<g id="svg_2" fill="#fefefe">
		<path style="" d="M21,2H3C1.897,2,1,2.896,1,4v16c0,1.103,0.897,2,2,2h18c1.103,0,2-0.897,2-2V4    C23,2.896,22.103,2,21,2z M21,6h-8V4h8L21,6z M8,6V4h3v2H8z M6,4v2H3V4H6z M3,20V8h17.999l-0.002,12H3z" id="svg_3" fill="#fefefe"/>
		<path style="" d="M19.2,10.799c0-0.353-0.231-0.663-0.568-0.766c-0.336-0.103-0.702,0.028-0.897,0.322l-3.2,4.8    c-0.164,0.245-0.179,0.561-0.04,0.821c0.139,0.259,0.411,0.422,0.706,0.422h2.4V18h1.6v-1.6H20v-1.601h-0.8V10.799z M17.6,14.799    h-0.905l0.905-1.357V14.799z" id="svg_4" fill="#fefefe"/>
		<path style="" d="M12,10c-1.323,0-2.4,1.078-2.4,2.4v2.399H8.8v-4c0-0.353-0.231-0.663-0.568-0.766    c-0.336-0.103-0.702,0.028-0.897,0.322l-3.2,4.8c-0.164,0.245-0.179,0.561-0.04,0.821C4.234,16.237,4.505,16.4,4.8,16.4h2.4V18    h1.6v-1.6h0.8v-0.8C9.6,16.923,10.677,18,12,18s2.4-1.076,2.4-2.399v-3.2C14.4,11.077,13.323,10,12,10z M7.2,14.799H6.295    L7.2,13.442V14.799z M12.8,15.6c0,0.44-0.359,0.8-0.8,0.8s-0.8-0.359-0.8-0.8v-3.2c0-0.441,0.359-0.8,0.8-0.8s0.8,0.358,0.8,0.8    V15.6z" id="svg_5" fill="#fefefe"/>
	</g>
</g></g></svg>