<?xml version="1.0" encoding="utf-8"?>
<!-- Generator: Adobe Illustrator 23.0.1, SVG Export Plug-In . SVG Version: 6.00 Build 0)  -->
<svg version="1.1" id="Layer_1" xmlns="http://www.w3.org/2000/svg" xmlns:xlink="http://www.w3.org/1999/xlink" x="0px" y="0px"
	 viewBox="0 0 512 512" style="enable-background:new 0 0 512 512;" xml:space="preserve">
<style type="text/css">
	.st0{fill:#2196F3;}
	.st1{display:none;fill:#2196F3;}
</style>
<g>
	<path class="st0" d="M508.1,204.5c-0.8-28.2-3-53.6-6.7-77.5c-4.7-30.1-15-51.8-31.6-66.6c-6-5.3-13-10.1-20.8-14.1
		c-16.7-10.3-36.9-16.7-63.3-19.8c-52.5-6.2-108.8-11.7-165.2-8.8c-32,1.7-63.8,5.2-93.7,8.8c-26.4,3.1-46.5,9.4-63.3,19.8
		c-7.8,4-14.8,8.8-20.8,14.1C9.4,90.2,7.2,139,5.5,178.2l-0.3,8.5c-1.7,35-0.4,71.7,3.8,112.1c2.3,22.2,7,47.6,23.8,67.9
		c11.1,13.4,26.4,23.5,47,31c6.7,2.4,14.1,4.6,22.3,6.4c17.4,4.4,35.2,6.7,50,8.2c34.5,4.3,69.5,6.5,104.6,6.5
		c20.8,0,41.6-0.8,62.4-2.3c10.8-0.8,21.4-2,32.1-3.1l9.9-1.1c15-1.6,32.7-3.8,49.8-8.2c8.5-2,16-4.1,22.6-6.5
		c20.5-7.4,35.9-17.5,47-31c16.8-20.3,21.4-45.7,23.6-67.3c3.3-22.6,4.8-46.6,4.6-72.8C508.3,219.3,508.3,211.9,508.1,204.5z
		 M472.1,295.5c-1.9,17.5-5.2,37.2-16.7,51c-7.3,8.9-18.2,15.9-33.2,21.3c-5.6,2-11.8,3.8-19.4,5.6c-15.5,4-31.7,6-45.6,7.4l-10,1.1
		c-10.3,1.1-20.6,2.2-31,3c-53.6,4-107.7,2.6-161-4.1c-13.9-1.4-30.2-3.6-46.1-7.5c-7.3-1.7-13.5-3.4-19.1-5.4
		c-15-5.4-25.9-12.4-33.2-21.3c-11.3-13.8-14.8-33.5-16.7-51c-4.1-38.7-5.2-73.8-3.7-107.2l0.4-8.7c1.6-35,3.2-74.6,26.6-95.4
		c4.1-3.7,9.1-7,14.8-9.9c0.4-0.2,0.8-0.4,1.2-0.7c12.7-8,28.7-12.9,50.6-15.4c29.3-3.4,60.6-7,91.6-8.5
		c54.1-2.7,108.8,2.6,159.8,8.5c21.9,2.6,38,7.5,50.6,15.4c0.4,0.2,0.8,0.4,1.2,0.7c5.7,2.9,10.7,6.2,14.8,9.9
		c11,9.8,17.8,25,21.3,47.6c3.4,22.5,5.6,46.6,6.3,73.6c0.2,7,0.2,13.9,0.1,21.2C476.7,251.6,475.4,273.9,472.1,295.5z"/>
	<path class="st0" d="M360.1,462.3h-87.8v-15.8c0-8.8-7.1-15.9-15.9-15.9c-8.8,0-15.9,7.1-15.9,15.9v15.8h-87.8
		c-8.8,0-15.9,7.1-15.9,15.9s7.2,15.8,16,15.8h207.5c8.8,0,15.9-7.1,15.9-15.9S368.9,462.3,360.1,462.3z"/>
</g>
<g>
	<path class="st1" d="M329.5,239.7c-0.6-4.6-2.2-7.8-4.8-9.5c-3.2-2.2-6.9-2.6-10.1-3l-0.7-0.1c-6.8-0.9-13.4-0.7-20.3,0.7
		c-1.3,0.2-3,0.6-4.6,1.4c-1.9,0.9-3.4,2.1-4.5,3.6c-1.7,2.5-2,5.8-2.2,8.6c-0.2,3-0.4,6.5-0.3,10.2c0,1.4,0.1,3,0.2,4.5
		c0.2,3.1,0.7,7,2.4,10.2c2.3,4.5,6.3,5.5,9.1,5.9c4,0.6,7.9,1.1,12,1.1c0.1,0,0.2,0,0.3,0c3.6,0,7.4-0.4,12-1.2
		c3.1-0.6,6.4-1.4,8.6-3.9c2.4-2.7,2.9-6.6,3.2-10.5C329.9,252.3,330.3,246,329.5,239.7z M326.6,257.6c-0.2,3.3-0.6,6.7-2.4,8.7
		c-1.8,1.9-4.5,2.6-7,3c-4.5,0.8-8.3,1.2-11.7,1.2c-3.8,0-7.6-0.5-11.5-1.1c-3.5-0.5-5.5-1.8-6.8-4.4c-1.4-2.8-1.8-6.3-2-9
		c-0.1-1.5-0.1-3.1-0.2-4.4c-0.1-3.5,0.1-7,0.3-9.9c0.2-2.5,0.5-5.3,1.7-7.2c0.7-1.1,1.8-1.9,3.2-2.6l0,0c1.3-0.6,2.8-0.9,4-1.2
		c3.9-0.8,7.8-1.1,11.6-1.1c2.6,0,5.1,0.2,7.7,0.5l0.7,0.1c3.1,0.4,6.2,0.8,8.8,2.5c1.8,1.3,3,3.8,3.5,7.5
		C327.3,246.1,326.9,252.2,326.6,257.6z"/>
	<path class="st0" d="M157.3,254.8c-15.1,0-27.5,12.3-27.5,27.5c0,15.1,12.3,27.5,27.5,27.5c15.1,0,27.5-12.3,27.5-27.5
		C184.8,267.1,172.5,254.8,157.3,254.8z M157.3,288c-3.1,0-5.7-2.5-5.7-5.7c0-3.1,2.5-5.7,5.7-5.7s5.7,2.5,5.7,5.7
		C163,285.4,160.5,288,157.3,288z"/>
	<path class="st0" d="M202.6,171.8c-16.2,0-29.4,13.2-29.4,29.4c0,6.8,2.4,12.9,6.2,17.9l-12.9,22.3c-3,5.2-1.2,11.9,4,14.9
		c1.7,1,3.6,1.5,5.5,1.5c3.7,0,7.4-1.9,9.4-5.4l12.8-22.1c1.5,0.2,2.9,0.5,4.5,0.5c16.2,0,29.4-13.2,29.4-29.4
		C232,185,218.8,171.8,202.6,171.8z M202.6,208.9c-4.2,0-7.6-3.4-7.6-7.6c0-4.2,3.4-7.6,7.6-7.6c4.2,0,7.6,3.4,7.6,7.6
		C210.3,205.4,206.8,208.9,202.6,208.9z"/>
	<path class="st0" d="M287.7,225.9c-5.6,0-10.8,1.6-15.3,4.3l-26.6-15.4c-5.2-3-11.9-1.2-14.9,4s-1.2,11.9,4,14.9l23.9,13.8
		c-0.9,2.9-1.5,5.9-1.5,9.1c0,16.9,13.7,30.6,30.6,30.6s30.6-13.7,30.6-30.6S304.6,225.9,287.7,225.9z M287.7,265.3
		c-4.9,0-8.8-4-8.8-8.8c0-1.8,0.7-3.4,1.7-4.9c0.6-0.5,1.2-1.2,1.7-1.9c1.5-1.2,3.4-2.1,5.5-2.1c4.9,0,8.8,4,8.8,8.8
		S292.6,265.3,287.7,265.3z"/>
	<path class="st0" d="M337.6,130.5c-19,0-34.5,15.5-34.5,34.5c0,9.2,3.6,17.4,9.5,23.6l-12.2,21.5c-3,5.2-1.1,11.9,4.1,14.8
		c1.7,1,3.5,1.4,5.4,1.4c3.8,0,7.5-2,9.5-5.5l12.5-21.9c1.9,0.3,3.9,0.6,5.9,0.6c19,0,34.5-15.5,34.5-34.5S356.6,130.5,337.6,130.5z
		 M337.6,177.8c-7,0-12.8-5.7-12.8-12.8c0-7,5.7-12.8,12.8-12.8s12.8,5.7,12.8,12.8S344.6,177.8,337.6,177.8z"/>
</g>
</svg>
