<?xml version="1.0" encoding="utf-8"?>
<!-- Generator: Adobe Illustrator 23.0.1, SVG Export Plug-In . SVG Version: 6.00 Build 0)  -->
<svg version="1.1" id="Layer_1" xmlns="http://www.w3.org/2000/svg" xmlns:xlink="http://www.w3.org/1999/xlink" x="0px" y="0px"
	 viewBox="0 0 512 512" style="enable-background:new 0 0 512 512;" xml:space="preserve">
<style type="text/css">
	.st0{fill:#2196F3;}
</style>
<g>
	<path class="st0" d="M499.6,171.7c-6.3-38.6-23-65.7-49.6-80.5c-32.3-18-68.5-21.5-103.4-24.9l-6.9-0.7C269.7,58.2,201.1,60,130,71
		c-13.3,2-30.7,5.2-47.3,11.2C62.9,89.3,48,99,37.4,112c-17.7,21.5-21.5,49.1-23.6,73.3c-2.2,25.1-4.4,55-3.5,85.9
		c0.3,11.5,0.8,25,1.9,38.3c2.2,25.9,7,59.2,25,86.8c24.1,36.9,64.1,45.6,92,48.9c41.6,4.9,82.3,9.4,123.9,9.5c0.9,0,1.8,0,2.7,0
		c36.9,0,76.4-3.3,124-10.2c32-4.7,64.9-11.8,87.9-32.3c25.7-22.8,30.5-56.4,33.2-88.8C504.7,277.5,508.1,224.1,499.6,171.7z
		 M57.3,128.4c7.7-9.3,18.9-16.5,34.2-22l0,0c14.5-5.2,30.3-8,42.4-9.9C175.3,90.1,215.7,87,256,87c26.9,0,53.8,1.4,81,4.2l7,0.7
		c32.3,3.2,65.8,6.4,93.4,21.8c18.6,10.3,30.6,30.1,35.9,58.4H41.1C43.4,156,47.4,140.4,57.3,128.4z M475.1,321.4
		c-2.4,28.4-6.1,55.2-24.6,71.7c-18.9,16.7-48.3,22.2-74.5,26c-47.5,6.9-86.7,10.1-122.8,9.9c-40.2-0.2-80.2-4.5-121-9.4
		c-36.8-4.4-59.4-15.9-73.5-37.4c-14.8-22.8-19-52-20.9-74.9c-1.1-12.7-1.5-25.7-1.8-36.9c-0.7-25.6,0.8-50.5,2.6-72.6h438.3
		C481.1,240.5,478.3,283.5,475.1,321.4z"/>
	<path class="st0" d="M207.1,336.6h-87.4c-8.2,0-14.9,5.8-14.9,12.9s6.7,12.9,14.9,12.9h87.4c8.2,0,14.9-5.8,14.9-12.9
		C222.1,342.3,215.4,336.6,207.1,336.6z"/>
	<path class="st0" d="M207.1,260.6h-87.4c-8.2,0-14.9,5.8-14.9,12.9s6.7,12.9,14.9,12.9h87.4c8.2,0,14.9-5.8,14.9-12.9
		C222.1,266.3,215.4,260.6,207.1,260.6z"/>
</g>
</svg>
