<?xml version="1.0" encoding="utf-8"?>
<!-- Generator: Adobe Illustrator 22.1.0, SVG Export Plug-In . SVG Version: 6.00 Build 0)  -->
<svg version="1.1" id="Layer_1" xmlns="http://www.w3.org/2000/svg" xmlns:xlink="http://www.w3.org/1999/xlink" x="0px" y="0px"
	 viewBox="0 0 512 512" style="enable-background:new 0 0 512 512;" xml:space="preserve">
<style type="text/css">
	.st0{fill:#2196F3;}
</style>
<g>
	<g>
		<path class="st0" d="M474.2,208.6l-34-5.8c-3.5-11.5-8.1-22.5-13.7-33l20.1-28.1c8.5-12,7.2-28.3-3.2-38.6l-30.2-30.2
			c-5.7-5.7-13.2-8.8-21.2-8.8c-6.3,0-12.3,1.9-17.3,5.6l-28.2,20.1c-10.9-5.8-22.4-10.5-34.2-14.1L306.5,42
			c-2.4-14.5-14.9-25-29.6-25h-42.7c-14.7,0-27.2,10.5-29.6,25l-5.9,34.5c-11.3,3.5-22.4,8.2-32.9,13.9L138,70.3
			c-5.1-3.6-11.1-5.6-17.4-5.6c-8,0-15.6,3.1-21.2,8.8l-30.3,30.2c-10.3,10.3-11.8,26.6-3.2,38.6l20.3,28.5
			c-5.6,10.6-10,21.7-13.5,33.1L39,209.6c-14.5,2.4-25,14.9-25,29.6v42.7c0,14.7,10.5,27.2,25,29.6l34.5,5.9
			c3.5,11.3,8.2,22.4,13.9,32.9l-20,27.8c-8.5,12-7.2,28.3,3.2,38.6l30.2,30.2c5.7,5.7,13.2,8.8,21.2,8.8c6.3,0,12.3-1.9,17.3-5.6
			l28.5-20.3c10.2,5.4,21,9.7,32,13.2l5.7,34c2.4,14.5,14.9,25,29.6,25h42.8c14.7,0,27.2-10.5,29.6-25l5.8-34
			c11.5-3.5,22.5-8.1,33-13.7l28.1,20.1c5.1,3.6,11.1,5.6,17.4,5.6l0,0c8,0,15.5-3.1,21.2-8.8l30.2-30.2
			c10.3-10.3,11.8-26.6,3.2-38.6l-20.1-28.2c5.6-10.6,10.2-21.7,13.7-33l34-5.7c14.5-2.4,25-14.9,25-29.6v-42.7
			C499.2,223.5,488.7,211,474.2,208.6z M471.8,280.8c0,1.3-0.9,2.4-2.2,2.6l-42.6,7.1c-5.4,0.9-9.6,4.9-10.9,10
			c-3.9,14.9-9.7,29.2-17.6,42.5c-2.7,4.7-2.5,10.4,0.6,14.9l25,35.3c0.7,1,0.6,2.5-0.3,3.4l-30.2,30.2c-0.7,0.7-1.4,0.8-1.9,0.8
			c-0.6,0-1.1-0.2-1.5-0.5l-35.2-25c-4.4-3.1-10.2-3.3-14.9-0.6c-13.3,7.9-27.6,13.8-42.5,17.6c-5.3,1.3-9.2,5.7-10,10.9l-7.2,42.6
			c-0.2,1.3-1.3,2.2-2.6,2.2h-42.7c-1.3,0-2.4-0.9-2.6-2.2l-7.1-42.6c-0.9-5.4-4.9-9.6-10-10.9c-14.5-3.7-28.5-9.5-41.5-17
			c-2.1-1.2-4.6-1.8-6.9-1.8c-2.7,0-5.6,0.8-7.9,2.5L123.6,428c-0.5,0.3-1,0.5-1.5,0.5c-0.4,0-1.2-0.1-1.9-0.8L90,397.5
			c-0.9-0.9-1-2.3-0.3-3.4l24.9-35c3.1-4.5,3.3-10.3,0.6-15c-7.9-13.2-14-27.5-17.8-42.4c-1.4-5.2-5.7-9.1-10.9-10l-42.9-7.3
			c-1.3-0.2-2.2-1.3-2.2-2.6v-42.7c0-1.3,0.9-2.4,2.2-2.6l42.3-7.1c5.4-0.9,9.7-4.9,11-10.1c3.7-14.9,9.5-29.3,17.3-42.6
			c2.7-4.7,2.4-10.4-0.7-14.8l-25.2-35.5c-0.7-1-0.6-2.5,0.3-3.4l30.2-30.2c0.7-0.7,1.4-0.8,1.9-0.8c0.6,0,1.1,0.2,1.5,0.5l35,24.9
			c4.5,3.1,10.3,3.3,15,0.6c13.2-7.9,27.5-14,42.4-17.8c5.2-1.4,9.1-5.7,10-10.9l7.3-42.9c0.2-1.3,1.3-2.2,2.6-2.2h42.7
			c1.3,0,2.4,0.9,2.6,2.2l7.1,42.3c0.9,5.4,4.9,9.7,10.1,11c15.3,3.9,29.9,9.8,43.5,17.8c4.7,2.7,10.4,2.5,14.9-0.6l35-25.1
			c0.5-0.3,1-0.5,1.5-0.5c0.4,0,1.2,0.1,1.9,0.8l30.2,30.2c0.9,0.9,1,2.3,0.3,3.4l-25,35.2c-3.1,4.4-3.3,10.2-0.6,14.9
			c7.9,13.3,13.8,27.6,17.6,42.5c1.3,5.3,5.7,9.2,10.9,10l42.6,7.2c1.3,0.2,2.2,1.3,2.2,2.6v42.7L471.8,280.8L471.8,280.8z"/>
		<path class="st0" d="M256.5,154.8c-57.8,0-104.7,46.9-104.7,104.7s46.9,104.7,104.7,104.7s104.7-46.9,104.7-104.7
			S314.3,154.8,256.5,154.8z M256.5,336.8c-42.7,0-77.3-34.7-77.3-77.3s34.7-77.3,77.3-77.3s77.3,34.7,77.3,77.3
			S299.2,336.8,256.5,336.8z"/>
	</g>
</g>
</svg>
