<?xml version="1.0" encoding="utf-8"?>
<!-- Generator: Adobe Illustrator 23.0.1, SVG Export Plug-In . SVG Version: 6.00 Build 0)  -->
<svg version="1.1" id="Layer_1" xmlns="http://www.w3.org/2000/svg" xmlns:xlink="http://www.w3.org/1999/xlink" x="0px" y="0px"
	 viewBox="0 0 512 512" style="enable-background:new 0 0 512 512;" xml:space="preserve">
<style type="text/css">
	.st0{fill:#2196F3;}
</style>
<g>
	<path class="st0" d="M215.5,130.9c-8.5,0-15.5,6.9-15.5,15.5v227.5c0,8.5,6.9,15.5,15.5,15.5s15.5-6.9,15.5-15.5V146.3
		C231,137.8,224,130.9,215.5,130.9z"/>
	<path class="st0" d="M127.3,226.3c-8.5,0-15.5,6.9-15.5,15.5v128c0,8.5,6.9,15.5,15.5,15.5s15.5-6.9,15.5-15.5v-128
		C142.7,233.2,135.8,226.3,127.3,226.3z"/>
	<path class="st0" d="M303.8,295c-8.5,0-15.5,6.9-15.5,15.5v59.2c0,8.5,6.9,15.5,15.5,15.5s15.5-6.9,15.5-15.5v-59.2
		C319.2,302,312.3,295,303.8,295z"/>
	<path class="st0" d="M499.8,151.9c-6.2-46.9-22.7-80-49.3-98.3c-32.8-22.7-70.8-27.3-104.3-31.3l-6.8-0.8
		c-69.8-9-138.1-6.8-209,6.8c-13.4,2.6-31,6.5-47.8,14c-19.9,8.9-35.4,21.5-46,37.4c-17.3,26-21,59.4-23.1,88.8
		C11.3,199.4,9.2,236,10,273.6c0.3,14.1,0.8,30.5,1.9,46.9c2.1,31.5,6.9,71.9,24.5,105.4c24.2,46,64.8,56.9,93.3,61.1
		c41.3,6.1,81.9,11.6,123.3,11.8c0.9,0,1.8,0,2.7,0c36.8,0,76.1-4,123.6-12.6c32.4-5.9,65.7-14.9,89-40.6
		c25.2-27.8,29.9-68.5,32.6-107.9C504.8,281.2,508.2,215.8,499.8,151.9z M470.2,335.4c-2.3,33.9-6.1,68.8-24.6,89.2
		c-18,19.9-46.5,26.4-71.7,31c-46.7,8.5-85.2,12.4-120.6,12.1c-39.4-0.2-78.8-5.5-119-11.4c-35.6-5.2-56.7-18.7-70.5-44.9
		c-14.9-28.4-19-64.6-21-93.1c-1.1-15.7-1.5-31.7-1.8-45.5c-0.8-36.4,1.2-72.1,3.4-102.2c1.8-25.4,4.9-54.2,18-73.9
		C69.7,85.6,80.5,77,95.2,70.4l0,0c13.9-6.2,29.2-9.6,41-11.9c40.6-7.7,80.2-11.6,119.9-11.6c26.4,0,52.9,1.7,79.5,5.1l7,0.9
		c31.4,3.8,63.9,7.7,90.5,26.1c19,13.2,31.2,39,36.2,76.9C477.2,217,473.9,280.6,470.2,335.4z"/>
	<path class="st0" d="M392,189.1c-8.5,0-15.5,6.9-15.5,15.5v169.2c0,8.5,6.9,15.5,15.5,15.5s15.5-6.9,15.5-15.5V204.6
		C407.5,196,400.5,189.1,392,189.1z"/>
</g>
</svg>
