<?xml version="1.0" encoding="utf-8"?>
<!-- Generator: Adobe Illustrator 23.0.1, SVG Export Plug-In . SVG Version: 6.00 Build 0)  -->
<svg version="1.1" id="Layer_1" xmlns="http://www.w3.org/2000/svg" xmlns:xlink="http://www.w3.org/1999/xlink" x="0px" y="0px"
	 viewBox="0 0 512 512" style="enable-background:new 0 0 512 512;" xml:space="preserve">
<style type="text/css">
	.st0{fill:#2196F3;}
</style>
<g>
	<path class="st0" d="M482.3,250.8L482.3,250.8c-2.5-29.5-6.9-60-30.2-80.6c-20.9-18.6-50.7-25.1-79.8-29.3c-20.3-3-39-5.2-56.5-6.7
		c-6.1-0.5-11.4,4.3-11.4,10.4v2.8c0,5.4,4.2,9.9,9.6,10.4c17,1.5,35.2,3.6,54.9,6.5c23.7,3.5,50.4,8.4,67.5,23.6
		c12.9,11.5,17.9,28.6,20.4,47.5h-0.4c0,0.4,0,0.7,0,1.1c1.7,7.3,2.3,15,2.4,22.5h0.3c2.6,31.8,4.6,67.2,1.4,102.4h-0.1
		c0.2,4.4-0.2,8.8-1.3,13.1c-0.1,1-0.1,2-0.3,3c-0.2,4.2-0.9,8.4-2.2,12.4c-5,24.7-15.8,42-32.2,51.1c-25,13.9-55.3,16.9-84.6,19.8
		l-6.5,0.6c-61.4,6.4-121.6,4.8-184.1-4.8c-11-1.7-25.4-4.3-38.5-9c-13.9-5-24.1-11.6-31-20c-11.8-14.3-14.4-34.3-16.2-53.6
		c-2-22.2-3.9-48.5-3.1-75.2c0.3-12.5,0.8-23,1.7-33.5c1.7-20.8,5.5-47.2,18.9-67.8c12.7-19.5,33.2-29.9,66.6-33.8
		c22.9-2.7,45.5-5.2,68.1-6.8c5.5-0.4,9.7-4.9,9.7-10.4v-2.7c0-6.1-5.1-10.9-11.2-10.5c-23.1,1.6-46.1,4.2-69.4,6.9
		c-25.4,3-61.7,10.9-83.6,44.4c-16.4,25-20.7,55.3-22.7,78.8c-0.9,11-1.4,21.9-1.7,34.8c-0.8,28,1.2,55.1,3.2,78
		c2,22,5.4,47.1,21.5,66.6c9.7,11.8,23.2,20.7,41.2,27.2c15,5.4,30.8,8.3,42.9,10.1c38.7,6,76.5,8.9,114.3,8.9
		c25.2,0,50.4-1.3,75.8-4l6.4-0.6c31.7-3.1,64.5-6.3,93.9-22.6c24.2-13.5,39.4-38.1,45.1-73.1C488.9,341,485.8,292.5,482.3,250.8z"
		/>
</g>
<path class="st0" d="M277.2,254l1.1-199.6l49.7,50.3c4.6,4.6,12.1,4.7,16.7,0.1s4.7-12.1,0.1-16.7L275,17.5c-0.5-0.6-1.1-1-1.8-1.5
	c-0.1-0.1-0.3-0.2-0.4-0.2c-0.5-0.3-1-0.6-1.6-0.9c-0.2-0.1-0.4-0.1-0.7-0.2c-0.5-0.2-1-0.4-1.5-0.5c-0.8-0.2-1.5-0.2-2.3-0.2
	s-1.6,0.1-2.3,0.2c-0.5,0.1-1,0.3-1.5,0.5c-0.2,0.1-0.5,0.1-0.7,0.2c-0.6,0.2-1.1,0.5-1.6,0.8c-0.1,0.1-0.3,0.1-0.5,0.2
	c-0.6,0.4-1.3,0.9-1.8,1.5l-70.5,69.8c-2.3,2.3-3.5,5.3-3.5,8.3s1.1,6.1,3.4,8.4c4.6,4.6,12.1,4.7,16.7,0.1l50.3-49.7l-1.1,199.6
	c0,6.5,5.2,11.8,11.8,11.9C271.8,265.8,277.2,260.5,277.2,254z"/>
<g>
	<g>
		<path class="st0" d="M357,164.6c16.3,51.5,58.8,92.9,110.9,107.4c14.9,4.2,21.3-19,6.4-23.1c-43.9-12.2-80.4-47.2-94.1-90.7
			c-2-6.2-8.3-10.1-14.8-8.4C359.3,151.5,355,158.4,357,164.6L357,164.6z"/>
	</g>
</g>
<g>
	<g>
		<path class="st0" d="M65.1,266.8c52.7-12.7,96.2-52.9,114.3-103.8c2.2-6.1-2.5-13.1-8.4-14.8c-6.6-1.8-12.6,2.3-14.8,8.4
			c-15.2,42.9-53.2,76.3-97.5,87C43.8,247.3,50.1,270.4,65.1,266.8L65.1,266.8z"/>
	</g>
</g>
<g>
	<g>
		<path class="st0" d="M164.1,457.7c-10.8-53.2-49.7-97.8-99.9-117.6c-6-2.4-13.2,2.6-14.8,8.4c-1.9,6.8,2.3,12.4,8.4,14.8
			c42.3,16.7,74.1,56.3,83.2,100.9c1.3,6.4,8.8,10,14.8,8.4C162.3,470.7,165.4,464.1,164.1,457.7L164.1,457.7z"/>
	</g>
</g>
<g>
	<g>
		<path class="st0" d="M455.3,347.4C403.9,364.6,363.7,408,350,460.3c-1.7,6.3,3,13,9.2,14.3c6.6,1.4,12.7-2.9,14.3-9.2
			c11.5-44.1,46.2-80.9,89.4-95.3C477.6,365.2,470,342.5,455.3,347.4L455.3,347.4z"/>
	</g>
</g>
</svg>
