<svg xmlns="http://www.w3.org/2000/svg" width="120" height="120" viewBox="0 0 120 120">
    <g fill="none" fill-rule="evenodd">
        <path fill="#F5F7FA" d="M56.03 118.402C27.317 127.21 0 98.13 0 67.45S14.218 34.932 56.03 7.3c41.813-27.633 67.345 29.714 63.609 63.346-3.736 33.631-34.894 38.946-63.608 47.756z"/>
        <path fill="#656D78" fill-rule="nonzero" d="M7.002 14.275l.023-2.603c.633-.405 1.142-.945 1.57-1.6a7.14 7.14 0 0 0 .2-.334c.342.535 1.038 1.62 1.358 2.066 1.718 2.399 3.628 3.823 6.238 4.012 2.558.07 4.502-.903 6.734-2.82.224-.193 1.435-1.278 1.73-1.52.446-.365.744-.545.9-.581.462-.126.668-.119.987.149a2.263 2.263 0 0 0-.27.732c-.135.717-.065 1.247.153 1.9-.98.644-1.625 1.68-1.625 2.67 0 .263.07.522.202.75.638 1.104 1.289 1.633 2.802 2.382.405.2.718.28 1.126.318.057.308.113.613.17.932l.206 1.168c.148.82.24 1.235.385 1.639.3.843.113.62 1.9 2.534.186.2.424.345.688.42.479.135.784.141 1.688.108.586-.022.87-.02 1.166.02.248.034.449.092.615.18a8.421 8.421 0 0 1 1.497 1.345c.105.116.204.229.369.418 1.336 1.54 2.121 2.257 3.834 3.261l.112.06c2.148 1.025 3.64.862 8.813-.335 2.703-.625 4.281-.882 6-.882 1.402 0 2.204-.136 2.809-.64.466-.388.688-.922.687-1.486 0-.272-.02-.369-.115-.763l.08-.067h.012c.706.016 1.223-.061 1.966-.39.826-.364 1.13-.514 1.45-.74.381-.27.64-.58.856-.989.051-.096.097-.192.157-.322l.141-.313a1.5 1.5 0 0 0 .136-.624c0-.21-.008-.381-.025-.63l-.013-.197c.303-.195.668-.313 1.605-.56.497-.068.794-.086 1.376-.102l.23-.006a9.264 9.264 0 0 0 1.93-.26l.192-.059c.97-.365 3.01-1.39 2.792-1.293.562-.25 1.027-.332 1.894-.282.518.03.627.098.927.537.137.2.765 1.238.779 1.261a1.5 1.5 0 0 0 .134.183c1.184 1.384 2.651 2.145 4.407 2.46.86.155 1.52.19 2.892.202 1.144.01 1.583.045 1.874.152l.114.037c.025.008.06.022.107.049.194.107 3.13 3.09 4.873 4.317a21 21 0 0 0 2.97 1.739c1.134.555 1.943.399 3.198-.2l.057-.027a7.332 7.332 0 0 0-.006.306c0 1.948.137 3.674.416 5.181l-.884 1.944a1.5 1.5 0 0 0-.07 1.057c.118.39.118.698.022.969-.086.242-.15.336-.32.505l-.11.108c-.613.596-.944 1.101-1.178 2.024a1.5 1.5 0 0 0-.043.276c-.03.49.1.94.352 1.315-.403.273-.714.629-.944 1.138-.508 1.33-.499 2.19-.082 3.747l.046.143c.327.863.86 1.485 1.546 1.843-.606.56-.92 1.189-.92 2.154 0 1.705.295 2.635 1.015 3.722l.137.206c.05.074.086.13.12.185.273.428.433.806.568 1.44.13.617.108 1.255-.072 1.933-.724 1.713-.541 3.255.851 4.146.791.506 1.387.549 3.015.483.267-.01.397-.016.545-.018.699-.014 1.106.044 1.324.17.147.083.159.115-.028.596-1.488 3.031-2.654 5.056-3.445 6.016.002-.002-.265.32-.34.414-.15.185-.266.345-.37.518-1.008 1.656-.386 2.973 2.338 6.185a102.985 102.985 0 0 0 4.427 4.625l.111.1c1.124.91 2.767 1.347 4.935 1.4-.007.299-.062.72-.169 1.355l-.016.133c-.01.118.008-.044-.058.567-.067.616-.095 1.026-.081 1.489.065 2.283 1.314 3.803 3.796 4.072-.017.462-.07.896-.156 1.301-1.19-.203-2.216-.237-3.093-.093a1.5 1.5 0 0 0-.468.16c-1.004.541-1.86 1.482-2.607 2.8h-.175a1.5 1.5 0 0 0-1.23.64c-.961 1.373-1.27 3.105-.978 5.126.137.95.067 1.583-.145 1.97-.348.026-.76 0-1.238-.086-.203-.036-.38-.103-.706-.26l-.257-.127c-1.138-.554-2.04-.782-3.477-.707l-.123.011c-.929.126-1.427.1-2.21-.054l-.332-.067c-1.051-.212-1.805-.292-2.976-.249-.832.03-1.501.142-2.41.358-1.018.243-.919.22-1.18.256a2.502 2.502 0 0 1-.472.025c-3.049-1.64-5.2-2.034-8.517-2.066-1.106-.01-1.522-.052-1.734-.173-.018-.105-.053-.295-.09-.535-.034-.226-.164-1.162-.183-1.288a29.68 29.68 0 0 0-.261-1.569c-.38-1.91-.923-3.3-1.885-4.236-2.173-2.006-4.684-1.928-7.41-.49-.237.12-.49.254-.745.394-.8.437-3.177 1.863-3.602 2.098-1.46.808-2.614 1.225-4.013 1.38-3.453-.27-5.434-1.276-8.3-3.758-.208-.18-.847-.743-1.246-1.094-.857-2.153-2.389-2.962-5.803-3.933l-.012-.003c-1.093-.31-1.692-.502-2.181-.72a15.111 15.111 0 0 1-.731-1.832 51.277 51.277 0 0 1-.151-.457c-.795-2.433-1.24-3.523-2.429-5.566-2.006-4.005-2.249-4.413-4.422-7.397l-.076-.097c-.492-.57-1.133-.76-1.876-.756-.374.002-.65.038-1.296.147l-.034.005c-.521.088-.76.112-.853.098l-.21-.015c-.575 0-.821-.1-1.18-.39-.047-.04-.293-.247-.371-.31-.454-.368-.868-.597-1.42-.703-.74-.141-1.482.109-1.885.784a9.84 9.84 0 0 0-.311-.407 7.583 7.583 0 0 0-1.407-1.368 8.418 8.418 0 0 1-.064-.748l-.007-.143c-.04-.734-.068-1.041-.158-1.42-.237-.99-.879-1.766-2.083-1.596l-.01.002a16.275 16.275 0 0 1-.029-.26 18.395 18.395 0 0 0-.075-.625c-.04-.26-.012-.346.244-.772l.027-.044c.544-.904.768-1.518.706-2.51-.065-1.065-.421-1.7-1.11-2.273-.254-.21-.175-.144-.209-.177a.509.509 0 0 1-.125-.193 1.962 1.962 0 0 1-.097-.354l-.016-.069c-.254-1.115-.753-1.877-2.024-2.788a17.51 17.51 0 0 0-2.978-2.095c-.455-.254-1.673-.862-1.834-.958-.168-.098-.19-.12-.17-.076l-.07-.135c.001.001-.015-.165-.002-.68.004-.2.006-.296.006-.42 0-.84-.114-1.486-.492-2.128-.71-1.206-1.187-1.718-2.093-2.43l-.133-.105a2.86 2.86 0 0 1-.58-.608 3.6 3.6 0 0 0 .355-.595c.16-.342.248-.707.248-1.102 0-.534-.1-.967-.289-1.415l.09-.063.614-.425c.434-.303.69-.493.93-.701.18-.155.34-.313.498-.489.298-.332.495-.601 1.143-1.533l.09-.148a2.574 2.574 0 0 0 .253-1.737c-.068-.358-.157-.593-.365-1.061a10.23 10.23 0 0 1-.101-.236c.076-.041.205-.098.418-.174a25.3 25.3 0 0 1 .315-.111c.923-.322 1.386-.567 1.812-1.199a1.5 1.5 0 0 0 .24-.624c.187-1.287-.69-2.001-1.783-2.17-.435-.067-.763-.064-1.656-.024l-.273.012a7.21 7.21 0 0 1-.891-.003c-.758-.118-2.417-2.152-2.493-3.367a1.5 1.5 0 1 0-2.995.189c.15 2.37 2.433 5.33 4.613 6.032a3.5 3.5 0 0 0-.146.29c-.262.583-.275 1.176-.115 1.772.073.27.143.446.313.828.056.128.094.216.118.28-.42.603-.57.803-.73.98-.073.081-.143.15-.227.223-.143.123-.33.263-.686.512-.12.084-.76.526-.604.419-.296.204-.546.38-.82.572a1.5 1.5 0 0 0-.398.417c-.381.597-.47 1.242-.283 1.877.046.157.102.297.176.453.03.064.12.244.13.265.08.17.102.245.102.359 0-.1.018-.138-.073-.007-.266.382-.392.6-.503.97-.159.53-.141 1.087.053 1.66a1.5 1.5 0 0 0 .139.3c.467.77.893 1.245 1.475 1.715.05.04.086.07.165.131.633.498.861.742 1.362 1.592.046.08.077.254.077.608 0 .09-.001.17-.006.346-.025 1.07.017 1.557.37 2.192.282.584.721.987 1.348 1.357.273.16 1.534.79 1.896.993a14.561 14.561 0 0 1 2.527 1.787l.12.094c.71.501.798.634.892 1.048l.014.06c.087.39.143.59.267.88A3.486 3.486 0 0 0 20 62.639l.152.126c.082.068.02-.043.032.15.015.24-.024.348-.282.776l-.027.045c-.583.969-.806 1.667-.64 2.766l.02.146.038.347c.107 1.019.205 1.463.628 2.026.409.547.966.848 1.63.935l.01.16.007.147c.031.569.062.904.131 1.255.137.695.387 1.233.964 1.614.383.252.718.568 1.03.959.156.194 1.331 2.12 1.864 2.474.546.364 1.22.425 1.824.129.587-.257 1.018-.645 1.296-1.123.684.428 1.433.654 2.424.668.467.053.867.008 1.657-.124l.036-.006c.294-.049.48-.077.614-.092 1.801 2.481 2.038 2.907 3.923 6.665 1.106 1.904 1.48 2.821 2.214 5.07.063.192.111.339.16.483.346 1.027.668 1.812 1.134 2.697a1.5 1.5 0 0 0 .615.62c.847.457 1.566.702 3.186 1.162l.011.004c2.69.764 3.534 1.24 3.926 2.402a1.5 1.5 0 0 0 .437.653c.219.19 1.255 1.104 1.544 1.354 3.348 2.9 5.909 4.185 10.178 4.492a1.5 1.5 0 0 0 .255-.003c1.908-.189 3.461-.74 5.295-1.754.49-.27 2.857-1.69 3.588-2.09.232-.127.461-.248.69-.365 1.738-.917 2.925-.954 3.963.005.378.368.737 1.286 1.006 2.643.083.42.156.861.235 1.413.016.109.148 1.062.186 1.312.127.83.226 1.263.46 1.669a1.5 1.5 0 0 0 .14.201c.963 1.173 1.857 1.363 4.16 1.386 2.96.029 4.68.357 7.36 1.836a1.5 1.5 0 0 0 .481.166c.53.087 1.04.086 1.583.012.244-.034.488-.08.774-.145.165-.037.828-.197.7-.166.731-.175 1.222-.256 1.821-.278.908-.033 1.435.023 2.272.191l.345.07c1.07.211 1.886.255 3.127.093.836-.038 1.25.07 1.949.41l.264.13c.55.267.957.42 1.483.514 1.078.194 2.05.194 2.915-.02a1.5 1.5 0 0 0 .637-.336c1.24-1.103 1.637-2.79 1.331-4.91-.137-.952-.085-1.722.138-2.338h.185a1.5 1.5 0 0 0 1.353-.852c.527-1.1 1.064-1.818 1.567-2.18.72-.06 1.724.055 2.986.367a1.5 1.5 0 0 0 1.732-.85c.672-1.52.907-3.283.724-5.272a1.5 1.5 0 0 0-1.61-1.358c-1.794.14-2.105-.149-2.135-1.18-.008-.291.012-.59.065-1.08l.036-.325.025-.262c.19-1.14.251-1.773.164-2.46-.17-1.349-1.044-2.325-2.497-2.325-1.727 0-2.884-.266-3.466-.7a99.826 99.826 0 0 1-4.211-4.4c-1.114-1.314-1.718-2.138-1.95-2.63a2.979 2.979 0 0 1-.045-.099c.036-.046.13-.159.42-.512.986-1.197 2.252-3.398 3.85-6.659l.051-.114c.71-1.816.316-3.453-1.255-4.351-.812-.464-1.673-.589-2.873-.565-.175.004-.32.009-.606.02-.611.025-.965.021-1.14.009.027-.128.085-.308.185-.534l.071-.197c.333-1.171.384-2.331.146-3.461-.212-1.001-.513-1.71-.97-2.43a13.083 13.083 0 0 0-.155-.238l-.134-.2c-.403-.608-.516-.967-.516-2.066 0-.05-.073.067.064-.042.098-.077.169-.132.233-.184.842-.69 1.307-1.532 1.385-2.876.087-.983-.622-1.603-1.41-1.704a2.207 2.207 0 0 0-.384-.014 7.285 7.285 0 0 0-.218.013c-.219.015-.313.01-.36-.006-.022-.008-.044-.028-.105-.18-.246-.932-.243-1.173-.026-1.744-.061.142-.075.152.095.087l.225-.082c.381-.139.606-.238.87-.42a2.2 2.2 0 0 0 .914-1.313 1.815 1.815 0 0 0-.521-1.767 2.146 2.146 0 0 0-.399-.305l.087-.086c.467-.465.78-.926 1.03-1.626.255-.72.307-1.48.165-2.256l.87-1.915a1.5 1.5 0 0 0 .103-.934c-.298-1.398-.45-3.083-.45-5.05 0-.115.005-.223.017-.427.042-.721.04-.968-.093-1.41-.226-.755-.788-1.289-1.58-1.535-.914-.284-1.6-.128-2.558.324l-.128.062c-.49.233-.529.24-.595.209a18.03 18.03 0 0 1-2.554-1.494c-1.392-.98-4.483-4.12-5.142-4.486a3.521 3.521 0 0 0-.687-.295c-.728-.262-1.338-.308-2.84-.321-1.204-.01-1.747-.04-2.387-.154-1.073-.193-1.896-.607-2.583-1.372a47.263 47.263 0 0 0-.792-1.275c-.802-1.172-1.737-1.75-3.229-1.836-1.34-.078-2.28.088-3.285.534.086-.039-1.703.86-2.542 1.193-.499.11-.818.147-1.257.162l-.208.006a13.63 13.63 0 0 0-1.8.143l-.172.034c-1.69.444-2.253.665-3.104 1.366a1.5 1.5 0 0 0-.222.227 2.78 2.78 0 0 0-.476.875c-.153.471-.156.715-.107 1.42l.008.122c-.026.058-.046.1-.062.131-.114.068-.357.183-.88.414-.287.127-.386.142-.689.135a3.183 3.183 0 0 0-.621.028c-.523.077-.98.308-1.418.703-.587.45-.963 1.003-1.098 1.646-.044.207-.062.391-.06.574-.104.002-.218.004-.34.004-2.01 0-3.766.286-6.677.96-4.29.992-5.564 1.139-6.79.575-1.339-.79-1.903-1.31-3.028-2.605a30.872 30.872 0 0 0-.406-.461 11.355 11.355 0 0 0-2.076-1.845l-.106-.066a4.727 4.727 0 0 0-1.757-.578c-.519-.07-.926-.073-1.678-.045-.195.007-.343.011-.456.013-.9-.964-.806-.866-.884-1.086-.112-.313-.791-4.092-.766-3.962a1.5 1.5 0 0 0-.174-.466c-.286-.494-.659-.856-1.14-1.067-.357-.157-.595-.19-1.038-.21-.202-.009-.224-.013-.264-.032-.53-.262-.841-.434-1.06-.61.059-.037.123-.07.194-.095a1.5 1.5 0 0 0 .722-.568c.54-.8.647-1.569.416-2.379-.034-.117-.016-.066-.124-.378a1.495 1.495 0 0 1-.07-.246c.084-.073.227-.198.293-.265.427-.43.683-.93.492-1.66a1.66 1.66 0 0 0-.485-.804l-.01-.01-.424-.449c-1.268-1.32-2.453-1.832-4.258-1.338-.658.152-1.294.536-2.066 1.169-.357.292-1.605 1.41-1.784 1.564-1.72 1.478-3.048 2.142-4.631 2.1-1.478-.108-2.697-1.017-3.947-2.762-.369-.516-1.445-2.214-1.508-2.307-.737-1.091-1.292-1.65-2.222-1.717-.9-.166-1.555.298-2.019 1.024-.119.186-.61 1.141-.762 1.376-.298.457-.617.74-1.061.901a1.5 1.5 0 0 0-.986 1.396L4 14.498a1.5 1.5 0 0 0 .077.488L5.5 19.255v2.757a1.5 1.5 0 1 0 3 0v-3a1.5 1.5 0 0 0-.077-.475l-1.42-4.262z"/>
        <path fill="#ED5565" fill-rule="nonzero" d="M99.796 89.403a2 2 0 1 1-.623.782l-38.59-30.697a5.031 5.031 0 0 1-.126.125l20.745 26.553a2 2 0 1 1-.788.616L59.669 60.229a4.996 4.996 0 0 1-.312.182l4.368 10.608a2 2 0 1 1-.925.38l-4.368-10.607a5 5 0 0 1-2.752.032l-7.518 19.548a2 2 0 1 1-.933-.359l7.518-19.548a5.014 5.014 0 0 1-2.529-2.999l-18.221 3.645a2 2 0 1 1-.196-.981l18.222-3.645a5.061 5.061 0 0 1 .033-1.236l-32.304-8.284a2 2 0 1 1 .248-.968l32.304 8.283c.097-.267.217-.522.356-.765L23.285 32.532a2 2 0 1 1 .582-.813l29.375 20.982c.24-.273.51-.52.804-.736l-6.495-11.042A2.001 2.001 0 1 1 47 37a2 2 0 0 1 1.413 3.416l6.495 11.041A4.981 4.981 0 0 1 57 51c.869 0 1.685.221 2.397.611l9.097-13.295a2 2 0 1 1 .825.565l-9.097 13.295a5.012 5.012 0 0 1 1.435 2L80 49.042V49a2 2 0 1 1 .27 1.004L61.926 55.14a5.032 5.032 0 0 1-.112 2.214l21.566 8.472a2 2 0 1 1-.366.93L61.45 58.286a4.995 4.995 0 0 1-.244.421l38.59 30.697z"/>
    </g>
</svg>
