<?xml version="1.0" encoding="UTF-8"?>
<svg width="156px" height="58px" viewBox="0 0 156 58" version="1.1" xmlns="http://www.w3.org/2000/svg" xmlns:xlink="http://www.w3.org/1999/xlink">
    <!-- Generator: Sketch 50.2 (55047) - http://www.bohemiancoding.com/sketch -->
    <title>google_play_button</title>
    <desc>Created with Sketch.</desc>
    <defs>
        <rect id="path-1" x="0" y="0" width="138" height="40" rx="10"></rect>
        <filter x="-11.6%" y="-27.5%" width="123.2%" height="180.0%" filterUnits="objectBoundingBox" id="filter-2">
            <feOffset dx="0" dy="5" in="SourceAlpha" result="shadowOffsetOuter1"></feOffset>
            <feGaussianBlur stdDeviation="4.5" in="shadowOffsetOuter1" result="shadowBlurOuter1"></feGaussianBlur>
            <feColorMatrix values="0 0 0 0 0.0784313725   0 0 0 0 0.0862745098   0 0 0 0 0.360784314  0 0 0 0.0574331975 0" type="matrix" in="shadowBlurOuter1"></feColorMatrix>
        </filter>
    </defs>
    <g id="CC-Homepage" stroke="none" stroke-width="1" fill="none" fill-rule="evenodd">
        <g id="CC-landing-page-" transform="translate(-1083.000000, -4747.000000)">
            <g id="footer" transform="translate(0.000000, 4562.000000)">
                <g id="buttons" transform="translate(934.000000, 189.000000)">
                    <g id="google_play_button" transform="translate(158.000000, 0.000000)">
                        <g id="Rectangle-1">
                            <use fill="black" fill-opacity="1" filter="url(#filter-2)" xlink:href="#path-1"></use>
                            <use fill="#FFFFFF" fill-rule="evenodd" xlink:href="#path-1"></use>
                        </g>
                        <path d="M91.3949402,23.9431151 L90.474392,24.8194444 C90.2616507,24.9374008 90.0500501,25.0743452 89.8390199,25.1715873 C89.1996553,25.4644643 88.549454,25.5381151 87.9716874,25.5381151 C87.3568479,25.5381151 86.392953,25.4978373 85.4096662,24.7803175 C84.0436731,23.809623 83.4465145,22.1409722 83.4465145,20.6869444 C83.4465145,17.6764683 85.8756438,16.2 87.8570466,16.2 C88.549454,16.2 89.2606829,16.3749206 89.8390199,16.74375 C90.8006334,17.3853175 91.0493068,18.2190675 91.187332,18.6655754 L86.6627295,20.5097222 L85.180955,20.6259524 C85.660621,23.0944048 87.3157826,24.5300198 89.1449015,24.5300198 C90.0586054,24.5300198 90.7367539,24.2290873 91.359008,23.9189484 C91.359008,23.9189484 91.4839151,23.8533532 91.3949402,23.9431151 L91.3949402,23.9431151 Z M88.6652354,19.033254 L85.161563,20.5672619 C85.1421711,20.2185714 85.1033871,19.869881 85.1033871,19.5424802 C85.1033871,17.4445833 86.5469481,16.8404167 87.3157826,16.8404167 C88.3538232,16.8404167 89.2236101,17.7363095 89.2236101,18.5119444 C89.2236101,18.782381 89.0325421,18.8986111 88.6652354,19.033254 Z M81.9345114,23.7929365 C81.9345114,24.5472817 82.0679737,24.6646627 82.7004941,24.7239286 C83.0301576,24.7630556 83.3586803,24.7803175 83.683781,24.8194444 L82.9719817,25.2469643 L79.5800983,25.2469643 C80.0249728,24.6646627 80.1014,24.6065476 80.1014,24.2187302 L80.1014,23.7854563 L80.0939854,12.2406944 L78.596241,12.2406944 L80.0380909,11.5398611 L82.7906097,11.5398611 C82.1940215,11.8885516 82.0155013,12.100873 81.9390742,12.7804167 L81.9345114,23.7929365 Z M76.6741548,17.1528571 C77.1161776,17.5193849 78.0384368,18.2973214 78.0384368,19.7726389 C78.0384368,21.2105556 77.2348108,21.888373 76.4243406,22.5299405 C76.1756671,22.7825397 75.8847876,23.0564286 75.8847876,23.4799206 C75.8847876,23.9097421 76.1756671,24.1427778 76.3849863,24.3165476 L77.0802454,24.857996 C77.9255071,25.5778175 78.6960526,26.2377976 78.6960526,27.5784722 C78.6960526,29.4047817 76.9439313,31.246627 73.6330378,31.246627 C70.8440165,31.246627 69.4957043,29.9065278 69.4957043,28.4697619 C69.4957043,27.7706548 69.8407673,26.7803968 70.9791899,26.102004 C72.1723663,25.3660714 73.7887439,25.2676786 74.6545383,25.2101389 C74.3841914,24.857996 74.075631,24.4891667 74.075631,23.8873016 C74.075631,23.5581746 74.1737315,23.3619643 74.26841,23.1306548 C74.0579501,23.1507937 73.8457791,23.1715079 73.6530002,23.1715079 C71.6117103,23.1715079 70.4578882,21.6351984 70.4578882,20.1213294 C70.4578882,19.2283135 70.8616974,18.2374802 71.6909892,17.5193849 C72.7883465,16.6079563 74.096734,16.450873 75.1364857,16.450873 L79.1027136,16.450873 L77.8696126,17.1528571 L76.6741548,17.1528571 Z M75.3104431,25.772877 C75.1524556,25.7521627 75.0577772,25.7521627 74.8672796,25.7521627 C74.6927519,25.7521627 73.6530002,25.7901389 72.8476631,26.062877 C72.4216102,26.2199603 71.1902202,26.6843056 71.1902202,28.0635317 C71.1902202,29.439881 72.5197107,30.4324405 74.5764001,30.4324405 C76.4243406,30.4324405 77.405346,29.5388492 77.405346,28.3356944 C77.405346,27.3454365 76.7705442,26.8229762 75.3104431,25.772877 L75.3104431,25.772877 Z M75.8636845,22.0834325 C75.5591166,22.3906944 75.0400962,22.6271825 74.5575784,22.6271825 C72.904128,22.6271825 72.152404,20.4705952 72.152404,19.1701984 C72.152404,18.6655754 72.2499342,18.1408135 72.5756052,17.7363095 C72.8824546,17.3456151 73.4231483,17.0930159 73.9222063,17.0930159 C75.5220437,17.0930159 76.3473431,19.2680159 76.3473431,20.664504 C76.3473431,21.0160714 76.3085591,21.6351984 75.8636845,22.0834325 Z M64.74125,25.4978373 C61.6818818,25.4978373 60.0449715,23.0944048 60.0449715,20.918254 C60.0449715,18.3755754 62.1028016,16.2 65.0298481,16.2 C67.8593644,16.2 69.6314481,18.4348413 69.6314481,20.7813095 C69.6314481,23.0731151 67.8798971,25.4978373 64.74125,25.4978373 Z M67.1481355,23.927004 C66.7049719,24.5472817 65.9367078,24.9149603 65.1838431,24.9149603 C62.8511034,24.9149603 61.9111633,21.7508532 61.9111633,19.8324802 C61.9111633,18.9947024 62.045196,18.1408135 62.79692,17.4612698 C63.2577644,17.0527381 63.897129,16.8024405 64.5319308,16.8024405 C66.918854,16.8024405 67.7264724,20.0637897 67.7264724,21.773869 C67.7264724,22.5299405 67.6135427,23.3055754 67.1481355,23.927004 Z M54.4982982,25.4978373 C51.4383597,25.4978373 49.8043011,23.0944048 49.8043011,20.918254 C49.8043011,18.3755754 51.8627016,16.2 54.7886074,16.2 C57.6164126,16.2 59.3867853,18.4348413 59.3867853,20.7813095 C59.3867853,23.0731151 57.6375157,25.4978373 54.4982982,25.4978373 Z M56.905754,23.927004 C56.4614498,24.5472817 55.6943264,24.9149603 54.9431728,24.9149603 C52.6144255,24.9149603 51.6704929,21.7508532 51.6704929,19.8324802 C51.6704929,18.9947024 51.8039553,18.1408135 52.55682,17.4612698 C53.0188051,17.0527381 53.6513255,16.8024405 54.2884087,16.8024405 C56.6730504,16.8024405 57.4829503,20.0637897 57.4829503,21.773869 C57.4829503,22.5299405 57.3677392,23.3055754 56.905754,23.927004 Z M48.5808961,24.8240476 L46.0006236,25.4201587 C44.9551683,25.5864484 44.0163689,25.7325992 43.0222454,25.7325992 C38.0453537,25.7325992 36.1489333,22.0368254 36.1489333,19.1443056 C36.1489333,15.6119444 38.8358616,12.3367857 43.4374616,12.3367857 C44.4110525,12.3367857 45.3475705,12.4812103 46.2008171,12.7159722 C47.5531218,13.0991865 48.1856421,13.5715873 48.5808961,13.8483532 L47.082011,15.2845437 L46.450061,15.4272421 L46.9006391,14.7028175 C46.2903624,14.1015278 45.16848,12.9915873 43.0393559,12.9915873 C40.1927291,12.9915873 38.0453537,15.1746429 38.0453537,18.3617659 C38.0453537,21.7848016 40.497297,25.0047222 44.4298741,25.0047222 C45.5854073,25.0047222 46.1802845,24.7705357 46.7204078,24.5518849 L46.7204078,21.6173611 L43.9958363,21.7652381 L45.4399676,20.9826984 L49.2636074,20.9826984 L48.7959188,21.4366865 C48.669871,21.5448611 48.6527604,21.5816865 48.6173986,21.7266865 C48.598577,21.8924008 48.5808961,22.4194643 48.5808961,22.6047421 L48.5808961,24.8240476 Z M96.9427542,24.0259722 L96.9427542,28.9715079 L95.9691633,28.9715079 L95.9691633,16.387004 L96.9427542,16.387004 L96.9427542,17.8203175 C97.5769856,16.8939286 98.7359409,16.1597222 100.081972,16.1597222 C102.496272,16.1597222 104.122345,18.0073214 104.122345,20.9320635 C104.122345,23.8372421 102.496272,25.7233929 100.081972,25.7233929 C98.8112274,25.7233929 97.6728048,25.0622619 96.9427542,24.0259722 Z M103.07632,20.9320635 C103.07632,23.1398611 101.937327,24.8355556 99.9177103,24.8355556 C98.6635062,24.8355556 97.4640559,23.8050198 96.9427542,22.9361706 L96.9427542,18.9078175 C97.4640559,18.0406944 98.6635062,17.0464087 99.9177103,17.0464087 C101.937327,17.0464087 103.07632,18.7277183 103.07632,20.9320635 Z M105.451836,12.9121825 L106.424856,12.9121825 L106.424856,25.4966865 L105.451836,25.4966865 L105.451836,12.9121825 Z M117.349379,28.1578968 C117.557557,28.2516865 117.912887,28.3092262 118.138176,28.3092262 C118.733623,28.3092262 119.148269,28.0635317 119.520709,27.1958333 L120.230797,25.5726389 L116.39575,16.387004 L117.4817,16.387004 L120.771491,24.3470437 L124.029342,16.387004 L125.130691,16.387004 L120.453234,27.5002183 C119.967865,28.6452579 119.204164,29.1959127 118.155286,29.1959127 C117.840452,29.1959127 117.425236,29.1395238 117.182266,29.0641468 L117.349379,28.1578968 Z M114.505604,25.4696429 C114.440584,25.15375 114.391533,24.8752579 114.355601,24.6427976 C114.325943,24.4109127 114.308832,24.1738492 114.308832,23.9327579 C113.975176,24.4270238 113.502354,24.8384325 112.898352,25.162381 C112.293779,25.488631 111.719434,25.6485913 110.931778,25.6485913 C109.983283,25.6485913 109.246958,25.413254 108.721664,24.9356746 C108.198081,24.4586706 107.934578,23.8125 107.934578,22.9948611 C107.934578,22.178373 108.316144,21.5155159 109.076993,21.0085913 C109.837843,20.4993651 110.82113,20.2461905 112.038261,20.2461905 L114.308832,20.2461905 L114.308832,19.1143849 C114.308832,18.4624603 114.088676,17.9497817 113.648935,17.5780754 C113.207482,17.2057937 112.58808,17.0176389 111.785025,17.0176389 C111.050982,17.0176389 110.455534,17.1896825 110.002104,17.5245635 C109.552667,17.8663492 109.326237,18.2898413 109.326237,18.8002183 L108.329832,18.8002183 L108.309299,18.7513095 C108.273367,18.0631349 108.58535,17.4595437 109.248669,16.9382341 C109.909137,16.4175 110.774361,16.1556944 111.839208,16.1556944 C112.900633,16.1556944 113.759583,16.4134722 114.406933,16.927877 C115.053712,17.4371032 115.378242,18.1730357 115.378242,19.1350992 L115.378242,23.6289484 C115.378242,23.951746 115.393642,24.2636111 115.433566,24.5674206 C115.474632,24.8718056 115.540222,25.1756151 115.627486,25.4696429 L114.505604,25.4696429 Z M111.050982,24.7538492 C111.877992,24.7538492 112.472299,24.5674206 113.079724,24.1985913 C113.683156,23.8320635 114.09381,23.3539087 114.308832,22.7750595 L114.308832,21.0258532 L112.027424,21.0258532 C111.155926,21.0258532 110.434431,21.2203373 109.866931,21.6127579 C109.29829,22.0040278 109.010262,22.4775794 109.010262,23.0282341 C109.010262,23.5478175 109.192775,23.963254 109.555519,24.277996 C109.919403,24.5961905 110.41675,24.7538492 111.050982,24.7538492 L111.050982,24.7538492 Z" id="Fill-1" fill="#38526D"></path>
                        <path d="M12.5521791,28.9320598 C12.2388372,28.8479029 12.0348837,28.5377119 12.0348837,28.0577052 L12.0348837,12.213392 C12.0348837,11.7688327 12.2075741,11.4690098 12.4813218,11.36 L12.4813218,11.36 L20.2901778,20.1898107 L12.5521791,28.9320598 L12.5521791,28.9320598 Z M13.6271243,28.5957358 L23.0265225,23.2839137 L20.7371655,20.6952389 L13.6271243,28.5957358 L13.6271243,28.5957358 Z M23.0912476,17.0252134 L13.8228401,11.7861998 L20.7507181,19.6695007 L23.0912476,17.0252134 L23.0912476,17.0252134 Z M23.7201015,17.3806762 L27.3509533,19.4330332 C28.0384116,19.8216224 28.0446984,20.448024 27.3509533,20.8400757 L23.6282445,22.9438664 L21.2000916,20.1808472 L23.7201015,17.3806762 L23.7201015,17.3806762 Z" id="google-play" fill="#38526D"></path>
                    </g>
                </g>
            </g>
        </g>
    </g>
</svg>