<svg xmlns="http://www.w3.org/2000/svg" width="120" height="120" viewBox="0 0 120 120">
    <g fill="none" fill-rule="evenodd">
        <path fill="#F5F7FA" d="M56.03 118.402C27.317 127.21 0 98.13 0 67.45S14.218 34.932 56.03 7.3c41.813-27.633 67.345 29.714 63.609 63.346-3.736 33.631-34.894 38.946-63.608 47.756z"/>
        <path fill="#656D78" fill-rule="nonzero" d="M53.333 23v12.722a1.5 1.5 0 0 1-2.17 1.342l-6.206-3.103a4.5 4.5 0 0 0-4.025 0l-6.206 3.103a1.5 1.5 0 0 1-2.17-1.342V23h-11.39a2.5 2.5 0 0 0-2.5 2.5V52h4.723a1.5 1.5 0 0 1 0 3h-4.722v2.333h8.277a1.5 1.5 0 1 1 0 3h-8.277v2.111H29.61a1.5 1.5 0 0 1 0 3H18.667v2.723a2.5 2.5 0 0 0 2.5 2.5h42.666a2.5 2.5 0 0 0 2.5-2.5V25.5a2.5 2.5 0 0 0-2.5-2.5h-10.5zm-32.166-3h42.666a5.5 5.5 0 0 1 5.5 5.5v42.667a5.5 5.5 0 0 1-5.5 5.5H21.167a5.5 5.5 0 0 1-5.5-5.5V25.5a5.5 5.5 0 0 1 5.5-5.5z"/>
        <path fill="#ED5565" fill-rule="nonzero" d="M35.556 23v10.295l4.034-2.017a7.5 7.5 0 0 1 6.709 0l4.034 2.017V23H35.556z"/>
        <path fill="#656D78" fill-rule="nonzero" d="M97.114 89.667a4.882 4.882 0 0 0-1.666-3H106.5a2.5 2.5 0 0 0 2.5-2.5V62.556H87.389a1.5 1.5 0 0 1-1.5-1.5V41.735a1.5 1.5 0 0 1 1.578-1.498l1.308.069-1.392-2.53a4.5 4.5 0 0 0-3.943-2.332h-6.996v51.223h12.664a4.882 4.882 0 0 0-1.666 3H74.944a1.5 1.5 0 0 1-1.5-1.5V33.944a1.5 1.5 0 0 1 1.5-1.5h8.496a7.5 7.5 0 0 1 6.571 3.885l2.692 4.892a1.5 1.5 0 0 1-1.393 2.221l-2.421-.126v16.24H110.5a1.5 1.5 0 0 1 1.5 1.5v23.11a5.5 5.5 0 0 1-5.5 5.5h-9.386z"/>
        <path fill="#656D78" fill-rule="nonzero" d="M103.667 68.611a1.5 1.5 0 0 1 1.5-1.5h5.333a1.5 1.5 0 0 1 1.5 1.5v8a1.5 1.5 0 0 1-1.5 1.5h-5.333a1.5 1.5 0 0 1-1.5-1.5v-8zm3 6.5H109v-5h-2.333v5zM106 80.167a1.5 1.5 0 0 1 1.5-1.5h5.333a1.5 1.5 0 0 1 1.5 1.5v8a1.5 1.5 0 0 1-1.5 1.5H107.5a1.5 1.5 0 0 1-1.5-1.5v-8zM5 80.167a1.5 1.5 0 0 1 1.5-1.5h5.333a1.5 1.5 0 0 1 1.5 1.5v8a1.5 1.5 0 0 1-1.5 1.5H6.5a1.5 1.5 0 0 1-1.5-1.5v-8zM85.889 41.944a1.5 1.5 0 0 1 1.5-1.5h1.559a11.5 11.5 0 0 1 8.575 3.838l14.096 15.774c.863.967.177 2.5-1.119 2.5H87.389a1.5 1.5 0 0 1-1.5-1.5V41.944zm3 17.612h18.259L95.286 46.28a8.5 8.5 0 0 0-6.338-2.837h-.06v16.112zM74.944 78.111H87.39a1.5 1.5 0 0 0 0-3H74.944a1.5 1.5 0 0 0 0 3z"/>
        <path fill="#656D78" fill-rule="nonzero" d="M32.225 89.667a4.882 4.882 0 0 0-1.666-3h42.885V78.11H12.056a.5.5 0 0 0-.5.5v7.556a.5.5 0 0 0 .5.5h12.163a4.882 4.882 0 0 0-1.666 3H12.056a3.5 3.5 0 0 1-3.5-3.5V78.61a3.5 3.5 0 0 1 3.5-3.5h62.888a1.5 1.5 0 0 1 1.5 1.5v11.556a1.5 1.5 0 0 1-1.5 1.5h-42.72z"/>
        <path fill="#656D78" d="M27.389 101.5c-6.137 0-11.111-4.975-11.111-11.111 0-6.137 4.974-11.111 11.11-11.111 6.137 0 11.112 4.974 11.112 11.11 0 6.137-4.975 11.112-11.111 11.112zm0-6.222a4.889 4.889 0 1 0 0-9.778 4.889 4.889 0 0 0 0 9.778zM92.278 101.5c-6.137 0-11.111-4.975-11.111-11.111 0-6.137 4.974-11.111 11.11-11.111 6.137 0 11.112 4.974 11.112 11.11 0 6.137-4.975 11.112-11.111 11.112zm0-6.222a4.889 4.889 0 1 0 0-9.778 4.889 4.889 0 0 0 0 9.778z"/>
    </g>
</svg>
