<svg xmlns="http://www.w3.org/2000/svg" width="120" height="120" viewBox="0 0 120 120">
    <g fill="none" fill-rule="evenodd">
        <path fill="#F5F7FA" d="M56.03 118.402C27.317 127.21 0 98.13 0 67.45S14.218 34.932 56.03 7.3c41.813-27.633 67.345 29.714 63.609 63.346-3.736 33.631-34.894 38.946-63.608 47.756z"/>
        <path fill="#656D78" fill-rule="nonzero" d="M54.442 83.888a5.907 5.907 0 0 1-5.717 4.37c-3.261 0-5.911-2.625-5.911-5.87a5.867 5.867 0 0 1 3.459-5.341l-6.03-34.636a2.5 2.5 0 0 0-1.354-1.812l-4.555-2.255a1.5 1.5 0 1 1 1.332-2.688l4.554 2.255a5.5 5.5 0 0 1 2.978 3.985l.873 5.012H75.07a9.5 9.5 0 0 1 9.329 11.294l-1.825 9.486a9.5 9.5 0 0 1-9.329 7.705H49.03l.2 1.147a5.905 5.905 0 0 1 5.212 4.348H69.97a5.907 5.907 0 0 1 5.717-4.369c3.262 0 5.912 2.625 5.912 5.87 0 3.244-2.65 5.868-5.912 5.868a5.907 5.907 0 0 1-5.717-4.369H54.442zm-9.817-33.98l3.893 22.485h24.727a6.5 6.5 0 0 0 6.383-5.272l1.825-9.486a6.5 6.5 0 0 0-6.383-7.727H44.625zm4.1 35.35c1.612 0 2.912-1.288 2.912-2.87 0-1.58-1.3-2.869-2.912-2.869-1.61 0-2.911 1.288-2.911 2.87 0 1.58 1.3 2.868 2.911 2.868zm26.961 0c1.612 0 2.912-1.288 2.912-2.87 0-1.58-1.3-2.869-2.912-2.869-1.611 0-2.911 1.288-2.911 2.87 0 1.58 1.3 2.868 2.911 2.868z"/>
        <path fill="#ED5565" fill-rule="nonzero" d="M59 9.5a1.5 1.5 0 0 1 3 0v8a1.5 1.5 0 0 1-3 0v-8zm0 96a1.5 1.5 0 0 1 3 0v8a1.5 1.5 0 0 1-3 0v-8zM8.5 63a1.5 1.5 0 0 1 0-3h8a1.5 1.5 0 0 1 0 3h-8zm96 0a1.5 1.5 0 0 1 0-3h8a1.5 1.5 0 0 1 0 3h-8z"/>
        <path fill="#656D78" fill-rule="nonzero" d="M84.634 17.699a1 1 0 0 1 1.732 1l-3 5.196a1 1 0 1 1-1.732-1l3-5.196zm-47 81.406a1 1 0 1 1 1.732 1l-3 5.196a1 1 0 1 1-1.732-1l3-5.196zm65.667-63.471a1 1 0 0 1 1 1.732l-5.196 3a1 1 0 1 1-1-1.732l5.196-3zm-81.406 47a1 1 0 1 1 1 1.732l-5.196 3a1 1 0 0 1-1-1.732l5.196-3zm14.471-64.935l3 5.196a1 1 0 1 1-1.732 1l-3-5.196a1 1 0 0 1 1.732-1zm47 81.406l3 5.196a1 1 0 0 1-1.732 1l-3-5.196a1 1 0 0 1 1.732-1zM17.699 35.634l5.196 3a1 1 0 1 1-1 1.732l-5.196-3a1 1 0 0 1 1-1.732zm81.406 47l5.196 3a1 1 0 1 1-1 1.732l-5.196-3a1 1 0 1 1 1-1.732z"/>
    </g>
</svg>
