<?xml version="1.0" encoding="UTF-8"?>
<svg width="156px" height="58px" viewBox="0 0 156 58" version="1.1" xmlns="http://www.w3.org/2000/svg" xmlns:xlink="http://www.w3.org/1999/xlink">
    <!-- Generator: Sketch 50.2 (55047) - http://www.bohemiancoding.com/sketch -->
    <title>app_store_button</title>
    <desc>Created with Sketch.</desc>
    <defs>
        <rect id="path-1" x="0" y="0" width="138" height="40" rx="10"></rect>
        <filter x="-11.6%" y="-27.5%" width="123.2%" height="180.0%" filterUnits="objectBoundingBox" id="filter-2">
            <feOffset dx="0" dy="5" in="SourceAlpha" result="shadowOffsetOuter1"></feOffset>
            <feGaussianBlur stdDeviation="4.5" in="shadowOffsetOuter1" result="shadowBlurOuter1"></feGaussianBlur>
            <feColorMatrix values="0 0 0 0 0.0784313725   0 0 0 0 0.0862745098   0 0 0 0 0.360784314  0 0 0 0.0574331975 0" type="matrix" in="shadowBlurOuter1"></feColorMatrix>
        </filter>
    </defs>
    <g id="CC-Homepage" stroke="none" stroke-width="1" fill="none" fill-rule="evenodd">
        <g id="CC-landing-page-" transform="translate(-925.000000, -4747.000000)">
            <g id="footer" transform="translate(0.000000, 4562.000000)">
                <g id="buttons" transform="translate(934.000000, 189.000000)">
                    <g id="app_store_button">
                        <g id="Rectangle-1">
                            <use fill="black" fill-opacity="1" filter="url(#filter-2)" xlink:href="#path-1"></use>
                            <use fill="#FFFFFF" fill-rule="evenodd" xlink:href="#path-1"></use>
                        </g>
                        <path d="M31.192085,12.9990476 C33.7938206,12.9990476 35.4575229,15.5090667 35.4575229,15.5090667 C35.4575229,15.5090667 32.9196066,16.8822857 32.9196066,19.8645905 C32.9196066,23.4042476 36.1078193,24.4338857 36.1078193,24.4338857 C36.1078193,24.4338857 33.5913595,30.3874476 30.7657063,30.3874476 C29.1768266,30.3874476 29.0706445,29.476019 26.959107,29.476019 C25.1254033,29.476019 24.5070166,30.3874476 23.1101449,30.3874476 C20.4440399,30.3874476 17,24.5841333 17,19.8645905 C17,14.9622095 20.4869528,12.9990476 22.6727628,12.9990476 C24.5922924,12.9990476 25.3916837,14.1253524 26.9376505,14.1253524 C28.2387934,14.1253524 29.2626525,12.9990476 31.192085,12.9990476 L31.192085,12.9990476 Z M30.7448,8 C31.1282658,10.4028571 28.9424558,13.3746667 26.3302671,13.278 C25.9462512,10.2205714 28.7614512,8.16129524 30.7448,8 Z M50.4675002,14.2513352 L52.2424211,14.2513352 L56.9586393,26.2858129 L55.1837184,26.2858129 L53.8652058,22.6619856 L48.7601954,22.6619856 L47.4078748,26.2858129 L45.768186,26.2858129 L50.4675002,14.2513352 Z M49.2673157,21.3135847 L53.3580856,21.3135847 L51.3465087,15.7008661 L51.3127006,15.7008661 L49.2673157,21.3135847 Z M57.9559757,17.5717723 L59.3928164,17.5717723 L59.3928164,18.7516231 L59.4266244,18.7516231 C59.6632817,18.2684437 60.0351662,17.9173011 60.542289,17.6981849 C61.0494117,17.4790687 61.6072384,17.3695122 62.2157857,17.3695122 C62.8919494,17.3695122 63.4807665,17.4931144 63.9822546,17.7403224 C64.4837426,17.9875305 64.900704,18.3218182 65.2331511,18.7431956 C65.5655983,19.1645729 65.8163386,19.6505542 65.9853795,20.201154 C66.1544204,20.7517538 66.2389396,21.336055 66.2389396,21.9540751 C66.2389396,22.5720953 66.1572377,23.1563965 65.9938315,23.7069962 C65.8304253,24.257596 65.5825023,24.737959 65.2500552,25.1480996 C64.917608,25.5582403 64.5006466,25.8812914 63.9991586,26.1172628 C63.4976705,26.3532341 62.9144881,26.471218 62.2495937,26.471218 C62.0354752,26.471218 61.7960042,26.4487449 61.5311734,26.403798 C61.2663426,26.358851 61.0043331,26.2858134 60.745137,26.1846828 C60.485941,26.0835522 60.2408353,25.9459044 60.0098127,25.771735 C59.7787901,25.5975657 59.584396,25.3812619 59.4266244,25.1228171 L59.3928164,25.1228171 L59.3928164,29.60625 L57.9559757,29.60625 L57.9559757,17.5717723 Z M64.7175789,21.852945 C64.7175789,21.4484228 64.6640501,21.052334 64.5569908,20.6646668 C64.4499316,20.2769996 64.2865278,19.9314753 64.0667746,19.6280836 C63.8470214,19.3246919 63.5652907,19.0831058 63.2215742,18.9033182 C62.8778577,18.7235305 62.4749828,18.633638 62.0129376,18.633638 C61.5283537,18.633638 61.1170269,18.7291488 60.7789451,18.9201732 C60.4408632,19.1111976 60.1647672,19.3612111 59.9506487,19.6702211 C59.7365302,19.9792312 59.5815783,20.3303738 59.4857885,20.7236593 C59.3899986,21.1169449 59.3421044,21.5158428 59.3421044,21.9203651 C59.3421044,22.3473608 59.3928159,22.7603045 59.4942405,23.1592084 C59.595665,23.5581123 59.7562515,23.9092548 59.9760047,24.2126466 C60.1957579,24.5160383 60.4803058,24.7604335 60.8296571,24.9458395 C61.1790083,25.1312456 61.6016043,25.2239472 62.0974577,25.2239472 C62.5933111,25.2239472 63.0074551,25.1284364 63.3399023,24.937412 C63.6723494,24.7463876 63.9399935,24.493565 64.1428426,24.1789365 C64.3456917,23.8643081 64.4921917,23.5047381 64.5823468,23.1002158 C64.672502,22.6956936 64.7175789,22.2799408 64.7175789,21.852945 Z M67.9800524,17.5717723 L69.4168931,17.5717723 L69.4168931,18.7516231 L69.4507011,18.7516231 C69.6873584,18.2684437 70.0592429,17.9173011 70.5663656,17.6981849 C71.0734884,17.4790687 71.6313151,17.3695122 72.2398624,17.3695122 C72.9160261,17.3695122 73.5048432,17.4931144 74.0063312,17.7403224 C74.5078193,17.9875305 74.9247807,18.3218182 75.2572278,18.7431956 C75.589675,19.1645729 75.8404153,19.6505542 76.0094562,20.201154 C76.1784971,20.7517538 76.2630163,21.336055 76.2630163,21.9540751 C76.2630163,22.5720953 76.1813144,23.1563965 76.0179082,23.7069962 C75.854502,24.257596 75.606579,24.737959 75.2741318,25.1480996 C74.9416847,25.5582403 74.5247233,25.8812914 74.0232353,26.1172628 C73.5217472,26.3532341 72.9385647,26.471218 72.2736704,26.471218 C72.0595519,26.471218 71.8200809,26.4487449 71.5552501,26.403798 C71.2904193,26.358851 71.0284098,26.2858134 70.7692137,26.1846828 C70.5100176,26.0835522 70.264912,25.9459044 70.0338894,25.771735 C69.8028668,25.5975657 69.6084726,25.3812619 69.4507011,25.1228171 L69.4168931,25.1228171 L69.4168931,29.60625 L67.9800524,29.60625 L67.9800524,17.5717723 Z M74.7416556,21.852945 C74.7416556,21.4484228 74.6881268,21.052334 74.5810675,20.6646668 C74.4740083,20.2769996 74.3106045,19.9314753 74.0908513,19.6280836 C73.8710981,19.3246919 73.5893674,19.0831058 73.2456509,18.9033182 C72.9019343,18.7235305 72.4990595,18.633638 72.0370143,18.633638 C71.5524303,18.633638 71.1411036,18.7291488 70.8030217,18.9201732 C70.4649399,19.1111976 70.1888439,19.3612111 69.9747254,19.6702211 C69.7606069,19.9792312 69.605655,20.3303738 69.5098651,20.7236593 C69.4140753,21.1169449 69.3661811,21.5158428 69.3661811,21.9203651 C69.3661811,22.3473608 69.4168926,22.7603045 69.5183171,23.1592084 C69.6197417,23.5581123 69.7803282,23.9092548 70.0000814,24.2126466 C70.2198346,24.5160383 70.5043825,24.7604335 70.8537338,24.9458395 C71.203085,25.1312456 71.625681,25.2239472 72.1215344,25.2239472 C72.6173877,25.2239472 73.0315318,25.1284364 73.3639789,24.937412 C73.6964261,24.7463876 73.9640702,24.493565 74.1669193,24.1789365 C74.3697684,23.8643081 74.5162684,23.5047381 74.6064235,23.1002158 C74.6965787,22.6956936 74.7416556,22.2799408 74.7416556,21.852945 Z M89.8707427,17.7740324 C89.7805875,16.9088042 89.4678665,16.2823659 88.9325702,15.8946987 C88.397274,15.5070315 87.7126685,15.3132009 86.8787333,15.3132009 C86.5406514,15.3132009 86.2082092,15.3469105 85.8813968,15.4143309 C85.5545843,15.4817513 85.2644018,15.5941169 85.0108404,15.7514311 C84.757279,15.9087454 84.5544329,16.1194309 84.4022961,16.383494 C84.2501593,16.6475572 84.174092,16.9762266 84.174092,17.3695122 C84.174092,17.7403243 84.2839669,18.0409023 84.5037201,18.2712553 C84.7234734,18.5016082 85.0164732,18.6898206 85.3827286,18.8358981 C85.7489839,18.9819756 86.1631279,19.1027686 86.6251731,19.1982808 C87.0872183,19.2937931 87.5577085,19.3977312 88.0366578,19.5100985 C88.5156071,19.6224658 88.9860973,19.7544954 89.4481425,19.9061913 C89.9101877,20.0578872 90.3243317,20.2629544 90.690587,20.5213992 C91.0568424,20.779844 91.3498423,21.1057043 91.5695955,21.4989898 C91.7893487,21.8922754 91.8992236,22.3866841 91.8992236,22.9822308 C91.8992236,23.6227244 91.755541,24.1705067 91.4681714,24.6255943 C91.1808018,25.0806819 90.8117347,25.4514884 90.3609589,25.738025 C89.9101831,26.0245616 89.4058852,26.232438 88.8480502,26.3616604 C88.2902151,26.4908828 87.7352058,26.555493 87.1830054,26.555493 C86.5068417,26.555493 85.8673131,26.4712188 85.2644005,26.3026679 C84.6614879,26.1341169 84.1318343,25.8784852 83.6754238,25.5357649 C83.2190133,25.1930446 82.858398,24.7548187 82.5935673,24.2210741 C82.3287365,23.6873294 82.1963231,23.0552728 82.1963231,22.3248853 L83.7176838,22.3248853 C83.7176838,22.8305382 83.8162895,23.265955 84.0135039,23.6311487 C84.2107183,23.9963424 84.4699105,24.2969204 84.7910883,24.5328918 C85.112266,24.7688631 85.4869678,24.9430298 85.9152048,25.0553971 C86.3434418,25.1677644 86.7829416,25.2239472 87.2337174,25.2239472 C87.5943381,25.2239472 87.9577706,25.1902375 88.3240259,25.1228171 C88.6902813,25.0553968 89.0199061,24.940222 89.3129104,24.7772894 C89.6059147,24.6143568 89.8425684,24.3924347 90.0228787,24.1115165 C90.203189,23.8305982 90.2933429,23.4710283 90.2933429,23.0327958 C90.2933429,22.6170368 90.1834679,22.2799399 89.9637147,22.0214952 C89.7439615,21.7630504 89.4509616,21.5523648 89.0847063,21.3894322 C88.718451,21.2264997 88.3043069,21.0944701 87.8422617,20.9933395 C87.3802165,20.8922089 86.9097263,20.7882707 86.4307771,20.6815218 C85.9518278,20.5747729 85.4813376,20.4511707 85.0192924,20.3107116 C84.5572472,20.1702524 84.1431031,19.9848492 83.7768478,19.7544962 C83.4105925,19.5241432 83.1175926,19.2263744 82.8978394,18.8611806 C82.6780862,18.4959869 82.5682112,18.038097 82.5682112,17.4874973 C82.5682112,16.8807138 82.6921727,16.3554046 82.9400994,15.9115537 C83.1880261,15.4677029 83.517651,15.1025147 83.9289839,14.815978 C84.3403168,14.5294414 84.8079897,14.3159468 85.3320165,14.1754876 C85.8560434,14.0350285 86.3941489,13.9648 86.9463493,13.9648 C87.566166,13.9648 88.1408965,14.0378376 88.6705581,14.1839151 C89.2002197,14.3299926 89.6650752,14.5603421 90.0651387,14.8749706 C90.4652023,15.189599 90.7807406,15.5856878 91.0117632,16.0632488 C91.2427858,16.5408099 91.3695646,17.1110654 91.3921034,17.7740324 L89.8707427,17.7740324 Z M95.6012013,17.5717723 L97.3423142,17.5717723 L97.3423142,18.8358981 L95.6012013,18.8358981 L95.6012013,24.2463566 C95.6012013,24.4149075 95.6152879,24.5497463 95.6434614,24.6508768 C95.6716348,24.7520074 95.7251637,24.8306633 95.8040494,24.886847 C95.8829352,24.9430306 95.9928101,24.9795495 96.1336776,24.9964046 C96.274545,25.0132596 96.4576699,25.0216871 96.6830578,25.0216871 L97.3423142,25.0216871 L97.3423142,26.2858129 L96.2435536,26.2858129 C95.8716636,26.2858129 95.553308,26.2605306 95.2884772,26.2099653 C95.0236464,26.1594 94.8095311,26.0666984 94.6461249,25.9318577 C94.4827187,25.7970169 94.3615745,25.6059953 94.2826887,25.3587873 C94.203803,25.1115792 94.1643607,24.7857189 94.1643607,24.3811967 L94.1643607,18.8358981 L92.676808,18.8358981 L92.676808,17.5717723 L94.1643607,17.5717723 L94.1643607,14.9592456 L95.6012013,14.9592456 L95.6012013,17.5717723 Z M98.4579787,21.9372201 C98.4579787,21.2967265 98.5481325,20.6983796 98.7284428,20.1421614 C98.9087531,19.5859433 99.1792145,19.1027712 99.5398352,18.6926305 C99.9004558,18.2824899 100.34559,17.9594387 100.875252,17.7234674 C101.404913,17.4874961 102.013452,17.3695122 102.700885,17.3695122 C103.399587,17.3695122 104.010943,17.4874961 104.53497,17.7234674 C105.058996,17.9594387 105.501313,18.2824899 105.861934,18.6926305 C106.222555,19.1027712 106.493016,19.5859433 106.673327,20.1421614 C106.853637,20.6983796 106.943791,21.2967265 106.943791,21.9372201 C106.943791,22.5777137 106.853637,23.1732515 106.673327,23.7238512 C106.493016,24.274451 106.222555,24.754814 105.861934,25.1649547 C105.501313,25.5750953 105.058996,25.8953373 104.53497,26.1256903 C104.010943,26.3560432 103.399587,26.471218 102.700885,26.471218 C102.013452,26.471218 101.404913,26.3560432 100.875252,26.1256903 C100.34559,25.8953373 99.9004558,25.5750953 99.5398352,25.1649547 C99.1792145,24.754814 98.9087531,24.274451 98.7284428,23.7238512 C98.5481325,23.1732515 98.4579787,22.5777137 98.4579787,21.9372201 Z M99.9793394,21.9372201 C99.9793394,22.4653464 100.049772,22.9344729 100.190639,23.3446135 C100.331507,23.7547541 100.525901,24.0974693 100.773828,24.3727692 C101.021754,24.648069 101.311937,24.8587546 101.644384,25.0048321 C101.976831,25.1509095 102.328995,25.2239472 102.700885,25.2239472 C103.072775,25.2239472 103.424938,25.1509095 103.757385,25.0048321 C104.089832,24.8587546 104.380015,24.648069 104.627942,24.3727692 C104.875868,24.0974693 105.070262,23.7547541 105.21113,23.3446135 C105.351997,22.9344729 105.42243,22.4653464 105.42243,21.9372201 C105.42243,21.4090938 105.351997,20.9399673 105.21113,20.5298267 C105.070262,20.1196861 104.875868,19.7741618 104.627942,19.4932435 C104.380015,19.2123253 104.089832,18.9988306 103.757385,18.8527531 C103.424938,18.7066756 103.072775,18.633638 102.700885,18.633638 C102.328995,18.633638 101.976831,18.7066756 101.644384,18.8527531 C101.311937,18.9988306 101.021754,19.2123253 100.773828,19.4932435 C100.525901,19.7741618 100.331507,20.1196861 100.190639,20.5298267 C100.049772,20.9399673 99.9793394,21.4090938 99.9793394,21.9372201 Z M108.583479,17.5717723 L109.9358,17.5717723 L109.9358,19.4089685 L109.969608,19.4089685 C110.318959,18.7010545 110.74719,18.1785544 111.254313,17.8414525 C111.761435,17.5043506 112.403781,17.3470387 113.18137,17.3695122 L113.18137,18.8864631 C112.60663,18.8864631 112.116419,18.9651191 111.710721,19.1224333 C111.305023,19.2797475 110.978215,19.510097 110.730288,19.8134887 C110.482362,20.1168805 110.302054,20.4848778 110.18936,20.9174919 C110.076666,21.3501061 110.02032,21.8473239 110.02032,22.4091604 L110.02032,26.2858129 L108.583479,26.2858129 L108.583479,17.5717723 Z M121.413621,23.5215911 C121.222042,24.4991866 120.799446,25.2351814 120.145821,25.7295975 C119.492196,26.2240136 118.669542,26.471218 117.677836,26.471218 C116.979133,26.471218 116.373412,26.3588524 115.860655,26.1341178 C115.347897,25.9093832 114.916849,25.5947595 114.567498,25.1902372 C114.218147,24.7857149 113.956137,24.3025428 113.781462,23.7407063 C113.606786,23.1788697 113.50818,22.5664771 113.485642,21.9035101 C113.485642,21.240543 113.587065,20.6337687 113.789914,20.0831689 C113.992763,19.5325691 114.277311,19.0550153 114.643566,18.650493 C115.009822,18.2459707 115.443687,17.931347 115.945175,17.7066124 C116.446663,17.4818778 116.996038,17.3695122 117.593316,17.3695122 C118.370904,17.3695122 119.016067,17.5296332 119.528825,17.84988 C120.041582,18.1701268 120.452909,18.5774521 120.762817,19.0718683 C121.072725,19.5662844 121.286841,20.1056393 121.405169,20.6899493 C121.523498,21.2742593 121.571392,21.8304691 121.548853,22.3585954 L115.007002,22.3585954 C114.995733,22.7406442 115.04081,23.1030233 115.142234,23.4457436 C115.243659,23.7884638 115.407063,24.091851 115.632451,24.3559141 C115.857839,24.6199773 116.145204,24.8306628 116.494555,24.987977 C116.843906,25.1452913 117.255233,25.2239472 117.728548,25.2239472 C118.337095,25.2239472 118.835758,25.0834902 119.224552,24.8025719 C119.613347,24.5216537 119.869721,24.0946643 119.993685,23.5215911 L121.413621,23.5215911 Z M120.027493,21.0944696 C120.004954,20.7573677 119.928887,20.4371257 119.799289,20.1337339 C119.669691,19.8303422 119.495018,19.5690922 119.275264,19.3499759 C119.055511,19.1308597 118.796319,18.956693 118.49768,18.8274706 C118.199041,18.6982482 117.869416,18.633638 117.508796,18.633638 C117.136906,18.633638 116.801646,18.6982482 116.503007,18.8274706 C116.204368,18.956693 115.947993,19.1336688 115.733875,19.3584034 C115.519756,19.583138 115.350718,19.8443881 115.226755,20.1421614 C115.102791,20.4399348 115.029541,20.7573677 115.007002,21.0944696 L120.027493,21.0944696 Z" id="Imported-Layers" fill="#38526D"></path>
                    </g>
                </g>
            </g>
        </g>
    </g>
</svg>