<svg xmlns="http://www.w3.org/2000/svg" viewBox="0 0 321.89 245.35"><defs><style>.cls-1,.cls-5{fill:#fff;}.cls-1{opacity:0.5;}.cls-2{fill:#475c99;}.cls-3{fill:#b9d3ee;}.cls-4{fill:#6f8dd8;}.cls-6{fill:#e19c7f;}.cls-7,.cls-8,.cls-9{fill:none;stroke:#b9d3ee;stroke-miterlimit:10;}.cls-8{stroke-dasharray:4.88 4.88;}.cls-9{stroke-dasharray:4.86 4.86;}</style></defs><title>404_1</title><g id="Layer_2" data-name="Layer 2"><g id="OBJECTS"><path class="cls-1" d="M198.94,5.12C156.2,12.63,115.5,28.53,73.87,41,46.35,49.2,4.88,51.72.4,87.8-.94,98.6,1.31,109.52,4.13,120c16,59.79,53.39,107.65,116.51,119.17,37,6.75,76,11.09,111.51-4.35,40.07-17.43,68.84-54,81.56-95.23,11.82-38.33,15-99.2-19.77-127.23C274.16-3.54,249.7-.26,226.13,1.61,217,2.34,207.91,3.55,198.94,5.12Z"/><rect class="cls-2" x="128.22" y="190.4" width="81.1" height="34.21"/><rect class="cls-3" x="40.15" y="39.61" width="257.23" height="160.93" rx="2" ry="2"/><rect class="cls-3" x="107.94" y="224.61" width="121.65" height="6.34"/><rect class="cls-4" x="52.19" y="51.02" width="233.15" height="139.39"/><rect class="cls-5" x="52.19" y="66.8" width="233.15" height="123.6"/><path class="cls-6" d="M142.8,135.85a16.43,16.43,0,0,1,0,7.88H140V150a13.94,13.94,0,0,1-2.21.35q-1.09.08-2.1.08t-2.16-.08a15.24,15.24,0,0,1-2.26-.35v-6.28H114.32l-.9-1.6,14.32-30.65a21.53,21.53,0,0,1,4.07.93,13.13,13.13,0,0,1,3.86,2.1L126,135.85h5.27v-6a15.24,15.24,0,0,1,2.26-.35q1.09-.08,2.16-.08t2.1.08a13.94,13.94,0,0,1,2.21.35v6Z"/><path class="cls-6" d="M160.84,111.85a13,13,0,0,1,6.17,1.38,12.2,12.2,0,0,1,4.31,3.81,16.65,16.65,0,0,1,2.5,5.72,30.29,30.29,0,0,1,.8,7.13,27.86,27.86,0,0,1-.85,7.08,17.14,17.14,0,0,1-2.55,5.64,11.91,11.91,0,0,1-4.36,3.75,13.54,13.54,0,0,1-6.23,1.36,13.21,13.21,0,0,1-6.17-1.36,11.8,11.8,0,0,1-4.28-3.75,17.06,17.06,0,0,1-2.5-5.64,30.54,30.54,0,0,1,0-14.21,17.39,17.39,0,0,1,2.55-5.72,12.13,12.13,0,0,1,4.34-3.81A13.28,13.28,0,0,1,160.84,111.85Zm-.11,8q-2.13,0-3.3,2.5a18.48,18.48,0,0,0-1.17,7.5,17.94,17.94,0,0,0,1.2,7.45q1.2,2.5,3.27,2.5t3.19-2.5a18.31,18.31,0,0,0,1.17-7.45,18.49,18.49,0,0,0-1.17-7.5Q162.75,119.89,160.73,119.89Z"/><path class="cls-6" d="M206.93,135.85a16.43,16.43,0,0,1,0,7.88h-2.82V150a13.94,13.94,0,0,1-2.21.35q-1.09.08-2.1.08t-2.16-.08a15.24,15.24,0,0,1-2.26-.35v-6.28H178.45l-.9-1.6,14.32-30.65a21.53,21.53,0,0,1,4.07.93,13.13,13.13,0,0,1,3.86,2.1l-9.69,21.34h5.27v-6a15.24,15.24,0,0,1,2.26-.35q1.09-.08,2.16-.08t2.1.08a13.94,13.94,0,0,1,2.21.35v6Z"/><path class="cls-6" d="M217.52,137.66q1.06,0,2.16.11t2.32.32q.16,1.22.27,2.31t.11,2.1q0,1-.11,2.13T222,147q-1.23.21-2.32.32t-2.16.11q-1.06,0-2.16-.11T213,147q-.16-1.22-.27-2.34t-.11-2.13q0-1,.11-2.1t.27-2.31q1.22-.21,2.31-.32T217.52,137.66Zm-4.74-28.85a20.73,20.73,0,0,1,2.47-.27q1.2-.05,2.26-.05t2.24.05a22.43,22.43,0,0,1,2.5.27l-.48,24.8q-1.33.27-2.34.37a18.12,18.12,0,0,1-1.92.11,24.57,24.57,0,0,1-4.26-.48Z"/><polyline class="cls-7" points="271.31 179.27 271.31 181.77 268.81 181.77"/><line class="cls-8" x1="263.93" y1="181.77" x2="71.17" y2="181.77"/><polyline class="cls-7" points="68.73 181.77 66.23 181.77 66.23 179.27"/><line class="cls-9" x1="66.23" y1="174.42" x2="66.23" y2="79.71"/><polyline class="cls-7" points="66.23 77.28 66.23 74.78 68.73 74.78"/><line class="cls-8" x1="73.61" y1="74.78" x2="266.37" y2="74.78"/><polyline class="cls-7" points="268.81 74.78 271.31 74.78 271.31 77.28"/><line class="cls-9" x1="271.31" y1="82.14" x2="271.31" y2="176.85"/><rect class="cls-4" x="52.19" y="51.02" width="233.15" height="8.1"/><path class="cls-5" d="M115.38,66.8H70.19l1-3.31a4.71,4.71,0,0,1,4.51-3.36h34.19a4.71,4.71,0,0,1,4.51,3.36Z"/><circle class="cls-2" cx="57.62" cy="55.53" r="1.66"/><circle class="cls-2" cx="62.76" cy="55.53" r="1.66"/><circle class="cls-2" cx="67.9" cy="55.53" r="1.66"/><path class="cls-3" d="M99.89,23.94a5.06,5.06,0,1,1,5.06-5.06A5.06,5.06,0,0,1,99.89,23.94Zm0-8.12a3.06,3.06,0,1,0,3.06,3.06A3.06,3.06,0,0,0,99.89,15.82Z"/><path class="cls-5" d="M263.38,236.78a5.06,5.06,0,1,1,5.06-5.06A5.06,5.06,0,0,1,263.38,236.78Zm0-8.12a3.06,3.06,0,1,0,3.06,3.06A3.06,3.06,0,0,0,263.38,228.67Z"/><path class="cls-3" d="M272.38,26.9a5.06,5.06,0,1,1,5.06-5.06A5.06,5.06,0,0,1,272.38,26.9Zm0-8.12a3.06,3.06,0,1,0,3.06,3.06A3.06,3.06,0,0,0,272.38,18.78Z"/><path class="cls-3" d="M311.38,211.9a5.06,5.06,0,1,1,5.06-5.06A5.06,5.06,0,0,1,311.38,211.9Zm0-8.12a3.06,3.06,0,1,0,3.06,3.06A3.06,3.06,0,0,0,311.38,203.78Z"/><path class="cls-4" d="M14.39,123.44a5.06,5.06,0,1,1,5.06-5.06A5.06,5.06,0,0,1,14.39,123.44Zm0-8.12a3.06,3.06,0,1,0,3.06,3.06A3.06,3.06,0,0,0,14.39,115.32Z"/><path class="cls-4" d="M177.51,5.91h-2.12V3.78a1.5,1.5,0,0,0-3,0V5.91h-2.12a1.5,1.5,0,0,0,0,3h2.13V11a1.5,1.5,0,0,0,3,0V8.91h2.13a1.5,1.5,0,0,0,0-3Z"/><path class="cls-4" d="M21.51,188.78H19.38v-2.12a1.5,1.5,0,0,0-3,0v2.13H14.26a1.5,1.5,0,1,0,0,3h2.12v2.13a1.5,1.5,0,0,0,3,0v-2.12h2.13a1.5,1.5,0,0,0,0-3Z"/><path class="cls-5" d="M71.51,233.78H69.38v-2.12a1.5,1.5,0,0,0-3,0v2.13H64.26a1.5,1.5,0,0,0,0,3h2.13v2.13a1.5,1.5,0,0,0,3,0v-2.12h2.13a1.5,1.5,0,0,0,0-3Z"/><path class="cls-3" d="M314.51,135.28h-2.12v-2.12a1.5,1.5,0,1,0-3,0v2.13h-2.12a1.5,1.5,0,0,0,0,3h2.13v2.13a1.5,1.5,0,0,0,3,0v-2.12h2.13a1.5,1.5,0,0,0,0-3Z"/></g></g></svg>