<svg xmlns="http://www.w3.org/2000/svg" width="120" height="120" viewBox="0 0 120 120">
    <g fill="none" fill-rule="evenodd">
        <path fill="#F5F7FA" d="M56.03 118.402C27.317 127.21 0 98.13 0 67.45S14.218 34.932 56.03 7.3c41.813-27.633 67.345 29.714 63.609 63.346-3.736 33.631-34.894 38.946-63.608 47.756z"/>
        <path fill="#656D78" fill-rule="nonzero" d="M70.525 40.212l.004-2.75c0-.101-.014-.199-.04-.291l32.38-5.827a4.098 4.098 0 0 1 4.747 3.327l2.303 13.07c.042.242.024.482-.044.702a5.5 5.5 0 0 1 5.05 5.482v37.512a5.5 5.5 0 0 1-5.5 5.5h-67.9a67.27 67.27 0 0 0 7.262-3h60.637a2.5 2.5 0 0 0 2.5-2.5V53.925a2.5 2.5 0 0 0-2.5-2.5H70.51c0-.942.002-1.942.004-3h36.49a1.516 1.516 0 0 1-.039-.164l-2.302-13.07a1.097 1.097 0 0 0-1.267-.893l-32.87 5.914zm-32.52 56.725h-5.019a5.501 5.501 0 0 1-5.44-4.68c3.096 1.767 6.581 3.326 10.46 4.68zm32.515-53.43l17.342-3.06a4.098 4.098 0 0 1 4.748 3.326l.267 1.513a1.5 1.5 0 0 1-2.954.522l-.267-1.514a1.098 1.098 0 0 0-1.272-.893l-17.869 3.154.005-3.047zM54.91 90.436a41.172 41.172 0 0 0 3.944-3h19.17a1.5 1.5 0 0 1 0 3H54.911zm15.593-35.509h24.084a4.1 4.1 0 0 1 4.098 4.101v4.551a1.1 1.1 0 0 0 1.098 1.1h4.547a4.1 4.1 0 0 1 4.098 4.102v7.802a4.1 4.1 0 0 1-4.098 4.1h-4.547a1.1 1.1 0 0 0-1.098 1.101v4.551a4.1 4.1 0 0 1-4.098 4.1L75 90.37c-.828 0-1.381-1.435-1.5-1.5-.119-.065.672-1.5 1.5-1.5l19.588.065a1.1 1.1 0 0 0 1.098-1.1v-4.552a4.1 4.1 0 0 1 4.098-4.1h4.547a1.1 1.1 0 0 0 1.098-1.101V68.78a1.1 1.1 0 0 0-1.098-1.101h-4.547a4.1 4.1 0 0 1-4.098-4.1v-4.552a1.1 1.1 0 0 0-1.098-1.1H70.501l.003-3z"/>
        <path fill="#656D78" fill-rule="nonzero" d="M10.504 33.408c8.104-.45 16.45-3.5 25.995-11.241a5.225 5.225 0 0 1 6.558-.02l.18.143c9.897 7.83 18.356 10.792 26.437 11.143a4.03 4.03 0 0 1 3.855 4.033C73.51 49.63 73.5 57.433 73.5 60.87c0 19.366-11.203 32.654-33.28 39.663a1.5 1.5 0 0 1-.907 0C17.215 93.525 6 80.241 6 60.884V38.17c0-2.531 1.977-4.621 4.504-4.761zM70.5 60.87c0-3.44.01-11.244.03-23.408a1.03 1.03 0 0 0-.987-1.032c-8.691-.377-17.758-3.552-28.167-11.787l-.195-.154a2.225 2.225 0 0 0-2.792.008c-10.05 8.15-19.002 11.422-27.719 11.906A1.768 1.768 0 0 0 9 38.169v22.715C9 78.711 19.148 90.86 39.766 97.528 60.363 90.86 70.5 78.707 70.5 60.87z"/>
        <path stroke="#ED5565" stroke-linecap="round" stroke-width="3" d="M26.044 40.24c3.741-1.216 7.603-3.385 11.598-6.736l.903-.756a2 2 0 0 1 2.558-.006l.791.656c4.11 3.406 8.058 5.609 11.852 6.842 2.985.97 6.247 1.206 9.153 1.206.16 0 .288.13.288.291v12.355c0 1.83-.187 6.32-.187 6.778 0 15.5-8.363 24.745-23.128 27.875h-.119c-6.537-1.386-11.859-5.154-15.758-9.732"/>
    </g>
</svg>
