<?xml version="1.0" encoding="UTF-8"?>
<svg viewBox="0 0 112.76 103.28" xmlns="http://www.w3.org/2000/svg">
<defs>
<style>.cls-1{fill:#ddf3ee}.cls-2{fill:#fff}.cls-3{fill:rgba(6,84,130,.03)}.cls-4{fill:#00c395}.cls-5{fill:#39deb7}.cls-6{fill:rgba(70,189,162,0)}.cls-7{fill:#ed1846}.cls-16,.cls-17,.cls-8{fill:#404f54}.cls-9{opacity:.2}.cls-10{fill:#3a3847}.cls-11{opacity:.3}.cls-12{fill:#d4b9bf}.cls-13{opacity:.39}.cls-14{fill:#5fd1b7}.cls-15{opacity:.5}.cls-16,.cls-17{stroke:#404f54}.cls-17{stroke-width:.8px}</style>
</defs>
<g transform="translate(22.297 23.333)">
<g transform="translate(205.44 132)" data-name="blob-shape (17)">
<path class="cls-1" d="m-122.61-131.81c6.743 9.779 7.926 22.691 6.935 38.351-0.991 15.692-4.155 34.1-13.838 38.638-9.684 4.57-25.887-4.73-44.678-12.4-18.792-7.638-40.14-13.614-48.258-28.539-8.149-14.925-3.1-38.8 10.514-50.175 13.614-11.345 35.762-10.195 52.988-6.3 17.257 3.932 29.562 10.613 36.337 20.425z" data-name="Path 1147"/>
</g>
<g data-name="calendar (3)">
<path class="cls-2" transform="translate(9.738 7.519)" d="M0 0h52.533v54.92H0z" data-name="Rectangle 64"/>
<path class="cls-3" transform="translate(.466 -.82)" d="M62.1 12.1v47.186H58V11.077l.154-3.067A4.078 4.078 0 0 1 60.9 9.2a4.129 4.129 0 0 1 1.2 2.9z" data-name="Path 237"/>
<path class="cls-3" transform="translate(-.768 -.82)" d="M59.389 8.01l-.154 3.067v52.312H10v-6.154h41.029a4.1 4.1 0 0 0 4.1-4.1V12.1a4.1 4.1 0 0 1 4.1-4.1.776.776 0 0 1 .16.01z" data-name="Path 238"/>
<path class="cls-4" transform="translate(-.768 -.82)" d="M15.211 8h44.024a4.1 4.1 0 0 0-4.1 4.1v4.1H10v-4.1A4.1 4.1 0 0 1 14.1 8z" data-name="Path 239"/>
<path class="cls-5" transform="translate(-.768 -.82)" d="M15.211 8h44.024c-2.267 0-4.1.918-4.1 2.051V12.1H10v-2.049C10 8.918 11.836 8 14.1 8z" data-name="Path 335"/>
<path class="cls-3" transform="translate(-.768 -.614)" d="M55.132 16v36.926a4.1 4.1 0 0 1-8.206 0v-4.1H10V16zm-4.1 28.72V20.1H14.1v24.62h36.929z" data-name="Path 240"/>
<path class="cls-6" transform="translate(-.666 -.511)" d="M14 20h36.926v24.617H14z" data-name="Path 241"/>
<path class="cls-7" transform="translate(18.781 5.323)" d="M14 20h6.154v6.474H14z" data-name="Path 242"/>
<path class="cls-4" transform="translate(-.974 .209)" d="M6.1 56.206A4.1 4.1 0 0 1 2 52.1V48h45.132v4.1a4.1 4.1 0 0 0 4.1 4.1H6.1z" data-name="Path 243"/>
<path class="cls-5" transform="translate(-.974 .209)" d="M6 52.1c-2.213 0-4-.918-4-2.051V48h44.053v2.051c0 1.133 1.792 2.051 4 2.051H6z" data-name="Path 336"/>
<path class="cls-8" transform="translate(-1 -1)" d="M64.6 12.283a5.134 5.134 0 0 0-5.129-5.129h-6.159C53.312 3.76 51.011 1 48.183 1s-5.129 2.76-5.129 6.154h-4.1C38.952 3.76 36.651 1 33.823 1s-5.129 2.76-5.129 6.154h-4.1C24.592 3.76 22.291 1 19.463 1s-5.129 2.76-5.129 6.154a5.134 5.134 0 0 0-5.129 5.129v35.9H1v5.129a5.134 5.134 0 0 0 5.129 5.129h3.077V64.6h51.286v-4.1h4.1zM48.183 3.051c1.7 0 3.077 1.84 3.077 4.1h-6.154c0-2.259 1.381-4.1 3.077-4.1zm-14.36 0c1.7 0 3.077 1.84 3.077 4.1h-6.154c0-2.259 1.381-4.1 3.077-4.1zm-14.36 0c1.7 0 3.077 1.84 3.077 4.1h-6.154c0-2.259 1.381-4.1 3.077-4.1zm-5.129 6.155h.3a5.291 5.291 0 0 0 4.829 4.1v-2.049a3.051 3.051 0 0 1-2.649-2.051h12.179a5.291 5.291 0 0 0 4.829 4.1v-2.049a3.051 3.051 0 0 1-2.649-2.051h12.179a5.291 5.291 0 0 0 4.829 4.1v-2.049a3.051 3.051 0 0 1-2.649-2.051h9.855a5.093 5.093 0 0 0-1.049 3.077v3.077H11.257v-3.077a3.081 3.081 0 0 1 3.077-3.077zm-3.077 8.206h43.081v35.9a3.077 3.077 0 0 1-6.154 0v-5.129H11.257zm-8.206 35.9v-3.077h43.081v3.077a5.1 5.1 0 0 0 1.028 3.077H6.129a3.081 3.081 0 0 1-3.078-3.077zm59.492 5.129h-2.051V15.36h-2.051v47.184H11.257v-4.1h40a5.134 5.134 0 0 0 5.129-5.129V12.283a3.077 3.077 0 1 1 6.154 0z" data-name="Path 244"/>
<path class="cls-8" transform="translate(.441 -.743)" d="M57 11h2.051v2.051H57z" data-name="Path 245"/>
<path class="cls-8" transform="translate(-.691 -.537)" d="M51.978 19H13v26.669h38.978zm-2.051 6.154h-4.1v-4.1h4.1zM31.463 33.36v4.1h-4.1v-4.1zm-4.1-2.051v-4.1h4.1v4.1zm6.154 2.051h4.1v4.1h-4.1zm0-2.051v-4.1h4.1v4.1zm6.154-4.1h4.1v4.1h-4.1zm0-2.051v-4.1h4.1v4.1zm-2.051 0h-4.1v-4.1h4.1zm-6.154 0h-4.1v-4.1h4.1zm-6.154 0h-4.1v-4.1h4.1zm0 2.051v4.1h-4.1v-4.1zm-6.154 4.1h-4.1v-4.1h4.1zm0 2.051v4.1h-4.1v-4.1zm2.051 0h4.1v4.1h-4.1zm4.1 6.154v4.1h-4.1v-4.1zm2.051 0h4.1v4.1h-4.1zm6.154 0h4.1v4.1h-4.1zm6.154 0h4.1v4.1h-4.1zm0-2.051v-4.1h4.1v4.1zm6.154-4.1h4.1v4.1h-4.1zm0-2.051v-4.1h4.1v4.1zM19.154 21.051v4.1h-4.1v-4.1zm-4.1 18.463h4.1v4.1h-4.1zm30.772 4.1v-4.1h4.1v4.1z" data-name="Path 246"/>
<path class="cls-2" transform="translate(-.897 .286)" d="M5 51h2.051v2.051H5z" data-name="Path 247"/>
<path class="cls-2" transform="translate(-.794 .286)" d="M9 51h2.051v2.051H9z" data-name="Path 248"/>
<path class="cls-2" transform="translate(-.691 .286)" d="M13 51h2.051v2.051H13z" data-name="Path 249"/>
<path class="cls-2" transform="translate(-272.85 -210.38)" d="M307.205 240.413a.39.39 0 0 1-.3-.133l-.7-.767a.413.413 0 0 1 .617-.55l.417.45 1.3-1.3a.4.4 0 0 1 .583.017.434.434 0 0 1 0 .583l-1.6 1.6a.709.709 0 0 1-.317.1zm0 0" data-name="Path 334"/>
</g>
<g transform="translate(49.93 19.596)" data-name="Group 21">
<g transform="translate(.537)" data-name="Group 20">
<path class="cls-7" transform="translate(-259.82 -123.92)" d="m284.52 131.43s8.589 9.169 8.589 20.936a16.641 16.641 0 1 1-33.283 0c0-18.262 18.252-28.452 18.252-28.452s-2.459 6.12 0 8.589 6.442-1.073 6.442-1.073z" data-name="Path 23"/>
<g class="cls-9" transform="translate(15.568 7.516)" data-name="Group 11">
<path class="cls-10" transform="translate(-375.74 -179.88)" d="M384.871 179.879a9.9 9.9 0 0 1-1.331.953c2.143 2.632 7.774 10.453 7.774 19.983a16.614 16.614 0 0 1-15.569 16.585c.356.023.711.055 1.074.055a16.628 16.628 0 0 0 16.642-16.642c-.001-11.765-8.59-20.934-8.59-20.934z" data-name="Path 24"/>
</g>
<g class="cls-11" data-name="Group 12">
<path class="cls-12" transform="translate(-259.82 -123.92)" d="M261.972 152.368c0-13.819 10.447-23.012 15.532-26.668a18.015 18.015 0 0 1 .572-1.783s-18.252 10.189-18.252 28.452a16.628 16.628 0 0 0 16.641 16.642c.363 0 .717-.031 1.074-.055a16.613 16.613 0 0 1-15.567-16.588z" data-name="Path 25"/>
</g>
<path class="cls-2" transform="translate(-271.65 -211.82)" d="m300.77 240.32a12.478 12.478 0 1 1-12.478-12.478 12.478 12.478 0 0 1 12.478 12.478z" data-name="Path 26"/>
<g class="cls-13" transform="translate(4.164 16.027)" data-name="Group 13">
<path class="cls-14" transform="translate(-275.81 -227.85)" d="M277.662 240.324a12.47 12.47 0 0 1 11.554-12.431c-.306-.022-.612-.046-.924-.046a12.478 12.478 0 0 0 0 24.956c.312 0 .618-.024.924-.047a12.47 12.47 0 0 1-11.554-12.432z" data-name="Path 27"/>
</g>
<g class="cls-15" transform="translate(15.717 16.027)" data-name="Group 14">
<path class="cls-2" transform="translate(-375.74 -227.84)" d="M387.3 240.323a12.47 12.47 0 0 1-11.553 12.431c.306.023.612.047.924.047a12.478 12.478 0 1 0 0-24.956c-.312 0-.618.024-.924.047a12.47 12.47 0 0 1 11.553 12.431z" data-name="Path 28"/>
</g>
</g>
<path class="cls-16" transform="translate(-363.1 -303.48)" d="M380.279 349.49a.537.537 0 0 1 0-1.074 16.122 16.122 0 0 0 16.1-16.1.537.537 0 1 1 1.074 0 17.2 17.2 0 0 1-17.174 17.174z" data-name="Path 316"/>
<path class="cls-16" transform="translate(-255.83 -303.48)" d="M273 349.49a17.2 17.2 0 0 1-17.178-17.178.537.537 0 0 1 1.074 0 16.122 16.122 0 0 0 16.1 16.1.537.537 0 1 1 0 1.074z" data-name="Path 317"/>
<path class="cls-17" transform="translate(-255.83 -119.89)" d="M289.646 149.449a.536.536 0 0 1-.537-.537c0-10.113-6.552-18.371-8.114-20.194-1.156.887-4.444 3.02-6.759.712-1.919-1.927-1.206-5.66-.607-7.722-4.075 2.691-16.73 12.255-16.73 27.2a.537.537 0 0 1-1.074 0c0-18.365 18.342-28.817 18.527-28.92a.537.537 0 0 1 .76.668c-.023.058-2.3 5.821-.118 8.01 2.084 2.077 5.668-1.063 5.7-1.1a.536.536 0 0 1 .749.034c.357.381 8.734 9.46 8.734 21.3a.537.537 0 0 1-.531.549z" data-name="Path 318"/>
<path class="cls-8" transform="translate(-363.2 -222.1)" d="M380.411 240.761a.466.466 0 0 1-.467-.462.458.458 0 0 1 .457-.462h.01a.462.462 0 1 1 0 .924z" data-name="Path 319"/>
<path class="cls-8" transform="translate(-363.2 -384.71)" d="M380.411 424.637a.466.466 0 0 1-.467-.462.458.458 0 0 1 .457-.462h.01a.462.462 0 1 1 0 .924z" data-name="Path 320"/>
<path class="cls-8" transform="translate(-322.55 -232.83)" d="M334.445 253.08a.466.466 0 0 1-.467-.462.458.458 0 0 1 .457-.462h.01a.462.462 0 1 1 0 .924z" data-name="Path 321"/>
<path class="cls-8" transform="translate(-403.86 -373.82)" d="M426.38 412.317a.466.466 0 0 1-.467-.462.458.458 0 0 1 .457-.462h.01a.462.462 0 0 1 0 .924z" data-name="Path 322"/>
<path class="cls-8" transform="translate(-292.78 -262.59)" d="M300.778 286.731a.466.466 0 0 1-.467-.462.458.458 0 0 1 .457-.462h.01a.462.462 0 1 1 0 .924z" data-name="Path 323"/>
<path class="cls-8" transform="translate(-433.62 -344.06)" d="M460.03 378.668a.466.466 0 0 1-.467-.462.458.458 0 0 1 .457-.462h.01a.462.462 0 0 1 0 .924z" data-name="Path 324"/>
<path class="cls-8" transform="translate(-281.88 -303.4)" d="M288.458 332.7a.466.466 0 0 1-.466-.462.458.458 0 0 1 .457-.462h.01a.462.462 0 1 1 0 .924z" data-name="Path 325"/>
<path class="cls-8" transform="translate(-444.5 -303.4)" d="M472.333 332.7a.466.466 0 0 1-.466-.462.458.458 0 0 1 .457-.462h.01a.462.462 0 1 1 0 .924z" data-name="Path 326"/>
<path class="cls-8" transform="translate(-292.76 -344.07)" d="M300.763 378.676a.466.466 0 0 1-.467-.462.458.458 0 0 1 .457-.462h.01a.462.462 0 1 1 0 .924z" data-name="Path 327"/>
<path class="cls-8" transform="translate(-433.6 -262.59)" d="M460.015 286.731a.466.466 0 0 1-.467-.462.458.458 0 0 1 .457-.462h.01a.462.462 0 0 1 0 .924z" data-name="Path 328"/>
<path class="cls-8" transform="translate(-322.54 -373.83)" d="M334.428 412.332a.466.466 0 0 1-.466-.462.458.458 0 0 1 .457-.462h.01a.462.462 0 1 1 0 .924z" data-name="Path 329"/>
<path class="cls-8" transform="translate(-403.85 -233)" d="M426.365 253.088a.466.466 0 0 1-.466-.462.458.458 0 0 1 .457-.462h.01a.462.462 0 1 1 0 .924z" data-name="Path 330"/>
<path class="cls-16" transform="translate(-267.9 -208.28)" d="m285.08 250.38a13.266 13.266 0 1 1 13.266-13.266 13.281 13.281 0 0 1-13.266 13.266zm0-25.585a12.319 12.319 0 1 0 12.32 12.319 12.333 12.333 0 0 0-12.32-12.314z" data-name="Path 331"/>
<path class="cls-8" transform="translate(-363.1 -244.65)" d="M380.279 274.021a.536.536 0 0 1-.537-.537v-9.126a.537.537 0 1 1 1.074 0v9.126a.536.536 0 0 1-.537.537z" data-name="Path 332"/>
<path class="cls-8" transform="translate(-363.1 -303.48)" d="M386.184 338.753a.535.535 0 0 1-.38-.157l-5.905-5.905a.537.537 0 1 1 .759-.759l5.905 5.905a.537.537 0 0 1-.38.916z" data-name="Path 333"/>
</g>
</g>
</svg>
