<?xml version="1.0" encoding="utf-8"?>
<!-- Generator: Adobe Illustrator 21.0.0, SVG Export Plug-In . SVG Version: 6.00 Build 0)  -->
<svg version="1.1" id="Layer_1" xmlns="http://www.w3.org/2000/svg" xmlns:xlink="http://www.w3.org/1999/xlink" x="0px" y="0px"
	 viewBox="0 0 200 200" style="enable-background:new 0 0 200 200;" xml:space="preserve">
<style type="text/css">
	.st0{fill:#FFFFFF;}
</style>
<g>
	<path class="st0" d="M39,155.9c0,1.5,1.3,2.8,3,2.8h47.5c1.6,0,3-1.3,3-2.8h0V142H39V155.9z M65.7,143.6c3.3,0,6,2.7,6,6
		s-2.7,6-6,6c-3.3,0-6-2.7-6-6S62.4,143.6,65.7,143.6z"/>
	<path class="st0" d="M89.5,55.4H42c-4.9,0-8.9,3.9-8.9,8.7v91.8c0,4.8,4,8.7,8.9,8.7h47.5c4.9,0,8.9-3.9,8.9-8.7V64
		C98.4,59.2,94.4,55.4,89.5,55.4z M39,64c0-1.5,1.3-2.8,3-2.8h47.5c1.7,0,3,1.3,3,2.8v3.7h0h0H39V64z M52.6,122.8c0.5,0,1,0.4,1,1
		c0,0.5-0.4,1-1,1c-3.3,0-6-2.6-6-5.8V95.6c0-3.3,0.9-5.1,2.1-7.4c0.1-0.3,0.3-0.6,0.5-0.9c0,0,0,0,0,0c0.3-0.6,0.6-1.2,0.9-1.9
		l-4,2.5c-0.5,0.3-1.1,0.1-1.4-0.3c-0.3-0.5-0.1-1.1,0.3-1.4l4.5-2.8l-2.9-1.2c-0.5-0.2-0.7-0.8-0.5-1.3c0.2-0.5,0.8-0.7,1.3-0.5
		l2.6,1.1v-1.6c0-1.5,1.2-2.8,2.8-2.8h7.9c1.5,0,2.8,1.2,2.8,2.8v1.9c0,0.7-0.3,1.4-0.7,1.8l0,0.3c0.5,1.3,1,2.4,1.5,3.3
		c0,0,0,0,0,0c0.2,0.3,0.3,0.6,0.5,0.9c1.2,2.4,2.1,4.1,2.1,7.4v3.5c0,0.5-0.4,1-1,1c-0.5,0-1-0.4-1-1v-3.5c0-2.9-0.7-4.3-1.9-6.6
		c-0.1-0.1-0.1-0.3-0.2-0.4H50.6c-0.1,0.1-0.1,0.3-0.2,0.4c-1.2,2.3-1.9,3.7-1.9,6.6V119C48.5,121.1,50.4,122.8,52.6,122.8z
		 M59.9,91.7c-0.2-0.5,0-1.1,0.6-1.3c0.5-0.2,1.1,0,1.3,0.6c0.6,1.6,0.9,3.1,0.9,5v4.1c0,0.5-0.4,1-1,1c-0.5,0-1-0.4-1-1v-4.1
		C60.6,94.3,60.4,93.1,59.9,91.7z M55.2,108.1c0-4,8.8-6.1,17.4-6.1c1.2,0,2.3,0,3.4,0.1c0.4,0,0.8,0.3,0.9,0.8
		c0.1,0.4-0.1,0.9-0.5,1.1c-0.3,0.2-0.4,0.3-0.4,0.4c0.1,0.3,1.5,1.1,3.8,1.1c1.9,0,3.3-0.5,3.7-1c0.1-0.1,0.1-0.1,0.1-0.2
		c0.6-0.8,1.3-0.5,1.6-0.4c0.1,0,0.1,0,0.2,0.1c1.7,0.6,4.5,2,4.5,4.2v13.6c0,4-8.8,6.1-17.4,6.1c-8.7,0-17.4-2.1-17.4-6.1V108.1z
		 M92.5,155.9L92.5,155.9c0,1.5-1.3,2.8-3,2.8H42c-1.6,0-3-1.3-3-2.8V142h53.5V155.9z"/>
	<path class="st0" d="M59.7,110.2c0.7-1.3,2.9-2,5.1-2c2.6,0,5.3,1,5.3,2.8c0,0.4-0.1,0.8-0.4,1.1c1,0.1,2,0.1,3,0.1
		c4.3,0,8.3-0.5,11.3-1.5c0.4-0.1,0.8-0.3,1.1-0.4c-0.3-0.2-0.4-0.5-0.4-0.8c0-0.5,0.4-1,1-1h0.2c0.5,0,1,0.4,1,0.9
		c0.9-0.5,1.2-1.1,1.2-1.4c0-0.7-1.3-1.6-3.1-2.3c-1,1-2.9,1.5-5.1,1.5c-2.9,0-5.8-1-5.8-3c0-0.1,0-0.2,0-0.3c-0.5,0-1,0-1.5,0
		c-4.3,0-8.3,0.5-11.3,1.5c0,0-0.1,0-0.1,0c0.2,0.2,0.3,0.4,0.3,0.7c0,0.5-0.4,1-1,1h-0.2c-0.5,0-0.9-0.4-1-0.9
		c-1.5,0.7-2,1.4-2,1.9C57.2,108.6,57.9,109.4,59.7,110.2z M75.1,108.9h0.2c0.5,0,1,0.4,1,1c0,0.5-0.4,1-1,1h-0.2c-0.5,0-1-0.4-1-1
		C74.1,109.3,74.5,108.9,75.1,108.9z M69.5,105h0.2c0.5,0,1,0.4,1,1c0,0.5-0.4,1-1,1h-0.2c-0.5,0-1-0.4-1-1
		C68.5,105.4,69,105,69.5,105z"/>
	<path class="st0" d="M64.8,110.2c-1.6,0-2.6,0.4-3.1,0.7c1.3,0.4,2.8,0.7,4.4,0.9c1.2-0.2,1.8-0.6,2-0.8
		C67.8,110.8,66.6,110.2,64.8,110.2z"/>
	<path class="st0" d="M57.2,111.1v10.6c0,0.6,1.1,1.7,4.1,2.7c3,0.9,7,1.5,11.3,1.5c4.3,0,8.3-0.5,11.3-1.5c3-1,4.1-2,4.1-2.7h0
		v-10.6c-3.1,2.1-9.3,3.1-15.5,3.1C66.5,114.3,60.3,113.2,57.2,111.1z"/>
	<path class="st0" d="M52.2,82.4c0.1,0.1,0.3,0.1,0.4,0.1h7.9c0.2,0,0.3,0,0.4-0.1c0,0,0,0,0.1,0c0.2-0.1,0.3-0.4,0.3-0.6v-1.9
		c0-0.4-0.4-0.8-0.8-0.8h-7.9c-0.4,0-0.8,0.4-0.8,0.8v1.9C51.9,82,52,82.2,52.2,82.4C52.2,82.3,52.2,82.3,52.2,82.4z"/>
	<path class="st0" d="M60.8,84.5c-0.1,0-0.1,0-0.2,0h-7.9c-0.1,0-0.1,0-0.2,0c-0.3,0.8-0.6,1.5-0.9,2.2h10.2
		C61.4,86,61.1,85.3,60.8,84.5z"/>
	<path class="st0" d="M169.5,36.9H81.2c-5.2,0-9.5,4.3-9.5,9.5v7h7.8v-7c0-0.9,0.7-1.6,1.6-1.6h88.3c0.9,0,1.6,0.7,1.6,1.6v56.9
		c0,0.9-0.7,1.6-1.6,1.6h-68.3v7.8h20.2v3.4h-11.5c-2.2,0-3.9,1.8-3.9,3.9c0,2.2,1.8,3.9,3.9,3.9h30.7c2.2,0,3.9-1.8,3.9-3.9
		c0-2.2-1.8-3.9-3.9-3.9h-11.3v-3.4h40.2c5.2,0,9.5-4.3,9.5-9.5V46.4C179,41.1,174.7,36.9,169.5,36.9z"/>
</g>
<path class="st0" d="M147.4,57.5h-28.6c-5.3,0-9.6,4.3-9.6,9.6v18.1c0,5.3,4.3,9.6,9.6,9.6h28.6c5.3,0,9.6-4.3,9.6-9.6V67.1
	C157,61.8,152.7,57.5,147.4,57.5z M125.3,90.1h-8.5V66.8h8.5V90.1z M138.6,90.1h-8.5V76.1h8.5V90.1z"/>
</svg>
