<?xml version="1.0" encoding="utf-8"?>
<!-- Generator: Adobe Illustrator 21.0.0, SVG Export Plug-In . SVG Version: 6.00 Build 0)  -->
<svg version="1.1" id="Layer_1" xmlns="http://www.w3.org/2000/svg" xmlns:xlink="http://www.w3.org/1999/xlink" x="0px" y="0px"
	 viewBox="0 0 200 200" style="enable-background:new 0 0 200 200;" xml:space="preserve">
<style type="text/css">
	.st0{fill:#FFFFFF;}
</style>
<g>
	<path class="st0" d="M178.6,102c-3.6-2.6-9-4.2-15.1-4.2c-9.4,0-17.3,3.9-19.1,9.2h-0.8c-1.8-5.3-9.7-9.2-19.1-9.2
		c-6.1,0-11.5,1.6-15.1,4.2v44.2c0,11-9,20-20,20c-11,0-20-9-20-20c0-2.4,2-4.4,4.4-4.4s4.4,2,4.4,4.4c0,6.2,5,11.2,11.2,11.2
		c6.2,0,11.2-5,11.2-11.2V102c-3.6-2.6-9-4.2-15.1-4.2c-9.4,0-17.3,3.9-19.1,9.2h-0.8c-1.8-5.3-9.7-9.2-19.1-9.2
		c-6.1,0-11.5,1.6-15.1,4.2c2.9-31.4,32.4-56.3,69.1-58.1v-3.3c0-2.4,2-4.4,4.4-4.4c2.4,0,4.4,2,4.4,4.4v3.3
		C146.2,45.6,175.8,70.6,178.6,102z M42.2,36.1c0,0-6.4,12.6-6.4,16.1c0,3.5,2.9,6.4,6.4,6.4s6.4-2.9,6.4-6.4
		C48.5,48.7,42.2,36.1,42.2,36.1z M60.2,27.6c0,0-4.8,9.5-4.8,12.1c0,2.6,2.1,4.8,4.8,4.8c2.6,0,4.8-2.1,4.8-4.8
		C65,37.1,60.2,27.6,60.2,27.6z"/>
</g>
</svg>
