<?xml version="1.0" encoding="utf-8"?>
<!-- Generator: Adobe Illustrator 21.0.0, SVG Export Plug-In . SVG Version: 6.00 Build 0)  -->
<svg version="1.1" id="Layer_1" xmlns="http://www.w3.org/2000/svg" xmlns:xlink="http://www.w3.org/1999/xlink" x="0px" y="0px"
	 viewBox="0 0 200 200" style="enable-background:new 0 0 200 200;" xml:space="preserve">
<style type="text/css">
	.st0{fill:#FFFFFF;}
</style>
<g>
	<g>
		<path class="st0" d="M123.7,132.6c-4-2.7-38.5-26.2-47.8-42.6L75.4,89l-1,0c-8-0.3-14.2,4.3-16.9,6.7c-1.1-1.1-2.2-2.2-3.3-3.4
			l-1.3-1.4l-1.3,1.4c-5.2,5.4-7.6,10.5-6.9,15.1c0.5,3.7,3.1,6.9,7.3,9.3c0.8,0.4,9.6,6.5,19.3,14.2c-1.7,1.7-7.7,5.6-9.9,7.2
			c-2.5,1.8-12.7,11.1-12.7,11.1l6.6,1.6l2.3,4.5c0,0,3.2-7.7,6.6-11.5c3.5-3.8,9.5-6.9,9.5-6.9s-3.3,4.7-5.6,9.2
			c-2.3,4.5-2.9,12.4-2.9,12.4l4.1-1.3l2.8,6.1c0,0,0.7-8.6,2.5-14.2c1.4-4.5,4.8-8.9,6.1-10.4c12.2,10.8,25,23.8,27.6,26.4
			c1.5,1.8,3.5,3.1,6.1,3.7c0.9,0.2,1.9,0.3,2.8,0.3c5.3,0,10.3-3.3,13.5-9.1c3.8-6.7,4.8-17.1-1.7-23.8
			C126.9,134.2,125.2,133.1,123.7,132.6z M71.8,126.6c-8.9-7-16.9-12.5-18.1-13.2c-3.3-1.8-5.1-4.1-5.5-6.6c-0.4-3,1.1-6.5,4.6-10.5
			c8.7,8.9,16.1,15.9,22.3,21.5C72.3,122.4,71.8,124.9,71.8,126.6z M77.3,114.7c-5-4.4-10.7-9.8-17.2-16.3c2.2-1.9,7.1-5.5,13.1-5.6
			c3.1,5.2,8.4,10.8,14.2,16.3C84.3,109.3,80.5,110.7,77.3,114.7z M81.1,134.3c0.3-2.4,1.1-5.7,2.7-9.1c11,9,17.3,12.2,20,13.4
			c-0.4,3.2-1.1,10.4,0.1,17.1C98,149.8,89.3,141.4,81.1,134.3z M127.2,158.1c-2.3,4.1-6.8,8.2-12.3,6.9c-9.4-2.1-8.4-20.4-7.2-27.3
			l0.3-1.7l-1.7-0.4c-0.1,0-6-1.7-20.5-13.5c2.7-3.2,7.1-4.6,10.4-5.2c8.2,6.8,16.4,12.7,21.3,16.1c-0.1,0.1-0.3,0.1-0.4,0.2
			c-5.6,3.2-8,12.4-6.8,16.9c1.4,5.2,4.9,8.5,8.6,8.5c1.6-0.1,5.4-0.9,6.8-7.9l0.2-1.1l-0.8-0.7c-5.3-4.5-8.1-7.2-9.5-8.5
			c0.9-1.7,2-3.2,3.4-3.9c2.1-1.2,4.5-0.4,7.1,2.3C131.2,144.1,130.3,152.5,127.2,158.1z M121.7,150.9c-0.7,2.4-1.7,3.8-3,3.8
			c0,0,0,0-0.1,0c-1.6,0-3.7-2-4.8-5.7c-0.3-1.2-0.2-3,0.2-4.8C115.7,145.6,118.1,147.8,121.7,150.9z"/>
		<path class="st0" d="M61.6,63.1l-5.9,18.9c0,0,24.2,2.3,44.3,8.6c20.1,6.3,41.3,18.1,41.3,18.1l6-19.3c0,0-18.1-18.2-39.6-24.9
			C86.3,57.9,61.6,63.1,61.6,63.1z"/>
		<path class="st0" d="M183,89.8l-7-7.4l0.7-2.2c0,0,6.2-11.4-9.4-9.3c-0.8,0.2-1.3,0.4-1.6,0.7l-46.5-48.7l-87,19.2l23.9,21.4
			l1.3-4.1c0,0,27.5-5.8,51.5,1.7c24,7.5,44.1,27.8,44.1,27.8l-2.2,7.2l18-3.5c-3,9.6-6.4,20.6-7.5,24l-5.1-1.6l-3.7,11.9l8.3-2.6
			l6.1,7.1l3.7-11.9l-5.5-1.7l8.1-26L183,89.8z M172.7,87.1c-0.6,2-2.7,3.1-4.7,2.5c-2-0.6-3.1-2.7-2.5-4.7c0.6-2,2.7-3.1,4.7-2.5
			C172.2,83,173.3,85.2,172.7,87.1z M169.2,75.3c2-0.6,5.3-1.2,4.4,1.7c-0.1,0.3-0.3,1.1-0.7,2.2L169.2,75.3z"/>
	</g>
</g>
</svg>
