<?xml version="1.0" encoding="utf-8"?>
<!-- Generator: Adobe Illustrator 21.0.0, SVG Export Plug-In . SVG Version: 6.00 Build 0)  -->
<svg version="1.1" id="Layer_1" xmlns="http://www.w3.org/2000/svg" xmlns:xlink="http://www.w3.org/1999/xlink" x="0px" y="0px"
	 viewBox="0 0 200 200" style="enable-background:new 0 0 200 200;" xml:space="preserve">
<style type="text/css">
	.st0{fill:#FFFFFF;}
</style>
<g>
	<path class="st0" d="M76.8,97.7h-1.4V86.4c0-1.3-1.1-2.4-2.4-2.4h-0.2V60.8c0-0.9-0.5-1.8-1.3-2.2l-18.8-9.4
		c-0.8-0.4-1.6-0.3-2.4,0.1c-0.7,0.4-1.2,1.2-1.2,2.1v32.5h-0.2c-1.3,0-2.4,1.1-2.4,2.4v11.3h-1.4c-1.3,0-2.4,1.1-2.4,2.4v63.7
		c0,1.3,1.1,2.4,2.4,2.4h31.7c1.3,0,2.4-1.1,2.4-2.4v-63.7C79.2,98.8,78.1,97.7,76.8,97.7z M54,55.3l13.9,7v21.6H54V55.3z
		 M51.3,88.8h19.2v8.9H51.3V88.8z M74.3,161.4H47.5v-58.9h26.9V161.4z"/>
	<path class="st0" d="M161.9,137.4H83.1c-1.3,0-2.4,1.1-2.4,2.4c0,1.3,1.1,2.4,2.4,2.4h75l-0.6,1.2c-3.1,6.3-9.6,10.4-16.6,10.4
		H83.1c-1.3,0-2.4,1.1-2.4,2.4s1.1,2.4,2.4,2.4h57.8c8.9,0,17.1-5.2,21-13.2l2.2-4.6c0.4-0.8,0.3-1.6-0.1-2.3
		C163.5,137.8,162.8,137.4,161.9,137.4z"/>
	<path class="st0" d="M77.5,56.8c9.1-8.4,20.8-13,33.2-13c26.9,0,48.9,21.9,48.9,48.9c0,14.5-6.4,28.2-17.6,37.5
		c-1,0.9-1.2,2.4-0.3,3.4c0.5,0.6,1.2,0.9,1.9,0.9c0.5,0,1.1-0.2,1.6-0.6c12.3-10.2,19.3-25.3,19.3-41.2c0-29.6-24.1-53.7-53.7-53.7
		c-13.6,0-26.5,5.1-36.5,14.3c-1,0.9-1,2.4-0.1,3.4C74.9,57.6,76.5,57.7,77.5,56.8z"/>
	<path class="st0" d="M110.6,53.9c21.4,0,38.8,17.4,38.8,38.8s-17.4,38.8-38.8,38.8c-9.6,0-18.8-3.5-26-10c-1-0.9-2.5-0.8-3.4,0.2
		c-0.9,1-0.8,2.5,0.2,3.4c8,7.2,18.4,11.2,29.2,11.2c24.1,0,43.6-19.6,43.6-43.6S134.7,49,110.6,49c-13.8,0-27,6.6-35.2,17.8
		c-0.8,1.1-0.6,2.6,0.5,3.4c1.1,0.8,2.6,0.6,3.4-0.5C86.7,59.8,98.4,53.9,110.6,53.9z"/>
	<path class="st0" d="M137.4,73.5L93,117.8c-0.9,0.9-0.9,2.5,0,3.4c0.5,0.5,1.1,0.7,1.7,0.7c0.6,0,1.2-0.2,1.7-0.7l44.3-44.3
		c0.9-0.9,0.9-2.5,0-3.4C139.8,72.6,138.3,72.6,137.4,73.5z"/>
	<path class="st0" d="M106.5,118.1c-0.9,0.9-0.9,2.5,0,3.4c0.5,0.5,1.1,0.7,1.7,0.7c0.6,0,1.2-0.2,1.7-0.7l33.3-33.3
		c0.9-0.9,0.9-2.5,0-3.4c-0.9-0.9-2.5-0.9-3.4,0L106.5,118.1z"/>
</g>
</svg>
