<?xml version="1.0" encoding="utf-8"?>
<!-- Generator: Adobe Illustrator 21.0.0, SVG Export Plug-In . SVG Version: 6.00 Build 0)  -->
<svg version="1.1" id="Layer_1" xmlns="http://www.w3.org/2000/svg" xmlns:xlink="http://www.w3.org/1999/xlink" x="0px" y="0px"
	 viewBox="0 0 200 200" style="enable-background:new 0 0 200 200;" xml:space="preserve">
<style type="text/css">
	.st0{fill:#FFFFFF;}
</style>
<g>
	<path class="st0" d="M76.6,118.3c-0.9-5.1-0.9-11.6-0.8-23.4c0-2.6,0-5.5,0-8.6l-0.1-9.5l9.1,2.5c0.2,0.1,1.7,0.4,3.7,0.4
		c6.3,0,11.1-2.6,14.3-7.9l2.5-4.1H87.7c4.6-3.6,7.7-8.8,7.7-14.9c0-10-8.1-18.1-18.1-18.1c-10,0-18.1,8.2-18.1,18.2
		c0,6.1,3,11.3,7.7,14.9H55.4h-0.2h-0.3v-0.2c-2.7,0.1-5.4,2.8-5.4,5.8v44.9c0,3.1,2.7,5.7,5.7,5.7h0.2c2.3,0,4.4-1.6,5.3-3.6v38.8
		c0,4.5,3.8,8.4,8.3,8.4h0.2c4.5,0,8.2-3.7,8.2-8.2c0,4.5,3.7,8.2,8.2,8.2h0.2c4.5,0,8-3.8,8-8.4v-18.7c-3.6-2.7-7.4-5.7-9.9-8.2
		C80.2,128.3,77.7,124.7,76.6,118.3z"/>
	<path class="st0" d="M162.6,67.4v0.2h-0.3H162h-11.5c4.6-3.6,7.7-8.7,7.7-14.9c0-10-8.1-18.2-18.1-18.2c-10,0-18.1,8.1-18.1,18.1
		c0,6.1,3,11.3,7.7,14.9h-17.5l2.5,4.1c3.2,5.3,8,7.9,14.3,7.9c2,0,3.5-0.3,3.7-0.4l9.1-2.5l-0.1,9.5c0,3.2,0,6,0,8.6
		c0,11.8,0.1,18.4-0.8,23.4c-1.1,6.4-3.7,10.1-7.5,13.9c-2.5,2.4-6.3,5.4-9.9,8.2v18.7c0,4.5,3.5,8.4,8,8.4h0.2
		c4.5,0,8.2-3.7,8.2-8.2c0,4.5,3.7,8.2,8.2,8.2h0.2c4.5,0,8.3-3.8,8.3-8.4v-38.8c0.9,2,2.9,3.6,5.3,3.6h0.2c3.1,0,5.7-2.6,5.7-5.7
		V73.2C167.9,70.2,165.2,67.5,162.6,67.4z"/>
	<path class="st0" d="M134.9,86.2c0,0-2.2,0.6-5.5,0.6c-5.7,0-14.7-1.8-20.5-11.5c-5.8,9.7-14.8,11.5-20.5,11.5
		c-3.3,0-5.5-0.6-5.5-0.6c0,30.4-0.8,33.9,6.2,40.8c5.7,5.6,19.7,15,19.7,15s14-9.4,19.7-15C135.7,120,134.9,116.6,134.9,86.2z
		 M126.4,115.1c-0.5,2.7-1.3,4.3-3.7,6.6c-2.8,2.8-8.7,7-11.9,9.2l-1.9,1.3l-1.9-1.3c-3.2-2.2-9-6.4-11.9-9.2
		c-2.3-2.3-3.2-3.8-3.7-6.6c-0.6-3.3-0.6-8.4-0.5-16.9l0-4l3.2-0.2c4.9-0.2,9.1-1.9,12.6-4.9l2.2-2l2.2,2c3.4,3,7.7,4.7,12.6,4.9
		l3.2,0.2l0,4C127,106.7,127,111.8,126.4,115.1z"/>
	<polygon class="st0" points="112.3,98.1 105.1,98.1 105.1,105.8 97.5,105.8 97.5,113 105.1,113 105.1,120.1 112.3,120.1 112.3,113 
		119.5,113 119.5,105.8 112.3,105.8 	"/>
</g>
</svg>
