<?xml version="1.0" encoding="utf-8"?>
<!-- Generator: Adobe Illustrator 21.0.0, SVG Export Plug-In . SVG Version: 6.00 Build 0)  -->
<svg version="1.1" id="Layer_1" xmlns="http://www.w3.org/2000/svg" xmlns:xlink="http://www.w3.org/1999/xlink" x="0px" y="0px"
	 viewBox="0 0 200 200" style="enable-background:new 0 0 200 200;" xml:space="preserve">
<style type="text/css">
	.st0{fill:#FFFFFF;}
</style>
<g>
	<g>
		<path class="st0" d="M173.1,62.8c-1.4-0.8-11.6-7-11.6-7s7.4-21.1,6.7-24c-0.6-2.9-3.8-4.1-3.8-4.1l-12.4,22.9L139.4,45l-0.1-8.4
			l-3.9-3.5c0,0-1.1,9.6-2.8,11.9c-1.6,2.3-8,6.6-8,6.6l3.4,3.4l8.7-4.7l10.7,7.4l-13.3,22.3c0,0,2.7,3.3,5.3,1.9
			C142.1,80.6,155,64,155,64s12.6,7,13.9,7.3c1.3,0.3,4.6,2.1,6.3-1.9C176.9,65.4,174.5,63.6,173.1,62.8z"/>
		<path class="st0" d="M153.2,85.7c-1.9-2.3-4-4.3-6.2-6.3l-3.2,3.3c2,1.8,4,3.6,5.7,5.7c-3.1,2.1-6.8,3.9-10.8,5.4
			c-3-8.9-7.3-16.2-12.6-21.3c2,0.6,3.9,1.4,5.8,2.3l2.5-4c-7.4-3.5-15.6-5.5-24.3-5.5c0,0-0.1,0-0.1,0s0,0-0.1,0
			c-0.1,0-0.1,0-0.2,0c-17.2,0.1-32.6,8-42.9,20.3c-0.9,1.1-1.8,2.3-2.7,3.5c-6.5,9.2-10.3,20.4-10.3,32.4
			c0,12.1,3.8,23.3,10.3,32.4c0.9,1.2,1.8,2.4,2.7,3.5c10.3,12.3,25.7,20.2,42.9,20.3c0.1,0,0.1,0,0.2,0c0,0,0,0,0.1,0
			c0,0,0.1,0,0.1,0c17.4,0,32.9-7.9,43.2-20.3c0.9-1.1,1.8-2.3,2.7-3.5c6.5-9.2,10.3-20.4,10.3-32.4c0-12.1-3.8-23.3-10.3-32.4
			C155.1,88,154.2,86.8,153.2,85.7z M93.6,72.7c-5.2,5-9.5,12.3-12.4,21c-4-1.5-7.5-3.3-10.6-5.3C76.6,81.3,84.5,75.8,93.6,72.7z
			 M67.8,92c3.5,2.3,7.5,4.4,12,6.1c-1.9,7-3,14.9-3.1,23.1H58.4C58.5,110.3,62,100.3,67.8,92z M58.6,125.8h18.3
			c0.3,6.9,1.3,13.5,3,19.5c-4.5,1.7-8.5,3.7-12,6.1C62.7,144,59.3,135.3,58.6,125.8z M70.6,154.9c3.1-2,6.6-3.8,10.6-5.3
			c3,8.7,7.3,16,12.4,21C84.5,167.6,76.6,162,70.6,154.9z M107.7,173.1c-9.5-1.3-17.6-11-22.3-25c6.7-2,14.2-3.2,22.3-3.4V173.1z
			 M107.7,140.1c-8.5,0.2-16.5,1.5-23.6,3.7c-1.5-5.5-2.4-11.6-2.7-18h26.2V140.1z M107.7,121.2H81.4c0-7.7,1-15.1,2.8-21.7
			c7.1,2.2,15.1,3.5,23.5,3.7L107.7,121.2L107.7,121.2z M107.7,98.6c-8-0.2-15.6-1.4-22.3-3.4c4.6-14,12.8-23.7,22.3-25L107.7,98.6z
			 M112.3,70.2c9.4,1.4,17.4,11.2,22,25c-6.6,2-14.1,3.1-22,3.3L112.3,70.2z M112.3,103.2c8.4-0.2,16.3-1.5,23.3-3.6
			c1.7,6.6,2.7,13.9,2.8,21.6h-26.1V103.2z M112.3,125.8h26c-0.3,6.4-1.2,12.4-2.6,17.9c-7.1-2.1-15-3.4-23.3-3.6V125.8z
			 M112.3,173.1v-28.4c7.9,0.2,15.4,1.4,22,3.3C129.8,162,121.7,171.7,112.3,173.1z M126.1,170.7c5.2-5,9.6-12.4,12.6-21.2
			c4.1,1.5,7.7,3.3,10.8,5.4C143.4,162.1,135.3,167.7,126.1,170.7z M152.2,151.3c-3.6-2.4-7.7-4.5-12.3-6.2c1.6-6,2.7-12.5,3-19.4
			h18.6C160.7,135.3,157.4,144,152.2,151.3z M143,121.2c0-8.2-1.1-16-3.1-23c4.6-1.7,8.7-3.8,12.3-6.1c5.8,8.3,9.3,18.3,9.4,29.2
			L143,121.2z"/>
		<path class="st0" d="M37,120.3c0-41.1,33.5-74.6,74.6-74.6c4.3,0,8.4,0.4,12.5,1.1l4.7-2.9l1.6-5.2c-5.3-1.1-13.1-2.2-18.7-2.2
			c-46.2,0-83.8,37.6-83.8,83.8c0,4.9,0.2,9.4,0.8,13.7c2.3,18.2,25.4,49.6,43.7,49.7C52.5,169.5,37,147.1,37,120.3z"/>
	</g>
</g>
</svg>
