<?xml version="1.0" encoding="utf-8"?>
<!-- Generator: Adobe Illustrator 21.0.0, SVG Export Plug-In . SVG Version: 6.00 Build 0)  -->
<svg version="1.1" id="Layer_1" xmlns="http://www.w3.org/2000/svg" xmlns:xlink="http://www.w3.org/1999/xlink" x="0px" y="0px"
	 viewBox="0 0 200 200" style="enable-background:new 0 0 200 200;" xml:space="preserve">
<style type="text/css">
	.st0{fill:#FFFFFF;}
</style>
<g>
	<path class="st0" d="M168.7,68.5c-0.7-0.9-1.8-1.5-3-1.5H68.1l-4.3-16.4c-0.4-1.7-2-2.9-3.7-2.9H40.2c-2.1,0-3.8,1.7-3.8,3.8
		c0,2.1,1.7,3.8,3.8,3.8h16.9l4.3,16.4c0,0,0,0,0,0l15,57.7c0.4,1.7,2,2.9,3.7,2.9h70.4c1.7,0,3.3-1.2,3.7-2.9l15-57.7
		C169.6,70.7,169.4,69.5,168.7,68.5z M96.7,124.8H83.1l-3-11.6h16.6V124.8z M96.7,105.5H78.1l-3-11.6h21.6V105.5z M96.7,86.3H73.1
		l-3-11.6h26.6V86.3z M126.4,124.8h-22.1v-11.6h22.1V124.8z M126.4,105.5h-22.1V94h22.1V105.5z M126.4,86.3h-22.1V74.7h22.1V86.3z
		 M147.6,124.8h-13.5v-11.6h16.6L147.6,124.8z M152.6,105.5h-18.5V94h21.6L152.6,105.5z M157.7,86.3h-23.6V74.7h26.6L157.7,86.3z"/>
	<path class="st0" d="M90.3,135.6c-7.7,0-14,6.3-14,14c0,7.7,6.3,14,14,14c7.7,0,14-6.3,14-14C104.3,141.9,98.1,135.6,90.3,135.6z
		 M90.3,155.9c-3.5,0-6.3-2.8-6.3-6.3c0-3.5,2.8-6.3,6.3-6.3c3.5,0,6.3,2.8,6.3,6.3C96.7,153.1,93.8,155.9,90.3,155.9z"/>
	<path class="st0" d="M140.4,135.6c-7.7,0-14,6.3-14,14c0,7.7,6.3,14,14,14c7.7,0,14-6.3,14-14C154.4,141.9,148.2,135.6,140.4,135.6
		z M140.4,155.9c-3.5,0-6.3-2.8-6.3-6.3c0-3.5,2.8-6.3,6.3-6.3c3.5,0,6.3,2.8,6.3,6.3C146.8,153.1,143.9,155.9,140.4,155.9z"/>
</g>
</svg>
