<?xml version="1.0" encoding="utf-8"?>
<!-- Generator: Adobe Illustrator 21.0.0, SVG Export Plug-In . SVG Version: 6.00 Build 0)  -->
<svg version="1.1" id="Layer_1" xmlns="http://www.w3.org/2000/svg" xmlns:xlink="http://www.w3.org/1999/xlink" x="0px" y="0px"
	 viewBox="0 0 200 200" style="enable-background:new 0 0 200 200;" xml:space="preserve">
<style type="text/css">
	.st0{fill:#FFFFFF;}
</style>
<path id="XMLID_130_" class="st0" d="M59.1,102.6c1.6,0,2.8,1.3,2.8,2.8s-1.3,2.8-2.8,2.8c-9.1,0-17.5-4.9-22-12.8
	c-0.8-1.4-0.3-3.1,1.1-3.9c1.4-0.8,3.1-0.3,3.9,1.1C45.5,98.8,52,102.6,59.1,102.6z M58.9,129.9v20.5c0,1.6,1.3,2.8,2.8,2.8
	s2.8-1.3,2.8-2.8v-20.5c0-1.6-1.3-2.8-2.8-2.8S58.9,128.3,58.9,129.9z M101.1,105.4c0,1.6,1.3,2.8,2.8,2.8c5.2,0,10.2-1.6,14.4-4.5
	c1.3-0.9,1.6-2.7,0.7-4c-0.9-1.3-2.7-1.6-4-0.7c-3.3,2.3-7.2,3.5-11.2,3.5C102.4,102.6,101.1,103.8,101.1,105.4z M115.9,126.7
	c-1.6,0-2.8,1.3-2.8,2.8v27.3c-0.6,0.6-3,2-9.2,3.3c-5.9,1.2-13.5,1.8-21.4,1.8c-7.9,0-15.5-0.7-21.4-1.8c-6.2-1.2-8.7-2.7-9.2-3.3
	v-36.4c1.1,0.1,2.2,0.2,3.3,0.2c6.9,0,13.7-2.4,19.1-6.7c1.2-1,1.4-2.8,0.4-4c-1-1.2-2.8-1.4-4-0.4c-4.4,3.6-9.8,5.5-15.5,5.5
	c-13.6,0-24.7-11.1-24.7-24.7s11.1-24.7,24.7-24.7c0.8,0,1.6,0,2.4,0.1c1.2,0.1,2.3-0.5,2.8-1.6c4.2-8.6,12.7-13.9,22.2-13.9
	c9.5,0,18,5.3,22.2,13.9c0.5,1.1,1.6,1.7,2.8,1.6c0.8-0.1,1.6-0.1,2.4-0.1c1.6,0,2.8-1.3,2.8-2.8c0-1.6-1.3-2.8-2.8-2.8
	c-0.3,0-0.7,0-1,0c-2.4-4.3-5.9-8-10.1-10.6c-4.9-3.1-10.5-4.8-16.3-4.8c-5.8,0-11.5,1.6-16.3,4.8C61.8,52,58.4,55.7,55.9,60
	c-0.3,0-0.7,0-1,0c-16.7,0-30.4,13.6-30.4,30.4c0,13.6,9,25.2,21.4,29v37.9c0,3.7,3.9,6.3,12,8.2c6.5,1.5,15.2,2.3,24.3,2.3
	c9.2,0,17.8-0.8,24.3-2.3c8.1-1.9,12-4.5,12-8.2v-27.6C118.7,128,117.4,126.7,115.9,126.7z M147,56.8c-1.6,0-2.8,1.3-2.8,2.8v20.5
	c0,1.6,1.3,2.8,2.8,2.8c1.6,0,2.8-1.3,2.8-2.8V59.7C149.8,58.1,148.5,56.8,147,56.8z M125.4,109.4c-4.4,3.6-10,5.6-15.7,5.6
	c-5.7,0-11.1-1.9-15.5-5.5c-1.2-1-3-0.8-4,0.4c-1,1.2-0.8,3,0.4,4c5.4,4.3,12.1,6.7,19.1,6.7c7,0,13.9-2.5,19.3-6.9
	c1.2-1,1.4-2.8,0.4-4C128.4,108.6,126.6,108.4,125.4,109.4z M162.5,49.9v39.5c0,5.5-8.8,8.2-18.4,8.7v42.4c3.3,1.2,5.7,4.4,5.7,8.1
	V162c0,4.7-3.8,8.6-8.6,8.6c-4.7,0-8.6-3.8-8.6-8.6v-13.4c0-3.7,2.4-6.9,5.7-8.1V98.1c-9.6-0.4-18.4-3.2-18.4-8.7V49.9
	c0-0.7,0.2-1.3,0.6-1.7c2.5-4.7,12.5-6.4,20.7-6.4c8.2,0,18.1,1.7,20.7,6.4C162.3,48.7,162.5,49.3,162.5,49.9z M141.2,145.7
	L141.2,145.7c-1.6,0-2.9,1.3-2.9,2.9V162c0,1.6,1.3,2.9,2.9,2.9c1.6,0,2.9-1.3,2.9-2.9v-13.4C144.1,147,142.8,145.7,141.2,145.7z
	 M156.8,50.7c-0.9-1.1-6.2-3.3-15.6-3.3c-9.4,0-14.7,2.3-15.6,3.3v38.4c0.9,1.1,6.2,3.3,15.6,3.3c9.4,0,14.7-2.2,15.6-3.3V50.7z
	 M135.5,56.8c-1.6,0-2.8,1.3-2.8,2.8v20.5c0,1.6,1.3,2.8,2.8,2.8c1.6,0,2.8-1.3,2.8-2.8V59.7C138.4,58.1,137.1,56.8,135.5,56.8z"/>
</svg>
