<?xml version="1.0" encoding="utf-8"?>
<!-- Generator: Adobe Illustrator 21.0.0, SVG Export Plug-In . SVG Version: 6.00 Build 0)  -->
<svg version="1.1" id="Layer_1" xmlns="http://www.w3.org/2000/svg" xmlns:xlink="http://www.w3.org/1999/xlink" x="0px" y="0px"
	 viewBox="0 0 200 200" style="enable-background:new 0 0 200 200;" xml:space="preserve">
<style type="text/css">
	.st0{fill:#FFFFFF;}
</style>
<path class="st0" d="M165.4,80.1l0-0.2l-1.3,0l0,10.3c-3.1-2.6-6.6-4.7-10-6.4c-8.7-4.3-18.2-7-27.9-8.6l0-4.9c4.7-4.1,9,1.9,12.1-4
	c-7.4,0.1-5.7-4.4-12.1-4l0-0.2l-1.3,0l0,12.9c-2.4-0.4-4.7-0.7-7.1-1c-13.1-1.5-26.5-1.4-39.6,0.5c-1.2,0.2-2.4,0.4-3.6,0.5l0-13
	l-1.3,0l0,0.2c-6.3-0.4-4.7,4.1-12.1,4c3.1,5.9,7.4-0.1,12.1,4l0,4.9C62.4,77,51.5,80.1,42,85.7c-2.2,1.3-4.5,2.8-6.6,4.6l0-10.4
	l-1.3,0l0,0.2c-6.3-0.4-4.7,4.1-12.1,4c3.1,5.9,7.4-0.1,12.1,4l0,3.3c-4.6,4.2-8.2,9.6-7.9,15.9c0.3,7.3,4.6,13,10.1,17.3v10.4
	c-2-1.7-3.6-3.5-4.6-5.2c-0.6-0.9-1-1.8-1.3-2.6c-0.3-0.8-0.5-1.5-0.7-2.1c-0.1-0.6-0.2-1-0.3-1.4c0-0.3-0.1-0.5-0.1-0.5
	s0,0.2,0,0.5c0,0.3,0,0.8,0,1.4c0.1,1.2,0.3,3.1,1.2,5.2c0.5,1.1,1.1,2.2,1.8,3.4c0.8,1.2,1.8,2.4,2.9,3.6c0.3,0.4,0.7,0.7,1.1,1.1
	v9.5c-2-1.7-3.6-3.5-4.6-5.2c-0.6-0.9-1-1.8-1.3-2.6c-0.3-0.8-0.5-1.5-0.7-2.1c-0.1-0.6-0.2-1-0.3-1.4c0-0.3-0.1-0.5-0.1-0.5
	s0,0.2,0,0.5c0,0.3,0,0.8,0,1.4c0.1,1.2,0.3,3.1,1.2,5.2c0.5,1.1,1.1,2.2,1.8,3.4c0.8,1.2,1.8,2.4,2.9,3.6c0.3,0.4,0.7,0.7,1.1,1.1
	l0.3,0.3c2,1.9,4.4,3.8,7.2,5.5c1.7,1.1,3.5,2.1,5.5,3c1.9,1,4,1.8,6.1,2.7c4.2,1.7,8.8,3.1,13.7,4.2c2.4,0.6,4.9,1.1,7.4,1.5
	c0.1,0,0.2,0,0.4,0.1l0.7,2.4l1.5-0.5l1.5-0.5l-5.4-17.9c16.5-4.2,32.7-4.2,49.2,0l-5.4,17.9l1.5,0.5l1.5,0.5l0.7-2.4
	c0.1,0,0.2,0,0.4-0.1c2.5-0.4,5-0.9,7.4-1.5c4.8-1.1,9.4-2.5,13.7-4.2c2.1-0.8,4.2-1.7,6.1-2.7c1.9-1,3.8-2,5.5-3
	c2.8-1.7,5.2-3.6,7.2-5.5l0.3-0.3c0.4-0.4,0.7-0.7,1.1-1.1c2.3-2.4,3.8-4.8,4.7-7c0.9-2.2,1.1-4,1.2-5.2c0-0.6,0-1.1,0-1.4
	c0-0.3,0-0.5,0-0.5s0,0.2-0.1,0.5c0,0.3-0.1,0.8-0.3,1.4c-0.1,0.6-0.4,1.3-0.7,2.1c-0.3,0.8-0.8,1.7-1.3,2.6
	c-0.6,0.9-1.3,1.9-2.2,2.9c-0.7,0.8-1.5,1.6-2.5,2.4v-9.5c0.4-0.4,0.7-0.7,1.1-1.1c2.3-2.4,3.8-4.8,4.7-7c0.9-2.2,1.1-4,1.2-5.2
	c0-0.6,0-1.1,0-1.4c0-0.3,0-0.5,0-0.5s0,0.2-0.1,0.5c0,0.3-0.1,0.8-0.3,1.4c-0.1,0.6-0.4,1.3-0.7,2.1c-0.3,0.8-0.8,1.7-1.3,2.6
	c-0.6,0.9-1.3,1.9-2.2,2.9c-0.7,0.8-1.5,1.6-2.5,2.4v-10.3c5.5-4.4,9.8-10.1,10.2-17.5c0-6.5-3.4-11.8-8-16l0-3.1
	c4.7-4.1,9,1.9,12.1-4C170.1,84.2,171.7,79.7,165.4,80.1z M126.8,81.6c6.2,1.2,12.3,2.8,18.2,5.1c5.2,2,11.7,5,16.2,9.3l-24.9,15.5
	c-4.9-3.8-12.9-6.8-22.4-8.3L126.8,81.6z M108,79.4c4.9,0.3,9.9,0.8,14.8,1.5l-13,21.8c-3.3-0.4-6.7-0.5-10.2-0.5
	c-3.5,0-6.9,0.2-10.2,0.5l-13-21.8C87,79.3,97.5,78.8,108,79.4z M42.8,92.5c8.9-5.9,19.5-9,29.9-10.9l12.9,21.7
	c-9.5,1.5-17.4,4.5-22.4,8.3L38.3,96C39.7,94.7,41.2,93.5,42.8,92.5z M53.9,157.1c-3-1-5.7-2.1-8.3-3.4c-1.7-0.8-3.3-1.7-4.7-2.6
	c-0.3-0.2-0.6-0.4-0.9-0.6v-9.1c1.2,0.9,2.4,1.8,3.8,2.6c1.7,1.1,3.5,2.1,5.5,3c1.5,0.7,3,1.4,4.6,2.1L53.9,157.1z M53.9,144.2
	c-3-1-5.7-2.1-8.3-3.4c-1.7-0.8-3.3-1.7-4.7-2.6c-0.3-0.2-0.6-0.4-0.9-0.6v-10.5c1.3,0.8,2.6,1.6,3.9,2.3c3.2,1.7,6.5,3.2,9.9,4.4
	V144.2z M50.6,125.7c-5.2-2.4-10.4-5.3-14.2-9.6c-1.8-2.1-4.5-6-3.9-9.1c0.3-1.5,0.7-4,1.6-5.9c0.5-0.8,1-1.6,1.6-2.4l24.7,15.3
	c-1.7,2-2.7,4.2-2.7,6.5c0,3.6,2.4,7,6.5,9.8C59.5,129.3,55,127.7,50.6,125.7z M70.2,161.3c-4.4-0.8-8.7-1.8-12.6-3v-7.6
	c3.6,1.3,7.4,2.4,11.4,3.4c1.2,0.3,2.4,0.6,3.7,0.8l2.2,7.2C73.2,161.8,71.7,161.6,70.2,161.3z M141.9,158.3c-4,1.2-8.2,2.2-12.6,3
	c-1.5,0.3-3.1,0.5-4.6,0.8l2.2-7.2c1.2-0.2,2.5-0.5,3.7-0.8c4-0.9,7.8-2.1,11.4-3.4L141.9,158.3L141.9,158.3z M141.9,145.4
	c-4,1.2-8.2,2.2-12.6,3c-1.4,0.2-2.7,0.5-4.1,0.7c-17.1-4.4-33.8-4.4-50.9,0c-1.4-0.2-2.8-0.4-4.1-0.7c-4.4-0.8-8.7-1.8-12.6-3
	v-10.1c7.5,2.4,15.4,3.9,23.1,4.8c12.8,1.6,25.9,1.6,38.7,0c7.6-0.9,15.2-2.4,22.5-4.8V145.4z M159.5,150.6
	c-0.3,0.2-0.6,0.4-0.9,0.6c-1.5,0.9-3,1.8-4.7,2.6c-2.5,1.2-5.3,2.3-8.3,3.4v-7.9c1.6-0.7,3.2-1.4,4.6-2.1c1.9-1,3.8-2,5.5-3
	c1.3-0.8,2.6-1.7,3.8-2.6L159.5,150.6L159.5,150.6z M159.5,137.7c-0.3,0.2-0.6,0.4-0.9,0.6c-1.5,0.9-3,1.8-4.7,2.6
	c-2.5,1.2-5.3,2.3-8.3,3.4V134c3.1-1.1,6.2-2.5,9.2-4c1.6-0.8,3.2-1.7,4.7-2.7V137.7z M166.8,107c-0.1,5.6-5.1,10.9-10,14.2
	c-6.4,4.3-13.8,7.2-21.4,9.1c4-2.8,6.3-6.2,6.3-9.8c0-2.3-1-4.5-2.7-6.5l24.6-15.3C165.4,101.2,166.6,103.9,166.8,107z"/>
</svg>
