<?xml version="1.0" encoding="UTF-8"?>
<svg viewBox="0 0 107.48 106.21" xmlns="http://www.w3.org/2000/svg">
<defs>
<style>.cls-1{fill:#ddf3ee}.cls-2{fill:#00c395}.cls-3{fill:rgba(132,255,227,.28)}.cls-4{fill:#fff}.cls-5{fill:none}.cls-6{fill:#ed1846}.cls-7{fill:#404f54}</style>
</defs>
<g transform="translate(23 36.946)" data-name="chat (6)">
<g transform="translate(-23 -36.946)" data-name="blob-shape (12)">
<path class="cls-1" transform="translate(217.48 242.36)" d="M-114.18-213.34c6.766 14.1 4.244 27.915-.03 40.256-4.244 12.315-10.3 23.155-21.487 29.856s-27.541 9.262-43.8 4.993c-16.293-4.269-32.467-15.368-36.77-29.467-4.3-14.126 3.294-31.278 15.848-46.517 12.524-15.264 30-28.64 46.742-28.122 16.734.491 32.76 14.901 39.497 29.001z" data-name="Path 232"/>
</g>
<path class="cls-2" transform="translate(1.045 1.045)" d="M4.182 0h25.09a4.182 4.182 0 0 1 4.182 4.182v52.27a4.182 4.182 0 0 1-4.182 4.182H4.182A4.182 4.182 0 0 1 0 56.452V4.182A4.182 4.182 0 0 1 4.182 0z" data-name="Path 353"/>
<path class="cls-3" transform="translate(-1.955 -.592)" d="M3 33v25.09a4.182 4.182 0 0 0 4.182 4.182h21.35C14.813 57.748 3 46.36 3 33z" data-name="Path 337"/>
<path class="cls-4" transform="translate(-1.364 -.456)" d="M18.091 36h31.362v12.545H18.091A2.091 2.091 0 0 1 16 46.454v-8.363A2.091 2.091 0 0 1 18.091 36z" data-name="Path 338"/>
<circle class="cls-4" transform="translate(42.862 32.408)" cx="9.409" cy="9.409" r="9.409" data-name="Ellipse 1"/>
<path class="cls-4" transform="translate(-1.001 -1.364)" d="M24 16h30.317a2.091 2.091 0 0 1 2.091 2.091v8.363a2.091 2.091 0 0 1-2.091 2.091H24z" data-name="Path 339"/>
<circle class="cls-4" transform="translate(8.363 11.5)" cx="9.409" cy="9.409" r="9.409" data-name="Ellipse 2"/>
<path class="cls-4" transform="translate(-1.637 -1.955)" d="M12.091 9.272h14.636a2.091 2.091 0 0 0 2.091-2.091V3H10v4.182a2.091 2.091 0 0 0 2.091 2.09z" data-name="Path 340"/>
<circle class="cls-5" transform="translate(14.636 15.681)" cx="3.136" cy="3.136" r="3.136" data-name="Ellipse 3"/>
<path class="cls-6" transform="translate(-1.455 -1.001)" d="M20.272 24h-2.09A4.182 4.182 0 0 0 14 28.182v1.549a9.4 9.4 0 0 0 10.454 0v-1.549A4.182 4.182 0 0 0 20.272 24z" data-name="Path 341"/>
<circle class="cls-5" transform="translate(49.135 36.59)" cx="3.136" cy="3.136" r="3.136" data-name="Ellipse 4"/>
<path class="cls-2" transform="translate(.044 -.093)" d="M53.272 44h-2.09A4.182 4.182 0 0 0 47 48.182v1.549a9.4 9.4 0 0 0 10.454 0v-1.549A4.182 4.182 0 0 0 53.272 44z" data-name="Path 342"/>
<circle class="cls-6" transform="translate(14.636 15.681)" cx="3.136" cy="3.136" r="3.136" data-name="Ellipse 5"/>
<circle class="cls-2" transform="translate(49.135 36.59)" cx="3.136" cy="3.136" r="3.136" data-name="Ellipse 6"/>
<path class="cls-7" transform="translate(-1.682 .452)" d="M9 57.045a1.045 1.045 0 0 0 1.045 1.045h18.818a1.045 1.045 0 1 0 0-2.091H10.045A1.045 1.045 0 0 0 9 57.045z" data-name="Path 343"/>
<path class="cls-7" transform="translate(-2 -2)" d="M54.271 33.362a10.417 10.417 0 0 0-7.453 3.138h-9.274v-6.274h17.772a3.136 3.136 0 0 0 3.136-3.136v-8.363a3.136 3.136 0 0 0-3.136-3.136H37.544V7.227A5.233 5.233 0 0 0 32.317 2H7.227A5.233 5.233 0 0 0 2 7.227V59.5a5.233 5.233 0 0 0 5.227 5.227h25.09a5.233 5.233 0 0 0 5.227-5.227v-8.365h9.274a10.454 10.454 0 1 0 7.453-17.772zm2.091-14.636v8.364a1.045 1.045 0 0 1-1.045 1.045h-26.5a10.365 10.365 0 0 0 0-10.454h26.5a1.045 1.045 0 0 1 1.045 1.046zm-28.227 4.182a8.32 8.32 0 0 1-2.16 5.589 5.208 5.208 0 0 0-3.735-4.322 4.182 4.182 0 1 0-4.936 0 5.208 5.208 0 0 0-3.735 4.325 8.358 8.358 0 1 1 14.567-5.589zm-8.363 0a2.091 2.091 0 1 1 2.091-2.091 2.091 2.091 0 0 1-2.091 2.091zm-4.182 6.273a3.136 3.136 0 0 1 3.136-3.136h2.091a3.136 3.136 0 0 1 3.136 3.136v.96a8.3 8.3 0 0 1-8.363 0zm-4.181-25.09h16.726v3.136a1.045 1.045 0 0 1-1.045 1.045H12.454a1.045 1.045 0 0 1-1.045-1.045zM35.453 59.5a3.136 3.136 0 0 1-3.136 3.136H7.227A3.136 3.136 0 0 1 4.091 59.5V7.227a3.136 3.136 0 0 1 3.136-3.136h2.091v3.136a3.136 3.136 0 0 0 3.136 3.136H27.09a3.136 3.136 0 0 0 3.136-3.136V4.091h2.091a3.136 3.136 0 0 1 3.136 3.136v8.363h-8.228a10.454 10.454 0 1 0 0 14.636h8.228V36.5H18.727a3.136 3.136 0 0 0-3.136 3.136V48a3.136 3.136 0 0 0 3.136 3.136h16.726zM18.727 49.044A1.045 1.045 0 0 1 17.681 48v-8.365a1.045 1.045 0 0 1 1.045-1.045h26.5a10.365 10.365 0 0 0 0 10.454zm31.362 2.005v-.96a3.136 3.136 0 0 1 3.136-3.136h2.091a3.136 3.136 0 0 1 3.136 3.136v.96a8.3 8.3 0 0 1-8.363 0zm4.182-7.232a2.091 2.091 0 1 1 2.091-2.091 2.091 2.091 0 0 1-2.091 2.091zm6.2 5.589a5.208 5.208 0 0 0-3.735-4.322 4.182 4.182 0 1 0-4.936 0 5.208 5.208 0 0 0-3.735 4.322 8.363 8.363 0 1 1 12.407 0z" data-name="Path 344"/>
<path class="cls-6" transform="translate(-.592 -1.228)" d="M33 19h2.091v2.091H33z" data-name="Path 345"/>
<path class="cls-6" transform="translate(-.41 -1.228)" d="M37 19h12.545v2.091H37z" data-name="Path 346"/>
<path class="cls-6" transform="translate(-.592 -1.046)" d="M33 23h2.091v2.091H33z" data-name="Path 347"/>
<path class="cls-6" transform="translate(-.41 -1.046)" d="M37 23h12.545v2.091H37z" data-name="Path 348"/>
<path class="cls-2" transform="translate(-1.137 -.32)" d="M21 39h2.091v2.091H21z" data-name="Path 349"/>
<path class="cls-2" transform="translate(-.955 -.32)" d="M25 39h12.545v2.091H25z" data-name="Path 350"/>
<path class="cls-2" transform="translate(-1.137 -.138)" d="M21 43h2.091v2.091H21z" data-name="Path 351"/>
<path class="cls-2" transform="translate(-.955 -.138)" d="M25 43h12.545v2.091H25z" data-name="Path 352"/>
</g>
</svg>
