<?xml version="1.0" encoding="UTF-8"?>
<svg width="323px" height="205px" viewBox="0 0 323 205" version="1.1" xmlns="http://www.w3.org/2000/svg" xmlns:xlink="http://www.w3.org/1999/xlink">
    <!-- Generator: Sketch 55 (78076) - https://sketchapp.com -->
    <title>Group 12</title>
    <desc>Created with Sketch.</desc>
    <defs>
        <linearGradient x1="50%" y1="68.4899383%" x2="75.7034673%" y2="28.3920059%" id="linearGradient-1">
            <stop stop-color="#ECF2FC" offset="0%"></stop>
            <stop stop-color="#B9CFF7" offset="100%"></stop>
        </linearGradient>
        <linearGradient x1="30.286812%" y1="1.41464298%" x2="85.0355696%" y2="88.5862397%" id="linearGradient-2">
            <stop stop-color="#ACD6FF" stop-opacity="0.152485281" offset="0%"></stop>
            <stop stop-color="#96ACCB" stop-opacity="0.457455842" offset="100%"></stop>
        </linearGradient>
        <linearGradient x1="30.286812%" y1="2.61224985%" x2="85.0355696%" y2="87.6351065%" id="linearGradient-3">
            <stop stop-color="#ACD6FF" stop-opacity="0.152485281" offset="0%"></stop>
            <stop stop-color="#96ACCB" stop-opacity="0.457455842" offset="100%"></stop>
        </linearGradient>
        <linearGradient x1="30.286812%" y1="3.3168906%" x2="85.0355696%" y2="87.0754845%" id="linearGradient-4">
            <stop stop-color="#ACD6FF" stop-opacity="0.152485281" offset="0%"></stop>
            <stop stop-color="#96ACCB" stop-opacity="0.457455842" offset="100%"></stop>
        </linearGradient>
        <polygon id="path-5" points="0.227185796 0.206498531 4.99792939 0.206498531 4.99792939 61.7492562 0.227185796 61.7492562"></polygon>
        <polygon id="path-7" points="-15.6753228 61.729637 20.900408 61.729637 20.900408 66.4780654 -15.6753228 66.4780654"></polygon>
        <polygon id="path-9" points="-29.0788602 -4.52231922 34.5311082 -4.52231922 34.5311082 0.226112049 -29.0788602 0.226112049"></polygon>
        <linearGradient x1="93.3958167%" y1="76.9505372%" x2="36.8840443%" y2="40.1590018%" id="linearGradient-11">
            <stop stop-color="#367ED7" offset="0%"></stop>
            <stop stop-color="#153D8E" offset="100%"></stop>
        </linearGradient>
        <polygon id="path-12" points="0.227201698 33.4651323 6.90324206 0.452237891 45.4357047 1.13057788 39.0746997 33.4651323"></polygon>
        <linearGradient x1="0%" y1="66.9957643%" x2="106.166257%" y2="55.4049913%" id="linearGradient-14">
            <stop stop-color="#FDAE6B" offset="0%"></stop>
            <stop stop-color="#FAE539" offset="100%"></stop>
        </linearGradient>
        <radialGradient cx="50%" cy="14.7303753%" fx="50%" fy="14.7303753%" r="85.2696247%" gradientTransform="translate(0.500000,0.147304),scale(0.205764,1.000000),rotate(90.000000),scale(1.000000,3.338140),translate(-0.500000,-0.147304)" id="radialGradient-15">
            <stop stop-color="#956100" offset="0%"></stop>
            <stop stop-color="#FFEA94" offset="100%"></stop>
        </radialGradient>
        <radialGradient cx="42.0546178%" cy="45.5410746%" fx="42.0546178%" fy="45.5410746%" r="42.3011579%" gradientTransform="translate(0.420546,0.455411),scale(0.836240,1.000000),rotate(-67.672916),scale(1.000000,1.538504),translate(-0.420546,-0.455411)" id="radialGradient-16">
            <stop stop-color="#FFEA94" offset="0%"></stop>
            <stop stop-color="#FAA300" offset="100%"></stop>
        </radialGradient>
        <radialGradient cx="52.9469765%" cy="28.6240847%" fx="52.9469765%" fy="28.6240847%" r="54.2375284%" gradientTransform="translate(0.529470,0.286241),scale(0.823541,1.000000),rotate(108.547150),scale(1.000000,3.925275),translate(-0.529470,-0.286241)" id="radialGradient-17">
            <stop stop-color="#FFF8D9" offset="0%"></stop>
            <stop stop-color="#FFEA94" offset="100%"></stop>
        </radialGradient>
        <filter x="-47.3%" y="-56.7%" width="194.6%" height="213.4%" filterUnits="objectBoundingBox" id="filter-18">
            <feGaussianBlur stdDeviation="8.35903227" in="SourceGraphic"></feGaussianBlur>
        </filter>
        <linearGradient x1="78.2262224%" y1="44.6304231%" x2="50%" y2="65.6897692%" id="linearGradient-19">
            <stop stop-color="#43486A" offset="0%"></stop>
            <stop stop-color="#353953" offset="100%"></stop>
        </linearGradient>
        <path d="M1.41680138,10.8889487 C0.967503817,8.85021925 0.291613626,7.33372123 0.967503817,4.58156611 C1.64339401,1.82941098 9.42016159,0.269583508 10.4013259,1.1510615 C11.3825258,2.03252298 11.2228445,2.50432713 15.1098017,4.55898527 C18.9967588,6.6136269 30.1380685,9.00336618 32.522766,11.6687468 C34.9074635,14.334111 35.3513397,16.0964397 30.3951208,16.0964397 L15.0644689,16.0964397 C12.3130073,15.1038072 11.3875549,14.5692125 9.84509856,13.6503639 C9.53051537,14.8017225 9.84509856,15.7821567 9.84509856,15.7821567 L3.24281057,15.7821567 C3.24281057,15.7821567 1.86606327,12.9276616 1.41680138,10.8889487 Z" id="path-20"></path>
        <linearGradient x1="50%" y1="30.3939122%" x2="33.4022007%" y2="69.6060878%" id="linearGradient-22">
            <stop stop-color="#43486A" offset="0%"></stop>
            <stop stop-color="#353953" offset="100%"></stop>
        </linearGradient>
        <path d="M5.02717635,18.1337745 C3.56424978,16.7591832 2.20474965,15.9199845 1.24811519,13.3763537 C0.29151503,10.8326799 5.61988013,5.42434165 6.87718878,5.59646898 C8.13453173,5.76861779 8.26375474,6.22816103 12.4647546,5.77108811 C16.665823,5.31401518 24.180002,0.228514983 27.5196638,1.06135522 C30.8593255,1.89423841 33.8572856,1.91122989 29.9220728,4.57023521 C28.072472,5.82002185 20.9115552,13.4367368 18.6888646,14.9386461 C15.9656793,15.6281435 14.9407799,15.7009856 13.2174863,15.8003783 C13.5924286,16.881539 14.3741815,17.4897738 14.3741815,17.4897738 L9.1319879,21.0318849 C9.1319879,21.0318849 6.49010292,19.5083658 5.02717635,18.1337745 Z" id="path-23"></path>
        <linearGradient x1="60.6385526%" y1="16.2692604%" x2="52.2395337%" y2="80.0144172%" id="linearGradient-25">
            <stop stop-color="#F5F8FF" offset="0%"></stop>
            <stop stop-color="#FFFFFF" offset="100%"></stop>
        </linearGradient>
        <path d="M88.874284,46.2463965 C99.0840561,40.8352993 104.901956,25.0391071 109.118844,20.5975154 C113.33576,16.1559236 115.197801,24.6536637 114.500703,27.1554443 C113.803606,29.6572249 108.664487,46.472497 97.9370317,60.052776 C97.9370317,68.9245398 87.5552287,53.3649074 88.874284,46.2463965 Z" id="path-26"></path>
        <filter x="-1.7%" y="2.8%" width="105.2%" height="88.8%" filterUnits="objectBoundingBox" id="filter-27">
            <feGaussianBlur stdDeviation="2" in="SourceAlpha" result="shadowBlurInner1"></feGaussianBlur>
            <feOffset dx="0" dy="0" in="shadowBlurInner1" result="shadowOffsetInner1"></feOffset>
            <feComposite in="shadowOffsetInner1" in2="SourceAlpha" operator="arithmetic" k2="-1" k3="1" result="shadowInnerInner1"></feComposite>
            <feColorMatrix values="0 0 0 0 0.898039216   0 0 0 0 0.941176471   0 0 0 0 1  0 0 0 1 0" type="matrix" in="shadowInnerInner1"></feColorMatrix>
        </filter>
        <radialGradient cx="100%" cy="77.3811364%" fx="100%" fy="77.3811364%" r="66.8439267%" gradientTransform="translate(1.000000,0.773811),scale(0.587169,1.000000),rotate(-59.945368),scale(1.000000,0.959077),translate(-1.000000,-0.773811)" id="radialGradient-28">
            <stop stop-color="#BEBEBE" offset="0%"></stop>
            <stop stop-color="#E4E4E4" offset="100%"></stop>
        </radialGradient>
        <linearGradient x1="50%" y1="53.769793%" x2="86.1217409%" y2="39.1888744%" id="linearGradient-29">
            <stop stop-color="#18A1B2" offset="0%"></stop>
            <stop stop-color="#87D3E1" offset="100%"></stop>
        </linearGradient>
        <path d="M3.24548151,21.4824244 C6.21907803,17.4894801 13.4992433,9.16061464 29.1710517,6.12651131 C44.842767,3.09240799 59.2364644,0.259322143 85.655973,8.08167009 C87.8311461,33.4709864 90.3097796,59.033641 92.8112333,64.210492 C90.9031949,66.5213708 84.0105053,68.2870223 79.9668798,68.2870223 C78.4998744,62.5708361 73.9030714,48.7993573 71.5678784,41.9876463 C69.2325922,35.1758668 68.4045492,26.7202521 68.8557348,23.7388354 C60.8940407,25.9901764 44.5851329,32.8333349 38.8672584,34.8605009 C33.1492908,36.8877355 13.5308189,43.3145398 7.03715472,38.1404293 C0.543397403,32.9663873 0.271791845,25.4753688 3.24548151,21.4824244 Z" id="path-30"></path>
        <filter x="-5.5%" y="-5.1%" width="112.1%" height="114.2%" filterUnits="objectBoundingBox" id="filter-32">
            <feGaussianBlur stdDeviation="3.5" in="SourceAlpha" result="shadowBlurInner1"></feGaussianBlur>
            <feOffset dx="6" dy="1" in="shadowBlurInner1" result="shadowOffsetInner1"></feOffset>
            <feComposite in="shadowOffsetInner1" in2="SourceAlpha" operator="arithmetic" k2="-1" k3="1" result="shadowInnerInner1"></feComposite>
            <feColorMatrix values="0 0 0 0 0.0941176471   0 0 0 0 0.631372549   0 0 0 0 0.698039216  0 0 0 1 0" type="matrix" in="shadowInnerInner1"></feColorMatrix>
        </filter>
        <linearGradient x1="50%" y1="100%" x2="80.2703429%" y2="39.0738882%" id="linearGradient-33">
            <stop stop-color="#002343" offset="0%"></stop>
            <stop stop-color="#1A72FF" stop-opacity="0.436933877" offset="100%"></stop>
        </linearGradient>
        <linearGradient x1="16.204449%" y1="50%" x2="42.225093%" y2="50%" id="linearGradient-34">
            <stop stop-color="#E8E8E8" offset="0%"></stop>
            <stop stop-color="#F6F6F6" offset="100%"></stop>
        </linearGradient>
        <path d="M3.1673321,14.0547308 C2.37911007,10.119862 0.858549678,3.22269868 0.554993731,1.74897478 C0.251418475,0.275250877 14.9578158,5.36579346 14.9578158,5.36579346 L16.8071319,15.0137245 L18.923894,31.3304508 C18.923894,31.3304508 3.95559274,17.9895996 3.1673321,14.0547308 Z" id="path-35"></path>
        <linearGradient x1="76.2362807%" y1="78.8876862%" x2="67.0850084%" y2="60.2052241%" id="linearGradient-37">
            <stop stop-color="#B1C2E4" offset="0%"></stop>
            <stop stop-color="#FFFFFF" stop-opacity="0" offset="100%"></stop>
        </linearGradient>
        <path d="M28.0317619,0.293240657 C28.0317619,0.293240657 33.6157701,1.19779015 34.0004287,1.89312637 C37.6316685,4.51827853 41.125358,12.3311145 42.6170921,16.3786631 C44.1088263,20.4262118 46.9693892,24.6061739 49.5480545,27.8560969 C52.126658,31.10602 53.3636215,31.7765286 56.742315,34.181102 C60.1210086,36.5856754 61.3621121,38.4934225 59.4500032,40.2860249 C57.5378942,42.0786826 46.5270163,41.382574 38.688692,51.1302465 C31.8412113,53.924281 31.8496769,54.9460716 29.8151569,48.9087347 C27.7806987,42.8713979 11.0518464,27.7762075 8.3384733,25.6484886 C5.62503844,23.5207697 6.67328742,21.4763609 5.98936737,14.9593563 C5.30544733,8.4424068 0.371991206,3.15828188 4.52154692,3.15828188 C7.79167094,4.36980993 10.9771392,1.89312637 12.4149284,1.89312637 C17.6533926,3.19121973 18.8462362,8.32284847 21.0209017,7.24671319 C23.1955672,6.17057791 24.5880008,6.17057791 24.5880008,6.17057791 C25.0953795,7.19518228 25.2585736,8.9501021 25.7659523,9.97470647 C26.2733928,10.9993108 28.3963998,13.0543679 29.3398486,14.9593563 L27.6720056,9.41575612 L28.1373036,6.10106084 L28.0317619,0.293240657 Z" id="path-38"></path>
        <linearGradient x1="43.7493467%" y1="35.1021791%" x2="60.8216517%" y2="47.9736442%" id="linearGradient-40">
            <stop stop-color="#56C7DA" offset="0%"></stop>
            <stop stop-color="#18A1B2" offset="100%"></stop>
        </linearGradient>
        <radialGradient cx="100%" cy="77.3811364%" fx="100%" fy="77.3811364%" r="61.1344299%" gradientTransform="translate(1.000000,0.773811),scale(0.995322,1.000000),rotate(-71.152890),scale(1.000000,0.959077),translate(-1.000000,-0.773811)" id="radialGradient-41">
            <stop stop-color="#E7E7E7" offset="0%"></stop>
            <stop stop-color="#FFFFFF" offset="100%"></stop>
        </radialGradient>
        <radialGradient cx="100%" cy="77.3811364%" fx="100%" fy="77.3811364%" r="80.7518214%" gradientTransform="translate(1.000000,0.773811),scale(0.348935,1.000000),rotate(-45.764194),scale(1.000000,0.959077),translate(-1.000000,-0.773811)" id="radialGradient-42">
            <stop stop-color="#BEBEBE" offset="0%"></stop>
            <stop stop-color="#E4E4E4" offset="100%"></stop>
        </radialGradient>
        <path d="M14.4241553,11.90935 C18.4019649,13.5123667 31.284131,7.13162382 35.3720686,7.6982707 C39.12982,8.21919355 34.3617848,2.37009072 32.9505972,1.33504499 C31.5394097,0.300026847 3.32328743,0.769115347 1.84225201,2.92930313 C0.361256112,5.08950471 11.1253363,10.5799188 14.4241553,11.90935 Z" id="path-43"></path>
        <linearGradient x1="23.7028024%" y1="-6.56030944%" x2="30.6004382%" y2="43.6460947%" id="linearGradient-45">
            <stop stop-color="#43486A" offset="0%"></stop>
            <stop stop-color="#353953" offset="100%"></stop>
        </linearGradient>
        <linearGradient x1="54.4512112%" y1="38.1833915%" x2="59.5544391%" y2="88.7076613%" id="linearGradient-46">
            <stop stop-color="#353953" stop-opacity="0" offset="0%"></stop>
            <stop stop-color="#353953" offset="100%"></stop>
        </linearGradient>
        <path d="M70.6392625,28.9393677 C70.6392625,28.9393677 68.7193214,26.0358868 70.2034823,23.1561899 C71.6876433,20.276493 79.522878,24.1174126 85.8682695,17.017474 C92.2136275,9.91749169 86.5754499,0.336074469 80.051994,2.204755 C73.5285045,4.07343553 75.1281585,7.42060807 76.3107599,9.91749169 C77.4932941,12.4143753 71.4087117,13.3521632 67.0575332,15.109779 C62.7063547,16.8674384 59.154751,21.596745 59.9214767,28.9393677 C60.6882025,36.2819905 67.5320464,42.2939748 69.7102078,43.4001708 C69.0768622,39.0610527 69.0486866,37.0674298 69.0486866,35.8589408 C66.5501708,37.007948 63.6400157,31.3097379 65.3343504,29.8106477 C68.5710465,26.9469231 70.2034823,33.4695434 70.2034823,33.4695434 C70.2034823,33.4695434 70.6392625,32.5408327 71.4087117,31.6606501 C71.1155578,30.0897278 70.6392625,28.9393677 70.6392625,28.9393677 Z" id="path-47"></path>
        <linearGradient x1="36.9342656%" y1="57.5324188%" x2="50%" y2="33.7873003%" id="linearGradient-48">
            <stop stop-color="#EEF5FF" offset="0%"></stop>
            <stop stop-color="#ADC8F2" offset="100%"></stop>
        </linearGradient>
        <linearGradient x1="87.0397216%" y1="16.2692604%" x2="57.7972737%" y2="80.0144172%" id="linearGradient-49">
            <stop stop-color="#F5F8FF" offset="0%"></stop>
            <stop stop-color="#FFFFFF" offset="100%"></stop>
        </linearGradient>
        <path d="M57.458148,47.0406507 C50.7390743,43.3643434 37.3173209,32.9127022 33.7895644,33.7657475 C30.2618462,34.6187928 31.1773314,36.2034726 31.1773314,39.8382528 C31.1773314,43.4730717 49.614116,55.7478062 52.4528303,61.8215102 C53.6680125,64.4214771 56.781238,70.8439081 62.3540067,69.7974177 C67.9267371,68.7509274 66.236209,63.239463 65.0351554,58.7939766 C63.6233617,53.568446 61.5956264,49.304457 57.458148,47.0406507 Z" id="path-50"></path>
        <filter x="-10.2%" y="-9.9%" width="117.7%" height="119.5%" filterUnits="objectBoundingBox" id="filter-51">
            <feGaussianBlur stdDeviation="2" in="SourceAlpha" result="shadowBlurInner1"></feGaussianBlur>
            <feOffset dx="6" dy="-1" in="shadowBlurInner1" result="shadowOffsetInner1"></feOffset>
            <feComposite in="shadowOffsetInner1" in2="SourceAlpha" operator="arithmetic" k2="-1" k3="1" result="shadowInnerInner1"></feComposite>
            <feColorMatrix values="0 0 0 0 0.898039216   0 0 0 0 0.941176471   0 0 0 0 1  0 0 0 1 0" type="matrix" in="shadowInnerInner1"></feColorMatrix>
        </filter>
        <path d="M50.8307808,71.9284072 C81.574948,91.0497231 113.326828,93.1393252 124.003043,76.1338528 C136.824627,51.3434546 92.8604011,62.0700351 62.1162339,42.9487191 C31.3719296,23.8274966 32.1318308,7.86673179 10.9252616,0.265496011 C0.249183947,17.2710618 20.0864764,52.8071846 50.8307808,71.9284072 Z" id="path-52"></path>
        <path d="M-4.16417148,47.7898229 C11.882703,58.1620682 30.264755,58.3348067 36.8931422,48.1756697 C43.5216014,38.0165327 35.8863642,21.3725547 19.8394898,11.0003094 C3.79261532,0.628064027 -14.5894367,0.455267166 -21.2178959,10.6144625 C-27.8462831,20.7735995 -20.2111179,37.4175775 -4.16417148,47.7898229 Z" id="path-54"></path>
        <filter x="-4.1%" y="-7.9%" width="108.2%" height="115.8%" filterUnits="objectBoundingBox" id="filter-55">
            <feGaussianBlur stdDeviation="3" in="SourceAlpha" result="shadowBlurInner1"></feGaussianBlur>
            <feOffset dx="-7" dy="-9" in="shadowBlurInner1" result="shadowOffsetInner1"></feOffset>
            <feComposite in="shadowOffsetInner1" in2="SourceAlpha" operator="arithmetic" k2="-1" k3="1" result="shadowInnerInner1"></feComposite>
            <feColorMatrix values="0 0 0 0 1   0 0 0 0 0.917647059   0 0 0 0 0.580392157  0 0 0 1 0" type="matrix" in="shadowInnerInner1"></feColorMatrix>
        </filter>
        <path d="M52.1320274,89.1319099 C63.9580225,83.6431399 67.6345253,66.5778942 60.3436212,51.015637 C53.0527172,35.4533797 37.5553751,27.2872307 25.7293221,32.7760007 C13.903269,38.2647707 10.2268241,55.3300164 17.5177282,70.8922736 C24.8086322,86.4545308 40.3059743,94.6206798 52.1320274,89.1319099 Z" id="path-56"></path>
        <filter x="-4.7%" y="-3.4%" width="109.3%" height="106.9%" filterUnits="objectBoundingBox" id="filter-57">
            <feGaussianBlur stdDeviation="3" in="SourceAlpha" result="shadowBlurInner1"></feGaussianBlur>
            <feOffset dx="-4" dy="-7" in="shadowBlurInner1" result="shadowOffsetInner1"></feOffset>
            <feComposite in="shadowOffsetInner1" in2="SourceAlpha" operator="arithmetic" k2="-1" k3="1" result="shadowInnerInner1"></feComposite>
            <feColorMatrix values="0 0 0 0 1   0 0 0 0 0.917647059   0 0 0 0 0.580392157  0 0 0 1 0" type="matrix" in="shadowInnerInner1"></feColorMatrix>
        </filter>
        <path d="M82.8011284,115.361353 C94.6271235,109.872583 98.3036263,92.8073378 91.0127223,77.2450806 C83.7218182,61.6828233 68.2244761,53.5166743 56.3984231,59.0054443 C44.57237,64.4942143 40.8959252,81.55946 48.1868292,97.1217172 C55.4777332,112.683974 70.9750753,120.850123 82.8011284,115.361353 Z" id="path-58"></path>
        <filter x="-4.7%" y="-3.4%" width="109.3%" height="106.9%" filterUnits="objectBoundingBox" id="filter-59">
            <feGaussianBlur stdDeviation="3" in="SourceAlpha" result="shadowBlurInner1"></feGaussianBlur>
            <feOffset dx="-7" dy="-4" in="shadowBlurInner1" result="shadowOffsetInner1"></feOffset>
            <feComposite in="shadowOffsetInner1" in2="SourceAlpha" operator="arithmetic" k2="-1" k3="1" result="shadowInnerInner1"></feComposite>
            <feColorMatrix values="0 0 0 0 1   0 0 0 0 0.917647059   0 0 0 0 0.580392157  0 0 0 1 0" type="matrix" in="shadowInnerInner1"></feColorMatrix>
        </filter>
        <path d="M140.050059,124.179873 C151.876112,118.691103 155.552557,101.625858 148.261711,86.0636004 C140.970807,70.5013432 125.473407,62.3351942 113.647412,67.8239641 C101.821359,73.3127341 98.1449137,90.3779798 105.435818,105.940237 C112.726722,121.502494 128.224064,129.668643 140.050059,124.179873 Z" id="path-60"></path>
        <filter x="-2.1%" y="-1.2%" width="104.1%" height="102.5%" filterUnits="objectBoundingBox" id="filter-61">
            <feGaussianBlur stdDeviation="3" in="SourceAlpha" result="shadowBlurInner1"></feGaussianBlur>
            <feOffset dx="-1" dy="4" in="shadowBlurInner1" result="shadowOffsetInner1"></feOffset>
            <feComposite in="shadowOffsetInner1" in2="SourceAlpha" operator="arithmetic" k2="-1" k3="1" result="shadowInnerInner1"></feComposite>
            <feColorMatrix values="0 0 0 0 1   0 0 0 0 0.917647059   0 0 0 0 0.580392157  0 0 0 1 0" type="matrix" in="shadowInnerInner1"></feColorMatrix>
        </filter>
        <path d="M99.541906,106.933697 C112.493286,108.516473 123.977873,101.811086 125.193519,91.9568286 C126.409165,82.1025709 116.89546,72.8310003 103.944131,71.2482239 C90.992801,69.6654474 79.5082131,76.3708342 78.2926172,86.2250526 C77.0769713,96.0793103 86.5906264,105.350881 99.541906,106.933697 Z" id="path-62"></path>
        <filter x="-9.2%" y="-11.2%" width="118.3%" height="122.4%" filterUnits="objectBoundingBox" id="filter-63">
            <feGaussianBlur stdDeviation="3" in="SourceAlpha" result="shadowBlurInner1"></feGaussianBlur>
            <feOffset dx="-6" dy="1" in="shadowBlurInner1" result="shadowOffsetInner1"></feOffset>
            <feComposite in="shadowOffsetInner1" in2="SourceAlpha" operator="arithmetic" k2="-1" k3="1" result="shadowInnerInner1"></feComposite>
            <feColorMatrix values="0 0 0 0 1   0 0 0 0 0.917647059   0 0 0 0 0.580392157  0 0 0 1 0" type="matrix" in="shadowInnerInner1"></feColorMatrix>
        </filter>
        <linearGradient x1="74.7378154%" y1="0%" x2="50%" y2="100%" id="linearGradient-64">
            <stop stop-color="#EEF5FF" offset="0%"></stop>
            <stop stop-color="#D9E8FF" offset="100%"></stop>
        </linearGradient>
    </defs>
    <g id="Page-1" stroke="none" stroke-width="1" fill="none" fill-rule="evenodd">
        <g id="Artboard" transform="translate(-982.000000, -54.000000)">
            <g id="Group-12" transform="translate(980.000000, 54.000000)">
                <g id="Artwork" transform="translate(0.188734, 0.916973)">
                    <path d="M233.354641,29.7849171 C276.583658,29.9473405 312.496619,49.2412194 321.696763,81.0872685 C333.924288,123.412297 294.336421,171.881625 233.274422,189.346593 C189.189501,201.955682 145.96398,194.956587 120.73449,174.161964 C64.7166385,181.214588 15.5045303,160.627522 4.45914113,122.394255 C-8.40385399,77.8694015 35.3655999,26.2736366 102.220782,7.15149307 C155.934547,-8.21164471 208.208197,2.06133147 233.354641,29.7849171 Z" id="background" fill="url(#linearGradient-1)" opacity="0.118359375"></path>
                    <g id="programs" transform="translate(263.894483, 54.267814)">
                        <path d="M7.14424849,0.452220707 L21.6701216,0.452220707 C22.6251783,0.452220707 23.3993736,1.22318749 23.3993736,2.17418549 L18.2115703,21.1157515 C18.2115703,22.0667495 17.4373749,22.8377163 16.4823182,22.8377163 L1.95646874,22.8377163 C1.00141203,22.8377163 0.227169439,22.0667495 0.227169439,21.1157515 L5.41499645,2.17418549 C5.41499645,1.22318749 6.18919179,0.452220707 7.14424849,0.452220707 Z" id="3" fill="url(#linearGradient-2)"></path>
                        <rect id="Rectangle" fill="#43486A" opacity="0.337960379" x="6.92412954" y="3.94533248" width="13.8482591" height="1" rx="0.5"></rect>
                        <path d="M7.4172961,6.90433184 L19.2900607,6.90433184 C19.5624291,6.90433184 19.7832273,7.12513003 19.7832273,7.3974984 L19.7832273,7.3974984 C19.7832273,7.66986677 19.5624291,7.89066496 19.2900607,7.89066496 L7.4172961,7.89066496 C7.14492773,7.89066496 6.92412954,7.66986677 6.92412954,7.3974984 L6.92412954,7.3974984 C6.92412954,7.12513003 7.14492773,6.90433184 7.4172961,6.90433184 Z" id="Rectangle-Copy-6" fill="#43486A" opacity="0.337960379"></path>
                        <path d="M7.4172961,9.8633312 L18.3008993,9.8633312 C18.5732677,9.8633312 18.7940659,10.0841294 18.7940659,10.3564978 L18.7940659,10.3564978 C18.7940659,10.6288661 18.5732677,10.8496643 18.3008993,10.8496643 L7.4172961,10.8496643 C7.14492773,10.8496643 6.92412954,10.6288661 6.92412954,10.3564978 L6.92412954,10.3564978 C6.92412954,10.0841294 7.14492773,9.8633312 7.4172961,9.8633312 Z" id="Rectangle-Copy-7" fill="#43486A" opacity="0.337960379"></path>
                        <path d="M7.4172961,12.8223306 L17.311738,12.8223306 C17.5841063,12.8223306 17.8049045,13.0431288 17.8049045,13.3154971 L17.8049045,13.3154971 C17.8049045,13.5878655 17.5841063,13.8086637 17.311738,13.8086637 L7.4172961,13.8086637 C7.14492773,13.8086637 6.92412954,13.5878655 6.92412954,13.3154971 L6.92412954,13.3154971 C6.92412954,13.0431288 7.14492773,12.8223306 7.4172961,12.8223306 Z" id="Rectangle-Copy-8" fill="#43486A" opacity="0.337960379"></path>
                        <path d="M10.6773884,28.2644753 L29.7603944,28.2644753 C31.0150744,28.2644753 32.032189,29.2768432 32.032189,30.5256383 L25.2168053,55.3984011 C25.2168053,56.6471962 24.1996906,57.6595641 22.9450107,57.6595641 L3.86203585,57.6595641 C2.60735589,57.6595641 1.59024128,56.6471962 1.59024128,55.3984011 L8.405625,30.5256383 C8.405625,29.2768432 9.42273961,28.2644753 10.6773884,28.2644753 Z" id="1" fill="url(#linearGradient-3)"></path>
                        <path d="M9.39561882,32.548993 L29.1816743,32.548993 C29.4540427,32.548993 29.6748409,32.7697912 29.6748409,33.0421595 L29.6748409,33.0421595 C29.6748409,33.3145279 29.4540427,33.5353261 29.1816743,33.5353261 L9.39561882,33.5353261 C9.12325045,33.5353261 8.90245226,33.3145279 8.90245226,33.0421595 L8.90245226,33.0421595 C8.90245226,32.7697912 9.12325045,32.548993 9.39561882,32.548993 Z" id="Rectangle" fill="#43486A" opacity="0.337960379"></path>
                        <path d="M9.39561882,35.5079923 L28.192513,35.5079923 C28.4648813,35.5079923 28.6856795,35.7287905 28.6856795,36.0011589 L28.6856795,36.0011589 C28.6856795,36.2735273 28.4648813,36.4943254 28.192513,36.4943254 L9.39561882,36.4943254 C9.12325045,36.4943254 8.90245226,36.2735273 8.90245226,36.0011589 L8.90245226,36.0011589 C8.90245226,35.7287905 9.12325045,35.5079923 9.39561882,35.5079923 Z" id="Rectangle-Copy-6" fill="#43486A" opacity="0.337960379"></path>
                        <path d="M9.39561882,38.4669917 L27.2033516,38.4669917 C27.47572,38.4669917 27.6965182,38.6877899 27.6965182,38.9601582 L27.6965182,38.9601582 C27.6965182,39.2325266 27.47572,39.4533248 27.2033516,39.4533248 L9.39561882,39.4533248 C9.12325045,39.4533248 8.90245226,39.2325266 8.90245226,38.9601582 L8.90245226,38.9601582 C8.90245226,38.6877899 9.12325045,38.4669917 9.39561882,38.4669917 Z" id="Rectangle-Copy-7" fill="#43486A" opacity="0.337960379"></path>
                        <path d="M9.39561882,41.425991 L26.2141902,41.425991 C26.4865586,41.425991 26.7073568,41.6467892 26.7073568,41.9191576 L26.7073568,41.9191576 C26.7073568,42.191526 26.4865586,42.4123242 26.2141902,42.4123242 L9.39561882,42.4123242 C9.12325045,42.4123242 8.90245226,42.191526 8.90245226,41.9191576 L8.90245226,41.9191576 C8.90245226,41.6467892 9.12325045,41.425991 9.39561882,41.425991 Z" id="Rectangle-Copy-8" fill="#43486A" opacity="0.337960379"></path>
                        <path d="M15.330587,44.3849904 L26.2141902,44.3849904 C26.4865586,44.3849904 26.7073568,44.6057886 26.7073568,44.878157 L26.7073568,44.878157 C26.7073568,45.1505253 26.4865586,45.3713235 26.2141902,45.3713235 L15.330587,45.3713235 C15.0582186,45.3713235 14.8374204,45.1505253 14.8374204,44.878157 L14.8374204,44.878157 C14.8374204,44.6057886 15.0582186,44.3849904 15.330587,44.3849904 Z" id="Rectangle-Copy-9" fill="#43486A" opacity="0.337960379"></path>
                        <path d="M29.0788491,8.59241615 L48.161855,8.59241615 C49.416535,8.59241615 50.4336496,9.60477748 50.4336496,10.853576 L43.6182659,35.7263041 C43.6182659,36.9751026 42.6011512,37.9874639 41.3464713,37.9874639 L22.2634965,37.9874639 C21.0088165,37.9874639 19.9917019,36.9751026 19.9917019,35.7263041 L26.8070856,10.853576 C26.8070856,9.60477748 27.8242002,8.59241615 29.0788491,8.59241615 Z" id="2" fill="url(#linearGradient-4)"></path>
                        <path d="M28.1896847,11.8359974 L47.9757402,11.8359974 C48.2481086,11.8359974 48.4689068,12.0567956 48.4689068,12.329164 L48.4689068,12.329164 C48.4689068,12.6015324 48.2481086,12.8223306 47.9757402,12.8223306 L28.1896847,12.8223306 C27.9173163,12.8223306 27.6965182,12.6015324 27.6965182,12.329164 L27.6965182,12.329164 C27.6965182,12.0567956 27.9173163,11.8359974 28.1896847,11.8359974 Z" id="Rectangle" fill="#43486A" opacity="0.337960379"></path>
                        <path d="M28.1896847,14.7949968 L46.9865788,14.7949968 C47.2589472,14.7949968 47.4797454,15.015795 47.4797454,15.2881634 L47.4797454,15.2881634 C47.4797454,15.5605317 47.2589472,15.7813299 46.9865788,15.7813299 L28.1896847,15.7813299 C27.9173163,15.7813299 27.6965182,15.5605317 27.6965182,15.2881634 L27.6965182,15.2881634 C27.6965182,15.015795 27.9173163,14.7949968 28.1896847,14.7949968 Z" id="Rectangle-Copy-6" fill="#43486A" opacity="0.337960379"></path>
                        <path d="M28.1896847,17.7539962 L45.9974175,17.7539962 C46.2697858,17.7539962 46.490584,17.9747944 46.490584,18.2471627 L46.490584,18.2471627 C46.490584,18.5195311 46.2697858,18.7403293 45.9974175,18.7403293 L28.1896847,18.7403293 C27.9173163,18.7403293 27.6965182,18.5195311 27.6965182,18.2471627 L27.6965182,18.2471627 C27.6965182,17.9747944 27.9173163,17.7539962 28.1896847,17.7539962 Z" id="Rectangle-Copy-7" fill="#43486A" opacity="0.337960379"></path>
                        <path d="M28.1896847,20.7129955 L45.0082561,20.7129955 C45.2806245,20.7129955 45.5014227,20.9337937 45.5014227,21.2061621 L45.5014227,21.2061621 C45.5014227,21.4785305 45.2806245,21.6993286 45.0082561,21.6993286 L28.1896847,21.6993286 C27.9173163,21.6993286 27.6965182,21.4785305 27.6965182,21.2061621 L27.6965182,21.2061621 C27.6965182,20.9337937 27.9173163,20.7129955 28.1896847,20.7129955 Z" id="Rectangle-Copy-8" fill="#43486A" opacity="0.337960379"></path>
                        <path d="M34.1246529,23.6719949 L45.0082561,23.6719949 C45.2806245,23.6719949 45.5014227,23.8927931 45.5014227,24.1651614 L45.5014227,24.1651614 C45.5014227,24.4375298 45.2806245,24.658328 45.0082561,24.658328 L34.1246529,24.658328 C33.8522845,24.658328 33.6314863,24.4375298 33.6314863,24.1651614 L33.6314863,24.1651614 C33.6314863,23.8927931 33.8522845,23.6719949 34.1246529,23.6719949 Z" id="Rectangle-Copy-9" fill="#43486A" opacity="0.337960379"></path>
                    </g>
                    <g id="laptop" transform="translate(255.261699, 97.682066)">
                        <g id="table" opacity="0.200000003" transform="translate(29.533208, 37.761354)">
                            <mask id="mask-6" fill="white">
                                <use xlink:href="#path-5"></use>
                            </mask>
                            <use id="Rectangle-3" fill="#8CA4D4" xlink:href="#path-5"></use>
                            <mask id="mask-8" fill="white">
                                <use xlink:href="#path-7"></use>
                            </mask>
                            <use id="Rectangle-2-copy" fill="#8CA4D4" xlink:href="#path-7"></use>
                            <mask id="mask-10" fill="white">
                                <use xlink:href="#path-9"></use>
                            </mask>
                            <use id="Rectangle-2" fill="#8CA4D4" xlink:href="#path-9"></use>
                        </g>
                        <polygon id="front" fill="#123584" points="19.3101647 33.2390302 25.9862348 0.452237891 64.5187114 1.13057788 57.9305407 33.2390302"></polygon>
                        <polygon id="bottom" fill="#123584" points="0.454379088 31.3959756 60.4241088 31.3959756 60.4241088 33.4651477 2.27177413 33.4651477"></polygon>
                        <g id="back" transform="translate(21.354781, 0.000000)">
                            <mask id="mask-13" fill="white">
                                <use xlink:href="#path-12"></use>
                            </mask>
                            <use id="Shape-9" fill="url(#linearGradient-11)" xlink:href="#path-12"></use>
                            <path d="M23.172206,13.7930677 C25.0542256,13.7930677 26.5798955,15.0585063 26.5798955,16.6195127 C26.5798955,18.1805192 25.0542256,19.4459704 23.172206,19.4459704 C21.2902089,19.4459704 19.764539,18.1805192 19.764539,16.6195127 C19.764539,15.0585063 21.2902089,13.7930677 23.172206,13.7930677 Z" id="Ellipse-5" fill="#A1B8E3" mask="url(#mask-13)"></path>
                        </g>
                    </g>
                    <g id="message" transform="translate(82.377707, 66.119406)">
                        <path d="M0.19989655,53.7926741 C83.6489788,-50.1832182 158.117387,31.336544 158.117387,31.336544" id="line" stroke="#87D3E1" stroke-width="1.13631705" fill-opacity="0" fill="#000000" opacity="0.5" stroke-linecap="round" stroke-dasharray="1.136317031056273,4.545268124225093"></path>
                        <g id="rocket" transform="translate(150.166139, 22.291908)">
                            <polygon id="Shape-5" fill="url(#linearGradient-14)" points="0.229861277 15.6092923 4.96231461 9.45602623 20.3019123 19.0097854 8.55241481 5.56975565 14.2640074 0.226127199 28.6244947 25.3249687"></polygon>
                            <polygon id="Shape-6" fill="#E1A846" points="4.79913455 9.6179519 8.3892527 9.13216338 20.9546746 19.4955742"></polygon>
                            <polygon id="Shape-7" fill="#E6B052" points="8.22606877 9.13215501 8.71561237 5.56974705 20.6283104 19.171702"></polygon>
                        </g>
                    </g>
                    <g id="Person" transform="translate(0.140214, 44.318715)">
                        <path d="M90.3034713,158.959452 C116.212459,158.959452 137.215815,154.75817 137.215815,149.575645 C137.215815,144.39312 116.212459,140.191838 90.3034713,140.191838 C64.3944838,140.191838 43.3911275,144.39312 43.3911275,149.575645 C43.3911275,154.75817 64.3944838,158.959452 90.3034713,158.959452 Z" id="chair-shadow" fill="url(#radialGradient-15)"></path>
                        <path d="M57.8348095,143.760026 C86.5838092,157.486664 128.794292,155.673575 147.728738,118.422715 C160.237772,94.4541855 133.548502,65.7535462 104.232209,45.7966728 C77.920385,27.8852496 54.5174628,23.823495 40.7858254,33.9071658 C39.217739,35.0586298 36.4305831,34.8323126 35.1644533,36.3990719 C0.310951062,75.9962434 29.0859704,130.033254 57.8348095,143.760026 Z" id="chair" fill="url(#radialGradient-16)"></path>
                        <path d="M75.5931711,109.463647 C106.337406,128.584965 138.089281,130.67453 148.765433,113.669092 C158.671321,95.2965586 134.63954,62.0686343 103.895305,42.9473163 C73.1510703,23.8261089 46.3639544,20.7952562 35.6876682,37.8008044 C25.0116505,54.806242 44.8489362,90.3424396 75.5931711,109.463647 Z" id="cushion" fill="url(#radialGradient-17)"></path>
                        <path d="M82.5410125,96.049336 C96.3259535,104.627848 110.562695,105.565302 115.349613,97.9360501 C119.791164,89.6934697 109.015918,74.7862257 95.230977,66.2077136 C81.446036,57.629251 69.4353675,56.2695013 64.6483895,63.8988029 C59.8615319,71.5280549 68.7560715,87.4708735 82.5410125,96.049336 Z" id="shadow" fill="#94B0D7" filter="url(#filter-18)"></path>
                        <g id="shoe" transform="translate(169.702359, 141.096317)">
                            <mask id="mask-21" fill="white">
                                <use xlink:href="#path-20"></use>
                            </mask>
                            <use id="Path-17" fill="url(#linearGradient-19)" xlink:href="#path-20"></use>
                            <path d="M1.43339844,14.2370854 C2.85578224,10.5893385 8.39938861,3.78402262 10.0055784,1.56932579 C11.0763717,0.0928612406 7.52860417,0.962925825 -0.637724064,4.17951955 C-0.205231598,13.3163947 0.48514257,16.6689167 1.43339844,14.2370854 Z" id="Path-21" fill="#3D82F0" style="mix-blend-mode: multiply;" opacity="0.200000003" mask="url(#mask-21)"></path>
                        </g>
                        <g id="shoe" transform="translate(179.016678, 78.462215)">
                            <mask id="mask-24" fill="white">
                                <use xlink:href="#path-23"></use>
                            </mask>
                            <use id="Path-17-Copy" fill="url(#linearGradient-22)" xlink:href="#path-23"></use>
                            <path d="M7.19175116,20.4949336 C4.99087236,15.9565341 7.25774459,5.71719505 6.25384248,4.81045258 C5.5845744,4.20595759 3.61358704,6.64850933 0.340880407,12.1381078 C-1.21570301,13.6749113 -0.743362421,15.5922228 1.75790216,17.8900423 C5.50979903,21.3367716 9.39262996,25.0333331 7.19175116,20.4949336 Z" id="Path-19" fill="#617FC8" style="mix-blend-mode: multiply;" opacity="0.200000003" mask="url(#mask-24)"></path>
                        </g>
                        <g id="sleeve">
                            <use fill="url(#linearGradient-25)" fill-rule="evenodd" xlink:href="#path-26"></use>
                            <use fill="black" fill-opacity="1" filter="url(#filter-27)" xlink:href="#path-26"></use>
                        </g>
                        <path d="M84.5068279,28.3226283 C84.5068279,28.3226283 108.70696,18.7967827 111.978517,19.4265448 C115.250041,20.0562884 105.472097,31.1565302 103.471516,32.0522146 C101.470935,32.9479361 98.7518329,35.1331264 95.7429724,35.2109636 C92.7341119,35.2888379 85.8179072,36.7715648 85.8179072,36.7715648 L84.5068279,28.3226283 Z" id="arm" fill="url(#radialGradient-28)"></path>
                        <g id="leg" transform="translate(87.236554, 78.236099)">
                            <mask id="mask-31" fill="white">
                                <use xlink:href="#path-30"></use>
                            </mask>
                            <g id="Path-7">
                                <use fill="url(#linearGradient-29)" fill-rule="evenodd" xlink:href="#path-30"></use>
                                <use fill="black" fill-opacity="1" filter="url(#filter-32)" xlink:href="#path-30"></use>
                            </g>
                            <path d="M57.2641209,28.3716243 C57.2641209,24.8334747 66.2654184,6.15975307 68.6757576,4.16341087 C70.2826504,2.83251606 68.7000721,2.26601994 63.9280228,2.46392251 C53.056783,13.6946231 46.9073682,22.3305237 45.4797786,28.3716243 C43.3383941,37.4332751 57.2641209,31.9097738 57.2641209,28.3716243 Z" id="Path" fill="url(#linearGradient-33)" style="mix-blend-mode: multiply;" opacity="0.300000012" mask="url(#mask-31)"></path>
                        </g>
                        <g id="neck" transform="translate(67.699201, 34.369616)">
                            <mask id="mask-36" fill="white">
                                <use xlink:href="#path-35"></use>
                            </mask>
                            <use id="Path-4" fill="url(#linearGradient-34)" xlink:href="#path-35"></use>
                            <path d="M1.3574474,2.15901922 C1.3574474,3.64035045 6.93808981,9.97499057 9.95293009,11.7115205 C11.9628236,12.8692072 14.7783444,13.3944119 18.3994924,13.2871348 L17.5720053,4.75678827 L1.3574474,0.681745195 C1.3574474,0.679040391 1.3574474,1.17146506 1.3574474,2.15901922 Z" id="Path-22" fill="#7890CB" style="mix-blend-mode: multiply;" opacity="0.200000003" mask="url(#mask-36)"></path>
                        </g>
                        <g id="shirt" transform="translate(55.658739, 44.770947)">
                            <mask id="mask-39" fill="white">
                                <use xlink:href="#path-38"></use>
                            </mask>
                            <g id="Path-9">
                                <use fill="#FFFFFF" xlink:href="#path-38"></use>
                                <use fill="url(#linearGradient-37)" xlink:href="#path-38"></use>
                            </g>
                            <path d="M46.4905547,36.1933247 L52.7838622,43.3520419 L52.7047614,42.0303878 C52.6476096,41.075469 51.1319844,39.6642414 48.1044883,37.3848776 C47.8179023,37.1691107 47.5171517,36.9453658 47.1964565,36.7090978 C47.0300674,36.5865128 46.779383,36.4035125 46.4905547,36.1933247 Z M26.4128837,11.97789 L52.5924163,41.7574405 L51.7973315,42.0846973 C51.7656052,41.5545995 50.2203182,40.1157533 47.557715,38.1111128 C47.2737844,37.897345 46.9755326,37.6754591 46.6572567,37.4409736 C45.9479638,36.9184114 43.6877228,35.2842017 43.5088804,35.1535598 C42.4189218,34.3573606 41.8042681,33.8802849 41.4819406,33.5629041 C39.1095816,31.2269997 36.0481226,28.1025375 35.0930718,26.975537 C34.1326845,25.8421671 28.8856753,16.9128338 27.9909609,15.1272545 L26.4128837,11.97789 Z" id="Shape-1" stroke="#D9E8FF" stroke-width="0.909053637" fill-opacity="0" fill="#000000" opacity="0.6" mask="url(#mask-39)"></path>
                            <path d="M21.560166,13.1560884 C23.2131107,10.1640973 24.5208585,8.66810168 25.4834095,8.66810168 C26.4459604,8.66810168 26.2774694,7.21334307 24.9779363,4.30382584 L20.4758228,7.69254512 L21.560166,13.1560884 Z" id="Path-23" fill="#CCDFFD" opacity="0.300000012" mask="url(#mask-39)"></path>
                        </g>
                        <path d="M114.481521,82.5900528 C122.711154,75.0712833 146.267128,60.519481 159.700412,58.297328 C167.395837,59.5713916 187.422276,81.1756292 187.422276,81.1756292 C186.519255,82.1227093 184.139037,90.5200891 180.379696,93.1597335 C170.911695,85.3369159 161.040443,81.6841891 158.389775,77.6392616 C155.083545,79.6426032 146.584626,85.4928653 141.696145,94.0876914 C136.80776,102.682518 133.564778,112.474414 127.993865,112.719525 C122.422951,112.964637 114.566692,113.597911 107.329714,108.963337 C103.126671,106.271597 91.0259475,100.271834 96.9046584,96.3406306 C100.273747,94.0876914 111.031433,85.7420704 114.481521,82.5900528 Z" id="leg" fill="url(#linearGradient-40)"></path>
                        <path d="M82.402732,19.8395156 C82.9601511,21.2396626 86.0184541,27.384568 86.3130462,28.9162671 C86.6076114,30.44802 89.5180641,40.6652043 87.7843309,42.2385836 C86.0505708,43.8120167 80.8516692,44.6086488 79.3987949,44.1048004 C77.9458935,43.6009789 74.822465,43.2782199 73.6058429,41.1530964 C72.6708365,39.5198204 69.7002056,35.7284319 68.9209975,35.9455239 C68.6363269,36.5278354 67.6440891,37.1500243 67.1472267,36.7502821 C65.0003832,35.0230979 63.1601352,33.1525221 64.0336657,28.9162671 C64.9071962,24.6800389 67.9697976,22.5899763 71.253431,21.214746 C74.5370645,19.8395156 81.8452859,18.4393956 82.402732,19.8395156 Z" id="face" fill="url(#radialGradient-41)"></path>
                        <g id="arm" transform="translate(30.441922, 31.430109)">
                            <mask id="mask-44" fill="white">
                                <use xlink:href="#path-43"></use>
                            </mask>
                            <use id="Path-13" fill="url(#radialGradient-42)" xlink:href="#path-43"></use>
                            <path d="M6.59211044,3.13076213 C7.42845174,3.4336601 24.3939826,10.7921731 28.5914705,9.77291379 C31.3897957,9.09340756 27.9030966,10.3778114 18.1313732,13.6261254 C9.88097049,6.42728458 6.03454957,2.92883015 6.59211044,3.13076213 Z" id="Path-24" fill="#B9B9B9" opacity="0.5" mask="url(#mask-44)"></path>
                        </g>
                        <g id="hair">
                            <use fill="url(#linearGradient-45)" xlink:href="#path-47"></use>
                            <use fill="url(#linearGradient-46)" xlink:href="#path-47"></use>
                        </g>
                        <path d="M83.8262045,50.7168553 C85.8127489,51.4192798 86.1933093,55.0713522 86.5343406,56.1013113 C86.8753447,57.1312556 85.1026161,48.0286618 85.1026161,48.0286618 C84.4788611,48.8849989 83.1444099,43.0719188 83.3952968,43.9244786 C84.069917,46.2168381 83.5047287,48.8135542 83.8262045,50.7168553 Z" id="colar" fill="#CCDFFD"></path>
                        <path d="M77.3443427,59.9190757 C77.3443427,56.6838824 78.6364503,52.4418738 80.231724,50.9284367 C77.9182243,51.0705458 71.1127071,47.0234862 70.3862713,44.7675434 C69.6598484,42.5115821 69.5248662,42.189213 69.5248662,42.189213 C69.5248662,42.189213 68.1239078,44.8872894 68.1239078,46.5985143 C69.1151802,50.3110616 73.5376993,56.7559168 77.3443427,59.9190757 Z" id="colar" fill="url(#linearGradient-48)"></path>
                        <g id="sleeve">
                            <use fill="url(#linearGradient-49)" fill-rule="evenodd" xlink:href="#path-50"></use>
                            <use fill="black" fill-opacity="1" filter="url(#filter-51)" xlink:href="#path-50"></use>
                        </g>
                        <g id="glasses" transform="translate(68.380736, 21.933242)">
                            <polygon id="Path-14" stroke="#18A1B2" stroke-width="0.909053637" fill-opacity="0" fill="#000000" points="4.54354962 5.30367354 5.80687577 10.8567425 12.8442377 9.17561223 11.7841073 3.39172935"></polygon>
                            <polygon id="Path-14-Copy" stroke="#18A1B2" stroke-width="0.909053637" fill-opacity="0" fill="#000000" points="14.8277125 2.46611038 15.9737718 8.14016311 21.2431977 6.63604019 20.2814392 0.957736477"></polygon>
                            <polygon id="Path-15" fill="#18A1B2" points="4.40169185 6.00227307 0.252412381 7.13284439 0.946136087 8.51121205 5.43058907 9.56493292"></polygon>
                            <polygon id="Path-16" fill="#18A1B2" points="12.0173512 5.14286942 15.1833643 4.17210595 15.5317619 5.83584951 12.2445316 6.74809328"></polygon>
                        </g>
                        <g id="cushion" transform="translate(24.762459, 37.535238)">
                            <g id="Mask-by-Oval">
                                <g id="Oval-3-+-Oval-3-Copy-+-Oval-3-Copy-2-+-Oval-3-Copy-4-+-Oval-3-Copy-3-Mask">
                                    <mask id="mask-53" fill="white">
                                        <use xlink:href="#path-52"></use>
                                    </mask>
                                    <use id="Mask" fill-opacity="0" fill="#000000" xlink:href="#path-52"></use>
                                    <g id="Oval-3" mask="url(#mask-53)">
                                        <use fill="#FFF8D9" fill-rule="evenodd" xlink:href="#path-54"></use>
                                        <use fill="black" fill-opacity="1" filter="url(#filter-55)" xlink:href="#path-54"></use>
                                    </g>
                                    <g id="Oval-3-Copy" mask="url(#mask-53)">
                                        <use fill="#FFF8D9" fill-rule="evenodd" xlink:href="#path-56"></use>
                                        <use fill="black" fill-opacity="1" filter="url(#filter-57)" xlink:href="#path-56"></use>
                                    </g>
                                    <g id="Oval-3-Copy-2" mask="url(#mask-53)">
                                        <use fill="#FFF8D9" fill-rule="evenodd" xlink:href="#path-58"></use>
                                        <use fill="black" fill-opacity="1" filter="url(#filter-59)" xlink:href="#path-58"></use>
                                    </g>
                                    <g id="Oval-3-Copy-4" mask="url(#mask-53)">
                                        <use fill="#FFF8D9" fill-rule="evenodd" xlink:href="#path-60"></use>
                                        <use fill="black" fill-opacity="1" filter="url(#filter-61)" xlink:href="#path-60"></use>
                                    </g>
                                    <g id="Oval-3-Copy-3" mask="url(#mask-53)">
                                        <use fill="#FFF8D9" fill-rule="evenodd" xlink:href="#path-62"></use>
                                        <use fill="black" fill-opacity="1" filter="url(#filter-63)" xlink:href="#path-62"></use>
                                    </g>
                                </g>
                            </g>
                        </g>
                        <path d="M88.6695852,60.9494565 C88.6695852,60.9494565 94.0465847,59.9374386 94.6914046,59.2176584 C95.3362463,58.4978781 98.9778163,66.8138307 98.9778163,66.8138307 L97.2095968,68.8116962 L92.9949262,68.8116962 L88.6695852,60.9494565 Z" id="pocket" fill="url(#linearGradient-64)"></path>
                    </g>
                    <g id="Clock" opacity="0.600000024" transform="translate(7.329480, 28.116342)">
                        <g id="Ellipse-4"></g>
                    </g>
                </g>
            </g>
        </g>
    </g>
</svg>