<svg xmlns="http://www.w3.org/2000/svg" width="80" height="80" viewBox="0 0 80 80">
    <g fill="none" fill-rule="evenodd">
        <path fill="#FFE5A0" fill-rule="nonzero" d="M73.125 57.995c-9.653 8.007-39.794 8.007-49.25 0-9.653-8.006-8.668-42.233 0-51.24 8.668-9.007 40.582-9.007 49.25 0s9.653 43.234 0 51.24z"/>
        <path fill="#FFF" fill-rule="nonzero" d="M47.17 43.736c-8.512 6.95-17.992 10.525-26.892 10.724C13.7 42.94 15.054 14.94 22.793 6.797c6.965-7.348 28.827-8.738 41.402-4.17 3.096 13.107-3.289 29.789-17.025 41.109z" opacity=".36"/>
        <g transform="translate(0 16)">
            <path d="M0 0h64v64H0z"/>
            <rect width="53.195" height="40.312" x="5" y="17" fill="#CCDFFD" rx="1.662"/>
            <path fill="#C2D2ED" d="M44.48 17H31.598v40.312h24.935c.919 0 1.663-.745 1.663-1.663V30.714C58.195 23.14 52.055 17 44.48 17z"/>
            <rect width="14" height="22" x="39" y="23" fill="#E8F1FF" rx="1.247"/>
            <path fill="#DDEAFF" d="M46 23h5.753c.689 0 1.247.558 1.247 1.247v19.506c0 .689-.558 1.247-1.247 1.247H46V23z"/>
            <g fill-rule="nonzero">
                <path fill="#6CA4FF" d="M8.606 6a1.87 1.87 0 0 0-1.556.833L0 17.22l8.618 3.74 7.34-3.74 5.673-5.61L19.761 6H8.606z"/>
                <path fill="#2F7EFF" d="M56.908 6.833A1.87 1.87 0 0 0 55.352 6h-11.28l-1.604 6.405 5.283 4.816 6.218 3.74 9.865-3.74-6.926-10.388zM19.761 6l-3.803 11.22H31.916L32 13.066 31.917 6z"/>
                <path fill="#6CA4FF" d="M31.917 6v11.22l7.948 3.741 7.886-3.74L44.073 6z"/>
                <path fill="#5592F5" d="M8.073 32.182C3.683 32.182 0 28.623 0 24.234V17.22h15.958v7.013c0 4.39-3.496 7.948-7.885 7.948z"/>
                <path fill="#2874F0" d="M23.969 32.182c-4.39 0-8.01-3.559-8.01-7.948V17.22h15.958v7.013a7.948 7.948 0 0 1-7.948 7.948z"/>
                <path fill="#5592F5" d="M39.865 32.182a7.948 7.948 0 0 1-7.948-7.948V17.22H47.75v7.013c0 4.39-3.497 7.948-7.886 7.948z"/>
                <path fill="#2874F0" d="M55.886 32.182c-4.39 0-8.135-3.559-8.135-7.948V17.22h16.083v7.013a7.948 7.948 0 0 1-7.948 7.948z"/>
            </g>
            <path fill="#DDEAFF" d="M11.247 37h12.506c.689 0 1.247.558 1.247 1.247V57H10V38.247c0-.689.558-1.247 1.247-1.247z"/>
            <path fill="#5592F5" d="M10 46h3a2 2 0 1 1 0 4h-3v-4z"/>
            <rect width="4" height="2" x="40" y="37" fill="#4B4B4B" rx="1"/>
        </g>
    </g>
</svg>
