<svg xmlns="http://www.w3.org/2000/svg" width="80" height="80" viewBox="0 0 80 80">
    <g fill="none" fill-rule="evenodd">
        <path fill="#FFE5A0" fill-rule="nonzero" d="M73.125 57.995c-9.653 8.007-39.794 8.007-49.25 0-9.653-8.006-8.668-42.233 0-51.24 8.668-9.007 40.582-9.007 49.25 0s9.653 43.234 0 51.24z"/>
        <path fill="#FFF" fill-rule="nonzero" d="M47.17 43.736c-8.512 6.95-17.992 10.525-26.892 10.724C13.7 42.94 15.054 14.94 22.793 6.797c6.965-7.348 28.827-8.738 41.402-4.17 3.096 13.107-3.289 29.789-17.025 41.109z" opacity=".36"/>
        <g transform="translate(0 16)">
            <path d="M0 0h64v64H0z"/>
            <path fill="#C2D5F5" fill-rule="nonzero" d="M54.375 64H8.125V52.75H56.25v9.375c0 1.035-.84 1.875-1.875 1.875z"/>
            <path fill="#A4B6D4" fill-rule="nonzero" d="M28.125 64h26.25c1.035 0 1.875-.84 1.875-1.875V52.75H28.125V64z"/>
            <path fill="#CCDFFD" fill-rule="nonzero" d="M62.125 55.875H15v-35h47.125c1.035 0 1.875.84 1.875 1.875V54c0 1.035-.84 1.875-1.875 1.875z"/>
            <path fill="#C2D2ED" fill-rule="nonzero" d="M62.125 20.875h-34v35h34C63.16 55.875 64 55.035 64 54V22.75c0-1.035-.84-1.875-1.875-1.875z"/>
            <path fill="#6E7382" fill-rule="nonzero" d="M27.375 46.5a1.875 1.875 0 0 1-1.875-1.875v-2.5a1.875 1.875 0 0 1 3.75 0v2.5c0 1.035-.84 1.875-1.875 1.875z"/>
            <path fill="#545454" fill-rule="nonzero" d="M54.375 31.5h-15a1.875 1.875 0 0 1 0-3.75h15a1.875 1.875 0 0 1 0 3.75zM54.375 39h-15a1.875 1.875 0 0 1 0-3.75h15a1.875 1.875 0 0 1 0 3.75z"/>
            <path fill="#2874F0" fill-rule="nonzero" d="M54.375 49h-7.5a1.875 1.875 0 0 1 0-3.75h7.5a1.875 1.875 0 0 1 0 3.75z"/>
            <path fill="#DDEAFF" fill-rule="nonzero" d="M0 55.875h16.25v-35a8.125 8.125 0 1 0-16.25 0v35z"/>
            <path fill="#4F5561" fill-rule="nonzero" d="M29.25 44.625v-2.5c0-1.035-.84-1.875-1.875-1.875v6.25c1.035 0 1.875-.84 1.875-1.875z"/>
            <circle cx="8.125" cy="55.875" r="8.125" fill="#C2D5F5" fill-rule="nonzero"/>
            <path fill="#2874F0" fill-rule="nonzero" d="M29.875 9.375c1.035 0 1.875.84 1.875 1.875v20.285c0 3.946-.933 7.898-2.698 11.429a1.876 1.876 0 0 1-2.031 1.003c-.59-.112-1.082-.518-1.35-1.056A25.686 25.686 0 0 1 23 31.535V11.25c0-1.036.84-1.875 1.875-1.875h5z"/>
            <path fill="#5592F5" fill-rule="nonzero" d="M27.375 9.375v34.624c.71 0 1.36-.4 1.677-1.035a25.686 25.686 0 0 0 2.698-11.43V11.25c0-1.036-.84-1.875-1.875-1.875h-2.5z"/>
            <path fill="#2874F0" fill-rule="nonzero" d="M23 7.5V3.125C23 1.399 24.4 0 26.125 0h2.5c1.726 0 3.125 1.4 3.125 3.125V7.5c0 1.036-.84 1.875-1.875 1.875h-5A1.875 1.875 0 0 1 23 7.5z"/>
            <path fill="#5592F5" fill-rule="nonzero" d="M31.75 7.5V3.125C31.75 1.399 30.35 0 28.625 0h-1.25v9.375h2.5c1.035 0 1.875-.84 1.875-1.875z"/>
            <path fill="#E3F5FF" fill-rule="nonzero" d="M36.125 17.5a1.875 1.875 0 0 1-1.875-1.875V11.25H23V7.5h13.125C37.16 7.5 38 8.34 38 9.375v6.25c0 1.035-.84 1.875-1.875 1.875z"/>
            <path fill="#DDEAFF" fill-rule="nonzero" d="M36.125 7.5h-8.75v3.75h6.875v4.375a1.875 1.875 0 0 0 3.75 0v-6.25c0-1.036-.84-1.875-1.875-1.875z"/>
        </g>
    </g>
</svg>
