<svg xmlns="http://www.w3.org/2000/svg" width="80" height="80" viewBox="0 0 80 80">
    <g fill="none" fill-rule="evenodd">
        <path fill="#FFE5A0" fill-rule="nonzero" d="M73.125 57.995c-9.653 8.007-39.794 8.007-49.25 0-9.653-8.006-8.668-42.233 0-51.24 8.668-9.007 40.582-9.007 49.25 0s9.653 43.234 0 51.24z"/>
        <path fill="#FFF" fill-rule="nonzero" d="M47.17 43.736c-8.512 6.95-17.992 10.525-26.892 10.724C13.7 42.94 15.054 14.94 22.793 6.797c6.965-7.348 28.827-8.738 41.402-4.17 3.096 13.107-3.289 29.789-17.025 41.109z" opacity=".36"/>
        <path d="M0 16h64v64H0z"/>
        <path fill="#CCDFFD" fill-rule="nonzero" d="M56.685 58.739c-1.72 4.662-4.322 8.716-7.734 12.047-3.883 3.792-8.968 6.805-15.114 8.955a4.708 4.708 0 0 1-1.469.26l-.055-.001a4.693 4.693 0 0 1-1.52-.258c-6.153-2.146-11.245-5.158-15.132-8.95-3.413-3.331-6.014-7.382-7.732-12.044-3.123-8.477-2.946-17.815-2.803-25.319l.003-.115c.029-.62.047-1.27.058-1.99.052-3.528 2.857-6.448 6.387-6.644 7.358-.411 13.05-2.81 17.914-7.552l.043-.039a4.1 4.1 0 0 1 5.566 0l.041.04c4.865 4.74 10.557 7.14 17.916 7.55 3.529.197 6.335 3.117 6.387 6.646.01.723.029 1.373.058 1.989l.001.049c.143 7.518.32 16.874-2.815 25.376z"/>
        <path fill="#C2D2ED" fill-rule="nonzero" d="M56.685 58.739c-1.72 4.662-4.322 8.716-7.734 12.047-3.883 3.792-8.968 6.805-15.114 8.955a4.708 4.708 0 0 1-1.469.26V16c.977.012 1.95.375 2.729 1.088l.041.04c4.865 4.74 10.557 7.14 17.916 7.55 3.529.197 6.335 3.117 6.387 6.646.01.723.029 1.373.058 1.989l.001.049c.143 7.518.32 16.874-2.815 25.376z"/>
        <path fill="#E8F1FF" fill-rule="nonzero" d="M48.263 48c0 8.776-7.126 15.92-15.894 15.95h-.056c-8.795 0-15.951-7.155-15.951-15.95 0-8.794 7.156-15.95 15.95-15.95h.057c8.768.031 15.894 7.175 15.894 15.95z"/>
        <path fill="#DDEAFF" fill-rule="nonzero" d="M48.263 48c0 8.776-7.126 15.92-15.894 15.95v-31.9c8.768.031 15.894 7.175 15.894 15.95z"/>
        <path fill="#5592F5" fill-rule="nonzero" d="M39.552 45.703l-7.183 7.185-1.553 1.552c-.366.367-.847.55-1.328.55-.48 0-.961-.183-1.328-.55L24.822 51.1a1.877 1.877 0 1 1 2.656-2.655l2.01 2.01 7.409-7.408a1.877 1.877 0 1 1 2.655 2.655z"/>
        <path fill="#2874F0" fill-rule="nonzero" d="M39.552 45.703l-7.183 7.185v-5.312l4.528-4.528a1.877 1.877 0 1 1 2.655 2.655z"/>
    </g>
</svg>
