<svg xmlns="http://www.w3.org/2000/svg" width="80" height="80" viewBox="0 0 80 80">
    <g fill="none" fill-rule="evenodd">
        <path fill="#FFE5A0" fill-rule="nonzero" d="M73.125 57.995c-9.653 8.007-39.794 8.007-49.25 0-9.653-8.006-8.668-42.233 0-51.24 8.668-9.007 40.582-9.007 49.25 0s9.653 43.234 0 51.24z"/>
        <path fill="#FFF" fill-rule="nonzero" d="M47.17 43.736c-8.512 6.95-17.992 10.525-26.892 10.724C13.7 42.94 15.054 14.94 22.793 6.797c6.965-7.348 28.827-8.738 41.402-4.17 3.096 13.107-3.289 29.789-17.025 41.109z" opacity=".36"/>
        <g transform="translate(0 16)">
            <path d="M0 0h64v64H0z"/>
            <path fill="#FFF" fill-rule="nonzero" d="M4.636 10.439H59.21v33.319H4.636z"/>
            <path fill="#FFF" fill-rule="nonzero" d="M32.035 10.439H59.21v33.319H32.035z"/>
            <path fill="#C2D5F5" fill-rule="nonzero" d="M43.562 62.638H20.437a1.875 1.875 0 0 1-1.819-2.33l4.938-19.75a1.875 1.875 0 0 1 1.819-1.42h13.248c.86 0 1.61.585 1.819 1.42 1.02 4.069 4.31 17.236 4.94 19.75a1.875 1.875 0 0 1-1.82 2.33z"/>
            <path fill="#A4B6D4" fill-rule="nonzero" d="M45.381 60.308c-.629-2.514-3.919-15.682-4.94-19.75a1.875 1.875 0 0 0-1.818-1.42h-6.588v23.5h11.527a1.875 1.875 0 0 0 1.82-2.33z"/>
            <path fill="#CCDFFD" fill-rule="nonzero" d="M46.861 64H17.14a1.875 1.875 0 0 1 0-3.75H46.86a1.875 1.875 0 0 1 0 3.75zM58.25 7.125H5.75A3.754 3.754 0 0 0 2 10.875v39.5a3.754 3.754 0 0 0 3.75 3.75h52.5a3.754 3.754 0 0 0 3.75-3.75v-39.5a3.754 3.754 0 0 0-3.75-3.75zm0 3.75v32H5.75v-32h52.5z"/>
            <path fill="#C2D2ED" fill-rule="nonzero" d="M58.25 7.125H32.035v3.75H58.25v32H32.035v11.25H58.25a3.754 3.754 0 0 0 3.75-3.75v-39.5a3.754 3.754 0 0 0-3.75-3.75z"/>
            <path fill="#E8F1FF" fill-rule="nonzero" d="M51.126 42.875v-41C51.126.84 50.286 0 49.251 0H14.75c-1.036 0-1.875.84-1.875 1.875v41h38.252z"/>
            <path fill="#DDEAFF" fill-rule="nonzero" d="M49.251 0H32.035v42.875h19.091v-41C51.126.84 50.286 0 49.251 0z"/>
            <circle cx="29.254" cy="20.163" r="1.875" fill="#5592F5"/>
            <circle cx="35.271" cy="20.165" r="1.875" fill="#2874F0" transform="rotate(-67.486 35.271 20.165)"/>
            <path fill="#5592F5" fill-rule="nonzero" d="M34.367 18.495h-4.119a3.732 3.732 0 0 1-3.608-2.772l-1.678-6.348h-.478a1.875 1.875 0 0 1 0-3.75h1.921c.851 0 1.596.573 1.813 1.396l.16.604h8.19c.905 0 1.73.419 2.264 1.15.514.702.67 1.596.425 2.45l-1.315 4.614c-.453 1.589-1.89 2.656-3.575 2.656z"/>
            <path fill="#2874F0" fill-rule="nonzero" d="M21.625 31.625H19.75a1.875 1.875 0 0 1 0-3.75h1.875a1.875 1.875 0 0 1 0 3.75z"/>
            <path fill="#545454" fill-rule="nonzero" d="M44.25 31.625H29.125a1.875 1.875 0 0 1 0-3.75H44.25a1.875 1.875 0 0 1 0 3.75z"/>
            <path fill="#2874F0" fill-rule="nonzero" d="M21.625 39.125H19.75a1.875 1.875 0 0 1 0-3.75h1.875a1.875 1.875 0 0 1 0 3.75z"/>
            <path fill="#545454" fill-rule="nonzero" d="M44.25 39.125H29.125a1.875 1.875 0 0 1 0-3.75H44.25a1.875 1.875 0 0 1 0 3.75z"/>
            <path fill="#2874F0" fill-rule="nonzero" d="M38.833 8.774a2.777 2.777 0 0 0-2.265-1.149h-4.533v10.87h2.332c1.686 0 3.122-1.067 3.575-2.656l1.315-4.613a2.815 2.815 0 0 0-.424-2.452z"/>
            <path fill="#4B4B4B" fill-rule="nonzero" d="M44.25 27.875H32.035v3.75H44.25a1.875 1.875 0 0 0 0-3.75zM44.25 35.375H32.035v3.75H44.25a1.875 1.875 0 0 0 0-3.75z"/>
            <path fill="#C2D2ED" fill-rule="nonzero" d="M46.861 60.25H32.035V64H46.86a1.875 1.875 0 0 0 0-3.75z"/>
        </g>
    </g>
</svg>
