<?xml version="1.0" encoding="UTF-8"?>
<svg viewBox="0 0 112.96 112.71" xmlns="http://www.w3.org/2000/svg">
<defs>
<style>.cls-1{fill:#ddf3ee}.cls-2{fill:#fff}.cls-3,.cls-8{fill:#ed1846}.cls-4{fill:#db3458}.cls-5{fill:#00c395}.cls-6{fill:rgba(132,255,227,.28)}.cls-7{fill:#404f54}.cls-8,.cls-9{fill-rule:evenodd}.cls-9{fill:#f23b63}.cls-10{fill:#e9e9e9}.cls-11{fill:#eaeaea}.cls-12{fill:#d8d8d8}.cls-13{fill:#e8e8e8}.cls-14{fill:#46bda2}</style>
</defs>
<g transform="translate(17.001 24.858)" data-name="Health blog">
<g transform="translate(-17 -24.858)" data-name="blob-shape (15)">
<path class="cls-1" transform="translate(196.73 182.03)" d="M-89.221-166.975c8.514 11.511 5.576 31.356 1.139 50.9-4.437 19.515-10.342 38.761-22.633 44.666-12.291 5.876-31-1.589-46.4-10.912s-27.549-20.5-34.264-36.722c-6.745-16.188-8.094-37.442 1.769-49.253 9.833-11.781 30.847-14.089 51.351-13.7 20.499.422 40.494 3.54 49.038 15.021z" data-name="Path 235"/>
</g>
<path class="cls-2" transform="translate(-1.773 -77.754)" d="m55.477 124.59a2.847 2.847 0 0 1 5.283-1.476l9.328-19.5v-10.21h-55.85v30.221a5.539 5.539 0 0 0 5.533 5.533h36.56a12.638 12.638 0 0 1-0.854-4.571z" data-name="Path 414"/>
<path class="cls-3" transform="translate(-239.3 -132.99)" d="m305.62 183.52a7.029 7.029 0 0 1-7.028-7.03v-9.246a7.028 7.028 0 0 1 7-7.028h0.032a7.028 7.028 0 0 1 7.029 7.027v9.246a7.03 7.03 0 0 1-7.029 7.03z" data-name="Path 415"/>
<path class="cls-4" transform="translate(-239.3 -132.99)" d="m305.62 171.86c-3.882 0-7.028-1.574-7.028-3.515v-4.623c0-1.935 3.127-3.505 7-3.514h0.032c3.882 0 7.029 1.573 7.029 3.514v4.623c0 1.941-3.147 3.515-7.029 3.515z" data-name="Path 462"/>
<path class="cls-5" transform="translate(4.255 -5.928)" d="M64 13.807v6.931H7v-6.931A6.706 6.706 0 0 1 13.7 7.1h43.59A6.706 6.706 0 0 1 64 13.807zm-29.778.205a2.107 2.107 0 1 0-2.114 2.1 2.106 2.106 0 0 0 2.112-2.1zm-9.462-.03a2.107 2.107 0 1 0-2.114 2.1 2.107 2.107 0 0 0 2.111-2.1zm-9.462-.031a2.107 2.107 0 1 0-2.114 2.1 2.106 2.106 0 0 0 2.114-2.1zm0 0" data-name="Path 416"/>
<path class="cls-6" transform="translate(4.255 -5.928)" d="M64 10.454v3.466H7v-3.466C7 8.6 10 7.1 13.7 7.1h43.59c3.704 0 6.71 1.5 6.71 3.354zm-29.778.1c0-.582-.936-1.055-2.1-1.057s-2.11.468-2.114 1.05.936 1.055 2.1 1.057c1.163 0 2.108-.468 2.112-1.049zm-9.462-.015c0-.582-.936-1.055-2.1-1.057s-2.11.468-2.114 1.05.936 1.055 2.1 1.057 2.105-.466 2.111-1.047zm-9.462-.015c0-.581-.938-1.055-2.1-1.056s-2.109.468-2.112 1.05.936 1.054 2.1 1.056 2.11-.468 2.114-1.049zm0 0" data-name="Path 461"/>
<path class="cls-2" transform="translate(-109.92 -29.726)" d="m146.29 35.7a2.107 2.107 0 1 1-2.114 2.1 2.106 2.106 0 0 1 2.114-2.1z" data-name="Path 417"/>
<path class="cls-2" transform="translate(-62.967 -29.576)" d="m89.878 35.516a2.107 2.107 0 1 1-2.112 2.1 2.107 2.107 0 0 1 2.112-2.1z" data-name="Path 418"/>
<path class="cls-2" transform="translate(-16.019 -29.437)" d="m33.468 35.348a2.106 2.106 0 1 1-2.112 2.1 2.105 2.105 0 0 1 2.112-2.1z" data-name="Path 419"/>
<path class="cls-7" transform="translate(-233.32 -127.01)" d="m299.64 178.55a8.054 8.054 0 0 1-8.042-8.045v-9.246a8.059 8.059 0 0 1 8.006-8.043h0.038a8.044 8.044 0 0 1 8.043 8.042v9.243a8.054 8.054 0 0 1-8.045 8.049zm-0.032-23.3a6.025 6.025 0 0 0-5.981 6.014v9.237a6.014 6.014 0 1 0 12.028 0v-9.246a6.014 6.014 0 0 0-6.014-6.014h-0.037z" data-name="Path 420"/>
<path class="cls-7" transform="translate(-206.39 -226.87)" d="m272.65 283.29a12.691 12.691 0 0 1-8.856-3.578 12.184 12.184 0 0 1-2.819-4.156 11.84 11.84 0 0 1-0.888-4.527 1.015 1.015 0 0 1 1.015-1.014 1.015 1.015 0 0 1 1.014 1.016 9.83 9.83 0 0 0 0.736 3.755 10.168 10.168 0 0 0 2.351 3.466 10.673 10.673 0 0 0 7.45 3.008h0.042a10.424 10.424 0 0 0 10.586-10.231 1.015 1.015 0 1 1 2.029 0 12.454 12.454 0 0 1-12.612 12.26h-0.049z" data-name="Path 421"/>
<path class="cls-7" transform="translate(-274.75 -295.23)" d="m341.06 358.51a1.015 1.015 0 0 1-1.015-1.015v-6.508a1.015 1.015 0 1 1 2.029 0v6.509a1.015 1.015 0 0 1-1.014 1.014z" data-name="Path 422"/>
<path class="cls-7" transform="translate(-245.74 -333.59)" d="m316.98 396.87h-9.841a1.015 1.015 0 1 1 0-2.029h9.841a1.015 1.015 0 0 1 0 2.029z" data-name="Path 423"/>
<path class="cls-7" transform="translate(10.077 -.106)" d="M45.738 52.514H7.88A7.889 7.889 0 0 1 0 44.634V7.985A7.888 7.888 0 0 1 7.88.106h43.588a7.888 7.888 0 0 1 7.88 7.879v18.976a1.173 1.173 0 1 1-2.347 0V7.985a5.539 5.539 0 0 0-5.533-5.532H7.88a5.539 5.539 0 0 0-5.533 5.532v36.65a5.539 5.539 0 0 0 5.533 5.532h37.858a1.173 1.173 0 0 1 0 2.347zm0 0" data-name="Path 424"/>
<path class="cls-7" transform="translate(10.078 -67.766)" d="m58.174 83.749h-57a1.173 1.173 0 0 1 0-2.347h57a1.173 1.173 0 0 1 0 2.347z" data-name="Path 425"/>
<path class="cls-7" transform="translate(-57.144 -23.753)" d="M84.049 35.079h-.012a3.28 3.28 0 0 1 .012-6.56h.009a3.278 3.278 0 0 1 3.271 3.286v.006a3.279 3.279 0 0 1-3.28 3.268zm0-4.213a.933.933 0 0 0 0 1.866.934.934 0 0 0 .933-.928.932.932 0 0 0-.93-.936zm2.106.941zm0 0" data-name="Path 426"/>
<path class="cls-7" transform="translate(-10.196 -23.611)" d="m27.639 34.908h-9e-3a3.28 3.28 0 0 1 9e-3 -6.561h9e-3a3.286 3.286 0 0 1 3.271 3.288 3.284 3.284 0 0 1-3.28 3.273zm0-4.214a0.933 0.933 0 0 0 0 1.866 0.933 0.933 0 0 0 0-1.865z" data-name="Path 427"/>
<path class="cls-7" transform="translate(-104.09 -23.903)" d="m140.46 35.258h-0.012a3.28 3.28 0 0 1-2.3-5.608 3.226 3.226 0 0 1 2.323-0.952 3.282 3.282 0 0 1 3.268 3.29 3.284 3.284 0 0 1-3.279 3.268zm0-4.213a0.933 0.933 0 0 0 0 1.866 0.933 0.933 0 0 0 0-1.866z" data-name="Path 428"/>
<g transform="translate(0 18.136)" data-name="Group 26">
<path class="cls-8" transform="translate(-268.37 -97.728)" d="m282.67 116.6-1.861-1.756c-1.691-1.718-1.878-1.463-4.321-1.463h-5.21a1.786 1.786 0 0 1-1.78-1.781v-10.954a1.787 1.787 0 0 1 1.781-1.786h17.541a1.79 1.79 0 0 1 1.781 1.786v10.954a1.789 1.789 0 0 1-1.781 1.782h-2.078c-1.075 0-1.075 0-1.075 1.259v1.2c-1e-3 1.105-1.45 2.223-2.997 0.759z" data-name="Path 459"/>
<path class="cls-9" transform="translate(-376.64 -97.732)" d="m380.89 100.65v10.951a1.786 1.786 0 0 0 1.781 1.782h-3.119a1.786 1.786 0 0 1-1.781-1.782v-10.951a1.787 1.787 0 0 1 1.781-1.786h3.119a1.786 1.786 0 0 0-1.781 1.786z" data-name="Path 460"/>
<path class="cls-7" transform="translate(-261.94 -91.301)" d="M282.4 108.086h-2.022v1.332a2.631 2.631 0 0 1-1.592 2.374 2.669 2.669 0 0 1-1.05.213 3.256 3.256 0 0 1-2.263-1.005l-1.861-1.756-.03-.029c-1.138-1.156-1.139-1.156-2.673-1.133-.25 0-.528.008-.843.008h-5.21a2.916 2.916 0 0 1-2.912-2.913V94.218a2.918 2.918 0 0 1 2.912-2.917H282.4a2.918 2.918 0 0 1 2.911 2.917v10.955a2.915 2.915 0 0 1-2.911 2.913zm.649-13.867a.661.661 0 0 0-.649-.655h-17.544a.653.653 0 0 0-.65.655v10.954a.659.659 0 0 0 .65.651h5.209c.3 0 .571 0 .81-.008 1.937-.029 2.575.04 4.3 1.793l1.847 1.743c.334.316.657.451.863.361a.374.374 0 0 0 .224-.3v-1.2a2.569 2.569 0 0 1 .406-1.836 2.111 2.111 0 0 1 1.8-.554h2.085a.659.659 0 0 0 .65-.651zm0 0" data-name="Path 455"/>
<path class="cls-2" transform="translate(-286.55 -132.58)" d="m302.84 142.1h-0.037a1.131 1.131 0 1 1 0-2.262h0.034a1.131 1.131 0 0 1 0 2.262z" data-name="Path 456"/>
<path class="cls-2" transform="translate(-321.08 -132.58)" d="m332.88 142.1h-0.034a1.131 1.131 0 1 1 0-2.262h0.034a1.131 1.131 0 1 1 0 2.262z" data-name="Path 457"/>
<path class="cls-2" transform="translate(-355.65 -132.58)" d="m362.94 142.1h-0.029a1.131 1.131 0 1 1 0-2.262h0.029a1.131 1.131 0 1 1 0 2.262z" data-name="Path 458"/>
</g>
<g transform="translate(28.627 21.205)">
<path class="cls-2" transform="translate(-325.83 -144.72)" d="m341.69 153.37h-0.481v2.883h0.481a1.442 1.442 0 1 0 0-2.883z" data-name="Path 482"/>
<path class="cls-2" transform="translate(-132.87 -144.72)" d="m136.72 154.81a1.442 1.442 0 0 0 1.442 1.442h0.481v-2.884h-0.481a1.442 1.442 0 0 0-1.442 1.442z" data-name="Path 483"/>
<path class="cls-5" transform="translate(-140.34 -8.041)" d="M156.2 16.692l.567-2.917a2.033 2.033 0 0 0-1.669-2.341 2.072 2.072 0 0 0-.34-.028 2.11 2.11 0 0 0-2-1.442h-5.69l-.968-1.442-.476.478a3.4 3.4 0 0 0 0 4.8h8.651z" data-name="Path 484"/>
<path class="cls-10" transform="translate(-76.591 -322.16)" d="M93.921 341.9l-3.484-.481-3.273 1.881-3.273-1.869-3.484.481a3.845 3.845 0 0 0-3.335 3.792v5.286h20.185v-5.286a3.845 3.845 0 0 0-3.336-3.804z" data-name="Path 485"/>
<path class="cls-2" transform="translate(-190.68 -265.32)" d="M204.523 284.593l-.389-.053v-3.364h-5.767v3.364l-.389.053 3.273 1.869z" data-name="Path 486"/>
<g transform="translate(6.728 19.223)" data-name="Group 28">
<path class="cls-11" transform="translate(-187.84 -340.82)" d="m188.8 344.66 2.883-1.922-2.883-1.922h-0.961z" data-name="Path 487"/>
<path class="cls-11" transform="translate(-252.16 -340.82)" d="M256 342.74l2.883 1.922.961-3.845h-.961z" data-name="Path 488"/>
</g>
<path class="cls-5" transform="translate(-221.31 -353.75)" d="M230.44 382.589l.481-5.286-.481-1.442 1.442-.961 1.442.961-.481 1.442.481 5.286" data-name="Path 489"/>
<path class="cls-2" transform="translate(-197.19 -265.32)" d="m210.65 283.84v-2.662h-5.767v2.662a6.267 6.267 0 0 0 5.767 0z" data-name="Path 490"/>
<path class="cls-12" transform="translate(-76.591 -338.32)" d="m77.072 361.87v5.286h1.922v-8.612a3.844 3.844 0 0 0-1.922 3.326z" data-name="Path 491"/>
<path class="cls-2" transform="translate(-156.99 -96.479)" d="m172.85 105.13v2.739a7.981 7.981 0 0 1-1 3.874 4.9 4.9 0 0 1-4.282 2.518 4.9 4.9 0 0 1-4.282-2.518 7.981 7.981 0 0 1-1-3.874v-5.623h8.65z" data-name="Path 492"/>
<path class="cls-13" transform="translate(-156.99 -96.48)" d="m164.2 102.25h-1.922v5.623a7.981 7.981 0 0 0 1 3.874 4.861 4.861 0 0 0 2.1 1.99c-1.66-4.759-1.178-11.487-1.178-11.487z" data-name="Path 493"/>
<path class="cls-14" transform="translate(-140.37 -42.774)" d="m144.77 45.331a3.387 3.387 0 0 0 0.894 3.21h7.689c-5.459 0-7.689-1.922-8.583-3.21z" data-name="Path 494"/>
<path class="cls-7" transform="translate(-325.83 -136.68)" d="M341.687 148.693h-.481v-.961h.481a.961.961 0 0 0 0-1.922h-.481v-.961h.481a1.922 1.922 0 0 1 0 3.845z" data-name="Path 495"/>
<path class="cls-7" transform="translate(-124.83 -136.68)" d="M130.6 148.693h-.481a1.922 1.922 0 1 1 0-3.845h.481v.961h-.481a.961.961 0 1 0 0 1.922h.481z" data-name="Path 496"/>
<path class="cls-7" transform="translate(-221.31 -150.55)" d="M232.363 163.524h-1.442a.481.481 0 0 1-.462-.613l.961-3.364.924.264-.787 2.751h.8v.961z" data-name="Path 497"/>
<path class="cls-7" transform="translate(-148.94 -88.442)" d="M159.516 106.7a5.38 5.38 0 0 1-4.7-2.766 8.479 8.479 0 0 1-1.065-4.106v-5.619a.481.481 0 0 1 .481-.481h8.65a.481.481 0 0 1 .4.214l1.922 2.883a.482.482 0 0 1 .081.267v2.739a8.488 8.488 0 0 1-1.065 4.107 5.38 5.38 0 0 1-4.704 2.762zm0-.961a4.419 4.419 0 0 0 3.861-2.271 7.521 7.521 0 0 0 .944-3.64v-2.591l-1.7-2.548h-7.911v5.142a7.519 7.519 0 0 0 .944 3.64 4.418 4.418 0 0 0 3.861 2.271z" data-name="Path 498"/>
<path class="cls-7" transform="translate(-229.35 -219.42)" d="M239.522 234.323h-.562v-.961h.562a2.788 2.788 0 0 0 1.981-.821l.68.68a3.744 3.744 0 0 1-2.661 1.102z" data-name="Path 499"/>
<ellipse class="cls-7" transform="translate(6.73 8.65)" cx=".961" cy=".961" rx=".961" ry=".961" data-name="Ellipse 8"/>
<ellipse class="cls-7" transform="translate(12.497 8.65)" cx=".961" cy=".961" rx=".961" ry=".961" data-name="Ellipse 9"/>
<path class="cls-7" transform="translate(-132.32 -.002)" d="M148.656 9.213l-.948-.158.567-3.4A1.552 1.552 0 0 0 147 3.869a1.3 1.3 0 0 0-.26-.021.48.48 0 0 1-.456-.328 1.629 1.629 0 0 0-1.544-1.114h-5.689a.481.481 0 0 1-.4-.214l-.636-.954-.066.066a2.917 2.917 0 0 0 0 4.125l-.679.681a3.883 3.883 0 0 1 0-5.485l.481-.481a.481.481 0 0 1 .74.073l.819 1.228h5.433a2.589 2.589 0 0 1 2.331 1.463l.088.013a2.513 2.513 0 0 1 2.063 2.9z" data-name="Path 500"/>
<path class="cls-7" transform="translate(-68.552 -281.4)" d="M69.513 310.231h-.961v-5.286a4.34 4.34 0 0 1 3.752-4.287l3.456-.459v-1.982h.961v2.4a.48.48 0 0 1-.417.476l-3.873.514a3.375 3.375 0 0 0-2.918 3.334v5.287z" data-name="Path 501"/>
<path class="cls-7" transform="translate(-285.63 -281.4)" d="M306.773 310.238h-.961v-5.286a3.374 3.374 0 0 0-2.919-3.334l-3.873-.514a.48.48 0 0 1-.417-.476v-2.4h.961v1.982l3.456.459a4.34 4.34 0 0 1 3.753 4.287v5.286z" data-name="Path 502"/>
<path class="cls-7" transform="translate(3.847 24.99)" d="M0 0h.961v3.845H0z" data-name="Rectangle 65"/>
<path class="cls-7" transform="translate(16.342 24.99)" d="M0 0h.961v3.845H0z" data-name="Rectangle 66"/>
<path class="cls-7" transform="translate(-173.31 -319.66)" d="M181 343.206a.48.48 0 0 1-.466-.364l-.961-3.842.932-.233.8 3.183 2.316-1.544.533.8-2.883 1.922a.48.48 0 0 1-.271.078z" data-name="Path 503"/>
<path class="cls-7" transform="translate(-185.16 -314.62)" d="M195.734 336.242a.48.48 0 0 1-.238-.063l-3.364-1.922.477-.834 3.126 1.786 3.126-1.786.477.834-3.364 1.922a.48.48 0 0 1-.24.063z" data-name="Path 504"/>
<path class="cls-7" transform="translate(-240.97 -319.65)" d="M254.422 343.2a.483.483 0 0 1-.267-.081l-2.883-1.922.533-.8 2.316 1.544.8-3.183.932.233-.961 3.845a.48.48 0 0 1-.293.332.463.463 0 0 1-.177.032z" data-name="Path 505"/>
<path class="cls-7" transform="translate(-213.3 -367.29)" d="M222.91 396.164l-.957-.087.471-5.186-.449-1.347.912-.3.481 1.442a.483.483 0 0 1 .023.2z" data-name="Path 506"/>
<path class="cls-7" transform="translate(-253.46 -367.29)" d="M265 396.172l-.481-5.286a.481.481 0 0 1 .023-.2l.48-1.442.911.3-.449 1.346.471 5.186z" data-name="Path 507"/>
<path class="cls-7" transform="translate(9.614 23.068)" d="M0 0h1.922v.961H0z" data-name="Rectangle 67"/>
</g>
</g>
</svg>
