<?xml version="1.0" encoding="UTF-8"?>
<svg width="357px" height="336px" viewBox="0 0 357 336" version="1.1" xmlns="http://www.w3.org/2000/svg" xmlns:xlink="http://www.w3.org/1999/xlink">
    <!-- Generator: Sketch 44 (41411) - http://www.bohemiancoding.com/sketch -->
    <title>Group 8</title>
    <desc>Created with Sketch.</desc>
    <defs></defs>
    <g id="Page-1" stroke="none" stroke-width="1" fill="none" fill-rule="evenodd">
        <g id="Landing-Page-Copy" transform="translate(0.000000, -240.000000)">
            <g id="Group-8" transform="translate(-223.000000, 240.000000)">
                <g id="Group-9" transform="translate(223.000000, 0.000000)">
                    <path d="M149.586447,242.250132 C151.261714,243.060107 152.840275,244.056461 154.292192,245.220298 C155.694771,246.337241 156.627024,247.93995 156.904506,249.711332 C156.975419,250.319358 156.889171,250.935411 156.65401,251.500588 C156.431152,251.971659 156.121585,252.396555 155.741489,252.753067 C153.928287,254.22573 151.716373,255.122957 149.389629,255.329597 C144.519732,256.290283 139.488722,256.044568 134.735619,254.613894 C133.514787,254.355956 132.475825,253.560294 131.908594,252.448894 C131.693883,251.768976 131.819131,250.963811 131.318139,250.427034 C130.351941,249.389265 128.169048,250.427034 126.71975,249.854472 C125.789821,249.404762 125.126626,248.542608 124.930494,247.528439 C124.358312,246.06675 124.043525,244.517031 124.00008,242.947942 C123.991746,241.249026 124.631645,239.610883 125.789337,238.367446 C126.617608,237.574013 127.565581,236.915866 128.598469,236.417156 C129.886374,235.672622 131.30969,235.192101 132.785329,235.003644 C135.518575,234.938548 138.201311,235.74713 140.443347,237.311784 L149.586447,242.250132 Z" id="Shape" fill="#D2D8F9" fill-rule="nonzero"></path>
                    <path d="M149.586447,239.250132 C151.261714,240.060107 152.840275,241.056461 154.292192,242.220298 C155.694771,243.337241 156.627024,244.93995 156.904506,246.711332 C156.975419,247.319358 156.889171,247.935411 156.65401,248.500588 C156.431152,248.971659 156.121585,249.396555 155.741489,249.753067 C153.928287,251.22573 151.716373,252.122957 149.389629,252.329597 C144.519732,253.290283 139.488722,253.044568 134.735619,251.613894 C133.514787,251.355956 132.475825,250.560294 131.908594,249.448894 C131.693883,248.768976 131.819131,247.963811 131.318139,247.427034 C130.351941,246.389265 128.169048,247.427034 126.71975,246.854472 C125.789821,246.404762 125.126626,245.542608 124.930494,244.528439 C124.358312,243.06675 124.043525,241.517031 124.00008,239.947942 C123.991746,238.249026 124.631645,236.610883 125.789337,235.367446 C126.617608,234.574013 127.565581,233.915866 128.598469,233.417156 C129.886374,232.672622 131.30969,232.192101 132.785329,232.003644 C135.518575,231.938548 138.201311,232.74713 140.443347,234.311784 L149.586447,239.250132 Z" id="Shape" fill="#4C5280" fill-rule="nonzero"></path>
                    <path d="M103.05382,210.908231 C103.304708,212.75248 103.346723,214.619148 103.179068,216.472818 C103.019261,218.257795 102.195611,219.917866 100.870928,221.124885 C100.393282,221.543653 99.8127743,221.827731 99.1890265,221.947943 C98.6747847,222.046104 98.1466153,222.046104 97.6323735,221.947943 C95.4049163,221.251385 93.4361511,219.905646 91.9783231,218.083149 C88.499761,214.578619 85.9266784,210.279913 84.4813387,205.558354 C84.0158651,204.389558 84.1080669,203.07239 84.7318346,201.979841 C85.1791487,201.425172 85.9127439,201.085213 86.0916695,200.36951 C86.4316282,198.991783 84.427661,197.703518 84.0340246,196.218436 C83.8851406,195.193225 84.2302045,194.158033 84.964438,193.427196 C85.8681711,192.140771 86.9881374,191.020804 88.2745623,190.117071 C89.6953043,189.172036 91.4240582,188.807077 93.1055547,189.097195 C94.2201624,189.346685 95.2887872,189.769305 96.2725386,190.349674 C97.6032097,191.009989 98.7892402,191.928402 99.7615886,193.051452 C101.326243,195.293487 102.134825,197.976224 102.069729,200.709469 C102.391796,203.948023 102.731754,207.329718 103.05382,210.908231 Z" id="Shape" fill="#D2D8F9" fill-rule="nonzero"></path>
                    <path d="M104.05382,208.908231 C104.304708,210.75248 104.346723,212.619148 104.179068,214.472818 C104.019261,216.257795 103.195611,217.917866 101.870928,219.124885 C101.393282,219.543653 100.812774,219.827731 100.189027,219.947943 C99.6747847,220.046104 99.1466153,220.046104 98.6323735,219.947943 C96.4049163,219.251385 94.4361511,217.905646 92.9783231,216.083149 C89.499761,212.578619 86.9266784,208.279913 85.4813387,203.558354 C85.0158651,202.389558 85.1080669,201.07239 85.7318346,199.979841 C86.1791487,199.425172 86.9127439,199.085213 87.0916695,198.36951 C87.4316282,196.991783 85.427661,195.703518 85.0340246,194.218436 C84.8851406,193.193225 85.2302045,192.158033 85.964438,191.427196 C86.8681711,190.140771 87.9881374,189.020804 89.2745623,188.117071 C90.6953043,187.172036 92.4240582,186.807077 94.1055547,187.097195 C95.2201624,187.346685 96.2887872,187.769305 97.2725386,188.349674 C98.6032097,189.009989 99.7892402,189.928402 100.761589,191.051452 C102.326243,193.293487 103.134825,195.976224 103.069729,198.709469 C103.373903,202.001701 103.731754,205.454966 104.05382,208.908231 Z" id="Shape" fill="#4C5280" fill-rule="nonzero"></path>
                    <path d="M146.366271,109.321595 L167.64053,125.585936 C168.903315,126.554058 169.717331,127.994737 169.894993,129.575978 L172.829374,155.555981 C173.081215,157.692923 172.139796,159.795654 170.378092,161.031106 L165.797596,164.251768 C163.77149,165.686793 161.060312,165.686793 159.034207,164.251768 L138.457758,149.597757 C136.506294,148.208388 135.598906,145.769784 136.167509,143.442715 L144.201271,110.073083 C144.290831,109.609185 144.620798,109.22816 145.067138,109.073232 C145.513479,108.918303 146.008555,109.01295 146.366271,109.321595 L146.366271,109.321595 Z" id="Shape" fill="#9B8579" fill-rule="nonzero"></path>
                    <polyline id="Shape" stroke="#7F695E" stroke-width="2" stroke-linecap="round" stroke-linejoin="round" points="152.811116 111.041736 149 108 149 114.369753"></polyline>
                    <path d="M147.267458,119.301115 L162.798204,130.036653 C163.306129,130.387982 163.596963,130.976414 163.567584,131.593306 L161.205765,160.883434 C161.119633,161.541272 160.696016,162.106283 160.088693,162.373358 C159.48137,162.640434 158.778639,162.570746 158.2356,162.189591 L136.764523,147.714507 C136.141013,147.278824 135.861117,146.496552 136.066713,145.764217 L144.42254,120.303098 C144.610649,119.744923 145.045223,119.304406 145.600792,119.108734 C146.156362,118.913061 146.771077,118.984017 147.267458,119.301115 L147.267458,119.301115 Z" id="Shape" fill="#89766D" fill-rule="nonzero"></path>
                    <path d="M102.778341,90.2544653 C101.530321,88.5401775 99.6368969,87.4092927 97.5358198,87.1232665 C96.3796518,86.886556 95.1795414,86.9922652 94.0825549,87.4274401 C92.6689332,88.2038922 91.5357988,89.4058911 90.8440008,90.8628124 C88.8941584,94.3859101 87.385786,98.1358081 86.3529672,102.027773 C86.1345425,102.760838 85.9671448,103.508149 85.8519754,104.264343 C84.4026777,108.343848 82.9354874,114.49889 82.2734625,117.308022 C80.9918559,123.285389 80.1013033,129.339951 79.6074704,135.43319 C78.8917679,141.355629 77.3708999,146.884431 78.2834207,152.87844 C78.314106,153.30982 78.4626458,153.724493 78.7128422,154.077242 C78.9571733,154.306038 79.2140293,154.52108 79.4822225,154.721374 C80.2158176,155.419184 80.1800325,156.510631 80.4305284,157.530507 C80.6810243,158.550383 81.6830079,159.534474 82.5597435,159.01559 C82.7021681,160.258633 83.4169197,161.36385 84.4921405,162.003648 C85.619372,162.486747 87.2654879,161.377408 86.7644961,160.214392 C87.1939177,160.947987 88.4285046,160.733276 88.9116039,160.035466 C89.2998225,159.267776 89.4195174,158.392113 89.2515626,157.548399 L88.8579262,153.057366 C89.2694551,153.862531 90.6471826,153.665713 91.0944967,152.914225 C91.5138205,152.11173 91.6463899,151.190057 91.4702405,150.301911 C91.3289842,147.210016 90.8733574,144.14053 90.1104057,141.140918 C89.7556633,139.813106 89.0937234,138.587292 88.1780087,137.562405 C92.4563612,131.367399 94.7411196,124.013723 94.7266872,116.484964 C94.4911041,114.619618 94.4911041,112.732046 94.7266872,110.866699 C95.227679,109.077443 96.7843321,108.36174 97.7684232,106.858765 C99.5774305,104.062678 101.043239,101.058972 102.134209,97.9124828 C103.082515,95.1749204 104.639168,93.0278127 102.778341,90.2544653 Z" id="Shape" fill="#F9D5C5" fill-rule="nonzero"></path>
                    <path d="M152.906825,109.356074 C153.129276,107.983262 153.675114,106.683063 154.499263,105.56285 C149.685111,99.7782288 146.751234,92.6620172 146.089758,85.1653271 C146.133467,83.2878644 145.941107,81.4123488 145.517196,79.582847 C144.873064,77.7935906 143.24484,77.2747062 142.117609,75.8790862 C140.060674,73.2404392 138.330424,70.3626974 136.96455,67.3085479 C135.783641,64.7678038 134.048062,62.7638366 135.640501,59.8294561 C136.731299,58.0145205 138.514484,56.7223576 140.578848,56.2509432 C141.705623,55.9163523 142.905339,55.9163523 144.032113,56.2509432 C145.526313,56.8895865 146.77929,57.9859414 147.610626,59.382142 C149.870217,62.7218755 151.709148,66.3276227 153.085751,70.1176805 C153.368458,70.8283335 153.601619,71.5577087 153.783561,72.3005734 C155.572817,76.2369375 157.594677,82.2309465 158.560875,84.9685089 C160.375244,90.8329878 161.80374,96.8099568 162.837198,102.861073" id="Shape" fill="#F9D5C5" fill-rule="nonzero"></path>
                    <path d="M135,45 C135,45 151.550622,45.2504959 158.815003,78.4948803 C162.107235,93.5425269 137.343926,78.4948803 137.343926,78.4948803 L135,45 Z" id="Shape" fill="#FFFFFF" fill-rule="nonzero"></path>
                    <path d="M117.408169,40.4316375 C112.255111,39.75172 108.819738,35.7974633 107.29887,30.8054379 C104.776019,22.5032881 105.68854,11.7140718 112.165648,5.50535204 C119.57317,-1.65167367 134.835527,-2.42105393 140.149618,6.72204641 C140.149618,6.72204641 151.135653,19.9983291 140.793751,27.1016771" id="Shape" fill="#563335" fill-rule="nonzero"></path>
                    <path d="M149.32639,162.345433 C149.702134,168.840434 148.986431,175.92589 144.638538,180.756882 C141.605996,183.680059 137.99036,185.929924 134.028248,187.359238 L102.930971,201.064942 C99.7282019,202.478455 95.9886559,203.874075 92.8932423,202.263744 C91.2112127,201.189683 89.8364546,199.697793 88.9032005,197.933744 C87.3181649,195.765189 86.1085096,193.345879 85.3246876,190.776718 C84.5804415,188.15582 85.132221,185.337091 86.8097705,183.190271 C87.8776424,182.118241 89.1329726,181.251033 90.5135313,180.631634 C98.6391499,176.399772 107.003014,172.642007 115.563121,169.377211 C114.811634,164.8325 111.16155,141.482703 110.410063,136.955885 C110.118428,135.823268 110.118428,134.635236 110.410063,133.50262 C111.16538,132.020783 112.438944,130.868207 113.988576,130.264066 C121.357665,126.306534 129.116688,123.122577 137.141554,120.763114 C139.027889,120.043888 141.068953,119.828066 143.063993,120.136874 C147.966555,121.317783 145.586844,125.27204 145.407918,128.635842 C145.336348,133.592083 149.022216,157.3713 149.32639,162.345433 Z" id="Shape" fill="#383F68" fill-rule="nonzero"></path>
                    <path d="M100.838681,152.186351 C102.502689,162.653501 105.007648,172.959618 107.619963,183.247842 C111.747181,199.577789 116.095074,215.84213 120.663642,232.040865 C120.987344,233.757591 121.772966,235.353579 122.935998,236.657147 C124.563672,237.908589 126.59659,238.514004 128.643726,238.35694 C132.545193,238.383419 136.413126,237.635375 140.023397,236.156155 C141.470986,235.672438 142.749945,234.784617 143.709265,233.597518 C145.122777,231.557766 144.675463,228.784419 144.156579,226.440493 C139.48662,204.325283 134.81666,182.192181 129.663602,160.238005 C127.995039,151.954248 125.612395,143.830509 122.542361,135.957795 C120.753105,131.645687 118.283931,127.297794 114.240211,124.953868 C97.4927713,115.309776 99.5504162,144.081019 100.838681,152.186351 Z" id="Shape" fill="#383F68" fill-rule="nonzero"></path>
                    <path d="M100.582346,57.5558094 C97.1946545,63.2206889 94.5885489,69.3176519 92.8348656,75.680977 L87.1987079,93.1083346 C87.0259965,93.5206165 86.9643067,93.9709514 87.0197822,94.4144918 C87.2248259,94.9545605 87.6669308,95.3702711 88.218584,95.5417234 C92.9495634,97.6761697 98.2568412,98.1735302 103.302016,96.955236 C100.78012,107.815377 98.9868674,118.831925 97.9342464,129.931232 C97.7760073,130.924022 97.8063583,131.937745 98.0237092,132.91929 C98.4881002,134.134134 99.4051821,135.121761 100.582346,135.674745 C103.884583,137.154926 107.535067,137.681736 111.121066,137.195613 C121.820868,136.387125 132.311784,133.80521 142.164665,129.555488 C150.019501,126.245364 146.745162,115.491933 147.01355,112.82594 C149.17855,92.231599 150.43103,77.7744071 145.331649,58.7725038 C143.989707,53.7446932 142.164665,48.537957 138.01359,45.6751468 C133.862515,42.8123365 128.494746,42.7944439 123.252225,43.1701878 C118.993795,43.4743614 114.896397,45.6751468 110.960033,47.7148991 C106.72673,50.0681891 103.15694,53.4533349 100.582346,57.5558094 Z" id="Shape" fill="#FFFFFF" fill-rule="nonzero"></path>
                    <path d="M117.460279,50.6386575 C118.403479,52.9327059 119.755425,55.0364073 121.450321,56.8473773 C122.838089,58.5503992 125.003624,59.4207839 127.183961,59.1518756 C129.364299,58.8829674 131.253463,57.5125031 132.18586,55.5233276 C133.245078,53.2867112 133.789242,50.8410295 133.778298,48.3663019 C136.730798,48.1484262 139.432862,46.6268754 141.150034,44.215227 C143.375288,41.2483139 144.865342,37.796048 145.497927,34.1417133 C146.240627,28.8713513 146.00406,23.5091672 144.800117,18.3246865 C144.56593,16.924032 144.001671,15.5992492 143.154001,14.4598926 C142.001176,13.2993033 140.573028,12.4498015 139.002927,11.9907187 C135.138133,10.541421 130.879702,9.27104895 126.925446,10.4877433 C120.824081,12.4022477 117.979164,19.577166 117.979164,25.9648114 C115.98316,25.3366875 113.804085,25.9257249 112.396375,27.4739242 C110.988665,29.0221236 110.608952,31.2472426 111.42355,33.1746755 C112.238149,35.1021083 114.098555,36.3804771 116.189907,36.4498541 C116.637221,36.3961764 117.209783,49.6008888 117.460279,50.6386575 Z" id="Shape" fill="#F9D5C5" fill-rule="nonzero"></path>
                    <path d="M141.054833,23.7585823 C142.286068,23.3101431 143.629416,23.2724791 144.883842,23.6512269 C144.730086,23.250982 144.429275,22.9245699 144.042892,22.7387061 C143.688291,22.49325 143.303378,22.2947792 142.897768,22.1482515 C141.671025,21.8173011 140.360702,22.0466077 139.319255,22.7744912 C138.746693,23.1860202 137.529998,24.384822 138.192023,24.9215989 C138.854048,25.4583759 140.249668,24.0448633 141.054833,23.7585823 Z" id="Shape" fill="#563335" fill-rule="nonzero"></path>
                    <path d="M133.852852,25.1918467 C133.978358,25.3824799 134.014957,25.6181975 133.953162,25.8379115 C133.891367,26.0576255 133.737263,26.239708 133.530786,26.3369708 C133.149786,26.4386866 132.74877,26.4386866 132.367769,26.3369708 C130.328017,25.9433344 128.789256,26.9811031 127,26.9632106 C127.125248,24.7982103 132.457232,22.5616398 133.852852,25.1918467 Z" id="Shape" fill="#563335" fill-rule="nonzero"></path>
                    <path d="M142.181341,29.3889591 L142.020308,29.3889591 C141.631011,29.5172936 141.210803,29.5172936 140.821506,29.3889591 C140.517332,29.2994962 139.891092,29.0132152 140.01634,28.6016862 C140.083183,28.4397544 140.235328,28.3291034 140.409977,28.3154052 C140.914811,28.250252 141.412156,28.1364019 141.89506,27.9754465 C142.368333,27.7345361 142.812559,27.4403867 143.219109,27.0987108 C143.371129,26.9910642 143.568088,26.9699259 143.739489,27.0428622 C143.910889,27.1157984 144.032223,27.2723807 144.06006,27.4565621 C144.167415,27.9575539 143.684316,28.2975126 143.326465,28.5480085 C142.975853,28.8683774 142.591958,29.1502998 142.181341,29.3889591 L142.181341,29.3889591 Z" id="Shape" fill="#383F68" fill-rule="nonzero"></path>
                    <path d="M132.630119,31.7853114 L132.791152,31.7853114 C133.193452,31.6992948 133.557344,31.4859786 133.828921,31.1769642 C134.043632,30.9264683 134.419376,30.3539062 134.079417,30.0676252 C133.931006,29.9774583 133.744729,29.9774583 133.596318,30.0676252 C133.137024,30.2863232 132.657658,30.4600934 132.164913,30.5865096 C131.635839,30.6472751 131.101548,30.6472751 130.572475,30.5865096 C130.38174,30.5737974 130.198636,30.6634801 130.091752,30.8219639 C129.984867,30.9804478 129.970332,31.1838158 130.05359,31.3558898 C130.232516,31.8389891 130.82297,31.8568816 131.252392,31.8747742 C131.713494,31.8927919 132.17522,31.8628097 132.630119,31.7853114 L132.630119,31.7853114 Z" id="Shape" fill="#383F68" fill-rule="nonzero"></path>
                    <path d="M138.233049,35.6844793 C138.840816,35.4957807 139.438084,35.2747917 140.022305,35.0224544 C140.16388,34.9925152 140.310152,34.9925152 140.451727,35.0224544 C140.515725,35.001917 140.584546,35.001917 140.648545,35.0224544 C140.71218,35.1396195 140.71218,35.2810331 140.648545,35.3981982 C140.549692,35.7650606 140.336623,36.0909313 140.040198,36.3286116 C139.749922,36.5736765 139.416067,36.7618492 139.056107,36.8832811 C138.483301,37.0890995 137.874155,37.1743799 137.26685,37.133777 C137.00693,37.1248377 136.751423,37.0640026 136.515362,36.9548513 C136.278178,36.8481144 136.096499,36.6469699 136.014371,36.4001818 C135.907015,36.024438 136.4259,35.738157 136.747966,35.7202644 C137.243084,35.751981 137.740033,35.7400063 138.233049,35.6844793 L138.233049,35.6844793 Z" id="Shape" fill="#D8B4B6" fill-rule="nonzero"></path>
                    <path d="M121.859976,43.8488849 C124.999472,46.2505986 128.806504,47.6196298 132.756547,47.7673565 C132.777458,48.017416 132.777458,48.2687847 132.756547,48.5188442 C132.669322,50.2782786 132.368917,52.0206279 131.861919,53.7076878 C131.602575,54.5160907 131.2733,55.3003641 130.877828,56.0516137 C130.12634,57.3398784 128.140266,56.1768617 127.209852,55.6758699 C125.857213,54.9372164 124.621194,54.002666 123.541877,52.9025224 C120.402467,50.0276837 118.175339,46.2950665 117.136339,42.1669839 C117.028983,41.6659921 116.742702,39 117.56576,39 C117.869934,39 118.138322,39.5367769 118.281463,39.7514877 C119.139207,41.0801233 120.147908,42.3049739 121.287414,43.4015708 L121.859976,43.8488849 Z" id="Shape" fill="#D8B4B6" fill-rule="nonzero"></path>
                    <path d="M112.001551,30.161633 C111.985396,30.7101178 112.095591,31.2549714 112.323618,31.7540712 C112.433696,32.0445473 112.597596,32.3116441 112.806717,32.541344 C113.019108,32.7725488 113.315953,32.9080645 113.629775,32.9170879 C113.735447,32.9193951 113.837956,32.8809542 113.916056,32.8097325 C114.077089,32.6308069 113.916056,32.3624184 113.916056,32.1298151 C113.786838,31.7052123 113.888586,31.2439567 114.184444,30.9131207 C114.330948,30.7847883 114.462948,30.6407884 114.578081,30.4836991 C114.661205,30.3106482 114.704027,30.1210082 114.703329,29.9290296 C114.777368,29.5388747 114.777368,29.1382753 114.703329,28.7481204 C113.951841,26.833616 112.073122,29.0701866 112.001551,30.161633 Z" id="Shape" fill="#D8B4B6" fill-rule="nonzero"></path>
                    <path d="M130.905639,40.9742513 C132.595388,42.6100091 135.270719,42.8462963 137.35186,42.2190944 C137.934803,42.1195625 138.500935,41.9388822 139.033761,41.6823175 C139.37372,41.5033918 141.229859,39.8422838 140.693082,39.4128622 C140.156305,38.9834407 138.300166,40.6624413 137.888637,40.7876893 C135.951119,41.311257 133.955187,41.5878017 131.948306,41.6107472 C131.424908,41.515299 130.905639,40.5448298 130.905639,40.9742513 Z" id="Shape" fill="#D8B4B6" fill-rule="nonzero"></path>
                    <path d="M164.570137,111.125208 C164.649075,112.462468 164.318254,113.791994 163.621832,114.936324 C162.160968,116.464766 160.067982,117.219831 157.967781,116.976076 C156.485437,117.041061 155.007,116.778363 153.637781,116.206696 C152.253244,115.615381 151.262969,114.36238 151.007574,112.878679 C150.958431,111.916687 151.149028,110.957553 151.562243,110.087439 C152.143995,108.171026 153.566344,106.623563 155.427037,105.882686 C155.928029,105.739546 156.446913,105.703761 156.947905,105.578513 C159.161071,104.564484 160.846807,103.862503 162.860839,102.495011 C162.860839,102.495011 164.087038,105.578513 164.248071,106.652067 C164.484606,108.130992 164.592366,109.627652 164.570137,111.125208 Z" id="Shape" fill="#F9D5C5" fill-rule="nonzero"></path>
                    <polyline id="Shape" stroke="#7F695E" stroke-width="2" stroke-linecap="round" stroke-linejoin="round" points="160 115 163.506943 117.773347 163.506943 124.1431"></polyline>
                    <path d="M117.015196,29.9720206 C118.092582,30.3718124 119.139133,30.8502358 120.146395,31.4034258 C120.039039,31.4034258 120.987345,26.3040449 121.058915,25.767268 C121.244821,23.8419302 121.653107,21.9446042 122.27561,20.1132177 C123.132779,17.1638492 125.443001,14.8603824 128.394867,14.0118533 C130.907308,13.6877244 133.450981,13.6877244 135.963421,14.0118533 C138.818091,14.1695539 141.67929,14.1695539 144.53396,14.0118533 C145.575185,14.0154711 146.597061,13.7305845 147.486233,13.1887953 C149.687018,11.6142497 149.41863,8.21466247 148.685035,6.03176963 C147.833147,2.43290098 144.581274,-0.0805880861 140.883877,0.00197547466 C137.00119,0.00197547466 133.869991,2.45325678 130.416727,3.86676936 C128.087537,4.57278326 125.834002,5.50776047 123.689122,6.65800938 C121.674821,7.97238757 119.961371,9.69803285 118.661312,11.7216051 C116.205747,15.610575 115.406907,20.3198695 116.442634,24.8010695 C116.81335,26.5000271 117.005249,28.2331163 117.015196,29.9720206 L117.015196,29.9720206 Z" id="Shape" fill="#563335" fill-rule="nonzero"></path>
                </g>
            </g>
        </g>
    </g>
</svg>