<?xml version="1.0" encoding="UTF-8"?>
<svg width="241px" height="516px" viewBox="0 0 241 516" version="1.1" xmlns="http://www.w3.org/2000/svg" xmlns:xlink="http://www.w3.org/1999/xlink">
    <!-- Generator: Sketch 44 (41411) - http://www.bohemiancoding.com/sketch -->
    <title>Group 3</title>
    <desc>Created with Sketch.</desc>
    <defs>
        <path d="M124.00987,191.160486 L180.213885,159.131347 L180.213885,159.131347 C180.693724,158.8579 181.304382,159.025214 181.577829,159.505053 C181.633918,159.603475 181.672875,159.710712 181.693038,159.822186 L182.935242,166.689963 L182.935242,166.689963 C183.010723,167.107275 182.814774,167.526814 182.446317,167.736781 L125.655597,200.09926 L125.655597,200.09926 C125.175755,200.372701 124.565098,200.205379 124.291658,199.725537 C124.23639,199.628551 124.197751,199.522996 124.177343,199.41325 L123.033817,193.263778 L123.033817,193.263778 C122.878096,192.426367 123.269834,191.582212 124.00987,191.160486 Z" id="path-1"></path>
        <filter x="-4.6%" y="-6.7%" width="110.8%" height="115.8%" filterUnits="objectBoundingBox" id="filter-2">
            <feOffset dx="0.5" dy="0.5" in="SourceAlpha" result="shadowOffsetOuter1"></feOffset>
            <feGaussianBlur stdDeviation="1" in="shadowOffsetOuter1" result="shadowBlurOuter1"></feGaussianBlur>
            <feColorMatrix values="0 0 0 0 0   0 0 0 0 0   0 0 0 0 0  0 0 0 0.05 0" type="matrix" in="shadowBlurOuter1"></feColorMatrix>
        </filter>
        <path d="M120.706506,176.772682 L146.182568,161.954983 L146.182568,161.954983 C146.659973,161.677309 147.272086,161.839223 147.54976,162.316628 C147.620222,162.437773 147.664433,162.572376 147.679526,162.711707 L148.442534,169.755413 L148.442534,169.755413 C148.484964,170.147107 148.29345,170.52721 147.953406,170.726195 L122.376763,185.692993 L122.376763,185.692993 C121.900093,185.971927 121.287555,185.811632 121.00862,185.334962 C120.950294,185.235289 120.909673,185.126266 120.88856,185.012727 L119.74576,178.86716 L119.74576,178.86716 C119.591225,178.036124 119.975828,177.197667 120.706506,176.772682 Z" id="path-3"></path>
        <filter x="-9.5%" y="-11.2%" width="122.5%" height="126.4%" filterUnits="objectBoundingBox" id="filter-4">
            <feOffset dx="0.5" dy="0.5" in="SourceAlpha" result="shadowOffsetOuter1"></feOffset>
            <feGaussianBlur stdDeviation="1" in="shadowOffsetOuter1" result="shadowBlurOuter1"></feGaussianBlur>
            <feColorMatrix values="0 0 0 0 0   0 0 0 0 0   0 0 0 0 0  0 0 0 0.05 0" type="matrix" in="shadowBlurOuter1"></feColorMatrix>
        </filter>
    </defs>
    <g id="Page-1" stroke="none" stroke-width="1" fill="none" fill-rule="evenodd">
        <g id="Landing-Page-Copy" transform="translate(-1199.000000, -116.000000)">
            <g id="Group-3" transform="translate(1198.226932, 60.000000)">
                <g id="Group-4" transform="translate(1.000000, 0.000000)">
                    <path d="M0.373447682,210.20124 C-1.41025972,200.101747 3.70498816,192.475161 9.27770767,189.109742 L336.277435,1.53759464 C341.452133,-1.43069297 346.379088,0.946329899 347.281717,6.84435401 L382.922161,239.728507 C383.182105,244.168326 380.398672,249.575712 376.672846,251.825774 L54.0853474,455.05858 C54.0853474,455.05858 39.9675631,448.861067 38.0938114,437.714782 L0.373447682,210.20124 Z" id="Rectangle-Copy-3" fill="#CCD3E5"></path>
                    <path d="M146.698584,383.839637 C146.698584,378.286666 150.620619,371.457401 155.454088,368.58878 L488.243824,186.967013 C492.388369,184.471696 503.362975,191.212275 503.362975,191.212275 L502.645759,428.598322 C502.645759,434.151293 498.723724,440.980558 493.890256,443.849179 L165.411393,643.508564 C165.411393,643.508564 154.553821,637.491211 154.508568,633.321381 L146.698584,383.839637 Z" id="Rectangle-Copy-2" fill="#CCD3E5" transform="translate(325.030780, 414.960705) scale(-1, 1) rotate(-119.000000) translate(-325.030780, -414.960705) "></path>
                    <path d="M4.40079361,208.187934 C4.01034959,201.519187 8.82392102,194.262989 14.3966405,190.89757 L339.083569,4.11113651 C344.252909,1.13730984 349.21266,3.50043598 350.160252,9.38169002 L386.949507,237.715202 C387.209451,242.15502 384.426018,247.562406 380.700192,249.812468 L52.9080667,441.688934 C47.3410652,445.0509 42.5119906,442.376873 42.1211574,435.701476 L4.40079361,208.187934 Z" id="Rectangle" fill="#FDFDFF"></path>
                    <path d="M22.0888656,212.120194 C21.8339057,210.646596 22.6890075,208.860495 23.9774783,208.142697 L332.934741,36.0247487 C334.667607,35.0593811 336.327301,35.8710861 336.640817,37.8317753 L368.056148,234.299452 C368.37009,236.262813 367.22085,238.665196 365.508668,239.654106 L61.5243824,415.227344 C59.3682366,416.472676 57.2756408,415.48998 56.8519161,413.040969 L22.0888656,212.120194 Z" id="Rectangle-2" fill="#FFFFFF"></path>
                    <path d="M124.668976,179.389089 C124.401627,177.922749 125.249138,176.151358 126.561075,175.433053 L183.089172,144.48308 C184.836197,143.526558 186.522223,144.339669 186.855168,146.300111 L197.088762,206.557363 C197.254874,207.535459 196.680668,208.722651 195.814333,209.204528 L140.090589,240.199477 C137.917159,241.408394 135.793735,240.405623 135.346574,237.953052 L124.668976,179.389089 Z" id="Rectangle-2-Copy-2" fill="#EAA137"></path>
                    <path d="M138.789563,253.885159 C138.508475,252.416743 139.341314,250.637478 140.644048,249.914233 L297.889955,162.61517 C299.625148,161.651834 301.319316,162.464392 301.672138,164.419829 L307.822244,198.50547 C307.99859,199.482832 307.443307,200.673795 306.571397,201.171606 L262.527165,226.318353 L150.126494,290.492733 C147.970991,291.723403 145.845846,290.747597 145.377333,288.300057 L138.789563,253.885159 Z" id="Rectangle-2-Copy-3" fill="#26D2FF"></path>
                    <path d="M148.971777,377.631521 C148.971777,372.07855 152.893812,365.249285 157.727281,362.380664 L490.517017,180.758897 C495.352548,177.889052 499.27252,180.075762 499.27252,185.617126 L504.918952,422.390206 C504.918952,427.943177 500.996917,434.772442 496.163449,437.641062 L165.537265,631.971494 C160.701734,634.841338 156.781761,632.654629 156.781761,627.113264 L148.971777,377.631521 Z" id="Rectangle-Copy" fill="#EDF2FF" transform="translate(326.945365, 406.365195) scale(-1, 1) rotate(-119.000000) translate(-326.945365, -406.365195) "></path>
                    <g id="Group-2" transform="translate(108.324086, 275.708024)">
                        <g id="Group" transform="translate(0.000000, 146.971317)">
                            <path d="M1.66686598,17.1074097 C-0.0510046002,16.0982788 -0.060324924,14.4690688 1.65996478,13.4603069 L19.5703904,2.95779979 C21.2844495,1.95269144 24.0603746,1.95230813 25.7844489,2.96508329 L45.3502001,14.4586177 C47.0680707,15.4677486 47.077391,17.0969586 45.3571013,18.1057205 L27.4466757,28.6082276 C25.7326165,29.6133359 22.9566915,29.6137192 21.2326172,28.6009441 L1.66686598,17.1074097 Z" id="Rectangle-4-Copy" fill="#BCC6E0"></path>
                            <path d="M1.66686598,15.094104 C-0.0510046002,14.0849731 -0.060324924,12.455763 1.65996478,11.4470011 L19.5703904,0.944494076 C21.2844495,-0.0606142775 24.0603746,-0.0609975792 25.7844489,0.951777582 L45.3502001,12.445312 C47.0680707,13.4544429 47.077391,15.0836529 45.3571013,16.0924148 L27.4466757,26.5949219 C25.7326165,27.6000302 22.9566915,27.6004135 21.2326172,26.5876384 L1.66686598,15.094104 Z" id="Rectangle-4" fill="#FFFFFF"></path>
                        </g>
                        <g id="Group-Copy" transform="translate(34.232440, 126.838260)">
                            <path d="M1.66686598,17.1074097 C-0.0510046002,16.0982788 -0.060324924,14.4690688 1.65996478,13.4603069 L19.5703904,2.95779979 C21.2844495,1.95269144 24.0603746,1.95230813 25.7844489,2.96508329 L45.3502001,14.4586177 C47.0680707,15.4677486 47.077391,17.0969586 45.3571013,18.1057205 L27.4466757,28.6082276 C25.7326165,29.6133359 22.9566915,29.6137192 21.2326172,28.6009441 L1.66686598,17.1074097 Z" id="Rectangle-4-Copy" fill="#BCC6E0"></path>
                            <path d="M1.66686598,15.094104 C-0.0510046002,14.0849731 -0.060324924,12.455763 1.65996478,11.4470011 L19.5703904,0.944494076 C21.2844495,-0.0606142775 24.0603746,-0.0609975792 25.7844489,0.951777582 L45.3502001,12.445312 C47.0680707,13.4544429 47.077391,15.0836529 45.3571013,16.0924148 L27.4466757,26.5949219 C25.7326165,27.6000302 22.9566915,27.6004135 21.2326172,26.5876384 L1.66686598,15.094104 Z" id="Rectangle-4" fill="#FFFFFF"></path>
                        </g>
                        <g id="Group-Copy-2" transform="translate(70.478554, 106.705203)">
                            <path d="M1.66686598,17.1074097 C-0.0510046002,16.0982788 -0.060324924,14.4690688 1.65996478,13.4603069 L19.5703904,2.95779979 C21.2844495,1.95269144 24.0603746,1.95230813 25.7844489,2.96508329 L45.3502001,14.4586177 C47.0680707,15.4677486 47.077391,17.0969586 45.3571013,18.1057205 L27.4466757,28.6082276 C25.7326165,29.6133359 22.9566915,29.6137192 21.2326172,28.6009441 L1.66686598,17.1074097 Z" id="Rectangle-4-Copy" fill="#BCC6E0"></path>
                            <path d="M1.66686598,15.094104 C-0.0510046002,14.0849731 -0.060324924,12.455763 1.65996478,11.4470011 L19.5703904,0.944494076 C21.2844495,-0.0606142775 24.0603746,-0.0609975792 25.7844489,0.951777582 L45.3502001,12.445312 C47.0680707,13.4544429 47.077391,15.0836529 45.3571013,16.0924148 L27.4466757,26.5949219 C25.7326165,27.6000302 22.9566915,27.6004135 21.2326172,26.5876384 L1.66686598,15.094104 Z" id="Rectangle-4" fill="#FFFFFF"></path>
                        </g>
                        <g id="Group-Copy-3" transform="translate(104.710994, 84.558840)">
                            <path d="M1.66686598,17.1074097 C-0.0510046002,16.0982788 -0.060324924,14.4690688 1.65996478,13.4603069 L19.5703904,2.95779979 C21.2844495,1.95269144 24.0603746,1.95230813 25.7844489,2.96508329 L45.3502001,14.4586177 C47.0680707,15.4677486 47.077391,17.0969586 45.3571013,18.1057205 L27.4466757,28.6082276 C25.7326165,29.6133359 22.9566915,29.6137192 21.2326172,28.6009441 L1.66686598,17.1074097 Z" id="Rectangle-4-Copy" fill="#BCC6E0"></path>
                            <path d="M1.66686598,15.094104 C-0.0510046002,14.0849731 -0.060324924,12.455763 1.65996478,11.4470011 L19.5703904,0.944494076 C21.2844495,-0.0606142775 24.0603746,-0.0609975792 25.7844489,0.951777582 L45.3502001,12.445312 C47.0680707,13.4544429 47.077391,15.0836529 45.3571013,16.0924148 L27.4466757,26.5949219 C25.7326165,27.6000302 22.9566915,27.6004135 21.2326172,26.5876384 L1.66686598,15.094104 Z" id="Rectangle-4" fill="#FFFFFF"></path>
                        </g>
                        <g id="Group-Copy-22" transform="translate(82.560591, 185.224126)">
                            <path d="M1.66686598,17.1074097 C-0.0510046002,16.0982788 -0.060324924,14.4690688 1.65996478,13.4603069 L19.5703904,2.95779979 C21.2844495,1.95269144 24.0603746,1.95230813 25.7844489,2.96508329 L45.3502001,14.4586177 C47.0680707,15.4677486 47.077391,17.0969586 45.3571013,18.1057205 L27.4466757,28.6082276 C25.7326165,29.6133359 22.9566915,29.6137192 21.2326172,28.6009441 L1.66686598,17.1074097 Z" id="Rectangle-4-Copy" fill="#BCC6E0"></path>
                            <path d="M1.66686598,15.094104 C-0.0510046002,14.0849731 -0.060324924,12.455763 1.65996478,11.4470011 L19.5703904,0.944494076 C21.2844495,-0.0606142775 24.0603746,-0.0609975792 25.7844489,0.951777582 L45.3502001,12.445312 C47.0680707,13.4544429 47.077391,15.0836529 45.3571013,16.0924148 L27.4466757,26.5949219 C25.7326165,27.6000302 22.9566915,27.6004135 21.2326172,26.5876384 L1.66686598,15.094104 Z" id="Rectangle-4" fill="#FFFFFF"></path>
                        </g>
                        <g id="Group-Copy-21" transform="translate(116.793032, 165.091068)">
                            <path d="M1.66686598,17.1074097 C-0.0510046002,16.0982788 -0.060324924,14.4690688 1.65996478,13.4603069 L19.5703904,2.95779979 C21.2844495,1.95269144 24.0603746,1.95230813 25.7844489,2.96508329 L45.3502001,14.4586177 C47.0680707,15.4677486 47.077391,17.0969586 45.3571013,18.1057205 L27.4466757,28.6082276 C25.7326165,29.6133359 22.9566915,29.6137192 21.2326172,28.6009441 L1.66686598,17.1074097 Z" id="Rectangle-4-Copy" fill="#BCC6E0"></path>
                            <path d="M1.66686598,15.094104 C-0.0510046002,14.0849731 -0.060324924,12.455763 1.65996478,11.4470011 L19.5703904,0.944494076 C21.2844495,-0.0606142775 24.0603746,-0.0609975792 25.7844489,0.951777582 L45.3502001,12.445312 C47.0680707,13.4544429 47.077391,15.0836529 45.3571013,16.0924148 L27.4466757,26.5949219 C25.7326165,27.6000302 22.9566915,27.6004135 21.2326172,26.5876384 L1.66686598,15.094104 Z" id="Rectangle-4" fill="#FFFFFF"></path>
                        </g>
                        <g id="Group-Copy-24" transform="translate(104.710994, 217.437017)">
                            <path d="M1.66686598,17.1074097 C-0.0510046002,16.0982788 -0.060324924,14.4690688 1.65996478,13.4603069 L19.5703904,2.95779979 C21.2844495,1.95269144 24.0603746,1.95230813 25.7844489,2.96508329 L45.3502001,14.4586177 C47.0680707,15.4677486 47.077391,17.0969586 45.3571013,18.1057205 L27.4466757,28.6082276 C25.7326165,29.6133359 22.9566915,29.6137192 21.2326172,28.6009441 L1.66686598,17.1074097 Z" id="Rectangle-4-Copy" fill="#BCC6E0"></path>
                            <path d="M1.66686598,15.094104 C-0.0510046002,14.0849731 -0.060324924,12.455763 1.65996478,11.4470011 L19.5703904,0.944494076 C21.2844495,-0.0606142775 24.0603746,-0.0609975792 25.7844489,0.951777582 L45.3502001,12.445312 C47.0680707,13.4544429 47.077391,15.0836529 45.3571013,16.0924148 L27.4466757,26.5949219 C25.7326165,27.6000302 22.9566915,27.6004135 21.2326172,26.5876384 L1.66686598,15.094104 Z" id="Rectangle-4" fill="#FFFFFF"></path>
                        </g>
                        <g id="Group-Copy-11" transform="translate(56.382843, 157.037846)">
                            <path d="M1.66686598,17.1074097 C-0.0510046002,16.0982788 -0.060324924,14.4690688 1.65996478,13.4603069 L19.5703904,2.95779979 C21.2844495,1.95269144 24.0603746,1.95230813 25.7844489,2.96508329 L45.3502001,14.4586177 C47.0680707,15.4677486 47.077391,17.0969586 45.3571013,18.1057205 L27.4466757,28.6082276 C25.7326165,29.6133359 22.9566915,29.6137192 21.2326172,28.6009441 L1.66686598,17.1074097 Z" id="Rectangle-4-Copy" fill="#BCC6E0"></path>
                            <path d="M1.66686598,15.094104 C-0.0510046002,14.0849731 -0.060324924,12.455763 1.65996478,11.4470011 L19.5703904,0.944494076 C21.2844495,-0.0606142775 24.0603746,-0.0609975792 25.7844489,0.951777582 L45.3502001,12.445312 C47.0680707,13.4544429 47.077391,15.0836529 45.3571013,16.0924148 L27.4466757,26.5949219 C25.7326165,27.6000302 22.9566915,27.6004135 21.2326172,26.5876384 L1.66686598,15.094104 Z" id="Rectangle-4" fill="#FFFFFF"></path>
                        </g>
                        <g id="Group-Copy-10" transform="translate(90.615283, 136.904788)">
                            <path d="M1.66686598,17.1074097 C-0.0510046002,16.0982788 -0.060324924,14.4690688 1.65996478,13.4603069 L19.5703904,2.95779979 C21.2844495,1.95269144 24.0603746,1.95230813 25.7844489,2.96508329 L45.3502001,14.4586177 C47.0680707,15.4677486 47.077391,17.0969586 45.3571013,18.1057205 L27.4466757,28.6082276 C25.7326165,29.6133359 22.9566915,29.6137192 21.2326172,28.6009441 L1.66686598,17.1074097 Z" id="Rectangle-4-Copy" fill="#BCC6E0"></path>
                            <path d="M1.66686598,15.094104 C-0.0510046002,14.0849731 -0.060324924,12.455763 1.65996478,11.4470011 L19.5703904,0.944494076 C21.2844495,-0.0606142775 24.0603746,-0.0609975792 25.7844489,0.951777582 L45.3502001,12.445312 C47.0680707,13.4544429 47.077391,15.0836529 45.3571013,16.0924148 L27.4466757,26.5949219 C25.7326165,27.6000302 22.9566915,27.6004135 21.2326172,26.5876384 L1.66686598,15.094104 Z" id="Rectangle-4" fill="#FFFFFF"></path>
                        </g>
                        <g id="Group-Copy-9" transform="translate(126.861397, 116.771731)">
                            <path d="M1.66686598,17.1074097 C-0.0510046002,16.0982788 -0.060324924,14.4690688 1.65996478,13.4603069 L19.5703904,2.95779979 C21.2844495,1.95269144 24.0603746,1.95230813 25.7844489,2.96508329 L45.3502001,14.4586177 C47.0680707,15.4677486 47.077391,17.0969586 45.3571013,18.1057205 L27.4466757,28.6082276 C25.7326165,29.6133359 22.9566915,29.6137192 21.2326172,28.6009441 L1.66686598,17.1074097 Z" id="Rectangle-4-Copy" fill="#BCC6E0"></path>
                            <path d="M1.66686598,15.094104 C-0.0510046002,14.0849731 -0.060324924,12.455763 1.65996478,11.4470011 L19.5703904,0.944494076 C21.2844495,-0.0606142775 24.0603746,-0.0609975792 25.7844489,0.951777582 L45.3502001,12.445312 C47.0680707,13.4544429 47.077391,15.0836529 45.3571013,16.0924148 L27.4466757,26.5949219 C25.7326165,27.6000302 22.9566915,27.6004135 21.2326172,26.5876384 L1.66686598,15.094104 Z" id="Rectangle-4" fill="#FFFFFF"></path>
                        </g>
                    </g>
                    <polygon id="Path" fill="#EFF3F6" points="15.778631 206.698814 52.4205283 425.231612 377.785007 237 342.785007 18"></polygon>
                    <polygon id="Path-5" fill="#FFFFFF" points="141.061398 373.819988 69.1678668 415.328113 42.1731402 252.487286 33 197.15197 100.628159 158"></polygon>
                    <polygon id="Line" stroke="#E8E8E8" stroke-linecap="square" points="140.866558 374.090021 101 158 108.004591 195.967216"></polygon>
                    <polygon id="Path-2" fill="#3CC127" points="104.126371 175.303568 181.439914 130.968778 300.418829 62.3524864 297.475664 44 101 157.259024"></polygon>
                    <path d="M103.405041,176 L36,215.087057" id="Line" stroke="#F1F1F1" stroke-linecap="square"></path>
                    <path d="M17.3811848,205.75074 L33.0119425,197 L69.0513991,415.385563 L52.377873,425.182953 L16.0373364,208.553361 L16.0373364,208.553361 C15.8487433,207.429138 16.3865207,206.307594 17.3811848,205.75074 Z" id="Rectangle-2-Copy" fill="#1D2531"></path>
                    <polygon id="Path-6" fill="#EEEEEE" points="41.0702208 199.196747 42.1793701 204.414504 97.671356 172.22062 96.8526595 167"></polygon>
                    <path d="M40,236.762841 L107.933479,197.282745" id="Path-7" stroke="#F1F1F1"></path>
                    <path d="M48.122721,227 C51.5042064,227 54,223.642136 54,219.5 C54,215.357864 51.5042064,212 48.122721,212 C44.7412356,212 42,215.357864 42,219.5 C42,223.642136 44.7412356,227 48.122721,227 Z" id="Oval-2" fill="#FF9595"></path>
                    <path d="M116.551134,201.25 C117.960086,201.25 119,199.85089 119,198.125 C119,196.39911 117.960086,195 116.551134,195 C115.142181,195 114,196.39911 114,198.125 C114,199.85089 115.142181,201.25 116.551134,201.25 Z" id="Oval-2" fill="#FF9595"></path>
                    <ellipse id="Oval-3" fill="#2DA1F8" cx="100" cy="190.5" rx="3" ry="3.5"></ellipse>
                    <polygon id="Path-8" fill="#D9D9D9" points="58.2184135 209.96224 76.8278006 199.233748 77.2252183 200.809535 58.5463778 211.526813"></polygon>
                    <polygon id="Path-8" fill="#E6E6E6" points="59.1473817 215.472937 91.7548889 196.819648 91.9782863 198.378736 59.449804 217.018121"></polygon>
                    <path d="M43,257.038394 L112.058856,217" id="Path-7" stroke="#F1F1F1"></path>
                    <path d="M51.622721,248 C55.0042064,248 57.5,244.754064 57.5,240.75 C57.5,236.745936 55.0042064,233.5 51.622721,233.5 C48.2412356,233.5 45.5,236.745936 45.5,240.75 C45.5,244.754064 48.2412356,248 51.622721,248 Z" id="Oval-2" fill="#5ED1D2"></path>
                    <ellipse id="Oval-3" fill="#3CC127" cx="104" cy="210.5" rx="3" ry="3.5"></ellipse>
                    <polygon id="Path-8" fill="#D9D9D9" points="61.9159998 231.673204 81.441586 220.667059 81.441586 222.002381 62.2816902 233.178973"></polygon>
                    <polygon id="Path-8" fill="#E6E6E6" points="62.924373 237.581263 91.8403354 221.643922 92.0561414 223.060633 63.1531957 238.794627"></polygon>
                    <g id="Card-3" transform="translate(46.000000, 228.000000)">
                        <path d="M9.12272099,41.5 C12.5042064,41.5 15,38.1421356 15,34 C15,29.8578644 12.5042064,26.5 9.12272099,26.5 C5.74123556,26.5 3,29.8578644 3,34 C3,38.1421356 5.74123556,41.5 9.12272099,41.5 Z" id="Oval-2" fill="#84BDFF"></path>
                        <path d="M0.675528512,50.5023316 L69.3099221,10.7175975" id="Path-7" stroke="#F1F1F1"></path>
                        <ellipse id="Oval-3" fill="#3CC127" cx="62" cy="3.5" rx="3" ry="3.5"></ellipse>
                        <polygon id="Path-8" fill="#D9D9D9" points="19.5837208 24.9662557 39.3341303 14.1785048 39.5343836 15.6265033 19.8428603 26.357303"></polygon>
                        <polygon id="Path-8" fill="#E6E6E6" points="20.5226655 30.3814956 54.7471817 11.2815143 55.1146538 12.789932 21.0640997 31.7397803"></polygon>
                    </g>
                    <polygon id="Path" fill="#BFD0E2" points="21.2000122 214.763465 30.9757773 209.496033 32.8369891 220.714291 23.1615291 225.956346"></polygon>
                    <polygon id="Path" fill="#BFD0E2" points="24.2000122 231.267431 33.8313357 226.094782 35.7787729 236.955364 26.3452982 242.283464"></polygon>
                    <polygon id="Path" fill="#BFD0E2" points="27.0140937 247.778914 36.675759 242.460313 38.3758956 253.51667 29.014816 258.729211"></polygon>
                    <polygon id="Path-11" stroke="#E8E8E8" fill="#FFFFFF" points="138.952275 360.807583 332.937557 249.992453 334.778892 262.031223 140.874392 374.124596"></polygon>
                </g>
                <g id="Card-2" transform="translate(44.000000, 207.000000)"></g>
                <g id="Path-10">
                    <use fill="black" fill-opacity="1" filter="url(#filter-2)" xlink:href="#path-1"></use>
                    <use fill="#FFFFFF" fill-rule="evenodd" xlink:href="#path-1"></use>
                </g>
                <g id="Path-10">
                    <use fill="black" fill-opacity="1" filter="url(#filter-4)" xlink:href="#path-3"></use>
                    <use fill="#FFFFFF" fill-rule="evenodd" xlink:href="#path-3"></use>
                </g>
            </g>
        </g>
    </g>
</svg>