<svg xmlns="http://www.w3.org/2000/svg" xmlns:xlink="http://www.w3.org/1999/xlink" width="380" height="356" viewBox="0 0 380 356">
    <defs>
        <path id="b" d="M170 112.449c6.827 0 12.37 5.543 12.37 12.37 0 6.827-5.543 12.369-12.37 12.369-6.827 0-12.37-5.542-12.37-12.369s5.543-12.37 12.37-12.37z"/>
        <filter id="a" width="156.6%" height="156.6%" x="-28.3%" y="-20.2%" filterUnits="objectBoundingBox">
            <feOffset dy="2" in="SourceAlpha" result="shadowOffsetOuter1"/>
            <feGaussianBlur in="shadowOffsetOuter1" result="shadowBlurOuter1" stdDeviation="2"/>
            <feColorMatrix in="shadowBlurOuter1" values="0 0 0 0 0 0 0 0 0 0 0 0 0 0 0 0 0 0 0.25666521 0"/>
        </filter>
    </defs>
    <g fill="none" fill-rule="evenodd">
        <g fill-rule="nonzero">
            <path fill="#EF5662" d="M22.455 13.513l17.738 41.44 24.081-37.49 1.262.811-23.35 36.354 39.643-20.136.68 1.337-39.935 20.284 52.765 6.738-.19 1.488-51.093-6.525 120.86 63.993-53.477-53.305 1.06-1.063 56.05 55.87 9.37-44.697 1.469.308-9.407 44.873 93.045-23.838-69.521-32.088.628-1.362 70.38 32.484.242-36.244 1.5.01-.234 35.133L287.35 69.45l1.2.9-21.34 28.45 51.798-15.231.423 1.439-52.553 15.455 51.674 39.902-.917 1.187-52.313-40.396-84.402 85.12 131.113-34.693.384 1.45-129.72 34.326 141.62 13.465-.141 1.494-141.388-13.444 159.706 73.257-.625 1.363-163.042-74.786-18.525 42.308L365.43 290.99l-.42 1.44-202.465-59.196 135.011 112.167-.958 1.154-134.516-111.754 49.443 84.969-1.296.754-49.301-84.725 17.457 85.284-1.47.301-17.678-86.362-14.175 61.377-1.462-.338 14.606-63.24-49.072 22.673-.63-1.361 49.923-23.066-.03-.152.188-.04 9.318-102.281-60.079 116.915-1.334-.686 59.663-116.106-101.654 101.41-1.06-1.062L167.4 125.355l-42.493-5.838-.18.245-.026-.02-69.97 86.775-1.168-.941 68.685-85.182-95.183 36.073-.531-1.403 94.538-35.828-92.368-6.037.098-1.496 93.254 6.094L40.594 57.87l-8.481 49.495-1.479-.253 8.149-47.551L18.67 87.547l-1.218-.876L38.28 57.695 6.923 64.39l-.313-1.467 31.863-6.803L1.44 22.552l1.007-1.111 35.57 32.244-16.942-39.582 1.38-.59zM169.183 131.08l-8.733 95.86 17.013-38.858-.011-.006.093-.206-.16-.158.226-.23-.082-.308.076-.021-8.422-56.073zm93.629-29.524l-92.97 23.82 9.124 60.74 83.846-84.56zM48.696 61.969l75.737 55.715.02-.025.249.2.3-.113.095.25.267.018-.003.05 39.542 5.434-116.207-61.53z"/>
            <path fill="#656D78" d="M361.532 315.534l-.723.89c-1.164 1.451-3.466 4.417-4.901 6.883a5.202 5.202 0 0 1-4.355 2.477h-.626c-2.274 6.385 1.39 13.937-1.855 20.426-1.617 3.233-4.678 5.49-8.847 5.709l-.513.02-.512.011c-3.74.02-7.378-.915-10.857-2.526l-.989-.466c-.545-.253-.697-.306-1.103-.454-1.714-.624-3.447-.808-5.263-.835l-.497-.003c-1.498 0-3.056.087-4.709.106l-.554.004c-1.69.002-3.481-.082-5.408-.413l-.582-.107c-4.393-.839-8.93-.637-13.31.394l-2.205.517c-1.32.303-2.197.475-3.283.597-.297.034-.592.054-.884.064l-.437.005c-4.35-.03-8.19-2.544-12.171-4.09-7.827-3.04-16.914-2.08-24.365-3.237-5.782-.897-8.765-5.602-10.103-14.585l-.223-1.572c-.874-6.418-1.588-14.005-8.746-14.902-5.239-.656-9.805 2.761-14.245 5.392l-3.258 1.915c-7.023 4.118-14.124 8.051-22.313 9.08-8.836 1.11-19.116-2.54-27.582-8.171-5.058-3.364-9.595-7.473-14.132-11.488-1.343-1.23-1.605-3.3-2.821-4.779-5.455-6.637-16.294-5.163-23.054-9.663a5.064 5.064 0 0 1-1.219-1.144c-4.816-6.31-5.562-15.801-9.783-24.009l-.379-.722c-.164-.31-.335-.625-.503-.932l-1.313-2.352a649.454 649.454 0 0 1-2.475-4.83c-3.229-6.362-6.918-12.47-11.103-18.243l-.6.074-1.341.208c-4.628.684-9.427.89-13.675-1.57l-.364-.219c-1.48 2.519-4.251 4.285-6.981 4.367l-.228.003a5.941 5.941 0 0 1-3.067-.845c-3.791-2.28-5.122-7.994-9.28-11.224l-.398-.295c-3.378-2.388-3.898-7.066-4.116-10.972-3.776-.515-6.762-3.833-7.383-7.997-.71-4.754-.494-9.227 2.106-13.659 1.323-2.3-.26-2.979-1.786-4.913-1.777-2.251-2.212-5.924-3.07-7.283-.856-1.355-2.929-2.523-2.929-2.523-4.767-4.124-10.807-6.587-15.886-9.987-2.902-1.943-4.76-5.356-4.865-9.009-.043-1.513.284-2.561-.043-4.926-.324-2.338-2.821-4.475-5.345-6.497l-.62-.513a15.354 15.354 0 0 1-1.561-1.497 20.604 20.604 0 0 1-1.927-2.42c-2.25-3.285-2.425-7.634.274-11.401.696-.934-.583-1.607-1.075-2.99-1.016-2.851-.278-6.388 2.047-8.16l.867-.622c3.467-2.467 6.874-4.708 9.591-8.593l-.238-.615c-1.25-3.304-2.09-6.948-.336-10.09-3.753-1.235-5.798-4.96-7.443-8.348l-1.222-2.547c-2.064-4.33-4.064-8.638-7.524-12.132C5.125 77.33 5.03 67.432 5.067 58.083v-9.312C3.421 43.833 1.573 39.119.171 34.05a5.707 5.707 0 0 1-.173-1.241c-.005-4.31.038-8.619.118-12.928.082-2.146 1.627-3.894 3.674-4.752C8.836 12.948 8.385 4.255 14.98 4.005L15.322 4c1.006.028 2.454.229 3.493.701 5.7 2.592 7.234 10.005 12.777 16.248 2.757 3.105 6.403 5.711 10.646 6.078l.542-.01c.991-.033 3.15-.165 4.872-.694 9.328-2.868 14.98-13.402 23.037-15.536a17.469 17.469 0 0 1 3.94-.587l.362-.006.362.002c2.05.038 4.064.503 5.821 1.55l.459.28c5.834 3.652 9.487 9.37 4.203 13.973l.074.435c.615 3.443 1.905 7.752-1.815 10.796-.598.489-1.13.551-2.103 1.154 1.304 1.029 3.527 2.046 3.682 2.097 1.716.471 4.032.335 5.782 1.642 4.829 3.608 3.254 12.331 5.692 18.127.691 1.483 2.27 3.253 3.501 3.223l1.849-.06c.308-.009.616-.016.925-.021 3.244-.034 6.531.435 9.36 1.965l.099.06c.997.657 6.316 5.103 9.678 8.935 2.548 2.878 5.375 5.428 8.696 7.5l.628.382c.56.334.63.322.837.395l.055.021c1.641.643 3.379.882 5.162.877l.446-.007c2.238-.056 4.54-.475 6.807-.946l2.696-.571c9.682-2.018 19.33-4.556 29.232-4.813l1.062-.019.05.02a.58.58 0 0 0 .195.037l.055-.005c.128-.02.25-.118.256-.41.096-2.61 1.458-5.087 3.488-6.811l.398-.33c.631-.505 3.026-2.288 5.632-2.47l.261-.012c2.152-.059 4.182-.711 6.149-1.756l.376-.538c-.341-5.39 2.513-10.45 10.8-12.897l.578-.167c.46-.142.692-.27 1.74-.478l.636-.118c.26-.045 3.361-.365 6.234-.481l1.103-.043c.6-.027.724-.045 1.123-.087a20.057 20.057 0 0 0 1.543-.228c3.246-.604 6.321-2.559 9.445-4.151 2.328-1.187 3.252-1.258 4.63-1.534a20.834 20.834 0 0 1 3.707-.407l.368-.004c5.63 0 10.927 2.404 14.182 7.374l.603.95c1.383 2.142 3.009 4.179 5.504 5.417 8.362 4.15 19.199-.608 26.147 5.257 7.801 6.586 14.377 14.123 24.403 18.995.13.062.264.088.4.085l.139-.011c.65-.095 1.377-.743 2.205-1.126 1.628-.745 3.472-1.218 5.288-1.27l.286-.006c2.386-.01 4.702.718 6.397 2.52 3.247 3.453 1.852 8.982 2.059 13.994.184 4.45 1.397 8.764 1.53 13.157a5.19 5.19 0 0 1-.453 2.251l-2.942 6.468.082.491c.698 4.716-1.008 9.564-4.411 12.912 4.612 2.794 3.692 10.447-3.394 13.025-.347.126-.587.177-.747.183l-.046.263c-.12.768-.381 3.04.275 5.254.2.678.803.812 1.608.822h.19l1.036-.023.221-.002c.968-.002 2.032.098 2.997.72 4.667 3.009 1.361 11.835-3.23 15.27-.328.234-.135.672-.127 1.062.086 3.312 2.271 5.941 4.29 10.369 2.414 5.291 2.784 11.377 1.204 17.006l-.868 2.469c.74.047 1.487.065 2.238.067h.45l.452-.004c1.054-.01 2.112-.04 3.163-.046h.45c3.15.002 6.232.258 8.974 1.864 4.554 2.667 6.336 8.549 4.279 14.196-2.861 7.85-9.014 17.895-14.701 24.968l.21.417c.376.723 1.218 2.265 2.267 3.665 5.389 7.196 11.942 13.634 18.429 20.068 1.842 1.344 2.888 1.418 4.06 1.659l.161.034c5.351 1.168 11.567-.453 14.552 4.436 1.889 3.094 1.632 6.987 1.103 10.576l-.229 1.464s-1.69 6.783.344 9.024c.873.962 2.092 1.205 3.322 1.203l.247-.003c1.23-.033 2.45-.279 3.325-.265 5.659.162 5.881 9.706 4.301 16.827a30.415 30.415 0 0 1-1.221 4.119c-1.108 2.937-3.49 4.908-6.975 4.203l-.264-.058c-3.027-.698-6.115-1.278-9.181-1.057zM15.179 9.998l-.05.053-.11.127c-.244.301-.542.788-1.041 1.715l-.773 1.454c-2.14 3.966-3.685 5.842-7.102 7.318-.073 4.125-.105 8.091-.105 11.952l.325 1.127c.479 1.628 1.027 3.302 1.814 5.576l1.978 5.655.644 1.898a6 6 0 0 1 .308 1.898v10.967c.037 10.771.94 15.808 3.816 19.03l.294.316c3.22 3.252 5.037 6.22 7.923 12.2l2.154 4.484.35.697.308.585c1.159 2.146 2.09 3.2 2.954 3.543l.329.117c3.357 1.245 4.882 5.153 3.254 8.344l-.155.294c-.417.884-.202 2.551.96 5.477a6 6 0 0 1-.661 5.652c-2.435 3.481-4.833 5.624-9.316 8.827l-2.43 1.728c-.065.084-.193.634-.083 1.156l.388.57c.03.046.059.088.082.125.514.81.887 1.614 1.09 2.67.367 1.905-.086 3.812-1.216 5.366-1.106 1.558-1.111 3.143-.187 4.492.443.647.896 1.218 1.36 1.715l.414.433c.2.202.374.36.652.593l.484.4c4.843 3.879 6.963 6.213 7.537 10.356.215 1.554.244 2.634.167 4.09l-.062 1.038a8.114 8.114 0 0 0-.008.25v.199c.05 1.72.925 3.337 2.206 4.195l.452.298c.983.641 2.024 1.261 3.588 2.147l2.95 1.653.961.545c3.261 1.864 5.45 3.275 7.537 4.967l.57.47c.587.366 1.263.838 1.965 1.42.999.827 1.85 1.72 2.526 2.792.507.803.839 1.59 1.184 2.619l.672 2.12c.08.25.152.47.205.622l.11.3c.219.577.408.946.536 1.108l.04.051c.072.088 1.4 1.523 1.882 2.184 2.049 2.808 2.214 6.157.33 9.432-1.599 2.726-1.966 5.591-1.347 9.738.25 1.673 1.286 2.804 2.26 2.937a6 6 0 0 1 5.18 5.61l.045.719c.246 3.472.781 5.15 1.544 5.69 2.361 1.669 3.968 3.572 5.858 6.492l.272.425 1.225 1.94.296.452c.8 1.202 1.28 1.74 1.656 1.967.185.111 1.24-.273 1.903-1.255l.23-.369a6 6 0 0 1 8.006-1.981l.414.247c2.234 1.297 5.03 1.512 9.696.84l1.511-.23.713-.09a6 6 0 0 1 5.548 2.44c4.038 5.57 7.687 11.51 10.953 17.798l.648 1.262.994 1.953 1.413 2.746.768 1.363.35.633.341.624.477.89.307.587c1.253 2.437 2.27 4.993 3.317 8.146l.238.726c.12.37.244.756.374 1.17l1.107 3.55.288.904c1.414 4.375 2.4 6.618 3.798 8.492 1.36.874 2.977 1.44 6.435 2.276l2.673.628c7.805 1.857 11.535 3.49 15.125 7.859.785.954 1.272 1.806 1.84 3.035l.457 1.009.142.295 2.098 1.858 1.73 1.517c3.968 3.455 6.471 5.436 9.374 7.366l.48.316c7.86 5.105 16.437 7.725 23.031 6.897l.638-.085c5.692-.818 10.312-2.916 19.759-8.436l2.832-1.663 3.008-1.83c6.108-3.672 9.824-5.03 15.073-4.372 4.809.602 8.414 3.194 10.647 7.217 1.444 2.601 2.202 5.393 2.81 9.329l.091.61.466 3.39.197 1.356c1.012 6.577 2.561 8.797 5.035 9.181l.489.073c1.383.196 2.8.318 5.182.454l3.867.207c1.304.072 2.181.128 3.114.203l1.292.112c4.493.423 8.177 1.166 11.673 2.524l.59.235c.592.241 1.2.506 1.93.836l1.82.831.954.423c2.703 1.17 4.007 1.478 5.356 1.327.171-.02.333-.04.491-.063l.65-.105c.226-.04.469-.09.832-.17l3.446-.799c5.095-1.116 10.246-1.243 15.201-.298 1.85.362 3.357.449 6.114.389l2.136-.059c4.353-.108 6.52.066 9.36 1.06l.627.228.431.168.294.124c.154.067.323.143.524.237l1.049.493c3.103 1.428 6.093 2.072 8.985 1.92 1.82-.096 3.056-.922 3.796-2.4.705-1.411.895-3.114.721-6.336l-.022-.379-.145-2.241-.054-.967c-.225-4.364-.026-6.758 1.069-9.833a6 6 0 0 1 5.407-3.982l.34-.004c.335-.554.705-1.129 1.106-1.725a62.94 62.94 0 0 1 1.09-1.567 86.68 86.68 0 0 1 1.89-2.529l.813-1.035.584-.727.42-.511a6 6 0 0 1 4.176-2.141c3.1-.224 5.982.105 9.86.948l1.182.265.068-.135c.038-.08.081-.178.126-.297.397-1.055.724-2.16.978-3.304.697-3.137.894-6.46.508-8.709a8.898 8.898 0 0 0-.148-.703l-.604.062c-.563.054-1.025.081-1.553.09-3.081.045-5.814-.78-7.983-3.17-2.044-2.252-2.622-5.002-2.555-8.31a28.25 28.25 0 0 1 .408-4.104c.09-.529.18-.997.263-1.388l.096-.432.12-.772c.574-3.864.493-5.782-.228-6.963-.32-.523-.959-.757-3.972-.967l-2.05-.13-.919-.07a29.405 29.405 0 0 1-3.326-.442l-.444-.092-.861-.172c-2.056-.43-3.611-1.073-5.618-2.538a6 6 0 0 1-.468-.379l-.219-.206-3.425-3.405-1.902-1.91c-5.927-5.986-9.455-9.884-12.942-14.443l-.737-.973a26.244 26.244 0 0 1-.584-.812 33.845 33.845 0 0 1-1.78-2.89l-.227-.419c-.107-.198-.2-.378-.283-.538l-.206-.416a6 6 0 0 1 .729-6.364c5.629-7 11.256-16.449 13.74-23.262 1.105-3.035.26-5.831-1.674-6.964-1.443-.846-3.083-1.077-7.246-1.03l-1.718.027-1.07.01c-.986.006-1.753-.009-2.549-.05l-.495-.028c-3.968-.254-6.596-4.227-5.277-7.978l.8-2.274c1.163-4.296.832-8.848-.935-12.722l-.187-.403-.176-.365c.024.086-2.773-5.225-3.554-7.268l-.09-.248a14.875 14.875 0 0 1-.79-3.792l-.021-.366-.023-.168-.027-.27c-.037-.44-.04-.884.016-1.385a6.402 6.402 0 0 1 2.572-4.473c1.164-.881 2.391-2.775 2.872-4.547.06-.22.104-.423.135-.607l-.53.008-.317-.004a9.116 9.116 0 0 1-1.936-.231c-2.428-.57-4.447-2.266-5.223-4.883-.533-1.8-.72-3.635-.668-5.464.033-1.14.15-2.11.293-2.86l.03-.149.064-.266a6.001 6.001 0 0 1 4.701-4.381c1.274-.511 1.917-1.252 2.061-1.942a.911.911 0 0 0 .022-.269c-3.23-2.001-3.798-6.456-1.215-9.203l.388-.395c1.858-1.957 2.79-4.658 2.511-7.183l-.037-.29-.064-.386a6 6 0 0 1 .446-3.53l2.852-6.268c-.04-1.005-.152-2.093-.349-3.487l-.062-.427-.41-2.652c-.44-2.861-.619-4.37-.699-6.31l-.013-.354c-.02-.709-.019-1.426.002-2.264l.028-.883.047-1.239.03-.959c.074-2.992-.11-3.985-.529-4.431-.733-.78-2.696-.923-4.839-.016l-.239.105-.683.42-.122.071a9.784 9.784 0 0 1-1.254.629c-1.787.733-3.766.865-5.83-.115-6.443-3.132-10.66-6.318-18.383-13.308l-3.898-3.546-1.192-1.068a115.66 115.66 0 0 0-1.297-1.135l-.994-.844c-1.566-1.263-3.557-1.666-8.665-1.76l-1.647-.02-2.007-.032c-5.239-.133-8.838-.739-12.51-2.561-3.58-1.776-5.866-4.291-8.321-8.237-2.385-3.833-6.812-5.55-11.861-4.649l-1.009.194-.555.114c-.44.103-.813.24-1.445.547l-.413.206-.37.19-2.817 1.496c-3.338 1.747-5.259 2.53-7.885 3.018-.453.084-.9.156-1.346.216l-.904.105-.541.05-.53.031-1.273.05c-.927.038-1.956.101-3.007.183l-.961.079-.912.084-.699.072-.366.065-.334.07a3.039 3.039 0 0 0-.164.045l-.547.18-.222.07-.564.162c-4.926 1.445-6.618 3.576-6.506 6.558l.021.491a6 6 0 0 1-1.081 3.526l-.376.538a6 6 0 0 1-2.103 1.862c-2.855 1.516-5.759 2.371-8.802 2.455-.224.006-.746.185-1.348.527-.284.161-.551.338-.783.509l-.126.094-.398.331c-.797.711-1.262 1.614-1.288 2.298-.07 3.162-2.334 5.925-5.696 6.251a6.36 6.36 0 0 1-1.44-.019l-.716.017c-5.455.153-10.432.953-19.904 2.985l-6.244 1.353-4.46.942c-.486.101-.91.186-1.311.263l-1.176.215c-5.1.884-9.142.843-13.082-.672-.638-.21-1.18-.468-1.887-.89-3.76-2.235-7.1-5.042-10.247-8.5l-.805-.901c-1.354-1.503-3.181-3.272-5.137-5.006l-.928-.811c-.3-.26-.591-.506-.865-.735l-.523-.43-.285-.23-.347-.272c-1.468-.726-3.382-1.097-5.724-1.116l-.695.005-2.468.075c-4.174.102-7.398-3.067-9.085-6.686l-.092-.208-.116-.28c-.869-2.142-1.292-4.123-1.752-7.469l-.319-2.381-.14-.952c-.445-2.882-.842-4.036-1.34-4.493l-.138-.039a4.952 4.952 0 0 0-.19-.043l-.243-.047-1.51-.233-.559-.094c-.434-.08-.803-.163-1.225-.279a6 6 0 0 1-.28-.084c-1.202-.394-3.96-1.848-5.532-3.09-3.265-2.578-2.98-7.617.557-9.809.316-.196.62-.368.93-.528l.309-.157.416-.197c.128-.164.165-.362.153-.8l-.016-.33-.024-.31a16.896 16.896 0 0 0-.202-1.38l-.404-2.155-.08-.466a6 6 0 0 1 1.79-5.312l.298-.269.17-.16c.07-.07.121-.126.157-.169l.054-.068-.01-.017-.132-.287c-.54-1.08-2.036-2.526-4.138-3.78-1.34-.798-3.484-.946-5.877-.312-1.598.423-3.381 1.573-6.061 3.905l-.707.624-.426.382-2.299 2.082-.927.825c-4.693 4.133-7.955 6.29-12.39 7.653-1.383.425-2.878.681-4.47.83-.986.093-1.869.132-2.597.139l-.353-.005-.274-.017c-5.6-.485-10.547-3.491-14.616-8.072-1.205-1.358-2.294-2.802-3.364-4.416a66.002 66.002 0 0 1-1.667-2.664L20.5 15.186l-.636-1.056-.353-.56c-1.315-2.045-2.211-2.967-3.178-3.406l-.095-.028a6.374 6.374 0 0 0-1.06-.138zm295.978 158.626l.006.125.009.057-.015-.182z"/>
        </g>
        <path fill="#ED5565" d="M124.567 113.147a5.569 5.569 0 0 1 5.566 5.567 5.569 5.569 0 0 1-5.566 5.566 5.569 5.569 0 0 1-5.567-5.566 5.569 5.569 0 0 1 5.567-5.567z"/>
        <path fill="#EF5661" d="M169 107.819c9.382 0 17 7.618 17 17 0 9.383-7.618 17-17 17s-17-7.617-17-17c0-9.382 7.618-17 17-17z" opacity=".2"/>
        <g transform="translate(-1)">
            <use fill="#000" filter="url(#a)" xlink:href="#b"/>
            <use fill="#ED5565" xlink:href="#b"/>
        </g>
        <path fill="#ED5565" d="M159.281 226.975a4.507 4.507 0 0 1 4.505 4.504 4.507 4.507 0 0 1-4.505 4.504 4.506 4.506 0 0 1-4.504-4.504 4.506 4.506 0 0 1 4.504-4.504zM265.256 93.387a6.774 6.774 0 0 1 6.771 6.771 6.774 6.774 0 0 1-6.771 6.771 6.774 6.774 0 0 1-6.771-6.771 6.774 6.774 0 0 1 6.771-6.771zM40.061 49.777a6.774 6.774 0 0 1 6.77 6.771 6.774 6.774 0 0 1-6.77 6.771 6.774 6.774 0 0 1-6.77-6.771 6.774 6.774 0 0 1 6.77-6.771zM178.446 181.659a6.051 6.051 0 0 1 6.049 6.049 6.052 6.052 0 0 1-6.049 6.049 6.053 6.053 0 0 1-6.049-6.049 6.052 6.052 0 0 1 6.049-6.049z"/>
    </g>
</svg>
