<?xml version="1.0" encoding="iso-8859-1"?>
<!-- Generator: Adobe Illustrator 16.0.0, SVG Export Plug-In . SVG Version: 6.00 Build 0)  -->
<!DOCTYPE svg PUBLIC "-//W3C//DTD SVG 1.1//EN" "http://www.w3.org/Graphics/SVG/1.1/DTD/svg11.dtd">
<svg version="1.1" id="Layer_1" xmlns="http://www.w3.org/2000/svg" xmlns:xlink="http://www.w3.org/1999/xlink" x="0px" y="0px"
	 width="1294px" height="240px" viewBox="0 0 1294 240" style="enable-background:new 0 0 1294 240;" xml:space="preserve">
<path style="fill:none;stroke:#FFFFFF;stroke-width:3.0554;stroke-miterlimit:10;" d="M939.333,58.667l11.638-23.543
	c-2.901-2.604-5.087-6.044-5.924-9.804l-1.28-5.753c-1.796-8.066,3.247-15.169,11.205-15.788l59.524-2.293
	c7.958-0.617,14.769,5.644,15.135,13.913l0.422,9.581c0.367,8.269-5.863,15.032-13.844,15.027l-53.386-0.013
	c-0.696,0-1.394-0.055-2.086-0.151L939.333,58.667z"/>
<g>
	<defs>
		<rect id="SVGID_1_" x="89.39" y="5.968" width="184.317" height="234.333"/>
	</defs>
	<clipPath id="SVGID_2_">
		<use xlink:href="#SVGID_1_"  style="overflow:visible;"/>
	</clipPath>
	<g style="clip-path:url(#SVGID_2_);">
		<defs>
			<rect id="SVGID_3_" x="89.39" y="5.968" width="184.317" height="234.333"/>
		</defs>
		<clipPath id="SVGID_4_">
			<use xlink:href="#SVGID_3_"  style="overflow:visible;"/>
		</clipPath>
		<path style="clip-path:url(#SVGID_4_);fill:#FFDA52;" d="M97.031,133.464c3.418-27.287,23.363-64.178,44.324-81.979l2.766-2.35
			c20.959-17.803,54.762-20.555,75.118-6.115c20.354,14.439,40.172,48.529,44.04,75.756l9.936,69.939
			c3.867,27.226-15.466,49.821-42.963,50.211l-96.695,1.37c-27.498,0.39-47.199-21.617-43.781-48.904L97.031,133.464z"/>
		<path style="clip-path:url(#SVGID_4_);fill:#589296;" d="M217.212,239.11c-0.028-20.854-0.062-44.271-0.062-46.334
			c0-12.63-16.594-42.896-34.293-42.896c-0.104,0-0.2,0.003-0.302,0.004c-0.105-0.001-0.2-0.004-0.303-0.004
			c-17.698,0-34.294,30.266-34.294,42.896c0,2.079-0.033,26.285-0.062,47.315L217.212,239.11z"/>
		<path style="clip-path:url(#SVGID_4_);fill:#535959;" d="M203.089,239.311c-0.196-3.753-0.319-6.66-0.319-8.023
			c0-6.601,6.16-18.406,6.16-21.768c0-3.363-2.005-7.942-3.961-15.595c-1.422-5.561-2.478-23.692-2.947-33.195
			c-0.944-1.057-1.918-2.064-2.917-3.01l0.806,25.311c0,0-0.545,2.417-1.579,2.912c-3.126,1.497-10.116,4.561-15.752,4.985
			c-5.455-0.41-12.182-3.297-15.443-4.839c-1.221-0.577-1.884-3.228-1.884-3.228l0.804-25.192c-0.998,0.943-1.973,1.946-2.916,2.999
			c-0.47,9.486-1.525,27.685-2.949,33.257c-1.957,7.652-3.962,12.231-3.962,15.595c0,3.361,6.16,15.167,6.16,21.768
			c0,1.433-0.137,4.573-0.351,8.605L203.089,239.311z"/>
		<path style="clip-path:url(#SVGID_4_);fill:#F5A262;" d="M191.763,152.535c0,0-5.014,5.135-9.639,5.135
			c-4.626,0-9.91-5.135-9.91-5.135v-23.632h19.548V152.535z"/>
		<path style="clip-path:url(#SVGID_4_);fill:#FFB073;" d="M182.347,18.134c9.613,0,24.712,3.676,30.016,9.602
			c5.305,5.92,12.18,45.169,12.18,55.333c0,18.559-11.085,36.611-19.498,46.204c-7.273,8.292-16.289,11.392-22.697,11.392
			c-6.417,0-15.025-2.723-21.971-11.622c-6.796-8.716-22.128-24.438-22.128-45.973c0-10.164,11.597-51.504,16.901-57.429
			C160.456,19.715,172.729,18.134,182.347,18.134"/>
		<path style="clip-path:url(#SVGID_4_);fill:#FFB073;" d="M222.223,78.645c0-3.783-0.987-6.305,1.937-6.305
			c2.929,0,5.304,3.067,5.304,6.844v10.303c0,3.775-2.375,6.839-5.304,6.839c-2.924,0-2.088-3.589-2.088-7.362L222.223,78.645z"/>
		<path style="clip-path:url(#SVGID_4_);fill:#B85900;" d="M175.849,123.09c1.393-0.014,3.806-0.025,5.364-0.025h1.619
			c1.56,0,4.108,0.046,5.664,0.099l0.747,0.026c1.556,0.055,3.731-0.147,4.831-0.448c1.099-0.3,1.421-0.074,0.713,0.503
			c-0.707,0.578-2.38,1.701-3.72,2.497l-2.854,1.695c-1.34,0.796-3.71,1.447-5.268,1.447h-0.863c-1.557,0-3.905-0.69-5.214-1.533
			l-2.073-1.333c-1.309-0.844-3.141-2.049-4.071-2.678c-0.929-0.63-0.726-0.938,0.452-0.685
			C172.355,122.909,174.456,123.105,175.849,123.09"/>
		<path style="clip-path:url(#SVGID_4_);fill:#B85900;" d="M195.123,124.291c-0.014,0-0.026-0.002-0.041-0.002
			c-0.232-0.023-0.405-0.23-0.382-0.463c0.132-1.395-0.521-1.789-0.55-1.805c-0.199-0.115-0.275-0.372-0.164-0.574
			c0.11-0.201,0.356-0.281,0.562-0.176c0.05,0.025,1.188,0.637,0.996,2.635C195.525,124.125,195.339,124.291,195.123,124.291"/>
		<path style="clip-path:url(#SVGID_4_);fill:#B85900;" d="M170.034,124.291c-0.178,0-0.343-0.113-0.401-0.291
			c-0.019-0.057-0.436-1.39,0.889-2.65c0.169-0.164,0.438-0.156,0.6,0.014c0.163,0.17,0.156,0.439-0.014,0.602
			c-0.923,0.877-0.677,1.738-0.666,1.775c0.067,0.223-0.057,0.461-0.279,0.529C170.12,124.285,170.077,124.291,170.034,124.291"/>
		<path style="clip-path:url(#SVGID_4_);fill:#E08C4C;" d="M180.438,112.336c1.167-0.705,3.073-0.703,4.239,0l2.967,1.795
			c1.165,0.705,1.005,1.281-0.357,1.281h-9.466c-1.362,0-1.523-0.576-0.357-1.279L180.438,112.336z"/>
		<path style="clip-path:url(#SVGID_4_);fill:#944800;" d="M220.102,27.167c-2.179-3.501-6.745-9.718-11.172-15.419
			c-5.094-6.558-14.1-6.392-19.167-5c-12.274,3.374-42.274,12.967-47.583,18.892c-4.773,5.332-1.673,39.344-3.599,53.504
			c1.655,2.061,1.758,1.958,1.758,1.958s9.385-16.763,14.203-29.533c13.519,14.316,29.325,20.511,68.993,20.511
			c0-5.95,0.22-21.372,0.22-27.985C223.755,37.335,222.036,30.279,220.102,27.167"/>
		<path style="clip-path:url(#SVGID_4_);fill:#FFB073;" d="M143.504,93.034c0,3.937-2.466,7.13-5.521,7.13
			c-3.049,0-5.527-3.193-5.527-7.13V82.294c0-3.939,2.478-7.135,5.527-7.135c3.055,0,2.181,3.742,2.181,7.673L143.504,93.034z"/>
		<path style="clip-path:url(#SVGID_4_);fill:#944800;" d="M146.401,78.075c-0.233,0-0.464-0.103-0.619-0.301
			c-0.268-0.341-0.209-0.834,0.132-1.103c0.425-0.335,10.598-8.129,26.103-2.088c0.404,0.158,0.604,0.614,0.446,1.018
			c-0.157,0.405-0.613,0.604-1.018,0.447c-14.631-5.699-24.463,1.784-24.56,1.86C146.742,78.02,146.57,78.075,146.401,78.075"/>
		<path style="clip-path:url(#SVGID_4_);fill:#944800;" d="M171.182,90.861c-0.387,0-0.774-0.149-1.067-0.446
			c-9.187-9.303-18.226-1.809-18.607-1.485c-0.629,0.536-1.576,0.463-2.113-0.165c-0.538-0.628-0.467-1.571,0.159-2.111
			c0.113-0.098,11.515-9.671,22.695,1.653c0.582,0.59,0.577,1.539-0.013,2.121C171.944,90.717,171.562,90.861,171.182,90.861"/>
		<path style="clip-path:url(#SVGID_4_);fill:#944800;" d="M168.654,90.978c0,3.554-2.884,5.348-6.443,5.348s-6.44-1.794-6.44-5.348
			c0-3.561,2.881-6.445,6.44-6.445S168.654,87.417,168.654,90.978"/>
		<path style="clip-path:url(#SVGID_4_);fill:#944800;" d="M217.589,78.075c-0.17,0-0.34-0.055-0.484-0.167
			c-0.098-0.076-9.928-7.559-24.56-1.86c-0.407,0.157-0.861-0.042-1.019-0.447c-0.158-0.404,0.042-0.86,0.446-1.018
			c15.505-6.04,25.677,1.754,26.103,2.088c0.342,0.269,0.4,0.762,0.133,1.103C218.053,77.972,217.822,78.075,217.589,78.075"/>
		<path style="clip-path:url(#SVGID_4_);fill:#944800;" d="M192.809,90.861c-0.382,0-0.763-0.144-1.055-0.433
			c-0.59-0.582-0.595-1.531-0.013-2.121c11.179-11.324,22.581-1.751,22.695-1.653c0.628,0.54,0.698,1.487,0.158,2.115
			c-0.539,0.628-1.484,0.699-2.112,0.161c-0.383-0.326-9.421-7.819-18.607,1.485C193.583,90.712,193.196,90.861,192.809,90.861"/>
		<path style="clip-path:url(#SVGID_4_);fill:#944800;" d="M195.336,90.978c0,3.554,2.884,5.348,6.442,5.348
			c3.56,0,6.44-1.794,6.44-5.348c0-3.561-2.881-6.445-6.44-6.445C198.22,84.533,195.336,87.417,195.336,90.978"/>
		<g style="clip-path:url(#SVGID_4_);">
			<g>
				<defs>
					<rect id="SVGID_5_" x="166.652" y="202.527" width="8.324" height="10.75"/>
				</defs>
				<clipPath id="SVGID_6_">
					<use xlink:href="#SVGID_5_"  style="overflow:visible;"/>
				</clipPath>
				<path style="clip-path:url(#SVGID_6_);fill:#B58A31;" d="M174.977,210.277c0,1.649-1.351,3-3,3h-2.324c-1.65,0-3-1.351-3-3
					v-4.75c0-1.65,1.35-3,3-3h2.324c1.649,0,3,1.35,3,3V210.277z"/>
			</g>
		</g>
		<g style="clip-path:url(#SVGID_4_);">
			<g>
				<defs>
					<rect id="SVGID_7_" x="170.814" y="210.027" width="12.965" height="6.5"/>
				</defs>
				<clipPath id="SVGID_8_">
					<use xlink:href="#SVGID_7_"  style="overflow:visible;"/>
				</clipPath>
				<path style="clip-path:url(#SVGID_8_);fill:#F26A66;" d="M183.78,213.527c0,1.649-1.352,3-3,3h-6.965c-1.649,0-3-1.351-3-3v-0.5
					c0-1.65,1.351-3,3-3h6.965c1.649,0,3,1.35,3,3V213.527z"/>
			</g>
		</g>
		<g style="clip-path:url(#SVGID_4_);">
			<g>
				<defs>
					<rect id="SVGID_9_" x="194.374" y="211.777" width="3.791" height="12.75"/>
				</defs>
				<clipPath id="SVGID_10_">
					<use xlink:href="#SVGID_9_"  style="overflow:visible;"/>
				</clipPath>
				<path style="clip-path:url(#SVGID_10_);fill:#FCC044;" d="M198.165,221.527c0,1.649-0.854,3-1.896,3
					c-1.042,0-1.895-1.351-1.895-3v-6.75c0-1.65,0.853-3,1.895-3c1.043,0,1.896,1.35,1.896,3V221.527z"/>
			</g>
		</g>
		<g style="clip-path:url(#SVGID_4_);">
			<g>
				<defs>
					<rect id="SVGID_11_" x="194.936" y="210.777" width="6.457" height="6.5"/>
				</defs>
				<clipPath id="SVGID_12_">
					<use xlink:href="#SVGID_11_"  style="overflow:visible;"/>
				</clipPath>
				<path style="clip-path:url(#SVGID_12_);fill:#C76075;" d="M201.393,214.277c0,1.649-1.352,3-3,3h-0.457c-1.649,0-3-1.351-3-3
					v-0.5c0-1.65,1.351-3,3-3h0.457c1.648,0,3,1.35,3,3V214.277z"/>
			</g>
		</g>
	</g>
</g>
<g>
	<defs>
		<rect id="SVGID_13_" x="298.387" y="16.034" width="195.353" height="244.89"/>
	</defs>
	<clipPath id="SVGID_14_">
		<use xlink:href="#SVGID_13_"  style="overflow:visible;"/>
	</clipPath>
	<g style="clip-path:url(#SVGID_14_);">
		<defs>
			<rect id="SVGID_15_" x="298.387" y="16.034" width="195.353" height="244.89"/>
		</defs>
		<clipPath id="SVGID_16_">
			<use xlink:href="#SVGID_15_"  style="overflow:visible;"/>
		</clipPath>
		<path style="clip-path:url(#SVGID_16_);fill:#4A9299;" d="M377.947,260.422c-56.801-4.742-84.369-66.068-78.872-118.992
			c3.923-37.791,49.965-68.773,97.96-99.522c25.437-16.295,96.705,28.524,96.705,125.504
			C493.74,229.178,434.752,265.162,377.947,260.422"/>
		<path style="clip-path:url(#SVGID_16_);fill:#C76B3D;" d="M422.47,235.277c0-40.992-15.961-74.223-35.653-74.223
			c-19.691,0-35.652,33.23-35.652,74.223c0,6.607,0.42,13.012,1.197,19.109c8.204,3.205,16.786,5.297,25.584,6.035
			c13.858,1.156,28.675-0.48,43.098-4.381C421.965,249.451,422.47,242.488,422.47,235.277"/>
		<g style="opacity:0.1;clip-path:url(#SVGID_16_);">
			<g>
				<defs>
					<rect id="SVGID_17_" x="351.166" y="178.09" width="71.301" height="71.842"/>
				</defs>
				<clipPath id="SVGID_18_">
					<use xlink:href="#SVGID_17_"  style="overflow:visible;"/>
				</clipPath>
				<path style="clip-path:url(#SVGID_18_);fill:#FFFFFF;" d="M422.332,241.537l-70.922,2.127c0.113,2.113,0.263,4.211,0.457,6.268
					h69.885C422.02,247.186,422.213,244.387,422.332,241.537"/>
				<path style="clip-path:url(#SVGID_18_);fill:#FFFFFF;" d="M422.38,230.318l-71.086-1.143c-0.073,1.938-0.122,3.885-0.129,5.863
					h71.301C422.464,233.449,422.431,231.881,422.38,230.318"/>
				<path style="clip-path:url(#SVGID_18_);fill:#FFFFFF;" d="M420.939,213.734l-68.081-1.096c-0.429,2.789-0.773,5.65-1.047,8.572
					h70.013C421.591,218.668,421.294,216.176,420.939,213.734"/>
				<path style="clip-path:url(#SVGID_18_);fill:#FFFFFF;" d="M417.059,195.988l-60.188-0.971c-0.813,2.613-1.553,5.324-2.205,8.146
					l63.844-1.875C418.062,199.477,417.579,197.709,417.059,195.988"/>
				<path style="clip-path:url(#SVGID_18_);fill:#FFFFFF;" d="M409.958,178.834l-45.87-0.742c-1.399,2.414-2.703,5.047-3.906,7.871
					l52.589-1.549C411.884,182.449,410.943,180.586,409.958,178.834"/>
			</g>
		</g>
		<g style="opacity:0.1;clip-path:url(#SVGID_16_);">
			<g>
				<defs>
					<rect id="SVGID_19_" x="351.633" y="165.57" width="70.837" height="95.186"/>
				</defs>
				<clipPath id="SVGID_20_">
					<use xlink:href="#SVGID_19_"  style="overflow:visible;"/>
				</clipPath>
				<path style="clip-path:url(#SVGID_20_);fill:#FFFFFF;" d="M351.633,223.314v23.701c0.189,2.494,0.422,4.955,0.729,7.361
					c2.632,1.029,5.309,1.932,8.014,2.721l-1.998-66.588C354.95,199.943,352.58,211.127,351.633,223.314"/>
				<path style="clip-path:url(#SVGID_20_);fill:#FFFFFF;" d="M366.53,174.244v84.426c1.487,0.326,2.985,0.621,4.487,0.873
					l1.487-92.254C370.397,169.215,368.397,171.549,366.53,174.244"/>
				<path style="clip-path:url(#SVGID_20_);fill:#FFFFFF;" d="M380.356,165.57v94.977c2.382,0.146,4.78,0.223,7.207,0.207
					l1.531-95.184H380.356z"/>
				<path style="clip-path:url(#SVGID_20_);fill:#FFFFFF;" d="M400.816,259.926c1.482-0.174,2.966-0.355,4.451-0.578l1.379-85.764
					c-2.331-3.262-4.862-5.967-7.545-8.014h-1.06L400.816,259.926z"/>
				<path style="clip-path:url(#SVGID_20_);fill:#FFFFFF;" d="M421.044,256.031c0.921-6.592,1.426-13.555,1.426-20.764
					c0-16.037-2.448-30.869-6.604-43.006l1.902,64.588C418.857,256.58,419.955,256.328,421.044,256.031"/>
			</g>
		</g>
		<path style="clip-path:url(#SVGID_16_);fill:#FFB073;" d="M396.065,163.875c0,0-3.464,3.537-9.892,3.537
			c-6.435,0-9.172-3.537-9.172-3.537v-21.506h19.064V163.875z"/>
		<path style="clip-path:url(#SVGID_16_);fill:#FFB073;" d="M359.484,111.098c0,4.111-3.336,7.453-7.455,7.453h-2.115
			c-4.114,0-7.451-3.342-7.451-7.453c0-4.121,3.337-7.458,7.451-7.458h2.115C356.148,103.639,359.484,106.977,359.484,111.098"/>
		<path style="clip-path:url(#SVGID_16_);fill:#FFB073;" d="M432.989,111.098c0,4.111-3.335,7.453-7.453,7.453h-2.113
			c-4.119,0-7.453-3.342-7.453-7.453c0-4.121,3.334-7.458,7.453-7.458h2.113C429.654,103.639,432.989,106.977,432.989,111.098"/>
		<path style="clip-path:url(#SVGID_16_);fill:#FFB073;" d="M347.677,59.973c0,0-8.186,94.129,39.369,94.129
			c47.556,0,40.541-94.129,40.541-94.129l-64.806-28.695L347.677,59.973z"/>
		<path style="clip-path:url(#SVGID_16_);fill:#785F49;" d="M427.951,55.32c54.43-64.614-69.003-34.849-85.723-13.719
			c-19.293-29.886,5.703,83.874,12.438,94.918l0,0c10.904,23.367,32.677,21.783,32.677,21.783s0.026-0.035,0.065-0.084
			c0.039,0.049,0.066,0.084,0.066,0.084s27.529,2,36.181-31.713C441.413,62.819,437.995,50.949,427.951,55.32 M404.939,141.367
			c-6.006,2.568,14.375-22.816-17.465-22.816h-0.066h-0.065c-31.836,0-11.462,25.385-17.46,22.816
			c-11.017-5.506-16.305-24.881-18.617-37.648c-1.008-10.954-1.299-23.587,0.396-36.52c4.018-30.679,15.004-3.003,58.302-2.227
			c13.294,0.237,15.132,28.854,12.417,44.512C419.667,125.141,414.391,136.639,404.939,141.367"/>
		<path style="clip-path:url(#SVGID_16_);fill:#E08641;" d="M397.821,116.375h-20.954c-1.692,0,6.618-2.979,10.479-2.979
			C391.206,113.396,399.515,116.375,397.821,116.375"/>
		<path style="clip-path:url(#SVGID_16_);fill:#63452D;" d="M398.07,93.443c-0.31,3.298,2.374,3.434,5.668,3.739
			c3.298,0.31,5.958,0.675,6.267-2.627c0.307-3.296-2.113-6.216-5.408-6.521C401.301,87.727,398.379,90.148,398.07,93.443"/>
		<path style="clip-path:url(#SVGID_16_);fill:#63452D;" d="M413.287,93.889c0,0-0.477-5.723-7.479-6.351
			c-6.419-0.581-9.742,4.292-9.742,4.292s2.591-2.644,9.775-2.354C409.82,89.635,413.287,93.889,413.287,93.889"/>
		<path style="clip-path:url(#SVGID_16_);fill:#63452D;" d="M413.287,94.432c-0.159,0-0.315-0.07-0.422-0.2
			c-0.033-0.04-3.362-4.066-7.046-4.213c-6.8-0.269-9.344,2.171-9.368,2.194c-0.197,0.198-0.517,0.214-0.731,0.034
			c-0.216-0.179-0.262-0.492-0.104-0.724c0.137-0.197,3.586-5.128,10.24-4.527c7.374,0.661,7.969,6.786,7.974,6.848
			c0.021,0.237-0.116,0.46-0.339,0.549C413.424,94.42,413.355,94.432,413.287,94.432 M404.757,88.909
			c0.355,0,0.724,0.007,1.104,0.023c2.525,0.101,4.812,1.7,6.257,2.988c-0.78-1.555-2.518-3.496-6.36-3.84
			c-2.76-0.252-4.916,0.563-6.453,1.528C400.668,89.212,402.461,88.909,404.757,88.909"/>
		<path style="clip-path:url(#SVGID_16_);fill:#4A290F;" d="M374.801,123.096h25.345c0,0-1.439,14.082-12.803,14.082
			C375.981,137.178,374.801,123.096,374.801,123.096"/>
		<path style="clip-path:url(#SVGID_16_);fill:#E6C8B1;" d="M375.909,123.693h23.253c0,0-2.266,4.732-11.688,4.732
			C378.053,128.426,375.909,123.693,375.909,123.693"/>
		<path style="clip-path:url(#SVGID_16_);fill:#785F49;" d="M419.242,77.454c-0.156,1.529-1.52,2.646-3.05,2.493l-18.343-1.845
			c-1.532-0.155-2.65-1.519-2.494-3.052c0.15-1.531,1.52-2.647,3.051-2.494l18.342,1.845
			C418.279,74.554,419.397,75.924,419.242,77.454"/>
		<path style="clip-path:url(#SVGID_16_);fill:#63452D;" d="M375.328,93.443c0.31,3.298-2.374,3.434-5.668,3.739
			c-3.298,0.31-5.958,0.675-6.267-2.627c-0.306-3.296,2.114-6.216,5.409-6.521C372.097,87.727,375.019,90.148,375.328,93.443"/>
		<path style="clip-path:url(#SVGID_16_);fill:#63452D;" d="M360.06,93.889c0,0,0.477-5.723,7.48-6.351
			c6.419-0.581,9.742,4.292,9.742,4.292s-2.591-2.644-9.776-2.354C363.527,89.635,360.06,93.889,360.06,93.889"/>
		<path style="clip-path:url(#SVGID_16_);fill:#63452D;" d="M360.06,94.432c-0.068,0-0.137-0.012-0.203-0.039
			c-0.222-0.089-0.359-0.312-0.339-0.549c0.005-0.062,0.6-6.187,7.974-6.848c6.649-0.604,10.104,4.33,10.24,4.527
			c0.158,0.233,0.113,0.549-0.105,0.728c-0.217,0.178-0.536,0.162-0.734-0.04c-0.02-0.021-2.555-2.46-9.364-2.192
			c-3.692,0.148-7.014,4.173-7.047,4.213C360.376,94.362,360.22,94.432,360.06,94.432 M368.595,88.034
			c-0.326,0-0.661,0.015-1.005,0.046c-3.843,0.344-5.581,2.285-6.362,3.84c1.446-1.288,3.732-2.887,6.257-2.988
			c2.83-0.117,4.967,0.215,6.54,0.671C372.679,88.761,370.861,88.034,368.595,88.034"/>
		<path style="clip-path:url(#SVGID_16_);fill:#785F49;" d="M354.105,79.454c0.156,1.529,1.52,2.646,3.05,2.493l18.344-1.845
			c1.531-0.155,2.649-1.519,2.493-3.052c-0.151-1.531-1.52-2.647-3.051-2.494l-18.342,1.845
			C355.068,76.554,353.95,77.924,354.105,79.454"/>
		<path style="clip-path:url(#SVGID_16_);fill:#9E5530;" d="M365.351,257.764c-0.314,0-0.589-0.232-0.635-0.551
			c-0.051-0.346-4.853-34.803,5.975-64.484l-0.352-3.633c-0.034-0.354,0.224-0.668,0.578-0.703c0.351-0.031,0.668,0.225,0.702,0.578
			l0.366,3.779c0.01,0.096-0.003,0.193-0.036,0.283c-10.779,29.4-6.01,63.652-5.96,63.994c0.05,0.354-0.194,0.68-0.545,0.729
			C365.412,257.762,365.382,257.764,365.351,257.764"/>
		<path style="clip-path:url(#SVGID_16_);fill:#9E5530;" d="M371.345,193.455c-0.162,0-0.323-0.061-0.448-0.182
			c-0.255-0.248-0.261-0.654-0.013-0.908l1.565-1.609c0.247-0.256,0.654-0.26,0.909-0.012c0.254,0.246,0.26,0.654,0.012,0.908
			l-1.564,1.607C371.68,193.391,371.512,193.455,371.345,193.455"/>
		<path style="clip-path:url(#SVGID_16_);fill:#9E5530;" d="M410.513,257.764c-0.031,0-0.061-0.002-0.093-0.008
			c-0.352-0.051-0.595-0.375-0.544-0.729c0.049-0.342,4.821-34.594-5.959-63.994c-0.033-0.09-0.046-0.188-0.036-0.283l0.367-3.779
			c0.034-0.354,0.352-0.611,0.702-0.578c0.354,0.035,0.611,0.35,0.577,0.703l-0.353,3.633c10.829,29.682,6.024,64.139,5.973,64.484
			C411.102,257.531,410.828,257.764,410.513,257.764"/>
		<path style="clip-path:url(#SVGID_16_);fill:#9E5530;" d="M404.521,193.455c-0.167,0-0.335-0.064-0.461-0.195l-1.562-1.607
			c-0.248-0.254-0.243-0.662,0.012-0.908c0.255-0.248,0.662-0.244,0.91,0.012l1.562,1.609c0.248,0.254,0.242,0.66-0.013,0.908
			C404.844,193.395,404.683,193.455,404.521,193.455"/>
		<path style="clip-path:url(#SVGID_16_);fill:#9E5530;" d="M392.121,174.645c-0.029,0-0.058-0.002-0.086-0.006
			c-0.177-0.025-0.336-0.121-0.439-0.268l-4.089-5.797l-3.201,5.127c-0.093,0.15-0.244,0.254-0.417,0.289
			c-0.171,0.033-0.352-0.002-0.497-0.104l-10.11-7.078c-0.291-0.203-0.362-0.604-0.159-0.895c0.205-0.291,0.606-0.361,0.896-0.158
			l9.555,6.689l3.355-5.375c0.114-0.182,0.312-0.295,0.527-0.301c0.225-0.02,0.42,0.096,0.544,0.273l4.248,6.021l7.49-6.15
			c0.275-0.225,0.68-0.184,0.905,0.09s0.186,0.68-0.088,0.904l-8.026,6.59C392.413,174.594,392.269,174.645,392.121,174.645"/>
		<path style="clip-path:url(#SVGID_16_);fill:#9E5530;" d="M387.474,260.924c-0.355,0-0.643-0.287-0.643-0.643v-92.869
			c0-0.355,0.288-0.643,0.643-0.643s0.643,0.287,0.643,0.643v92.869C388.117,260.637,387.829,260.924,387.474,260.924"/>
		<path style="clip-path:url(#SVGID_16_);fill:#9E5530;" d="M400.205,223.721c-0.009,0-0.078-0.002-0.087-0.002
			c-4.785-0.213-7.363-17.408-7.831-20.854c-0.046-0.334,0.175-0.646,0.506-0.715l10.034-2.09c0.183-0.037,0.37,0.006,0.518,0.117
			c0.148,0.111,0.24,0.281,0.255,0.465c0.143,1.928,1.306,18.939-1.878,22.367C401.289,223.475,400.765,223.721,400.205,223.721
			 M393.644,203.285c1.156,8.08,3.872,19.029,6.531,19.148l0.03,0.645v-0.645c0.127,0,0.324-0.031,0.574-0.299
			c2.267-2.443,1.95-15.105,1.589-20.664L393.644,203.285z"/>
	</g>
</g>
<g>
	<defs>
		<rect id="SVGID_21_" x="781.855" y="4.441" width="188.745" height="234.924"/>
	</defs>
	<clipPath id="SVGID_22_">
		<use xlink:href="#SVGID_21_"  style="overflow:visible;"/>
	</clipPath>
	<path style="clip-path:url(#SVGID_22_);fill:#4A9299;" d="M868.064,238.35c-56.905-3.27-88.132-33.994-86.117-118.09
		c1.274-53.194,10.79-96.551,67.593-91.81c56.804,4.741,109.992-3.99,120.716,120.271
		C974.842,201.863,933.219,242.096,868.064,238.35"/>
	<path style="clip-path:url(#SVGID_22_);fill:#573C26;" d="M847.09,137.105c-17.224-6.312-21.188-18.529-11.215-36.845
		c10.991-20.186-9.533-22.292-7.818-42.87c1.714-20.58-0.294-52.731,47.938-52.948c48.231-0.213,54.483,34.268,52.683,52.732
		c-1.803,18.465-19.778,28.996-10.61,46.953c11.457,22.439-0.608,25.402-13.715,32.152S864.313,143.416,847.09,137.105"/>
	<polygon style="clip-path:url(#SVGID_22_);fill:#FF9F54;" points="888.184,134.125 891.245,143.027 857.478,143.027 
		863.801,134.125 868.198,133.381 868.198,109.48 883.791,109.48 883.791,133.701 	"/>
	<path style="clip-path:url(#SVGID_22_);fill:#EDE7DC;" d="M913.048,182.523c-1.914-20.867-2.66-37.266-6.05-41.158
		c-2.938-3.371-7.464-5.109-11.582-6.086c-0.008-0.002-0.017-0.006-0.025-0.01c-3.727-1.094-11.602-1.619-11.602-1.619v-8.598
		l-5.345,3.053l2.801,6.219l-5.196,4.656l-4.512-4.766l2.1-6.561l-5.442-2.15v6.75l-13.072,2.906
		c-0.792,0.15-1.592,0.322-2.389,0.529l-0.055,0.014h0.002c-3.347,0.877-6.609,2.318-8.783,4.816
		c-3.74,4.291-4.763,20.369-5.699,43.275c-0.748,18.328-1.403,38-1.403,46.875c10.216,5.311,20.267,8.008,31.269,8.529
		c15.266,0.721,31.611-0.84,47.363-5.615C915.427,222.961,914.968,203.422,913.048,182.523"/>
	<path style="clip-path:url(#SVGID_22_);fill:#FFB073;" d="M837.792,39.994c0,0-8.186,76.014,39.373,76.014
		c47.555,0,40.538-76.014,40.538-76.014H837.792z"/>
	<path style="clip-path:url(#SVGID_22_);fill:#FFB073;" d="M916.756,65.698c0,0,11.075-5.058,9.392,7.403
		c-1.115,8.282-13.098,11.286-13.098,11.286L916.756,65.698z"/>
	<path style="clip-path:url(#SVGID_22_);fill:#EB9350;" d="M883.871,90.549h-12.822c-1.038,0,4.051-4.36,6.41-4.36
		C879.824,86.188,884.909,90.549,883.871,90.549"/>
	<path style="clip-path:url(#SVGID_22_);fill:#63452D;" d="M864.882,72.836c0,3.312-2.684,4.483-5.994,4.483
		c-3.306,0-5.99-1.171-5.99-4.483c0-3.311,2.685-5.99,5.99-5.99C862.198,66.847,864.882,69.525,864.882,72.836"/>
	<path style="clip-path:url(#SVGID_22_);fill:#63452D;" d="M845.587,71.667c0,0,6.454-7.5,14.514-5.251
		c6.297,1.754,8.096,5.667,8.096,5.667s-5.135-2.923-10.402-3.655C853.791,67.873,845.587,71.667,845.587,71.667"/>
	<path style="clip-path:url(#SVGID_22_);fill:#63452D;" d="M868.217,72.632c-0.006,0.001-0.012,0-0.021,0
		c-0.092,0-0.186-0.024-0.271-0.072c-0.05-0.028-5.11-2.88-10.208-3.589c-3.826-0.531-11.826,3.159-11.9,3.194
		c-0.233,0.109-0.513,0.039-0.668-0.167c-0.156-0.206-0.146-0.492,0.022-0.688c0.206-0.239,5.123-5.862,11.869-5.862
		c1.08,0,2.159,0.148,3.207,0.441c5.886,1.64,7.991,5.097,8.381,5.832c0.085,0.097,0.137,0.224,0.137,0.363
		C868.766,72.387,868.521,72.632,868.217,72.632 M856.92,67.825c0.335,0,0.653,0.02,0.948,0.061
		c3.287,0.457,6.482,1.726,8.492,2.656c-1.156-1.187-3.162-2.693-6.406-3.597c-0.953-0.266-1.934-0.401-2.913-0.401
		c-3.652,0-6.796,1.861-8.784,3.415C850.747,69,854.329,67.825,856.92,67.825"/>
	<path style="clip-path:url(#SVGID_22_);fill:#63452D;" d="M890.17,72.836c0,3.312,2.687,4.483,5.994,4.483
		c3.312,0,5.995-1.171,5.995-4.483c0-3.311-2.683-5.99-5.995-5.99C892.856,66.847,890.17,69.525,890.17,72.836"/>
	<path style="clip-path:url(#SVGID_22_);fill:#63452D;" d="M907,70.157c0,0-2.79-6.876-10.735-4.631
		c-6.199,1.758-9.11,7.458-9.11,7.458s3.829-4.604,11.009-4.984C902.143,67.792,907,70.157,907,70.157"/>
	<path style="clip-path:url(#SVGID_22_);fill:#63452D;" d="M887.154,73.528c-0.104,0-0.208-0.03-0.301-0.09
		c-0.229-0.153-0.31-0.455-0.184-0.701c0.123-0.241,3.092-5.932,9.446-7.734c1.106-0.313,2.182-0.471,3.195-0.471
		c5.383,0,7.729,4.431,8.13,5.281c0.076,0.094,0.123,0.213,0.123,0.344c0,0.304-0.229,0.57-0.557,0.544
		c-0.074,0.006-0.167-0.017-0.246-0.055c-0.046-0.022-4.784-2.31-8.57-2.103c-6.84,0.362-10.582,4.745-10.619,4.79
		C887.465,73.461,887.311,73.528,887.154,73.528 M899.312,65.62c-0.913,0-1.89,0.145-2.898,0.43
		c-2.689,0.762-4.743,2.309-6.186,3.772c1.892-1.12,4.537-2.187,7.906-2.366c2.724-0.146,5.808,0.858,7.595,1.561
		C904.743,67.614,902.74,65.62,899.312,65.62"/>
	<path style="clip-path:url(#SVGID_22_);fill:#63452D;" d="M845.18,62.027c0,0,1.437-0.841,3.701-1.847
		c1.129-0.514,2.483-1.029,3.952-1.541c1.47-0.51,3.074-0.976,4.721-1.296c1.646-0.328,3.327-0.552,4.938-0.565
		c0.807-0.003,1.592,0.018,2.338,0.139c0.746,0.095,1.447,0.265,2.078,0.491c0.318,0.097,0.614,0.223,0.89,0.361
		c0.278,0.129,0.543,0.247,0.772,0.406c0.475,0.271,0.846,0.579,1.139,0.841c0.302,0.248,0.496,0.495,0.636,0.648
		c0.135,0.158,0.207,0.242,0.207,0.242c0.21,0.245,0.182,0.613-0.063,0.824c-0.193,0.165-0.463,0.183-0.67,0.063l-0.076-0.043
		c0,0-0.082-0.048-0.238-0.138c-0.165-0.077-0.354-0.251-0.656-0.384c-0.294-0.145-0.645-0.318-1.064-0.474
		c-0.418-0.158-0.896-0.329-1.442-0.442c-0.265-0.075-0.552-0.134-0.851-0.176c-0.295-0.053-0.606-0.103-0.931-0.135
		c-0.644-0.076-1.336-0.116-2.058-0.125c-1.446-0.017-3.014,0.161-4.569,0.442c-0.78,0.133-1.553,0.32-2.317,0.492
		c-0.765,0.175-1.514,0.369-2.236,0.572c-1.446,0.405-2.773,0.872-3.918,1.257c-1.141,0.393-2.081,0.761-2.734,1.022
		c-0.65,0.261-1.023,0.411-1.023,0.411l-0.008,0.004c-0.3,0.121-0.642-0.025-0.763-0.324
		C844.823,62.478,844.933,62.171,845.18,62.027"/>
	<path style="clip-path:url(#SVGID_22_);fill:#63452D;" d="M910.546,63.072c0,0-0.372-0.149-1.022-0.411
		c-0.654-0.261-1.593-0.629-2.734-1.021c-1.145-0.386-2.473-0.853-3.918-1.256c-0.723-0.204-1.472-0.399-2.236-0.573
		c-0.765-0.173-1.537-0.36-2.318-0.493c-1.555-0.281-3.122-0.459-4.568-0.442c-0.724,0.01-1.416,0.05-2.059,0.125
		c-0.323,0.031-0.634,0.082-0.93,0.135c-0.301,0.043-0.585,0.1-0.852,0.176c-0.546,0.114-1.022,0.283-1.44,0.442
		c-0.423,0.155-0.771,0.329-1.064,0.473c-0.304,0.134-0.492,0.308-0.657,0.385c-0.156,0.09-0.238,0.138-0.238,0.138l-0.074,0.043
		c-0.279,0.161-0.637,0.064-0.798-0.215c-0.127-0.221-0.094-0.489,0.062-0.672c0,0,0.072-0.084,0.207-0.242
		c0.141-0.153,0.334-0.4,0.636-0.649c0.292-0.261,0.663-0.569,1.141-0.84c0.229-0.159,0.492-0.278,0.771-0.406
		c0.276-0.137,0.572-0.264,0.891-0.362c0.631-0.225,1.334-0.396,2.078-0.49c0.744-0.12,1.531-0.142,2.336-0.139
		c1.612,0.013,3.295,0.237,4.939,0.565c1.647,0.32,3.251,0.787,4.721,1.297c1.47,0.512,2.823,1.026,3.951,1.54
		c2.267,1.006,3.702,1.847,3.702,1.847c0.279,0.163,0.372,0.523,0.21,0.802c-0.148,0.254-0.459,0.354-0.725,0.247L910.546,63.072z"
		/>
	<path style="clip-path:url(#SVGID_22_);fill:#A35A21;" d="M863.813,98.5c-0.118,0-0.234-0.042-0.329-0.126
		c-0.202-0.182-0.218-0.493-0.037-0.695l2.212-2.458c0.182-0.203,0.494-0.218,0.695-0.037c0.202,0.182,0.218,0.493,0.037,0.695
		l-2.212,2.458C864.083,98.446,863.947,98.5,863.813,98.5"/>
	<path style="clip-path:url(#SVGID_22_);fill:#A35A21;" d="M891.245,97.516c-0.121,0-0.242-0.044-0.336-0.133l-1.968-1.845
		c-0.198-0.186-0.209-0.497-0.023-0.695c0.186-0.199,0.497-0.21,0.696-0.023l1.968,1.845c0.198,0.185,0.208,0.497,0.022,0.695
		C891.507,97.464,891.376,97.516,891.245,97.516"/>
	<path style="clip-path:url(#SVGID_22_);fill:#A35A21;" d="M865.257,96.582c0,0,0.373,0.088,1.062,0.23
		c0.684,0.14,1.66,0.319,2.826,0.502c0.582,0.091,1.215,0.171,1.883,0.258c0.666,0.086,1.371,0.142,2.098,0.213
		c0.728,0.075,1.481,0.09,2.243,0.14c0.764,0.045,1.541,0.049,2.316,0.048l1.17-0.017c0.362-0.024,0.723-0.05,1.081-0.074
		c0.37-0.046,0.741-0.086,1.108-0.113c0.367-0.049,0.729-0.097,1.087-0.145c0.711-0.125,1.405-0.231,2.063-0.362
		c0.658-0.143,1.281-0.279,1.855-0.404c1.149-0.276,2.116-0.526,2.793-0.712c0.672-0.184,1.056-0.291,1.056-0.291l0.017-0.003
		c0.267-0.074,0.543,0.084,0.617,0.351c0.053,0.193-0.016,0.393-0.158,0.516c0,0-0.332,0.282-0.941,0.697
		c-0.611,0.413-1.509,0.967-2.654,1.502c-0.571,0.27-1.201,0.545-1.886,0.791c-0.685,0.247-1.417,0.492-2.194,0.684
		c-0.779,0.181-1.588,0.375-2.435,0.474c-0.438,0.043-0.878,0.085-1.32,0.128l-1.261,0.052c-0.846-0.024-1.69-0.055-2.521-0.127
		c-0.83-0.064-1.64-0.201-2.42-0.34c-0.78-0.13-1.524-0.322-2.223-0.519c-0.701-0.185-1.351-0.414-1.941-0.641
		c-1.186-0.444-2.127-0.932-2.766-1.307c-0.634-0.373-0.99-0.646-0.99-0.646c-0.217-0.17-0.258-0.486-0.088-0.705
		c0.123-0.161,0.326-0.226,0.512-0.182L865.257,96.582z"/>
	<path style="clip-path:url(#SVGID_22_);fill:#573C26;" d="M835.875,39.994c0,0,33.901,17.542,79.553,12.577
		c18.754-2.042,2.639-18.422,2.639-18.422L835.875,39.994z"/>
	<path style="clip-path:url(#SVGID_22_);fill:#FFB073;" d="M831.272,65.891c0,0-4.798,7.01,4.604,14.184
		C834.884,71.911,831.272,65.891,831.272,65.891"/>
	<path style="clip-path:url(#SVGID_22_);fill:#BDB8AF;" d="M850.134,236.451c-0.017,0-0.033-0.002-0.049-0.004
		c-0.248-0.027-0.426-0.25-0.398-0.496c0.025-0.229,2.551-22.945,2.841-34.199c0.142-5.598-1.138-9.775-2.164-13.131
		c-1.062-3.467-1.899-6.207-0.634-8.816c3.121-6.443,4.703-17.867,5.3-22.166c0.114-0.822,0.188-1.361,0.257-1.715l-0.971-3.344
		c-0.07-0.238,0.068-0.488,0.306-0.557c0.24-0.07,0.489,0.068,0.558,0.307l0.879,3.025c0.215,0.145,0.215,0.479,0.215,0.803
		c0,0.143-0.068,0.271-0.176,0.355c-0.049,0.334-0.11,0.775-0.176,1.248c-0.658,4.748-2.197,15.863-5.383,22.436
		c-1.111,2.293-0.357,4.754,0.686,8.16c1.047,3.42,2.35,7.674,2.203,13.418c-0.291,11.293-2.82,34.047-2.846,34.275
		C850.556,236.281,850.36,236.451,850.134,236.451"/>
	<path style="clip-path:url(#SVGID_22_);fill:#BDB8AF;" d="M855.822,156.607c-0.106,0-0.214-0.037-0.3-0.115
		c-0.186-0.164-0.201-0.449-0.035-0.635l1.654-1.852c0.166-0.186,0.451-0.201,0.636-0.035c0.187,0.164,0.2,0.449,0.036,0.635
		l-1.656,1.852C856.069,156.557,855.946,156.607,855.822,156.607"/>
	<path style="clip-path:url(#SVGID_22_);fill:#BDB8AF;" d="M901.623,236.451c-0.227,0-0.422-0.17-0.447-0.4
		c-0.025-0.229-2.555-22.982-2.846-34.275c-0.146-5.744,1.156-9.998,2.203-13.418c1.043-3.406,1.796-5.867,0.686-8.16
		c-3.186-6.572-4.726-17.688-5.383-22.436c-0.065-0.473-0.126-0.914-0.177-1.248c-0.106-0.084-0.175-0.213-0.175-0.355
		c0-0.324,0-0.658,0.214-0.803l0.879-3.025c0.069-0.238,0.319-0.377,0.559-0.307c0.238,0.068,0.376,0.318,0.306,0.557l-0.971,3.344
		c0.067,0.354,0.143,0.893,0.257,1.715c0.596,4.299,2.178,15.723,5.3,22.166c1.267,2.609,0.428,5.35-0.634,8.816
		c-1.027,3.355-2.306,7.533-2.164,13.131c0.29,11.254,2.815,33.971,2.841,34.199c0.027,0.246-0.15,0.469-0.397,0.496
		C901.656,236.449,901.64,236.451,901.623,236.451"/>
	<path style="clip-path:url(#SVGID_22_);fill:#BDB8AF;" d="M895.935,156.607c-0.124,0-0.247-0.051-0.336-0.15l-1.655-1.852
		c-0.165-0.186-0.149-0.471,0.036-0.635c0.187-0.166,0.47-0.15,0.635,0.035l1.655,1.852c0.166,0.186,0.15,0.471-0.035,0.635
		C896.148,156.57,896.042,156.607,895.935,156.607"/>
	<path style="clip-path:url(#SVGID_22_);fill:#BDB8AF;" d="M890.413,175.092c-4.384,0-5.009-10.619-5.066-11.83
		c-0.011-0.236,0.156-0.447,0.392-0.49l8.491-1.566c0.131-0.023,0.267,0.008,0.373,0.088s0.175,0.201,0.188,0.334
		c0.049,0.5,1.153,12.266-3.74,13.391C890.835,175.068,890.621,175.092,890.413,175.092 M886.324,163.633
		c0.221,3.441,1.365,11.164,4.513,10.455c3.215-0.74,3.314-8.363,3.049-11.85L886.324,163.633z"/>
	<path style="clip-path:url(#SVGID_22_);fill:#ABA137;" d="M872.286,239.184l-0.749-104.969c0,0,1.674,2.289,4.512,2.064
		s5.196-1.955,5.196-1.955l1.246,104.859H872.286z"/>
	<path style="clip-path:url(#SVGID_22_);fill:#BDB8AF;" d="M881.244,134.775c-0.198,0-0.381-0.135-0.434-0.336
		c-0.064-0.24,0.079-0.486,0.319-0.551l2.544-0.674c0.243-0.062,0.487,0.08,0.55,0.32c0.063,0.24-0.079,0.488-0.319,0.551
		l-2.544,0.674C881.321,134.77,881.282,134.775,881.244,134.775"/>
	<path style="clip-path:url(#SVGID_22_);fill:#BDB8AF;" d="M871.536,134.666c-0.076,0-0.156-0.021-0.227-0.062l-3.342-1.963
		c-0.215-0.125-0.286-0.402-0.16-0.615c0.126-0.215,0.4-0.287,0.615-0.16l3.343,1.963c0.214,0.125,0.285,0.4,0.16,0.615
		C871.842,134.586,871.69,134.666,871.536,134.666"/>
</g>
<g>
	<defs>
		<rect id="SVGID_23_" x="1.479" y="25.179" width="124.097" height="64.818"/>
	</defs>
	<clipPath id="SVGID_24_">
		<use xlink:href="#SVGID_23_"  style="overflow:visible;"/>
	</clipPath>
	<path style="clip-path:url(#SVGID_24_);fill:#B2D6D4;" d="M124.975,89.035c0.733,0.698,0.806,1.108,0.16,0.913
		c-0.645-0.197-5.646-3.224-11.112-6.724l-2.861-1.831c-5.467-3.501-10.103-6.79-10.301-7.309c-0.199-0.521-5.67-0.783-12.158-0.584
		l-72.9,2.238C9.314,75.937,3.676,70.8,3.275,64.321L1.501,35.742c-0.401-6.48,4.549-11.2,11.001-10.492l81.393,8.937
		c6.452,0.708,12.561,6.534,13.572,12.947l1.563,9.884c1.011,6.412,1.938,11.776,2.059,11.917c0.12,0.145,2.994,4.439,6.386,9.546
		C120.868,83.586,124.243,88.336,124.975,89.035"/>
</g>
<g>
	<defs>
		<rect id="SVGID_25_" x="452.946" y="4.679" width="88.054" height="72.886"/>
	</defs>
	<clipPath id="SVGID_26_">
		<use xlink:href="#SVGID_25_"  style="overflow:visible;"/>
	</clipPath>
	<path style="clip-path:url(#SVGID_26_);fill:#FFFFFF;" d="M468.832,77.565c-0.701,0-1.269-0.568-1.269-1.269
		c0-0.264,0.081-0.511,0.22-0.714l10.437-20.926c-10.488-0.358-20.774-8.717-23.143-18.94l-1.63-7.049
		c-1.193-5.149-0.238-10.149,2.687-14.08c2.925-3.931,7.441-6.28,12.715-6.617l50.975-3.251c10.923-0.693,20.109,7.669,20.61,18.458
		l0.544,11.739c0.244,5.25-1.589,10.204-5.163,13.948c-3.574,3.743-8.437,5.804-13.693,5.804h-25.833l-26.623,22.597
		c-0.236,0.199-0.528,0.301-0.82,0.301C468.839,77.565,468.835,77.565,468.832,77.565 M521.08,7.217
		c-0.362,0-0.727,0.011-1.095,0.035l-50.975,3.252c-4.518,0.288-8.367,2.277-10.84,5.599c-2.472,3.322-3.271,7.581-2.25,11.991
		l1.632,7.051c2.168,9.365,11.753,16.984,21.366,16.984h1.348c0.439,0,0.848,0.229,1.08,0.602c0.23,0.374,0.251,0.841,0.056,1.234
		l-8.658,17.355L495,52.431c0.23-0.195,0.521-0.303,0.821-0.303h26.3c4.556,0,8.767-1.782,11.856-5.019
		c3.09-3.236,4.675-7.525,4.464-12.076l-0.544-11.74C537.479,14.279,530.092,7.217,521.08,7.217"/>
</g>
<g>
	<path style="fill:#B2D6D4;" d="M769.166,10.562l-77.052-0.421c-6.854-0.037-12.868,5.103-13.363,11.421
		c-0.498,6.319-1.007,11.61-1.135,11.758c-0.126,0.147-3.273,3.813-6.994,8.144c-3.721,4.332-6.996,8.145-7.277,8.472
		c-0.282,0.329-0.19,0.399,0.205,0.158c0.397-0.242,4.059-2.534,8.139-5.095c4.081-2.56,8.31-5.214,9.402-5.9
		c1.089-0.683,3.521-0.06,5.402,1.388c1.882,1.445,9.03,2.557,15.886,2.468l64.357-0.836c6.854-0.089,12.888-5.636,13.405-12.329
		l0.544-6.995C781.206,16.104,776.02,10.598,769.166,10.562z"/>
</g>
<g>
	<defs>
		<rect id="SVGID_27_" x="532.106" y="25.737" width="219.473" height="234.379"/>
	</defs>
	<clipPath id="SVGID_28_">
		<use xlink:href="#SVGID_27_"  style="overflow:visible;"/>
	</clipPath>
	<path style="clip-path:url(#SVGID_28_);fill:#ABA137;" d="M541.23,118.76c15.469-29.148,55.088-54.411,88.043-56.136l38.873-2.033
		c32.955-1.725,65.168,23.35,71.586,55.719l10.664,53.8c6.418,32.37-13.932,67.435-45.221,77.924l-20.463,6.86
		c-31.289,10.488-77.33,1.43-102.314-20.128l-25.035-21.604c-24.984-21.558-32.77-63.048-17.301-92.198L541.23,118.76z"/>
	<path style="clip-path:url(#SVGID_28_);fill:#2E2014;" d="M575.385,154.311c-12.275,6.271-20.561,23.324-18.412,37.9
		c1.028,6.976,4.164,17.077,8.436,27.894l16.99,14.66c24.984,21.561,71.025,30.616,102.314,20.128l20.463-6.858
		c5.191-1.741,10.072-4.164,14.587-7.134c2.235-4.887,3.49-9.95,3.49-14.911c0-18.989-7.618-40.872-16.931-48.63
		c-9.311-7.759-12.248-21.004-6.527-29.438c5.721-8.432,10.402-24.584,10.402-35.893V78.127c0-7.336-5.868-15.091-13.04-17.232
		c-7.172-2.14-17.438-5.203-22.813-6.807c-5.376-1.604-16.535-10.82-24.798-20.482c-8.263-9.661-23.708-10.552-34.321-1.978
		c-10.613,8.575-28.941,23.379-40.729,32.899s-11.387,31.053,0.889,47.848S587.66,148.041,575.385,154.311"/>
	<rect x="637.225" y="142.912" style="clip-path:url(#SVGID_28_);fill:#FF9F54;" width="14.093" height="19.282"/>
	<path style="clip-path:url(#SVGID_28_);fill:#FFB073;" d="M609.748,80.112c0,0-7.398,68.694,35.58,68.694
		c42.977,0,36.637-68.694,36.637-68.694H609.748z"/>
	<path style="clip-path:url(#SVGID_28_);fill:#FFB073;" d="M681.703,101.885c0,0,11.782-5.409,9.994,7.908
		c-1.189,8.85-13.935,12.065-13.935,12.065L681.703,101.885z"/>
	<path style="clip-path:url(#SVGID_28_);fill:#EB9350;" d="M650.002,125.799h-11.587c-0.937,0,5.795-3.94,5.795-3.94
		C645.146,121.858,650.939,125.799,650.002,125.799"/>
	<path style="clip-path:url(#SVGID_28_);fill:#63452D;" d="M633.23,109.793c0,2.99-2.424,4.051-5.416,4.051
		c-2.988,0-5.416-1.061-5.416-4.051c0-2.991,2.428-5.417,5.416-5.417C630.807,104.376,633.23,106.802,633.23,109.793"/>
	<path style="clip-path:url(#SVGID_28_);fill:#63452D;" d="M615.792,108.736c0,0,4.906-6.377,12.192-4.346
		c5.69,1.585,8.24,5.533,8.24,5.533s-5.455-2.305-10.217-2.965C622.391,106.456,615.792,108.736,615.792,108.736"/>
	<path style="clip-path:url(#SVGID_28_);fill:#63452D;" d="M636.225,110.419c-0.064,0-0.13-0.013-0.193-0.038
		c-0.053-0.023-5.453-2.287-10.092-2.932c-0.322-0.045-0.689-0.067-1.088-0.067c-3.58,0-8.845,1.805-8.898,1.822
		c-0.205,0.07-0.436-0.001-0.562-0.178c-0.128-0.178-0.124-0.418,0.009-0.592c0.155-0.202,3.867-4.939,9.724-4.939
		c0.992,0,2,0.142,2.994,0.418c5.354,1.492,7.99,4.974,8.453,5.638c0.104,0.091,0.17,0.225,0.17,0.374
		c0,0.276-0.256,0.479-0.506,0.494C636.231,110.419,636.229,110.419,636.225,110.419 M624.852,106.391
		c0.443,0,0.855,0.025,1.225,0.077c3.114,0.433,6.475,1.539,8.494,2.28c-1.246-1.24-3.453-2.971-6.719-3.881
		c-0.908-0.252-1.826-0.381-2.729-0.381c-3.442,0-6.135,1.86-7.631,3.201C619.408,107.137,622.44,106.391,624.852,106.391"/>
	<path style="clip-path:url(#SVGID_28_);fill:#63452D;" d="M657.084,109.793c0,2.99,2.426,4.051,5.417,4.051
		s5.416-1.061,5.416-4.051c0-2.991-2.425-5.417-5.416-5.417S657.084,106.802,657.084,109.793"/>
	<path style="clip-path:url(#SVGID_28_);fill:#63452D;" d="M674.26,108.207c0,0-4.488-7.051-11.666-5.02
		c-5.605,1.585-8.236,6.736-8.236,6.736s6.061-2.904,10.751-3.566C668.673,105.856,674.26,108.207,674.26,108.207"/>
	<path style="clip-path:url(#SVGID_28_);fill:#63452D;" d="M654.357,110.416c-0.129,0-0.257-0.051-0.352-0.149
		c-0.147-0.149-0.183-0.378-0.086-0.565c0.11-0.22,2.794-5.362,8.54-6.986c0.905-0.257,1.818-0.386,2.714-0.386
		c5.486,0,8.9,4.722,9.433,5.511c0.101,0.09,0.165,0.221,0.165,0.367c0,0.274-0.225,0.483-0.502,0.492
		c-0.078,0.002-0.136-0.012-0.2-0.038c-0.045-0.02-4.514-1.882-7.882-1.882c-0.362,0-0.703,0.022-1.011,0.065
		c-4.56,0.642-10.547,3.494-10.607,3.523C654.503,110.399,654.43,110.416,654.357,110.416 M665.174,103.312
		c-0.806,0-1.628,0.118-2.446,0.35c-3.572,1.01-5.904,3.55-7.063,5.136c2.114-0.911,6.05-2.457,9.375-2.926
		c0.354-0.051,0.74-0.075,1.148-0.075c2.268,0,4.915,0.759,6.591,1.333C671.395,105.6,668.729,103.312,665.174,103.312"/>
	<path style="clip-path:url(#SVGID_28_);fill:#63452D;" d="M615.397,96.254c0,0,1.267-0.838,3.276-1.873
		c1.003-0.527,2.209-1.067,3.521-1.611c1.312-0.542,2.747-1.058,4.231-1.444c1.479-0.399,3.006-0.678,4.476-0.772
		c0.736-0.036,1.455-0.051,2.142,0.023c0.686,0.058,1.336,0.185,1.922,0.366c0.588,0.173,1.113,0.407,1.549,0.657
		c0.443,0.24,0.792,0.511,1.066,0.749c0.281,0.22,0.453,0.458,0.584,0.593c0.123,0.145,0.189,0.221,0.189,0.221
		c0.191,0.221,0.167,0.554-0.055,0.744c-0.172,0.151-0.416,0.168-0.605,0.06l-0.07-0.04c0,0-0.076-0.044-0.217-0.125
		c-0.15-0.069-0.326-0.224-0.602-0.34c-0.264-0.135-0.583-0.287-0.969-0.42c-0.383-0.133-0.818-0.271-1.316-0.358
		c-0.49-0.112-1.042-0.166-1.629-0.214c-0.588-0.038-1.221-0.038-1.877-0.013c-1.316,0.071-2.732,0.321-4.139,0.65
		c-1.403,0.339-2.801,0.756-4.096,1.207c-1.298,0.444-2.482,0.94-3.506,1.354c-1.02,0.419-1.855,0.804-2.439,1.075
		c-0.58,0.274-0.912,0.43-0.912,0.43l-0.006,0.003c-0.266,0.125-0.58,0.012-0.705-0.253
		C615.098,96.682,615.182,96.397,615.397,96.254"/>
	<path style="clip-path:url(#SVGID_28_);fill:#A35A21;" d="M631.875,132.986c-0.105,0-0.212-0.038-0.297-0.114
		c-0.184-0.164-0.198-0.446-0.034-0.628l2-2.224c0.164-0.184,0.445-0.198,0.628-0.033c0.184,0.164,0.198,0.444,0.034,0.628l-2,2.224
		C632.118,132.937,631.997,132.986,631.875,132.986"/>
	<path style="clip-path:url(#SVGID_28_);fill:#A35A21;" d="M656.666,132.096c-0.108,0-0.218-0.04-0.304-0.121l-1.778-1.668
		c-0.179-0.168-0.188-0.449-0.02-0.628c0.168-0.18,0.449-0.188,0.629-0.021l1.776,1.668c0.18,0.168,0.188,0.449,0.021,0.628
		C656.903,132.049,656.785,132.096,656.666,132.096"/>
	<path style="clip-path:url(#SVGID_28_);fill:#A35A21;" d="M633.265,131.305c0,0,0.082,0.041,0.233,0.116
		c0.16,0.073,0.394,0.178,0.691,0.312c0.596,0.263,1.456,0.61,2.496,0.961c1.045,0.341,2.268,0.677,3.592,0.918
		c0.66,0.129,1.351,0.196,2.048,0.271c0.349,0.025,0.701,0.05,1.055,0.074l1.005,0.028l1.139-0.038
		c0.322-0.04,0.644-0.079,0.962-0.118c0.675-0.125,1.348-0.234,1.992-0.416c0.642-0.185,1.27-0.363,1.858-0.572
		c0.586-0.215,1.145-0.424,1.658-0.634c1.021-0.426,1.873-0.822,2.464-1.11c0.588-0.291,0.924-0.457,0.924-0.457l0.017-0.008
		c0.224-0.11,0.496-0.018,0.606,0.206c0.081,0.164,0.054,0.354-0.054,0.487c0,0-0.263,0.318-0.764,0.805
		c-0.503,0.483-1.255,1.142-2.253,1.811c-0.993,0.677-2.234,1.369-3.68,1.903c-0.725,0.258-1.491,0.505-2.301,0.657
		c-0.415,0.076-0.86,0.128-1.293,0.188l-1.154,0.072l-1.288-0.046c-0.408-0.02-0.811-0.087-1.212-0.129
		c-0.8-0.107-1.574-0.29-2.312-0.491c-1.474-0.412-2.781-0.998-3.826-1.606c-2.114-1.208-3.164-2.493-3.164-2.493
		c-0.158-0.194-0.129-0.48,0.064-0.639c0.143-0.116,0.336-0.133,0.489-0.056L633.265,131.305z"/>
	<path style="clip-path:url(#SVGID_28_);fill:#2E2014;" d="M608.015,80.112c0,0,32.431,26.262,73.689,21.772
		c16.947-1.845,0.591-27.057,0.591-27.057L608.015,80.112z"/>
	<path style="clip-path:url(#SVGID_28_);fill:#FFB073;" d="M602.104,100.797c0,0-6.035,6.564,2.458,13.047
		C603.668,106.467,602.104,100.797,602.104,100.797"/>
	<path style="clip-path:url(#SVGID_28_);fill:#FCC044;" d="M680.15,257.113c-1.484-10.475-3.838-28.268-5.229-43.41
		c-1.732-18.86-1.955-43.059-5.022-46.576c-7.134-8.191-18.582,6.076-18.582-10.04h-14.093c0,16.116-11.448,1.849-18.582,10.04
		c-3.377,3.878-3.26,25.334-5.02,45.973c-1.248,14.62-3.177,29.744-4.416,38.197C631.729,260.186,658.746,262.787,680.15,257.113"/>
	<path style="clip-path:url(#SVGID_28_);fill:#C79736;" d="M620.9,254.955c-0.02,0-0.039-0.002-0.058-0.004
		c-0.319-0.03-0.553-0.314-0.522-0.635c0.023-0.234,2.308-23.669,2.568-33.835c0.117-4.603-0.773-8.364-1.488-11.386
		c-0.887-3.743-1.588-6.699,0.217-9.034c2.707-3.502,3.727-13.757,3.835-14.913l-0.938-3.24c-0.089-0.309,0.09-0.631,0.397-0.72
		c0.307-0.09,0.631,0.088,0.719,0.396l0.999,3.448l-0.01,0.107c-0.04,0.475-1.018,11.667-4.082,15.632
		c-1.465,1.896-0.854,4.48-0.006,8.055c0.73,3.088,1.641,6.931,1.519,11.685c-0.261,10.207-2.549,33.683-2.571,33.918
		C621.447,254.73,621.195,254.955,620.9,254.955"/>
	<path style="clip-path:url(#SVGID_28_);fill:#C79736;" d="M626.04,185.673c-0.138,0-0.276-0.049-0.388-0.147
		c-0.239-0.214-0.26-0.582-0.045-0.821l1.496-1.672c0.215-0.239,0.582-0.258,0.822-0.045c0.238,0.214,0.258,0.581,0.045,0.821
		l-1.498,1.672C626.357,185.608,626.199,185.673,626.04,185.673"/>
	<path style="clip-path:url(#SVGID_28_);fill:#C79736;" d="M666.819,259.259c-0.3,0-0.555-0.229-0.579-0.532
		c-0.023-0.279-2.311-28.012-2.571-38.216c-0.122-4.754,0.788-8.596,1.519-11.684c0.848-3.575,1.459-6.158-0.006-8.054
		c-3.064-3.966-4.042-15.157-4.082-15.632l-0.01-0.107l0.999-3.449c0.089-0.309,0.41-0.486,0.719-0.396
		c0.309,0.089,0.486,0.411,0.397,0.72l-0.938,3.241c0.108,1.156,1.128,11.411,3.835,14.913c1.805,2.335,1.104,5.291,0.218,9.034
		c-0.717,3.021-1.606,6.781-1.488,11.385c0.26,10.171,2.545,37.87,2.568,38.148c0.025,0.32-0.213,0.602-0.532,0.627
		C666.851,259.259,666.835,259.259,666.819,259.259"/>
	<path style="clip-path:url(#SVGID_28_);fill:#C79736;" d="M661.679,185.673c-0.159,0-0.318-0.064-0.433-0.192l-1.497-1.672
		c-0.214-0.24-0.194-0.607,0.045-0.821c0.239-0.213,0.606-0.194,0.821,0.045l1.497,1.672c0.214,0.239,0.193,0.607-0.046,0.821
		C661.956,185.624,661.816,185.673,661.679,185.673"/>
</g>
<g>
	<defs>
		<rect id="SVGID_29_" x="1003.7" y="5.033" width="204.799" height="245.303"/>
	</defs>
	<clipPath id="SVGID_30_">
		<use xlink:href="#SVGID_29_"  style="overflow:visible;"/>
	</clipPath>
	<path style="clip-path:url(#SVGID_30_);fill:#FFDA52;" d="M1196.671,188.271c-3.814,32.625-33.803,60.027-66.639,60.895
		l-43.631,1.148c-32.835,0.865-64.3-24.904-69.919-57.27l-11.903-68.543c-5.621-32.363,16.336-62.98,48.793-68.038l102.645-15.994
		c32.457-5.057,55.891,17.498,52.074,50.123L1196.671,188.271z"/>
	<path style="clip-path:url(#SVGID_30_);fill:#A89A3C;" d="M1144.095,160.16c-4.695-4.457-13.936-8.105-20.537-8.105h-31.592
		c-6.601,0-16.062,3.42-21.026,7.602l-15.325,8.902c-4.964,4.182-9.027,12.793-9.027,19.137v50.457
		c11.693,7.941,25.604,12.537,39.776,12.162l43.63-1.148c12.58-0.332,24.734-4.568,35.166-11.488v-49.982
		c0-6.344-3.842-15.182-8.537-19.641L1144.095,160.16z"/>
	<path style="clip-path:url(#SVGID_30_);fill:#7A702C;" d="M1097.925,164.594l-13.473-11.061c-0.26-0.215-0.299-0.6-0.084-0.861
		c0.214-0.262,0.601-0.299,0.861-0.084l12.584,10.33l8.057-8.662l8.225,8.688l14.602-10.703c0.273-0.201,0.656-0.143,0.855,0.131
		s0.141,0.656-0.133,0.855l-15.471,11.342l-8.07-8.523L1097.925,164.594z"/>
	<path style="clip-path:url(#SVGID_30_);fill:#7A702C;" d="M1143.993,246.996c-0.324,0-0.596-0.254-0.611-0.582l-2.633-50.904
		l-3.289-5.531c-0.172-0.291-0.078-0.668,0.213-0.84s0.666-0.078,0.84,0.213l3.443,5.791l2.648,51.209
		c0.018,0.338-0.242,0.625-0.58,0.643C1144.013,246.994,1144.003,246.996,1143.993,246.996"/>
	<path style="clip-path:url(#SVGID_30_);fill:#7A702C;" d="M1141.353,195.938c-0.059,0-0.117-0.008-0.178-0.025
		c-0.322-0.098-0.506-0.439-0.408-0.764l1.701-5.66c0.098-0.324,0.441-0.508,0.764-0.408c0.322,0.096,0.506,0.438,0.408,0.762
		l-1.701,5.66C1141.858,195.768,1141.616,195.938,1141.353,195.938"/>
	<path style="clip-path:url(#SVGID_30_);fill:#7A702C;" d="M1068.326,247.996c-0.01,0-0.021-0.002-0.03-0.002
		c-0.338-0.016-0.599-0.305-0.582-0.641l2.649-52.211l3.442-5.791c0.174-0.291,0.55-0.385,0.84-0.213
		c0.291,0.172,0.386,0.549,0.213,0.84l-3.288,5.531l-2.633,51.904C1068.921,247.742,1068.65,247.996,1068.326,247.996"/>
	<path style="clip-path:url(#SVGID_30_);fill:#7A702C;" d="M1070.966,195.938c-0.264,0-0.506-0.17-0.585-0.436l-1.703-5.66
		c-0.097-0.324,0.086-0.666,0.41-0.762c0.323-0.1,0.665,0.084,0.763,0.408l1.701,5.66c0.098,0.324-0.085,0.666-0.408,0.764
		C1071.084,195.93,1071.024,195.938,1070.966,195.938"/>
	<path style="clip-path:url(#SVGID_30_);fill:#7A702C;" d="M1105.599,249.422h-0.002c-0.338-0.002-0.61-0.275-0.609-0.613
		l0.275-93.66c0-0.338,0.273-0.611,0.611-0.611h0.002c0.338,0.002,0.611,0.277,0.609,0.615l-0.273,93.66
		C1106.21,249.148,1105.937,249.422,1105.599,249.422"/>
	<path style="clip-path:url(#SVGID_30_);fill:#FFB073;" d="M1149.96,111.287c0,13.533-11.074,24.607-24.607,24.607h-36.464
		c-13.534,0-24.609-11.074-24.609-24.607v-49.46c0-13.534,11.075-24.608,24.609-24.608h36.464c13.533,0,24.607,11.074,24.607,24.608
		V111.287z"/>
	<path style="clip-path:url(#SVGID_30_);fill:#944800;" d="M1097.993,64.58c0.148,2.078-1.416,3.885-3.494,4.033l-16.28,1.164
		c-2.079,0.15-3.886-1.415-4.034-3.493c-0.148-2.08,1.416-3.886,3.495-4.035l16.28-1.165
		C1096.038,60.935,1097.846,62.5,1097.993,64.58"/>
	<path style="clip-path:url(#SVGID_30_);fill:#EB9350;" d="M1113.179,102.563c0,1.43-1.16,2.589-2.59,2.589h-7.676
		c-1.429,0-2.589-1.159-2.589-2.589c0-1.431,1.16-2.591,2.589-2.591h7.676C1112.019,99.972,1113.179,101.132,1113.179,102.563"/>
	<path style="clip-path:url(#SVGID_30_);fill:#E68D4A;" d="M1067.87,93.55c0,2.747,0.502,3.614-2.244,3.614
		c-2.745,0-4.973-2.226-4.973-4.973v-7.498c0-2.747,2.228-4.973,4.973-4.973c2.746,0,1.966,2.608,1.966,5.355L1067.87,93.55z"/>
	<path style="clip-path:url(#SVGID_30_);fill:#E68D4A;" d="M1146.688,84.302c0-2.746-0.928-4.582,1.818-4.582
		c2.748,0,4.973,2.227,4.973,4.974v7.497c0,2.747-2.225,4.973-4.973,4.973c-2.746,0-1.963-2.608-1.963-5.356L1146.688,84.302z"/>
	<path style="clip-path:url(#SVGID_30_);fill:#944800;" d="M1076.979,84.126c-0.319,0-0.633-0.152-0.826-0.435
		c-0.312-0.456-0.195-1.078,0.26-1.39c0.852-0.583,8.43-5.694,12.27-5.694c4.039,0,8.238,4.591,8.416,4.787
		c0.371,0.409,0.338,1.041-0.07,1.411c-0.408,0.37-1.04,0.341-1.412-0.069c-1.042-1.149-4.319-4.129-6.934-4.129
		c-2.733,0-8.969,3.858-11.14,5.344C1077.37,84.069,1077.173,84.126,1076.979,84.126"/>
	<path style="clip-path:url(#SVGID_30_);fill:#944800;" d="M1094.067,83.895c0,3.417-2.771,3.352-6.188,3.352
		c-3.416,0-6.188,0.065-6.188-3.352s2.772-6.188,6.188-6.188C1091.296,77.707,1094.067,80.478,1094.067,83.895"/>
	<path style="clip-path:url(#SVGID_30_);fill:#944800;" d="M1116.323,64.58c-0.148,2.078,1.416,3.885,3.494,4.033l16.281,1.164
		c2.078,0.15,3.885-1.415,4.033-3.493c0.148-2.08-1.416-3.886-3.494-4.035l-16.281-1.165
		C1118.278,60.935,1116.472,62.5,1116.323,64.58"/>
	<path style="clip-path:url(#SVGID_30_);fill:#944800;" d="M1137.337,84.126c-0.193,0-0.391-0.057-0.562-0.175
		c-2.174-1.486-8.408-5.344-11.141-5.344c-2.623,0-5.895,2.98-6.932,4.128c-0.371,0.41-1.004,0.441-1.414,0.071
		c-0.408-0.371-0.441-1.003-0.07-1.412c0.178-0.196,4.377-4.787,8.416-4.787c3.84,0,11.418,5.111,12.27,5.694
		c0.455,0.312,0.572,0.934,0.26,1.39C1137.97,83.974,1137.657,84.126,1137.337,84.126"/>
	<path style="clip-path:url(#SVGID_30_);fill:#944800;" d="M1120.249,83.895c0,3.417,2.773,3.352,6.189,3.352
		s6.188,0.065,6.188-3.352s-2.771-6.188-6.188-6.188S1120.249,80.478,1120.249,83.895"/>
	<path style="clip-path:url(#SVGID_30_);fill:#944800;" d="M1149.96,38.554c0-2.75-1.213-6.896-2.693-9.212l-6.197-9.685
		c-1.482-2.316-4.914-3.844-7.627-3.395l-4.391,0.725c-2.713,0.45-4.197-1.309-3.295-3.908l1.664-4.801
		c0.9-2.598-0.459-3.908-3.023-2.911l-26.334,10.248c-2.562,0.997-3.479-0.102-2.037-2.443l0.428-0.692
		c1.441-2.342,0.752-3.006-1.533-1.477l-26.411,16.501c-2.327,1.468-4.229,4.918-4.229,7.668v79.8c0,2.75,0.194,7.24,0.435,9.98
		c0,0,0.513,5.9,2.409,10.623c1.895,4.723,4.736,8.875,8.523,12.186c3.166,2.768,6.992,4.943,11.479,6.371
		c3.91,1.246,8.249,1.561,8.249,1.561c2.743,0.199,7.237,0.361,9.987,0.361h3.518c2.75,0,7.236-0.234,9.973-0.52
		c0,0,5.846-0.609,10.303-2.586c5.053-2.242,9.262-5.572,12.543-9.582c3.154-3.854,5.449-8.336,6.809-13.08
		c0.959-3.35,1.1-5.328,1.1-5.328c0.195-2.742,0.354-7.236,0.354-9.986V38.554z M1143.993,87.21c0,2.75-0.057,7.249-0.127,9.998
		c0,0-0.43,16.944-11.053,16.944c-4.082,0-10.195-5-26.195-5c-15.5,0-20.471,5-25.19,5c-10.56,0-11.039-16.944-11.039-16.944
		c-0.078-2.749-0.142-7.248-0.142-9.998V59.159c0-2.75,0.011-5.221,0.021-5.492c0.011-0.271,0.083-1.066,0.095-1.174
		c0.013-0.108,0.025-0.209,0.027-0.224c0.003-0.017,1.588-1.663,3.516-3.623l0.506-0.522c1.931-1.959,5.244-2.128,7.365-0.376
		l6.914,5.711c2.119,1.752,2.705,1.25,1.301-1.115l-3.209-5.406c-1.403-2.366-0.42-3.583,2.188-2.708l19.468,6.539
		c2.607,0.875,4.74-0.659,4.74-3.409v-0.609c0-2.75,2.152-4.348,4.785-3.551l21.242,6.43c2.633,0.797,4.787,3.699,4.787,6.449v2.647
		v10V87.21z"/>
	<path style="clip-path:url(#SVGID_30_);fill:#4D270F;" d="M1094.778,119.754c2.19,2.441,6.638,6.02,11.986,6.02
		c5.35,0,9.785-3.578,11.967-6.02H1094.778z"/>
	<path style="clip-path:url(#SVGID_30_);fill:#D6C5B8;" d="M1118.528,116.07h-23.555c-0.92,0-1.666,0.689-1.666,1.541
		c0,0.256,0.534,1.098,1.471,2.145h23.953c0.934-1.047,1.463-1.889,1.463-2.145C1120.194,116.76,1119.448,116.07,1118.528,116.07"/>
	<path style="clip-path:url(#SVGID_30_);fill:#7A702C;" d="M1133.202,216.955h-18c-0.322,0-0.584-0.262-0.584-0.584v-18.893
		c0-0.32,0.262-0.584,0.584-0.584h18c0.322,0,0.584,0.264,0.584,0.584v18.893C1133.786,216.693,1133.524,216.955,1133.202,216.955
		 M1115.786,215.787h16.832v-17.725h-16.832V215.787z"/>
	<path style="clip-path:url(#SVGID_30_);fill:#7A702C;" d="M1133.202,205.471h-18c-0.322,0-0.584-0.26-0.584-0.584
		c0-0.322,0.262-0.582,0.584-0.582h18c0.322,0,0.584,0.26,0.584,0.582C1133.786,205.211,1133.524,205.471,1133.202,205.471"/>
	<path style="clip-path:url(#SVGID_30_);fill:#7A702C;" d="M1125.702,201.555c0,0.553-0.449,1-1,1c-0.553,0-1-0.447-1-1s0.447-1,1-1
		C1125.253,200.555,1125.702,201.002,1125.702,201.555"/>
	<path style="clip-path:url(#SVGID_30_);fill:#7A702C;" d="M1096.202,216.955h-18c-0.322,0-0.584-0.262-0.584-0.584v-18.893
		c0-0.32,0.262-0.584,0.584-0.584h18c0.322,0,0.584,0.264,0.584,0.584v18.893C1096.786,216.693,1096.524,216.955,1096.202,216.955
		 M1078.786,215.787h16.832v-17.725h-16.832V215.787z"/>
	<path style="clip-path:url(#SVGID_30_);fill:#7A702C;" d="M1096.202,205.471h-18c-0.322,0-0.584-0.26-0.584-0.584
		c0-0.322,0.262-0.582,0.584-0.582h18c0.322,0,0.582,0.26,0.582,0.582C1096.784,205.211,1096.524,205.471,1096.202,205.471"/>
	<path style="clip-path:url(#SVGID_30_);fill:#7A702C;" d="M1088.036,201.555c0,0.553-0.448,1-1,1c-0.553,0-1-0.447-1-1s0.447-1,1-1
		C1087.588,200.555,1088.036,201.002,1088.036,201.555"/>
</g>
<g>
	<g>
		<path style="fill:#382D07;" d="M29.161,55.178c-0.141-0.161-0.237-0.277-0.291-0.347c-0.375-0.491-0.801-1.348-1.275-2.569
			l-0.062-0.173c0.726-0.228,1.145-0.502,1.256-0.823c0.021-0.054,0.031-0.105,0.031-0.155c0-0.103-0.042-0.202-0.124-0.297
			c-0.157-0.182-0.374-0.272-0.65-0.272c-0.111,0-0.274,0.021-0.489,0.062c-0.107,0.021-0.188,0.033-0.242,0.037
			c-0.037,0.004-0.072,0.006-0.105,0.006c-0.107,0-0.184-0.024-0.229-0.074c-0.062-0.058-0.122-0.198-0.18-0.421
			c-0.029-0.107-0.054-0.189-0.074-0.247c-0.33-1.008-0.596-2.163-0.798-3.467c-0.173-1.105-0.722-1.658-1.646-1.658
			c-0.466,0.008-0.896,0.36-1.288,1.058c-0.223,0.393-0.479,1.009-0.768,1.851c-0.086,0.244-0.145,0.404-0.173,0.483
			c-0.726,1.853-1.407,2.88-2.042,3.082c-0.367,0.12-0.638,0.246-0.811,0.378c-0.202,0.161-0.371,0.404-0.507,0.73
			c-0.037,0.082-0.056,0.156-0.056,0.223c0,0.058,0.015,0.109,0.043,0.154c0.062,0.091,0.171,0.137,0.328,0.137
			c0.066,0,0.173-0.011,0.322-0.031c0.148-0.021,0.254-0.031,0.315-0.031c0.099,0,0.151,0.02,0.155,0.057v0.012
			c0,0.115-0.169,0.493-0.507,1.133c-0.512,0.978-0.768,1.646-0.768,2.006c0,0.065,0.008,0.121,0.025,0.167
			c0.041,0.119,0.119,0.204,0.235,0.254c0.074,0.028,0.153,0.043,0.235,0.043c0.313,0,0.685-0.271,1.114-0.811
			c0.255-0.326,0.92-1.379,1.993-3.157c0.954-0.182,1.673-0.278,2.161-0.291c0.049,0,0.138-0.004,0.266-0.012
			c0.181-0.013,0.322-0.019,0.421-0.019c0.487,0,0.796,0.123,0.928,0.371c0.145,0.272,0.349,0.701,0.613,1.287
			c0.244,0.545,0.433,0.947,0.569,1.207c0.165,0.313,0.436,0.716,0.811,1.207c0.61,0.792,1.102,1.188,1.473,1.188
			c0.214,0,0.377-0.117,0.489-0.353c0.07-0.148,0.105-0.302,0.105-0.458c0-0.19-0.05-0.384-0.149-0.582
			C29.709,55.844,29.491,55.549,29.161,55.178z M23.807,50.615c-0.425,0.1-0.735,0.163-0.929,0.192
			c0.058-0.148,0.161-0.432,0.31-0.849c0.462-1.291,0.805-2.141,1.027-2.55c0.207,0.339,0.427,1.127,0.663,2.364
			c0.058,0.289,0.099,0.496,0.124,0.619C24.75,50.413,24.351,50.487,23.807,50.615z M43.638,50.795c0-0.124-0.194-0.215-0.582-0.272
			c-0.454-0.062-1.357-0.115-2.711-0.161c-0.396-0.012-0.627-0.021-0.693-0.024c-0.045-0.017-0.076-0.132-0.093-0.347
			c-0.004-0.07-0.006-0.143-0.006-0.217c0-0.227,0.023-0.484,0.068-0.773c0.083-0.479,0.204-0.887,0.365-1.226
			c0.182-0.38,0.375-0.569,0.582-0.569c0.351,0,0.729,0.499,1.133,1.498c0.049,0.124,0.099,0.284,0.148,0.482
			c0.058,0.228,0.122,0.378,0.192,0.452c0.111,0.12,0.308,0.18,0.588,0.18c0.359,0,0.609-0.097,0.749-0.291
			c0.083-0.115,0.124-0.269,0.124-0.458c0-0.215-0.054-0.479-0.161-0.793c-0.293-0.796-0.718-1.41-1.275-1.844
			c-0.562-0.438-1.203-0.656-1.925-0.656h-0.093c-0.974,0-1.63,0.565-1.968,1.695c-0.194,0.645-0.291,1.62-0.291,2.928
			c-0.066,0.025-0.271,0.068-0.613,0.131c-0.069,0.012-0.12,0.025-0.182,0.037c-0.067-0.016-0.141-0.031-0.227-0.044
			c-0.454-0.062-1.357-0.115-2.711-0.161c-0.396-0.012-0.627-0.021-0.693-0.024c-0.045-0.017-0.077-0.132-0.093-0.347
			c-0.004-0.07-0.006-0.143-0.006-0.217c0-0.227,0.022-0.484,0.068-0.773c0.083-0.479,0.204-0.887,0.365-1.226
			c0.182-0.38,0.375-0.569,0.582-0.569c0.351,0,0.729,0.499,1.133,1.498c0.049,0.124,0.099,0.284,0.148,0.482
			c0.058,0.228,0.122,0.378,0.192,0.452c0.111,0.12,0.307,0.18,0.588,0.18c0.359,0,0.609-0.097,0.749-0.291
			c0.083-0.115,0.124-0.269,0.124-0.458c0-0.215-0.054-0.479-0.161-0.793c-0.293-0.796-0.718-1.41-1.275-1.844
			c-0.562-0.438-1.203-0.656-1.925-0.656h-0.093c-0.974,0-1.63,0.565-1.968,1.695c-0.194,0.645-0.291,1.62-0.291,2.928
			c-0.066,0.025-0.27,0.068-0.613,0.131c-0.689,0.123-1.046,0.252-1.071,0.384c-0.062,0.115-0.093,0.227-0.093,0.334
			c0,0.082,0.019,0.165,0.056,0.247c0.124,0.269,0.374,0.436,0.749,0.502c0.079,0.017,0.202,0.031,0.372,0.043
			c0.272,0.021,0.458,0.052,0.557,0.093c0.14,0.062,0.221,0.174,0.241,0.335c0.066,0.441,0.126,1.118,0.18,2.029
			c0.041,0.702,0.083,1.23,0.124,1.585l0.006,0.105c0.074,0.784,0.262,1.188,0.563,1.213c0.066,0.037,0.136,0.056,0.21,0.056
			c0.231,0,0.466-0.143,0.706-0.427c0.198-0.231,0.297-0.423,0.297-0.576c0-0.017-0.002-0.032-0.006-0.049
			c-0.024-0.137-0.058-0.324-0.099-0.563c-0.07-0.393-0.12-0.734-0.148-1.027c-0.083-0.805-0.163-1.744-0.241-2.816
			c0.161-0.054,0.408-0.081,0.743-0.081c0.066,0,0.136,0.003,0.21,0.007c0.083,0,0.188,0.002,0.315,0.006h0.322
			c0.186,0.004,0.33,0.006,0.433,0.006c0.454,0,0.793-0.039,1.066-0.101c0.12,0.075,0.262,0.132,0.438,0.164
			c0.079,0.017,0.202,0.031,0.372,0.043c0.272,0.021,0.458,0.052,0.557,0.093c0.14,0.062,0.221,0.174,0.241,0.335
			c0.066,0.441,0.126,1.118,0.18,2.029c0.041,0.702,0.083,1.23,0.124,1.585l0.006,0.105c0.074,0.784,0.262,1.188,0.563,1.213
			c0.066,0.037,0.136,0.056,0.211,0.056c0.231,0,0.466-0.143,0.706-0.427c0.198-0.231,0.297-0.423,0.297-0.576
			c0-0.017-0.002-0.032-0.006-0.049c-0.024-0.137-0.058-0.324-0.099-0.563c-0.07-0.393-0.12-0.734-0.149-1.027
			c-0.083-0.805-0.163-1.744-0.241-2.816c0.161-0.054,0.409-0.081,0.743-0.081c0.066,0,0.136,0.003,0.21,0.007
			c0.083,0,0.188,0.002,0.316,0.006h0.322c0.186,0.004,0.33,0.006,0.433,0.006c0.561,0,0.984-0.047,1.269-0.142
			C43.382,51.618,43.638,51.286,43.638,50.795z M46.089,50.863h-0.111c-0.846,0-1.541,0.271-2.086,0.811
			c-0.549,0.537-0.856,1.257-0.922,2.16c-0.013,0.174-0.019,0.343-0.019,0.508c0,0.656,0.105,1.236,0.315,1.739
			c0.313,0.743,0.819,1.183,1.517,1.318c0.182,0.037,0.359,0.056,0.532,0.056c0.883,0,1.609-0.421,2.179-1.263
			c0.503-0.755,0.755-1.622,0.755-2.6c0-0.829-0.196-1.491-0.588-1.987C47.269,51.11,46.745,50.863,46.089,50.863z M46.64,53.989
			c-0.033,0.491-0.182,0.894-0.446,1.207c-0.256,0.305-0.497,0.458-0.724,0.458c-0.202,0-0.375-0.122-0.52-0.365
			c-0.157-0.26-0.239-0.578-0.248-0.953v-0.087c0-0.335,0.068-0.632,0.204-0.892c0.025-0.193,0.145-0.388,0.359-0.582
			c0.223-0.206,0.441-0.309,0.656-0.309c0.182,0,0.328,0.086,0.439,0.26c0.19,0.301,0.285,0.658,0.285,1.07
			C46.646,53.859,46.644,53.923,46.64,53.989z M54.123,50.665h-0.012c-0.652,0-1.327,0.386-2.024,1.157
			c-0.611,0.677-1,1.327-1.17,1.95c-0.066-1.027-0.326-1.682-0.78-1.962c-0.095-0.059-0.19-0.087-0.285-0.087
			c-0.087,0-0.171,0.026-0.254,0.08c-0.173,0.124-0.299,0.354-0.377,0.688c0,0.821,0.095,1.665,0.285,2.531
			c0.235,1.085,0.561,1.817,0.978,2.197c0.169,0.153,0.324,0.229,0.464,0.229c0.326,0,0.576-0.402,0.749-1.207
			c0.239-1.098,0.673-2.057,1.3-2.879c0.57-0.75,1.279-1.343,2.129-1.776c0.017-0.049,0.025-0.097,0.025-0.142
			c0-0.182-0.107-0.354-0.322-0.514C54.589,50.754,54.354,50.665,54.123,50.665z M61.216,52.819
			c-0.115-0.495-0.173-1.224-0.173-2.186c0-0.148,0.002-0.303,0.006-0.464c0.004-0.289,0.006-0.504,0.006-0.644v-0.365
			c0-1.057-0.033-1.802-0.099-2.234c-0.029-0.198-0.093-0.395-0.192-0.588c-0.12-0.228-0.248-0.347-0.384-0.359
			c-0.045-0.004-0.091-0.006-0.136-0.006c-0.281,0-0.505,0.089-0.674,0.266c-0.248,0.256-0.372,0.786-0.372,1.591
			c0,0.128,0.004,0.262,0.012,0.402l0.006,0.062c0.004,0.127,0.006,0.297,0.006,0.507c0,0.281-0.004,0.634-0.013,1.059
			c-0.008,0.339-0.012,0.644-0.012,0.916c0,0.541,0.014,0.947,0.043,1.22c0,0.173-0.357,0.402-1.071,0.687
			c-0.289,0.116-0.475,0.2-0.557,0.254c-1.547,1.053-2.321,2.177-2.321,3.374c0,0.189,0.019,0.379,0.056,0.569
			c0,0.384,0.322,0.575,0.966,0.575c0.454,0,0.951-0.074,1.492-0.223c1.164-0.318,1.945-0.906,2.346-1.764
			c0.062,0.082,0.167,0.241,0.316,0.477c0.606,0.965,1.089,1.448,1.448,1.448c0.297,0,0.555-0.235,0.773-0.706
			c0.033-0.074,0.05-0.152,0.05-0.235c0-0.268-0.169-0.596-0.508-0.983C61.736,54.507,61.398,53.624,61.216,52.819z M58.524,55.196
			c-0.367,0.399-0.732,0.6-1.095,0.6l-0.167-0.019c-0.066-0.082-0.099-0.171-0.099-0.266c0-0.041,0.006-0.083,0.019-0.124
			c0.07-0.247,0.331-0.514,0.78-0.798c0.363-0.235,0.753-0.428,1.17-0.576C59.077,54.414,58.875,54.809,58.524,55.196z
			 M70.018,55.152c-0.111-0.247-0.223-0.653-0.334-1.219c-0.033-0.17-0.056-0.276-0.068-0.322c-0.012-0.058-0.033-0.213-0.062-0.464
			c-0.091-0.723-0.188-1.251-0.291-1.585c-0.178-0.594-0.423-0.892-0.737-0.892h-0.062c-0.776,0-1.923,0.617-3.442,1.851
			c-1.184,1.358-1.776,2.503-1.776,3.436c0.025,0.463,0.169,0.828,0.434,1.096c0.26,0.269,0.6,0.402,1.021,0.402
			c0.145,0,0.295-0.017,0.452-0.05c0.536-0.115,1.05-0.441,1.541-0.978c0.285-0.313,0.65-0.823,1.096-1.529
			c0.074-0.115,0.13-0.202,0.167-0.26c0.165,0.211,0.334,0.597,0.508,1.157c0.227,0.719,0.477,1.201,0.749,1.449
			c0.132,0.123,0.297,0.186,0.496,0.186c0.239,0,0.466-0.079,0.681-0.235c0.219-0.157,0.347-0.336,0.384-0.539
			c0-0.268-0.149-0.608-0.446-1.021C70.171,55.421,70.068,55.26,70.018,55.152z M66.527,54.403
			c-0.466,0.681-0.912,1.081-1.337,1.201c0.045-0.269,0.208-0.666,0.489-1.194c0.305-0.565,0.611-1.018,0.916-1.355
			c0.239-0.261,0.427-0.391,0.563-0.391c0.033,0,0.062,0.009,0.086,0.025C67.225,53.168,66.985,53.739,66.527,54.403z
			 M77.681,51.266c-0.561-0.095-1.062-0.143-1.504-0.143c-0.301,0-0.574,0.022-0.817,0.068c-0.796,0.145-1.448,0.523-1.956,1.139
			c-0.136-0.553-0.204-1.203-0.204-1.949c0-0.487,0.029-1.016,0.086-1.585c0.008-0.066,0.066-0.276,0.173-0.632
			c0.124-0.404,0.21-0.722,0.26-0.953c0.049-0.234,0.074-0.438,0.074-0.606c0-0.429-0.157-0.644-0.471-0.644h-0.074
			c-0.937,0-1.455,1.343-1.554,4.029c-0.012,0.318-0.019,0.677-0.019,1.077c0,0.623,0.015,1.346,0.043,2.166
			c0.037,1.103,0.056,1.818,0.056,2.148v0.142c-0.004,0.055-0.006,0.105-0.006,0.155c0,0.619,0.214,1.087,0.644,1.405
			c0.338,0.247,0.753,0.371,1.244,0.371c0.14,0,0.287-0.01,0.439-0.031c0.751-0.099,1.467-0.392,2.148-0.879
			c0.644-0.462,1.167-1.035,1.572-1.721c0.33-0.545,0.532-1.207,0.606-1.986c0.012-0.128,0.019-0.248,0.019-0.359
			C78.442,51.752,78.188,51.348,77.681,51.266z M76.579,53.939c-0.165,0.4-0.347,0.695-0.544,0.885
			c-0.491,0.479-1.275,0.803-2.352,0.972c0.008-0.97,0.258-1.714,0.749-2.234c0.409-0.441,0.939-0.662,1.591-0.662
			c0.19,0,0.39,0.019,0.601,0.056c0.078,0.083,0.118,0.196,0.118,0.341C76.74,53.469,76.687,53.684,76.579,53.939z M81.259,51.24
			c0-0.317,0.008-0.633,0.024-0.946c0.004-0.058,0.017-0.213,0.037-0.465c0.066-0.775,0.099-1.444,0.099-2.005
			c0-1.086-0.124-1.764-0.372-2.036c-0.103-0.112-0.233-0.168-0.39-0.168c-0.293,0-0.586,0.091-0.879,0.272l-0.043,0.025
			l-0.006,0.049c-0.157,1.527-0.235,3.087-0.235,4.68v0.378c0,0.705,0.029,1.398,0.086,2.079c0.013,0.104,0.027,0.318,0.043,0.645
			c0.103,2.034,0.39,3.199,0.86,3.497c0.219,0.14,0.413,0.21,0.582,0.21c0.169,0,0.31-0.066,0.421-0.198
			c0.178-0.21,0.267-0.514,0.267-0.909c0-0.198-0.023-0.419-0.068-0.663C81.401,54.138,81.259,52.656,81.259,51.24z M90.215,53.357
			c-0.153,0-0.38,0.111-0.681,0.334c-0.169,0.129-0.578,0.57-1.226,1.325c-0.483,0.569-0.966,0.907-1.448,1.015
			c-0.116,0.025-0.227,0.037-0.334,0.037c-0.375,0-0.708-0.156-0.997-0.47c-0.136-0.149-0.208-0.267-0.217-0.354v-0.012
			c0-0.07,0.043-0.128,0.13-0.174c0.037-0.017,0.148-0.058,0.334-0.124c0.165-0.058,0.297-0.119,0.396-0.186
			c0.607-0.396,0.91-0.918,0.91-1.565c0-0.219-0.035-0.454-0.105-0.706c-0.268-0.557-0.592-0.976-0.972-1.256
			c-0.334-0.248-0.693-0.372-1.077-0.372c-0.14,0-0.282,0.017-0.427,0.05c-1.061,0.235-1.646,0.72-1.758,1.454
			c-0.062,0.409-0.093,0.784-0.093,1.127c0,0.812,0.173,1.452,0.52,1.919c1.02,1.37,2.134,2.055,3.343,2.055
			c0.243,0,0.489-0.026,0.736-0.08c0.685-0.239,1.359-0.73,2.024-1.474c0.681-0.768,1.071-1.5,1.17-2.197
			C90.444,53.473,90.368,53.357,90.215,53.357z M84.607,54.205c-0.281-0.206-0.421-0.585-0.421-1.139
			c0-0.247,0.047-0.441,0.143-0.582c0.091-0.136,0.219-0.204,0.384-0.204c0.029,0,0.06,0.003,0.093,0.007
			c0.256,0.033,0.45,0.152,0.582,0.358c0.099,0.153,0.148,0.328,0.148,0.526c0,0.041-0.002,0.083-0.006,0.124
			c-0.024,0.251-0.115,0.462-0.272,0.631C85.088,54.112,84.871,54.205,84.607,54.205z"/>
	</g>
</g>
<g>
	<g>
		<path style="fill:#FFFFFF;" d="M494.394,31.78c-0.111-0.247-0.223-0.653-0.334-1.219c-0.033-0.17-0.056-0.276-0.068-0.322
			c-0.012-0.058-0.033-0.213-0.062-0.464c-0.091-0.723-0.188-1.251-0.291-1.585c-0.177-0.594-0.423-0.892-0.736-0.892h-0.062
			c-0.776,0-1.923,0.617-3.441,1.851c-0.408,0.468-0.72,0.902-0.988,1.319c-0.06-0.047-0.12-0.095-0.194-0.112
			c-0.124-0.028-0.256-0.051-0.396-0.067c-0.161-0.021-0.331-0.031-0.508-0.031c-0.784,0-1.721,0.188-2.81,0.563
			c-0.124,0.041-0.318,0.113-0.582,0.217c-0.928,0.351-1.634,0.525-2.117,0.525c-0.07,0-0.136-0.004-0.198-0.012
			c-0.046-0.004-0.091-0.011-0.137-0.019c-0.206-0.05-0.367-0.206-0.482-0.471c-0.12-0.293-0.18-0.673-0.18-1.139
			c0-0.202,0.01-0.419,0.031-0.65l0.012-0.117c0.074-0.64,0.194-1.104,0.359-1.393c0.107-0.182,0.301-0.295,0.582-0.341
			c0.099-0.017,0.229-0.024,0.39-0.024c0.116,0,0.248,0.004,0.396,0.013c0.145,0.008,0.25,0.012,0.315,0.012l0.26,0.006h0.093
			c0.92,0,1.607-0.058,2.061-0.173c0.198-0.05,0.425-0.154,0.681-0.315c0.313-0.198,0.506-0.4,0.576-0.606
			c0.021-0.037,0.033-0.077,0.037-0.118v-0.043c0-0.104-0.035-0.202-0.105-0.297c-0.124-0.17-0.359-0.274-0.706-0.316
			c-0.107-0.012-0.246-0.019-0.415-0.019c-0.103,0-0.216,0.003-0.34,0.007c-0.103,0.004-0.169,0.006-0.198,0.006
			c-1.123,0.004-2.346,0.097-3.67,0.278c0.008-0.062,0.012-0.124,0.012-0.186c0.012-0.14,0.027-0.271,0.043-0.39
			c0.062-0.532,0.154-0.918,0.278-1.158c0.12-0.21,0.458-0.315,1.015-0.315c0.194,0,0.415,0.013,0.662,0.037
			c0.207,0.021,0.347,0.033,0.421,0.037c0.091,0.005,0.18,0.007,0.266,0.007c0.97,0,1.696-0.17,2.179-0.508
			c0.202-0.141,0.355-0.308,0.458-0.501c0.058-0.104,0.091-0.207,0.099-0.31c0.004-0.029,0.006-0.059,0.006-0.087
			c0-0.05-0.006-0.097-0.019-0.143c-0.074-0.284-0.312-0.449-0.712-0.495l-0.043-0.006c-0.037-0.004-0.08-0.006-0.13-0.006
			c-0.268,0-0.695,0.067-1.281,0.203c-0.561,0.137-1.013,0.205-1.355,0.205c-0.083,0-0.159-0.004-0.229-0.013
			c-0.202-0.021-0.351-0.076-0.446-0.167c-0.33-0.306-0.61-0.471-0.842-0.495c-0.024-0.004-0.049-0.007-0.074-0.007
			c-0.239,0-0.541,0.12-0.904,0.359c-0.148,0.095-0.406,0.2-0.773,0.315c-0.656,0.202-1.077,0.463-1.263,0.78
			c-0.099,0.169-0.157,0.326-0.173,0.471c-0.004,0.033-0.006,0.063-0.006,0.093c0,0.095,0.021,0.182,0.062,0.26
			c0.128,0.252,0.417,0.404,0.867,0.458c0.066,0.009,0.138,0.013,0.217,0.013c-0.033,0.148-0.068,0.371-0.105,0.668
			c-0.078,0.611-0.192,1.036-0.34,1.275c-0.029,0.05-0.089,0.134-0.18,0.254c-0.194,0.247-0.318,0.439-0.371,0.575
			c-0.037,0.091-0.06,0.176-0.068,0.254c-0.004,0.024-0.006,0.052-0.006,0.08c0,0.107,0.029,0.207,0.087,0.298
			c0.132,0.206,0.365,0.338,0.699,0.396c-0.033,0.438-0.056,0.847-0.068,1.226c-0.004,0.19-0.006,0.374-0.006,0.551
			c0,0.558,0.029,1.049,0.087,1.474c0.227,1.597,0.784,2.447,1.671,2.55l0.087,0.007h0.093c0.565,0,1.339-0.269,2.321-0.805
			l0.074-0.044c1.13-0.623,2.127-1.017,2.989-1.182c0.079-0.009,0.256-0.022,0.533-0.044c0.31-0.02,0.56-0.049,0.782-0.084
			c-0.096,0.299-0.157,0.587-0.157,0.852c0.025,0.463,0.169,0.828,0.433,1.096c0.26,0.269,0.601,0.402,1.021,0.402
			c0.145,0,0.295-0.017,0.452-0.05c0.537-0.115,1.05-0.441,1.542-0.978c0.285-0.313,0.65-0.823,1.095-1.529
			c0.075-0.115,0.13-0.202,0.167-0.26c0.165,0.211,0.334,0.597,0.507,1.157c0.227,0.719,0.477,1.201,0.749,1.449
			c0.132,0.123,0.297,0.186,0.495,0.186c0.239,0,0.466-0.079,0.681-0.235c0.218-0.157,0.346-0.336,0.383-0.539
			c0-0.268-0.148-0.608-0.445-1.021C494.546,32.048,494.443,31.887,494.394,31.78z M490.902,31.031
			c-0.466,0.681-0.912,1.081-1.337,1.201c0.045-0.269,0.208-0.666,0.489-1.194c0.305-0.565,0.61-1.018,0.916-1.355
			c0.239-0.261,0.427-0.391,0.563-0.391c0.033,0,0.062,0.009,0.087,0.025C491.6,29.795,491.361,30.367,490.902,31.031z
			 M500.571,30.647c-1.771-0.647-2.752-0.998-2.946-1.052l-0.05-0.044c-0.033-0.028-0.049-0.071-0.049-0.13
			c0-0.132,0.194-0.245,0.582-0.34c0.004,0,0.363-0.058,1.077-0.174c0.293-0.069,0.493-0.186,0.601-0.347
			c0.054-0.082,0.081-0.171,0.081-0.266c0-0.066-0.015-0.137-0.043-0.211c-0.07-0.165-0.198-0.303-0.384-0.414
			c-0.198-0.12-0.415-0.18-0.65-0.18h-0.111c-0.656,0-1.312,0.202-1.968,0.606c-0.702,0.434-1.052,0.951-1.052,1.554
			c0,0.082,0.006,0.167,0.019,0.254c0,0.606,0.596,1.094,1.789,1.461c1.597,0.495,2.433,0.742,2.507,0.742
			c-0.293,0.297-0.679,0.445-1.157,0.445c-0.45,0-0.98-0.13-1.591-0.39c-0.132-0.058-0.252-0.087-0.359-0.087
			c-0.203,0-0.351,0.112-0.446,0.335c-0.058,0.132-0.087,0.276-0.087,0.433c0,0.207,0.052,0.436,0.155,0.688
			c0.103,0.264,0.425,0.434,0.965,0.508c0.202,0.028,0.419,0.043,0.65,0.043c0.326,0,0.685-0.029,1.077-0.087
			c0.66-0.095,1.246-0.245,1.758-0.451c0.549-0.224,0.891-0.467,1.027-0.73c0.124-0.248,0.186-0.479,0.186-0.693
			c0-0.243-0.08-0.464-0.241-0.662C501.664,31.157,501.218,30.886,500.571,30.647z M509.087,33.699
			c-0.012-0.161-0.019-0.495-0.019-1.003v-0.842c0-2.719-0.191-4.272-0.575-4.66c-0.095-0.096-0.186-0.143-0.272-0.143h-0.031
			c-0.054-0.017-0.107-0.025-0.161-0.025c-0.281,0-0.559,0.215-0.835,0.645c-0.169,0.26-0.421,0.761-0.755,1.504
			c-0.355,0.788-0.635,1.352-0.842,1.689c-0.351,0.569-0.704,0.918-1.058,1.046c-0.004-0.054-0.006-0.108-0.006-0.167
			c0-0.466,0.101-1.104,0.303-1.912c0.21-0.834,0.315-1.469,0.315-1.906l-0.012-0.05c-0.186-0.363-0.392-0.545-0.619-0.545
			c-0.367,0-0.718,0.485-1.052,1.455c-0.223,0.644-0.357,1.135-0.402,1.473c-0.078,0.558-0.117,1.048-0.117,1.474
			c0,0.846,0.152,1.443,0.458,1.795c0.218,0.251,0.511,0.377,0.879,0.377c0.095,0,0.194-0.008,0.297-0.024
			c0.471-0.078,0.887-0.3,1.25-0.662c0.219-0.215,0.499-0.589,0.842-1.12c0.251-0.393,0.45-0.68,0.594-0.861
			c0.293,1.494,0.439,2.695,0.439,3.603c0,0.862-0.134,1.457-0.402,1.783c-0.148,0.177-0.341,0.266-0.576,0.266
			c-0.281,0-0.623-0.124-1.028-0.371c-0.578-0.351-1.172-0.671-1.782-0.96c-0.161-0.074-0.301-0.111-0.421-0.111
			c-0.169,0-0.293,0.079-0.372,0.235c-0.042,0.087-0.062,0.192-0.062,0.315c0,0.087,0.01,0.182,0.031,0.285
			c0.049,0.231,0.138,0.43,0.266,0.594c1.064,1.234,2.129,1.852,3.194,1.852c0.438,0,0.85-0.116,1.238-0.347
			c0.792-0.467,1.273-1.018,1.442-1.653c0.045-0.177,0.068-0.408,0.068-0.693c0-0.342-0.033-0.759-0.099-1.25
			C509.143,34.32,509.104,33.958,509.087,33.699z M511.706,32.133c-0.309,0.021-0.557,0.13-0.743,0.327
			c-0.161,0.174-0.25,0.378-0.266,0.613v0.062c0,0.198,0.052,0.38,0.155,0.545c0.132,0.202,0.316,0.326,0.551,0.371
			c0.12,0.021,0.237,0.031,0.353,0.031c0.359,0,0.646-0.091,0.86-0.272c0.21-0.177,0.315-0.402,0.315-0.675
			c0-0.264-0.103-0.493-0.309-0.687C512.391,32.238,512.085,32.133,511.706,32.133z M515.419,32.133
			c-0.31,0.021-0.557,0.13-0.743,0.327c-0.161,0.174-0.25,0.378-0.266,0.613v0.062c0,0.198,0.052,0.38,0.155,0.545
			c0.132,0.202,0.316,0.326,0.551,0.371c0.12,0.021,0.237,0.031,0.353,0.031c0.359,0,0.646-0.091,0.86-0.272
			c0.21-0.177,0.315-0.402,0.315-0.675c0-0.264-0.103-0.493-0.31-0.687C516.104,32.238,515.799,32.133,515.419,32.133z
			 M520.049,32.449c-0.231-0.211-0.537-0.315-0.916-0.315c-0.31,0.021-0.557,0.13-0.743,0.327c-0.161,0.174-0.25,0.378-0.266,0.613
			v0.062c0,0.198,0.052,0.38,0.155,0.545c0.132,0.202,0.315,0.326,0.551,0.371c0.12,0.021,0.237,0.031,0.353,0.031
			c0.359,0,0.646-0.091,0.86-0.272c0.21-0.177,0.315-0.402,0.315-0.675C520.359,32.872,520.256,32.642,520.049,32.449z"/>
	</g>
</g>
<g>
	<g>
		<path style="fill:#382D07;" d="M714.755,28.88c-0.141-0.161-0.237-0.277-0.291-0.347c-0.375-0.491-0.801-1.348-1.275-2.569
			l-0.062-0.173c0.727-0.228,1.146-0.502,1.257-0.823c0.021-0.054,0.031-0.105,0.031-0.155c0-0.103-0.042-0.202-0.124-0.297
			c-0.157-0.182-0.374-0.272-0.65-0.272c-0.111,0-0.274,0.021-0.489,0.062c-0.107,0.021-0.188,0.033-0.241,0.037
			c-0.037,0.004-0.072,0.006-0.104,0.006c-0.107,0-0.184-0.024-0.229-0.074c-0.062-0.058-0.122-0.198-0.18-0.421
			c-0.028-0.107-0.054-0.189-0.074-0.247c-0.33-1.008-0.597-2.163-0.798-3.467c-0.174-1.105-0.723-1.658-1.646-1.658
			c-0.467,0.008-0.896,0.36-1.288,1.058c-0.223,0.393-0.479,1.009-0.768,1.851c-0.086,0.244-0.145,0.404-0.173,0.483
			c-0.727,1.853-1.407,2.88-2.043,3.082c-0.367,0.12-0.638,0.246-0.811,0.378c-0.202,0.161-0.371,0.404-0.508,0.73
			c-0.037,0.082-0.056,0.156-0.056,0.223c0,0.058,0.015,0.109,0.044,0.154c0.062,0.091,0.171,0.137,0.327,0.137
			c0.066,0,0.174-0.011,0.322-0.031s0.254-0.031,0.315-0.031c0.1,0,0.15,0.02,0.155,0.057v0.012c0,0.115-0.17,0.493-0.508,1.133
			c-0.512,0.978-0.768,1.646-0.768,2.006c0,0.065,0.009,0.121,0.024,0.167c0.042,0.119,0.12,0.204,0.235,0.254
			c0.074,0.028,0.153,0.043,0.235,0.043c0.313,0,0.686-0.271,1.114-0.811c0.256-0.326,0.92-1.379,1.993-3.157
			c0.953-0.182,1.673-0.278,2.16-0.291c0.05,0,0.139-0.004,0.266-0.012c0.182-0.013,0.322-0.019,0.421-0.019
			c0.487,0,0.797,0.123,0.929,0.371c0.145,0.272,0.349,0.701,0.613,1.287c0.243,0.545,0.433,0.947,0.569,1.207
			c0.165,0.313,0.435,0.716,0.811,1.207c0.61,0.792,1.102,1.188,1.474,1.188c0.214,0,0.377-0.117,0.488-0.353
			c0.07-0.148,0.105-0.302,0.105-0.458c0-0.19-0.05-0.384-0.148-0.582C715.304,29.546,715.085,29.251,714.755,28.88z
			 M709.401,24.317c-0.426,0.1-0.735,0.163-0.929,0.192c0.058-0.148,0.161-0.432,0.31-0.849c0.462-1.291,0.805-2.141,1.027-2.55
			c0.206,0.339,0.427,1.127,0.662,2.364c0.058,0.289,0.099,0.496,0.124,0.619C710.344,24.115,709.945,24.189,709.401,24.317z
			 M722.609,24.473h-0.068c-0.186,0-0.33,0.058-0.433,0.173c-0.1,0.12-0.148,0.355-0.148,0.706c0,0.293,0.035,0.671,0.104,1.133
			c0.096,0.61,0.143,1.107,0.143,1.491c0,0.265-0.022,0.477-0.067,0.638c-0.137-0.157-0.331-0.39-0.582-0.699
			c-0.719-0.892-1.309-1.442-1.771-1.653c-0.062-0.028-0.132-0.043-0.21-0.043c-0.174,0-0.365,0.072-0.576,0.217
			c-0.182,0.124-0.313,0.248-0.396,0.371c-0.065,0.1-0.148,0.289-0.247,0.569c-0.178,0.495-0.347,0.793-0.508,0.892
			c-0.058-0.103-0.087-0.252-0.087-0.445c0-0.276,0.061-0.648,0.18-1.114c0.12-0.479,0.18-0.86,0.18-1.146
			c0-0.16-0.019-0.291-0.056-0.39c-0.132-0.347-0.313-0.52-0.545-0.52c-0.289,0-0.599,0.276-0.929,0.829
			c-0.284,0.475-0.437,0.842-0.457,1.102c-0.055,0.396-0.081,0.788-0.081,1.176c0,0.376,0.024,0.747,0.074,1.114
			c0.132,0.982,0.425,1.688,0.879,2.117c0.12,0.111,0.25,0.167,0.39,0.167c0.57,0,1.296-0.986,2.18-2.959l0.037-0.086
			c0.206,0.173,0.503,0.549,0.891,1.126c0.355,0.532,0.634,0.901,0.836,1.108c0.342,0.351,0.699,0.542,1.07,0.575
			c0.033,0.005,0.064,0.007,0.094,0.007c0.553,0,0.937-0.419,1.15-1.257c0.12-0.471,0.188-1.147,0.205-2.03v-0.143
			c0-0.603-0.072-1.178-0.217-1.727C723.421,24.947,723.076,24.514,722.609,24.473z M729.412,27.722
			c-1.771-0.647-2.753-0.998-2.946-1.052l-0.05-0.044c-0.033-0.028-0.05-0.071-0.05-0.13c0-0.132,0.194-0.245,0.582-0.34
			c0.004,0,0.363-0.058,1.077-0.174c0.293-0.069,0.493-0.186,0.601-0.347c0.054-0.082,0.08-0.171,0.08-0.266
			c0-0.066-0.014-0.137-0.043-0.211c-0.07-0.165-0.198-0.303-0.384-0.414c-0.198-0.12-0.415-0.18-0.649-0.18h-0.112
			c-0.655,0-1.312,0.202-1.968,0.606c-0.702,0.434-1.053,0.951-1.053,1.554c0,0.082,0.007,0.167,0.019,0.254
			c0,0.606,0.597,1.094,1.789,1.461c1.597,0.495,2.433,0.742,2.507,0.742c-0.293,0.297-0.679,0.445-1.157,0.445
			c-0.45,0-0.98-0.13-1.591-0.39c-0.132-0.058-0.252-0.087-0.359-0.087c-0.202,0-0.351,0.112-0.445,0.335
			c-0.058,0.132-0.087,0.276-0.087,0.433c0,0.207,0.052,0.436,0.155,0.688c0.103,0.264,0.425,0.434,0.965,0.508
			c0.202,0.028,0.419,0.043,0.65,0.043c0.326,0,0.685-0.029,1.077-0.087c0.66-0.095,1.246-0.245,1.758-0.451
			c0.549-0.224,0.892-0.467,1.027-0.73c0.124-0.248,0.186-0.479,0.186-0.693c0-0.243-0.08-0.464-0.241-0.662
			C730.505,28.231,730.06,27.961,729.412,27.722z M734.871,24.565h-0.111c-0.846,0-1.541,0.271-2.086,0.811
			c-0.549,0.537-0.856,1.257-0.922,2.16c-0.013,0.174-0.019,0.343-0.019,0.508c0,0.656,0.104,1.236,0.315,1.739
			c0.313,0.743,0.819,1.183,1.517,1.318c0.182,0.037,0.358,0.056,0.532,0.056c0.883,0,1.609-0.421,2.179-1.263
			c0.503-0.755,0.755-1.622,0.755-2.6c0-0.829-0.196-1.491-0.588-1.987C736.052,24.812,735.527,24.565,734.871,24.565z
			 M735.422,27.691c-0.033,0.491-0.182,0.894-0.445,1.207c-0.256,0.305-0.497,0.458-0.725,0.458c-0.202,0-0.375-0.122-0.52-0.365
			c-0.157-0.26-0.239-0.578-0.248-0.953v-0.087c0-0.335,0.068-0.632,0.204-0.892c0.025-0.193,0.145-0.388,0.359-0.582
			c0.223-0.206,0.441-0.309,0.656-0.309c0.182,0,0.328,0.086,0.439,0.26c0.189,0.301,0.285,0.658,0.285,1.07
			C735.429,27.562,735.426,27.625,735.422,27.691z M746.056,27.028c-0.523-1.576-1.187-2.428-1.986-2.556
			c-0.367,0.169-0.673,0.677-0.916,1.522c-0.352,1.222-0.554,1.888-0.607,1.999c-0.024-0.054-0.171-0.598-0.439-1.634
			c-0.214-0.829-0.453-1.322-0.718-1.479c-0.189-0.111-0.369-0.167-0.538-0.167c-0.202,0-0.393,0.078-0.569,0.235
			c-0.096,0.087-0.233,0.241-0.415,0.464c-0.186,0.231-0.332,0.398-0.439,0.502c-0.008,0.004-0.194,0.016-0.557,0.037
			c-0.298,0.021-0.446,0.142-0.446,0.365c0,0.173-0.054,0.358-0.161,0.557c-0.099,0.186-0.148,0.367-0.148,0.545v0.019
			c0.041,1.304,0.062,2.23,0.062,2.779c0,0.396-0.011,0.594-0.031,0.594h-0.006c0.239,0.182,0.46,0.272,0.662,0.272
			c0.145,0,0.28-0.048,0.408-0.143c0.235-0.177,0.452-0.545,0.65-1.102c0.618-1.717,0.928-2.592,0.928-2.624
			c0.111,0,0.209,0.208,0.291,0.625c0,0.012,0.074,0.466,0.223,1.361c0.215,1.304,0.514,1.956,0.897,1.956h0.013
			c0.482-0.021,0.922-0.536,1.318-1.547c0.128-0.322,0.262-0.729,0.402-1.22c0.178-0.623,0.267-0.937,0.267-0.94
			c0.173,0.28,0.356,0.785,0.551,1.516c0.182,0.697,0.38,1.197,0.594,1.498c0.194,0.272,0.521,0.473,0.979,0.601
			c0.119,0.033,0.225,0.05,0.315,0.05c0.297,0,0.445-0.178,0.445-0.532c-0.115-0.289-0.274-0.823-0.477-1.604
			C746.371,28.075,746.188,27.425,746.056,27.028z M755.235,27.06c-0.153,0-0.38,0.111-0.682,0.334
			c-0.169,0.129-0.577,0.57-1.225,1.325c-0.483,0.569-0.966,0.907-1.449,1.015c-0.115,0.025-0.227,0.037-0.334,0.037
			c-0.375,0-0.708-0.156-0.996-0.47c-0.137-0.149-0.209-0.267-0.217-0.354v-0.012c0-0.07,0.043-0.128,0.13-0.174
			c0.037-0.017,0.148-0.058,0.334-0.124c0.165-0.058,0.297-0.119,0.396-0.186c0.606-0.396,0.909-0.918,0.909-1.565
			c0-0.219-0.034-0.454-0.104-0.706c-0.269-0.557-0.593-0.976-0.972-1.256c-0.334-0.248-0.693-0.372-1.077-0.372
			c-0.141,0-0.283,0.017-0.427,0.05c-1.061,0.235-1.646,0.72-1.758,1.454c-0.062,0.409-0.094,0.784-0.094,1.127
			c0,0.812,0.174,1.452,0.521,1.919c1.019,1.37,2.133,2.055,3.343,2.055c0.243,0,0.488-0.026,0.736-0.08
			c0.685-0.239,1.359-0.73,2.023-1.474c0.681-0.768,1.071-1.5,1.17-2.197C755.464,27.175,755.388,27.06,755.235,27.06z
			 M749.627,27.907c-0.28-0.206-0.421-0.585-0.421-1.139c0-0.247,0.048-0.441,0.143-0.582c0.091-0.136,0.219-0.204,0.384-0.204
			c0.028,0,0.06,0.003,0.093,0.007c0.256,0.033,0.45,0.152,0.582,0.358c0.099,0.153,0.148,0.328,0.148,0.526
			c0,0.041-0.002,0.083-0.006,0.124c-0.025,0.251-0.116,0.462-0.272,0.631C750.108,27.814,749.892,27.907,749.627,27.907z"/>
	</g>
</g>
<g>
	<g>
		<path style="fill:#FFFFFF;" d="M970.312,23.603c-0.14-0.161-0.237-0.277-0.291-0.347c-0.375-0.491-0.8-1.348-1.274-2.569
			l-0.062-0.173c0.727-0.228,1.146-0.502,1.257-0.823c0.021-0.054,0.031-0.105,0.031-0.155c0-0.103-0.041-0.202-0.124-0.297
			c-0.157-0.182-0.374-0.272-0.649-0.272c-0.111,0-0.275,0.021-0.489,0.062c-0.107,0.021-0.188,0.033-0.241,0.037
			c-0.037,0.004-0.072,0.006-0.105,0.006c-0.107,0-0.184-0.024-0.229-0.074c-0.062-0.058-0.121-0.198-0.179-0.421
			c-0.029-0.107-0.054-0.189-0.074-0.247c-0.331-1.008-0.597-2.163-0.799-3.467c-0.174-1.105-0.723-1.658-1.646-1.658
			c-0.467,0.008-0.896,0.36-1.287,1.058c-0.224,0.393-0.479,1.009-0.768,1.851c-0.087,0.244-0.145,0.404-0.174,0.483
			c-0.727,1.853-1.407,2.88-2.043,3.082c-0.367,0.12-0.637,0.246-0.811,0.378c-0.202,0.161-0.371,0.404-0.508,0.73
			c-0.037,0.082-0.056,0.156-0.056,0.223c0,0.058,0.015,0.109,0.044,0.154c0.062,0.091,0.171,0.137,0.328,0.137
			c0.065,0,0.173-0.011,0.321-0.031s0.254-0.031,0.316-0.031c0.099,0,0.15,0.02,0.154,0.057v0.012c0,0.115-0.169,0.493-0.508,1.133
			c-0.512,0.978-0.768,1.646-0.768,2.006c0,0.065,0.009,0.121,0.025,0.167c0.041,0.119,0.119,0.204,0.235,0.254
			c0.074,0.028,0.152,0.043,0.234,0.043c0.314,0,0.686-0.271,1.114-0.811c0.256-0.326,0.921-1.379,1.993-3.157
			c0.953-0.182,1.674-0.278,2.16-0.291c0.05,0,0.139-0.004,0.267-0.012c0.182-0.013,0.321-0.019,0.421-0.019
			c0.486,0,0.796,0.123,0.928,0.371c0.145,0.272,0.35,0.701,0.613,1.287c0.243,0.545,0.434,0.947,0.569,1.207
			c0.165,0.313,0.436,0.716,0.811,1.207c0.611,0.792,1.103,1.188,1.474,1.188c0.215,0,0.377-0.117,0.488-0.353
			c0.07-0.148,0.105-0.302,0.105-0.458c0-0.19-0.049-0.384-0.148-0.582C970.861,24.269,970.643,23.974,970.312,23.603z
			 M964.959,19.041c-0.426,0.1-0.734,0.163-0.929,0.192c0.058-0.148,0.161-0.432,0.31-0.849c0.462-1.291,0.805-2.141,1.027-2.55
			c0.206,0.339,0.428,1.127,0.662,2.364c0.059,0.289,0.1,0.496,0.124,0.619C965.901,18.838,965.504,18.913,964.959,19.041z
			 M988.758,22.873c-0.024-0.145-0.049-0.43-0.074-0.854c-0.045-0.805-0.119-1.38-0.223-1.727c-0.174-0.595-0.475-0.892-0.904-0.892
			c-0.219,0-0.381,0.128-0.488,0.384c-0.066,0.161-0.137,0.475-0.211,0.94c-0.119,0.743-0.258,1.307-0.414,1.69
			c-0.272,0.664-0.691,1.17-1.257,1.517c-0.037,0.021-0.066,0.03-0.087,0.03c-0.021-0.017-0.03-0.063-0.03-0.142
			c0-0.219,0.08-0.684,0.241-1.394c0.21-0.92,0.315-1.621,0.315-2.104c0-0.325-0.05-0.551-0.148-0.674
			c-0.1-0.12-0.239-0.18-0.421-0.18h-0.006c-0.496,0.017-0.912,0.642-1.251,1.875c-0.14,0.501-0.239,0.963-0.306,1.396
			c-0.314,0.104-0.776,0.293-1.396,0.573c-0.821,0.375-1.426,0.588-1.813,0.637c-0.082,0.013-0.161,0.02-0.235,0.02
			c-0.466,0-0.771-0.215-0.916-0.645c-0.065-0.193-0.099-0.375-0.099-0.544c0-0.347,0.13-0.654,0.39-0.923
			c0.148-0.152,0.56-0.431,1.232-0.836c0.325-0.189,0.488-0.422,0.488-0.699c0-0.09-0.019-0.188-0.056-0.291
			c-0.145-0.392-0.452-0.588-0.922-0.588h-0.044c-0.507,0-0.979,0.196-1.417,0.588c-0.413,0.376-0.739,0.873-0.978,1.492
			c-0.162,0.419-0.242,0.841-0.282,1.265c-0.309,0.11-0.719,0.28-1.26,0.524c-0.821,0.375-1.426,0.588-1.813,0.637
			c-0.082,0.013-0.16,0.02-0.235,0.02c-0.466,0-0.771-0.215-0.916-0.645c-0.065-0.193-0.099-0.375-0.099-0.544
			c0-0.347,0.13-0.654,0.39-0.923c0.148-0.152,0.56-0.431,1.231-0.836c0.326-0.189,0.489-0.422,0.489-0.699
			c0-0.09-0.019-0.188-0.056-0.291c-0.145-0.392-0.451-0.588-0.922-0.588h-0.043c-0.508,0-0.98,0.196-1.418,0.588
			c-0.413,0.376-0.738,0.873-0.979,1.492c-0.214,0.557-0.321,1.118-0.321,1.684v0.148c0.017,0.652,0.18,1.192,0.489,1.622
			c0.433,0.603,1.044,0.903,1.832,0.903c0.503,0,1.081-0.124,1.732-0.371c0.895-0.341,1.589-0.686,2.102-1.036
			c0.072,0.175,0.138,0.355,0.245,0.503c0.433,0.603,1.044,0.903,1.832,0.903c0.503,0,1.081-0.124,1.732-0.371
			c0.832-0.317,1.488-0.638,1.99-0.962c0.052,0.341,0.14,0.626,0.275,0.838c0.206,0.317,0.495,0.477,0.866,0.477
			c0.459,0,0.97-0.227,1.535-0.681c0.528-0.425,0.943-0.91,1.244-1.455c0.029,0.116,0.07,0.31,0.124,0.582
			c0.182,0.916,0.434,1.509,0.755,1.776c0.231,0.194,0.473,0.291,0.725,0.291c0.367,0,0.551-0.215,0.551-0.644
			c0-0.351-0.136-0.908-0.408-1.671C988.923,23.52,988.803,23.125,988.758,22.873z M995.251,19.09h-0.013
			c-0.652,0-1.326,0.386-2.023,1.157c-0.611,0.677-1.001,1.327-1.17,1.95c-0.066-1.027-0.326-1.682-0.78-1.962
			c-0.095-0.059-0.189-0.087-0.284-0.087c-0.087,0-0.172,0.026-0.254,0.08c-0.174,0.124-0.3,0.354-0.378,0.688
			c0,0.821,0.095,1.665,0.284,2.531c0.235,1.085,0.562,1.817,0.979,2.197c0.169,0.153,0.324,0.229,0.464,0.229
			c0.326,0,0.576-0.402,0.749-1.207c0.239-1.098,0.673-2.057,1.3-2.879c0.569-0.75,1.279-1.343,2.13-1.776
			c0.016-0.049,0.024-0.097,0.024-0.142c0-0.182-0.107-0.354-0.322-0.514C995.717,19.179,995.481,19.09,995.251,19.09z
			 M1003.217,23.578c-0.111-0.247-0.223-0.653-0.334-1.219c-0.033-0.17-0.056-0.276-0.068-0.322
			c-0.013-0.058-0.033-0.213-0.062-0.464c-0.091-0.723-0.188-1.251-0.291-1.585c-0.178-0.594-0.423-0.892-0.737-0.892h-0.062
			c-0.775,0-1.923,0.617-3.441,1.851c-1.185,1.358-1.776,2.503-1.776,3.436c0.024,0.463,0.169,0.828,0.434,1.096
			c0.26,0.269,0.6,0.402,1.021,0.402c0.144,0,0.295-0.017,0.451-0.05c0.537-0.115,1.051-0.441,1.541-0.978
			c0.285-0.313,0.65-0.823,1.096-1.529c0.074-0.115,0.13-0.202,0.168-0.26c0.164,0.211,0.334,0.597,0.507,1.157
			c0.228,0.719,0.477,1.201,0.749,1.449c0.132,0.123,0.297,0.186,0.495,0.186c0.239,0,0.467-0.079,0.681-0.235
			c0.219-0.157,0.347-0.336,0.384-0.539c0-0.268-0.148-0.608-0.445-1.021C1003.369,23.846,1003.267,23.685,1003.217,23.578z
			 M999.726,22.829c-0.466,0.681-0.911,1.081-1.337,1.201c0.046-0.269,0.209-0.666,0.489-1.194c0.306-0.565,0.61-1.018,0.916-1.355
			c0.239-0.261,0.427-0.391,0.563-0.391c0.033,0,0.062,0.009,0.087,0.025C1000.423,21.593,1000.184,22.165,999.726,22.829z
			 M1018.356,21.783c-0.152,0-0.38,0.111-0.681,0.334c-0.169,0.129-0.578,0.57-1.226,1.325c-0.482,0.569-0.966,0.907-1.448,1.015
			c-0.115,0.025-0.228,0.037-0.334,0.037c-0.376,0-0.708-0.156-0.997-0.47c-0.136-0.149-0.208-0.267-0.217-0.354v-0.012
			c0-0.07,0.044-0.128,0.13-0.174c0.037-0.017,0.149-0.058,0.335-0.124c0.165-0.058,0.297-0.119,0.396-0.186
			c0.607-0.396,0.91-0.918,0.91-1.565c0-0.219-0.035-0.454-0.105-0.706c-0.268-0.557-0.592-0.976-0.972-1.256
			c-0.334-0.248-0.693-0.372-1.077-0.372c-0.14,0-0.282,0.017-0.427,0.05c-0.495,0.11-0.877,0.28-1.165,0.498
			c-0.014-0.091-0.026-0.183-0.079-0.281c-0.095-0.186-0.291-0.279-0.588-0.279c-0.186,0-0.454,0.046-0.805,0.137
			c-0.099,0.024-0.163,0.041-0.192,0.05c-0.569,0.111-1.046,0.177-1.43,0.198c-0.065,0.004-0.125,0.006-0.179,0.006
			c-0.252,0-0.378-0.033-0.378-0.1v-0.736c0-0.239,0.002-0.434,0.006-0.582c0.004-0.132,0.025-0.412,0.062-0.842
			c0.058-0.656,0.086-1.211,0.086-1.665c0-0.771-0.082-1.246-0.247-1.423c-0.074-0.078-0.161-0.118-0.26-0.118h-0.062
			c-0.243,0-0.454,0.1-0.631,0.298c-0.363,0.399-0.593,1.202-0.688,2.407c-0.028,0.396-0.043,0.799-0.043,1.207
			c0,0.528,0.024,1.064,0.074,1.609c-0.145,0.058-0.295,0.087-0.452,0.087c-0.065,0-0.138-0.005-0.217-0.013
			c-0.099-0.013-0.219-0.019-0.358-0.019c-0.628,0-1.057,0.119-1.288,0.359c-0.103,0.103-0.154,0.23-0.154,0.383v0.037
			c0.124,0.318,0.328,0.526,0.613,0.626c0.144,0.049,0.354,0.074,0.631,0.074c0.058,0,0.119-0.002,0.186-0.007h0.111
			c0.409,0,0.673,0.066,0.793,0.198c0.136,0.148,0.204,0.402,0.204,0.762c0,0.074-0.003,0.15-0.007,0.229
			c-0.033,0.421-0.049,0.808-0.049,1.158c0,1.151,0.173,1.896,0.52,2.234c0.041,0.041,0.312,0.062,0.811,0.062
			c0.207,0,0.313-0.013,0.322-0.037c0.161-0.054,0.241-0.553,0.241-1.498v-0.278c-0.013-0.681-0.041-1.246-0.087-1.696
			c-0.004-0.054-0.006-0.121-0.006-0.204c0-0.194,0.015-0.464,0.043-0.811c0.009-0.137,0.015-0.219,0.02-0.248l0.247-0.019
			c0.862-0.065,1.504-0.136,1.925-0.21c0.309-0.056,0.557-0.138,0.759-0.238c-0.012,0.048-0.039,0.088-0.047,0.138
			c-0.062,0.409-0.093,0.784-0.093,1.127c0,0.812,0.173,1.452,0.52,1.919c1.02,1.37,2.134,2.055,3.343,2.055
			c0.243,0,0.489-0.026,0.736-0.08c0.686-0.239,1.36-0.73,2.024-1.474c0.681-0.768,1.07-1.5,1.17-2.197
			C1018.586,21.898,1018.51,21.783,1018.356,21.783z M1012.749,22.63c-0.281-0.206-0.421-0.585-0.421-1.139
			c0-0.247,0.047-0.441,0.143-0.582c0.09-0.136,0.219-0.204,0.383-0.204c0.029,0,0.061,0.003,0.094,0.007
			c0.256,0.033,0.449,0.152,0.581,0.358c0.1,0.153,0.149,0.328,0.149,0.526c0,0.041-0.003,0.083-0.007,0.124
			c-0.024,0.251-0.115,0.462-0.272,0.631C1013.229,22.538,1013.013,22.63,1012.749,22.63z"/>
	</g>
</g>
<g>
	<defs>
		<rect id="SVGID_31_" x="1167.668" y="0.333" width="124.097" height="64.818"/>
	</defs>
	<clipPath id="SVGID_32_">
		<use xlink:href="#SVGID_31_"  style="overflow:visible;"/>
	</clipPath>
	<path style="clip-path:url(#SVGID_32_);fill:#B2D6D4;" d="M1168.269,64.188c-0.733,0.698-0.806,1.108-0.16,0.913
		c0.645-0.197,5.646-3.224,11.112-6.724l2.861-1.831c5.467-3.501,10.103-6.79,10.301-7.309c0.199-0.521,5.67-0.783,12.158-0.584
		l72.899,2.238c6.488,0.198,12.127-4.938,12.527-11.418l1.774-28.579c0.401-6.48-4.549-11.2-11.001-10.492l-81.393,8.937
		c-6.452,0.708-12.561,6.534-13.572,12.947l-1.563,9.884c-1.011,6.412-1.938,11.776-2.059,11.917
		c-0.12,0.145-2.994,4.439-6.386,9.546C1172.376,58.74,1169.001,63.49,1168.269,64.188"/>
</g>
<g>
	<g>
		<path style="fill:#382D07;" d="M1217.547,25.792c0-0.317,0.008-0.633,0.024-0.946c0.004-0.058,0.017-0.213,0.037-0.465
			c0.066-0.775,0.1-1.444,0.1-2.005c0-1.086-0.124-1.764-0.372-2.036c-0.104-0.112-0.233-0.168-0.39-0.168
			c-0.293,0-0.586,0.091-0.879,0.272l-0.043,0.025l-0.007,0.049c-0.156,1.527-0.235,3.087-0.235,4.68v0.378
			c0,0.705,0.029,1.398,0.087,2.079c0.013,0.104,0.027,0.318,0.043,0.645c0.104,2.034,0.391,3.199,0.861,3.497
			c0.219,0.14,0.412,0.21,0.581,0.21s0.31-0.066,0.421-0.198c0.178-0.21,0.267-0.514,0.267-0.909c0-0.198-0.022-0.419-0.068-0.663
			C1217.688,28.69,1217.547,27.208,1217.547,25.792z M1222.232,25.416h-0.111c-0.846,0-1.541,0.271-2.086,0.811
			c-0.549,0.537-0.856,1.257-0.923,2.16c-0.013,0.174-0.019,0.343-0.019,0.508c0,0.656,0.105,1.236,0.316,1.739
			c0.313,0.743,0.818,1.183,1.516,1.318c0.182,0.037,0.359,0.056,0.533,0.056c0.883,0,1.608-0.421,2.179-1.263
			c0.503-0.755,0.755-1.622,0.755-2.6c0-0.829-0.196-1.491-0.588-1.987C1223.412,25.663,1222.889,25.416,1222.232,25.416z
			 M1222.783,28.542c-0.033,0.491-0.182,0.894-0.446,1.207c-0.255,0.305-0.497,0.458-0.724,0.458c-0.202,0-0.376-0.122-0.52-0.365
			c-0.157-0.26-0.24-0.578-0.248-0.953v-0.087c0-0.335,0.068-0.632,0.204-0.892c0.024-0.193,0.145-0.388,0.359-0.582
			c0.223-0.206,0.441-0.309,0.656-0.309c0.181,0,0.327,0.086,0.439,0.26c0.189,0.301,0.284,0.658,0.284,1.07
			C1222.789,28.412,1222.787,28.475,1222.783,28.542z M1230.848,24.902c-0.078-0.021-0.156-0.031-0.234-0.031
			c-0.372,0-0.704,0.285-0.997,0.854c-0.173,0.343-0.396,0.964-0.668,1.863c-0.339,1.118-0.619,1.805-0.842,2.061
			c-0.091-0.186-0.252-0.59-0.483-1.213c-0.565-1.531-0.998-2.383-1.3-2.557c-0.115-0.017-0.221-0.024-0.315-0.024
			c-0.33,0-0.562,0.104-0.693,0.31c-0.082,0.128-0.123,0.295-0.123,0.501c0,0.231,0.049,0.508,0.148,0.83
			c0.106,0.358,0.325,0.897,0.655,1.615c0.091,0.193,0.157,0.34,0.198,0.439c0.033,0.074,0.085,0.204,0.155,0.39
			c0.235,0.595,0.439,1.027,0.612,1.3c0.301,0.475,0.629,0.729,0.984,0.762c0.029,0.004,0.062,0.006,0.099,0.006
			c0.462,0,0.875-0.306,1.238-0.916c0.202-0.343,0.421-0.866,0.656-1.572l0.049-0.136c0.025-0.074,0.122-0.289,0.291-0.644
			c0.734-1.502,1.103-2.555,1.103-3.157c0-0.169-0.029-0.304-0.087-0.402C1231.199,25.011,1231.051,24.918,1230.848,24.902z
			 M1239.359,27.91c-0.153,0-0.38,0.111-0.682,0.334c-0.169,0.129-0.578,0.57-1.226,1.325c-0.482,0.569-0.965,0.907-1.448,1.015
			c-0.115,0.025-0.227,0.037-0.334,0.037c-0.376,0-0.708-0.156-0.996-0.47c-0.137-0.149-0.209-0.267-0.217-0.354v-0.012
			c0-0.07,0.043-0.128,0.13-0.174c0.037-0.017,0.148-0.058,0.334-0.124c0.165-0.058,0.297-0.119,0.396-0.186
			c0.607-0.396,0.91-0.918,0.91-1.565c0-0.219-0.035-0.454-0.104-0.706c-0.269-0.557-0.593-0.976-0.972-1.256
			c-0.335-0.248-0.693-0.372-1.077-0.372c-0.141,0-0.283,0.017-0.428,0.05c-1.061,0.235-1.646,0.72-1.758,1.454
			c-0.062,0.409-0.093,0.784-0.093,1.127c0,0.812,0.174,1.452,0.521,1.919c1.019,1.37,2.133,2.055,3.342,2.055
			c0.243,0,0.489-0.026,0.737-0.08c0.685-0.239,1.359-0.73,2.023-1.474c0.681-0.768,1.071-1.5,1.17-2.197
			C1239.588,28.025,1239.512,27.91,1239.359,27.91z M1233.751,28.757c-0.28-0.206-0.421-0.585-0.421-1.139
			c0-0.247,0.047-0.441,0.143-0.582c0.091-0.136,0.219-0.204,0.384-0.204c0.028,0,0.06,0.003,0.093,0.007
			c0.256,0.033,0.449,0.152,0.582,0.358c0.099,0.153,0.148,0.328,0.148,0.526c0,0.041-0.002,0.083-0.006,0.124
			c-0.025,0.251-0.116,0.462-0.273,0.631C1234.231,28.665,1234.016,28.757,1233.751,28.757z M1246.979,22.538
			c-0.05-0.005-0.1-0.007-0.148-0.007c-0.256,0-0.483,0.074-0.682,0.223c-0.219,0.17-0.332,0.368-0.34,0.595v0.019
			c0,0.148,0.058,0.276,0.173,0.384c0.141,0.136,0.349,0.213,0.626,0.229c0.062,0.008,0.119,0.012,0.173,0.012
			c0.293,0,0.542-0.093,0.749-0.278c0.193-0.169,0.291-0.361,0.291-0.575c0-0.178-0.072-0.32-0.217-0.428
			C1247.451,22.595,1247.242,22.538,1246.979,22.538z M1247.021,25.373c-0.363,0-0.617,0.103-0.762,0.309
			c-0.145,0.207-0.216,0.409-0.216,0.607c0,0.037,0.002,0.074,0.006,0.111c0.017,0.123,0.026,0.23,0.031,0.321
			c0.004,0.148,0.006,0.295,0.006,0.439c0,0.434-0.015,0.853-0.043,1.257c-0.009,0.107-0.023,0.272-0.044,0.495
			c-0.049,0.545-0.074,0.986-0.074,1.324c0,0.157,0.006,0.293,0.019,0.409c0.058,0.594,0.254,1.029,0.588,1.306
			c0.046,0.037,0.107,0.056,0.187,0.056c0.148,0,0.344-0.06,0.588-0.18c0.251-0.123,0.377-0.232,0.377-0.328l0.037-1.863
			c0.004-0.156,0.007-0.309,0.007-0.457c0-1.264-0.093-2.41-0.278-3.441C1247.449,25.494,1247.307,25.373,1247.021,25.373z
			 M1255.725,26.313c0.041-0.083,0.062-0.171,0.062-0.267c0-0.119-0.035-0.245-0.105-0.377c-0.095-0.186-0.291-0.279-0.588-0.279
			c-0.186,0-0.454,0.046-0.805,0.137c-0.099,0.024-0.163,0.041-0.191,0.05c-0.569,0.111-1.046,0.177-1.431,0.198
			c-0.065,0.004-0.125,0.006-0.179,0.006c-0.252,0-0.378-0.033-0.378-0.1v-0.736c0-0.239,0.002-0.434,0.006-0.582
			c0.005-0.132,0.025-0.412,0.062-0.842c0.058-0.656,0.086-1.211,0.086-1.665c0-0.771-0.082-1.246-0.247-1.423
			c-0.074-0.078-0.161-0.118-0.26-0.118h-0.062c-0.243,0-0.453,0.1-0.631,0.298c-0.363,0.399-0.592,1.202-0.688,2.407
			c-0.028,0.396-0.043,0.799-0.043,1.207c0,0.528,0.024,1.064,0.074,1.609c-0.145,0.058-0.295,0.087-0.452,0.087
			c-0.065,0-0.138-0.005-0.216-0.013c-0.1-0.013-0.219-0.019-0.359-0.019c-0.628,0-1.057,0.119-1.287,0.359
			c-0.104,0.103-0.155,0.23-0.155,0.383v0.037c0.124,0.318,0.328,0.526,0.613,0.626c0.145,0.049,0.354,0.074,0.631,0.074
			c0.058,0,0.119-0.002,0.186-0.007h0.111c0.409,0,0.673,0.066,0.793,0.198c0.136,0.148,0.204,0.402,0.204,0.762
			c0,0.074-0.002,0.15-0.007,0.229c-0.032,0.421-0.049,0.808-0.049,1.158c0,1.151,0.173,1.896,0.52,2.234
			c0.041,0.041,0.312,0.062,0.811,0.062c0.207,0,0.314-0.013,0.322-0.037c0.161-0.054,0.241-0.553,0.241-1.498v-0.278
			c-0.013-0.681-0.041-1.246-0.087-1.696c-0.004-0.054-0.006-0.121-0.006-0.204c0-0.194,0.015-0.464,0.043-0.811
			c0.009-0.137,0.015-0.219,0.02-0.248l0.247-0.019c0.862-0.065,1.504-0.136,1.925-0.21
			C1255.136,26.882,1255.559,26.651,1255.725,26.313z M1256.529,30.058c-0.311,0.021-0.558,0.13-0.743,0.327
			c-0.161,0.174-0.25,0.378-0.267,0.613v0.062c0,0.198,0.052,0.38,0.155,0.545c0.132,0.202,0.315,0.326,0.551,0.371
			c0.12,0.021,0.237,0.031,0.353,0.031c0.359,0,0.646-0.091,0.86-0.272c0.211-0.177,0.316-0.402,0.316-0.675
			c0-0.264-0.104-0.493-0.31-0.687C1257.214,30.163,1256.908,30.058,1256.529,30.058z M1260.242,30.058
			c-0.309,0.021-0.557,0.13-0.742,0.327c-0.161,0.174-0.25,0.378-0.267,0.613v0.062c0,0.198,0.052,0.38,0.155,0.545
			c0.132,0.202,0.315,0.326,0.551,0.371c0.119,0.021,0.237,0.031,0.353,0.031c0.359,0,0.646-0.091,0.86-0.272
			c0.211-0.177,0.315-0.402,0.315-0.675c0-0.264-0.103-0.493-0.31-0.687C1260.928,30.163,1260.622,30.058,1260.242,30.058z
			 M1264.872,30.374c-0.23-0.211-0.536-0.315-0.916-0.315c-0.31,0.021-0.557,0.13-0.742,0.327c-0.161,0.174-0.25,0.378-0.267,0.613
			v0.062c0,0.198,0.052,0.38,0.154,0.545c0.133,0.202,0.316,0.326,0.552,0.371c0.119,0.021,0.237,0.031,0.353,0.031
			c0.359,0,0.646-0.091,0.86-0.272c0.21-0.177,0.315-0.402,0.315-0.675C1265.182,30.796,1265.079,30.567,1264.872,30.374z"/>
	</g>
</g>
</svg>
