<svg xmlns="http://www.w3.org/2000/svg" xmlns:xlink="http://www.w3.org/1999/xlink" viewBox="0 0 1928 161.4" enable-background="new 0 0 1928 161.4"><path opacity=".5" fill="#575757" enable-background="new" d="M1260.1 161.4l-159.2-70.6-123.5 67.1-117.6-50-154.3 53.5zM628.8 161.4L425.7 71.7l-123.3 67-117.5-50.2-209.8 72.9z"/><circle fill="#FDAB0B" cx="1131.7" cy="53.7" r="20.1"/><path opacity=".45" fill="#FDAB0B" enable-background="new" d="M695.9 61.7L599.1 76v4.6z"/><path fill="#BFBFBF" d="M697.4 61.2l-1.2 5.1 1.2-.2 1.7-3.6 4.6-1-.7 8.2 1.9-.5 4.4-9 3.6-.7 2.1-.5c.2 0 .7-.2 1-.5.2-.2.5-1 .2-1.2 0-.5-.5-1-1-1.2-.2-.2-.7-.2-1-.2l-2.2.5-3.6.7-7.7-6.3-1.9.2 4.1 7-4.6 1-3.4-2.4-1 .2 3.5 4.4z"/><path fill="#C4C4C4" d="M702.9 57.8l5.3-.9-7.5-6.6-1.9.5z"/><path fill="#C9C9C9" d="M703.6 61.2l-.7 8.2 1.7-.2L709 60z"/><path fill="#D3DCE2" d="M897 68.2c2.4 0 4.6 1 6 2.4 2.4-4.6 7.3-7.5 12.8-7.5 3.1 0 5.8 1 8.2 2.4 4.1-6.8 11.4-11.1 19.8-11.1 7.5 0 14 3.6 18.4 9 1.2-.2 2.2-.5 3.4-.5 8 0 14.5 6.5 14.5 14.5h-91.9c-.4-5.1 3.7-9.2 8.8-9.2zM532.1 74c2.2 0 4.1.7 5.8 2.2 2.4-4.1 6.8-7 11.9-7 2.9 0 5.3 1 7.5 2.4 3.6-6 10.6-10.4 18.1-10.4 7 0 13.1 3.4 16.9 8.2 1-.2 2.2-.5 3.1-.5 7.3 0 13.3 6 13.3 13.3h-85.2c.1-4.3 4-8.2 8.6-8.2zM140.3 66.8c-2.4 0-4.8 1-6.5 2.4-2.7-4.8-7.7-8.2-13.8-8.2-3.4 0-6.3 1-8.7 2.7-4.4-7-12.1-11.9-21.3-11.9-8 0-15.2 3.9-19.6 9.7-1.2-.3-2.4-.5-3.6-.5-8.5 0-15.5 7-15.5 15.5h99c0-5.4-4.4-9.7-10-9.7zM1144.3 60.2c-1.7 0-3.4.5-4.6 1.7-1.7-3.4-5.3-5.6-9.4-5.6-2.2 0-4.4.7-6 1.9-2.9-4.8-8.2-8.2-14.3-8.2-2.9 0-5.6.7-7.7 1.9-4.4-4.8-10.6-8.2-17.7-8.2-8.2 0-15.7 4.6-19.8 11.1-2.4-1.5-5.1-2.4-8.2-2.4-5.6 0-10.4 3.1-12.8 7.5-1.7-1.5-3.6-2.2-6-2.2-5.1 0-9.2 3.9-9.2 9.4h121.9c.5-4.4-2.4-6.9-6.2-6.9z"/><path fill="#6B6B6B" d="M88.6 132.8h12.1v18.1H88.6z"/><g fill="#6B6B6B"><path d="M690.6 161.4v-16.5H685v7.8h-3.1v-13.3h-10v14.2h-3.3v-22.9h-13.1v30.7zM915.6 161.4v-2.2h-2.2v-16.4H910v-1h-3.1v-5.6h-5.6v3.2H897v-2.2h-9.9v3.4h-2.2v2.2h-2.2v15.4h-4.4v3.2zM949.7 161.4v-16.5h-12.1v-6.5h-2.2v6.5h-6.7v16.5zM693.7 161.4h147.1v-18.6h-2.1v-3.4h-13.1v3.4h-2.2v3.3H820v-1.2h-16.4v-10.8h-1v-23h-6.8v15.2h-2.1v-3.4h-4.4v3.4h-3.1v3.4H784v5.3h-3.4v5.6h-4.4v4.3H775v4.4h-4.3v-33.9h-20.8v16.5h-10v10.9h-1.2v6.5h-2.1v-.7h-1v-2.5h-1.2v-4.3h-13.1v6h-1.7l-.2.5h-.3v3.2h-4.3v-2.2h-4.1v-1.5h-10.2v1.5h-3.4v2.4h-1.2l.2 1h-2.4zM875 161.4V144h-3.2v-2.2h-14.3v3.1h-4.6v-10.8h-9.6v27.3zM28.6 161.4l-.3-3.2H14.5v3.2zM1090.1 161.4v-8.7h-3.2v-2.2h-3.4v-3.4h-9.9v4.4h-3.1v8.9h-13.3v1zM1234 161.4v-14.3h-7.7v1.2h-4.4v2.2h-15.5v-10.9h-3.4v-9.2h-17.7v3.6h-3.4v23h-4.1v-8.2c0-1-.7-1.2-1.7-1.2v-.7h-3.9v-16.5h-20.8v-1.2h-8.7v10.9h-2.2v6.5h-3.4v-3.4h-1.2v-4.4H1123v6.5h-2.2v3.4h-4.4v-13.1H1100V150h-4.4v10.9H1234v.5zM1050.6 161.4v-28.6h-2.2v-8.7h-5.5v-1.2h-4.4v1.2h-.9v5.6h-4.4v-5.6h-2.4v2.2h-8.7v35.1zM398.3 161.4h32.9l-.3-28.3-10.1.2v4.9h-2.4V135h-15.5v4.6h-4.6zM299.1 161.4h22l-.5-86.1h-1.7v-5.9h-12.8v2.7h-7.5zM335.4 161.4h30v-9.2l-3.2.2-.2-14.2h-21.1v6.3l-5.5-.3zM648.7 161.4V135h-2.2v-8.7h-5.3v-1.2h-4.6v1.2h-1v5.6h-4.3v-5.6h-2.2v2.2h-8.9v32.9zM39.4 161.4h39.5v-23H58.1v9.4H41.6v4.2l-2.2-.3zM79.6 161.4h200.6v-14.8h-14.5v-21.7l-21.1.2.3 7h-5.1v17.2H234l-.3-5.8-13.5.2v6.1h-6.3l.2 11.4h-3.8l-.3-41.7h-3.6v-8.2h-7.3l-9.4.2v4.2h-8v24.2h-8.5v-5.8h-9.1v4.1h-11.9v8.7h-4.4v-4.1H144v-4.6h-9.5v4.8H128v2.7h-2.9v9.4h-4.6v-6h-9.7v-3.9h-4.1V143h-9.2v4.6H91v4.4h-7.8v5.3h-3.6zM451.5 161.4h17.4v-9.9h-2.4l-2.4-3.2h-8.7v3.9h-3.9zM612.9 161.4v-1.2h-8.7v1.2zM506.2 161.4h36.5l-.2-24.9h-2.4v-13.8H536v-8.5l-23.3.3.3 7.9-7-.2zM479.1 161.4h16.2v-9h-5.1l.3 4.9h-6.1v3.4l-5.3-.3z"/></g><g fill="#555"><path d="M913.7 161.4h15v-22.5H926v-7.5h-3.9v3.6h-4.6l.3 2.7h-4.1zM1240.1 161.4h15l-.3-22.5h-2.6v-7.5h-3.6v3.6h-4.6v2.7h-4.2zM934.2 161.4h307.6V157h-9.9v-4.3h-5.6v5.5h-8.7v-6.7h-22v-9.7h-10.9v-4.6h-4.4v8.2h-3.4l-.2 3.9h-12.4v-4.6h-3.1v4.6h-1.9v-16.5h-4.4v-6.5h-5.6V122h-14.2v-4.4h-4.4v13.1h-6.5v25.4h-15v-27.4h-2.7l.3-3.6h-5.6v-4.4h-5.6v-5.3h-5.5v-6.8h-6.6V93.4h-5.3v15.2h-4.6v5.6h-5.3v6.5h-7.8v21.1h-17.6v7.5H1032v-18.6h-23v-16.5h-6.8v-5.6H987v4.6h-5.6v4.4h-5.3v27.3h-7.7v-6.5h-6.6V119l-1.9.3v-10.7H957l-.3-6.2-17.4.2v6H934zM892.9 161.4h17.6V159l-4.3.2-.3-28.3H904l-1.7-2.4h-6.8l.3 2.9-3.2-.3zM57.1 161.4v-7.8H41.6V144h-3.1v2.1h-7.8v15.3zM33.9 161.4v-7.8H18.6V144h-3.4v2.1H7.7v15.3zM827.3 161.4v-30h-2.4l-.3-10.7h-15.9v4.6h-4.2v20.4h-10.8l-.3-72.9H792v-4.3h-9.7v2.2h-5.6l.3 76.9h-5.1v-2.7h-3.4v-.9h-5.6v.9h-.5v-18.1l-10.8.2v-16.4h-16v5.3h-3.9l.3 13.1h-4.6v-4.1H717v4.6h-4.9l.3 8.7h-3l-.2-31.7h-2.7v-6.3H701l-7.3.2v3.2h-6V122h-6.3v-4.4h-7v2.9l-9.2.2v6.6l-3.2.2v-3.4h-2.9v-3.4h-7.2l-.3 3.4h-1.7V122H639v-4.4h-3.4v4.4h-6.5v2.4h-5.5v3.4h-4.9v3.3h-5.1v-10.4h-3.1v-2.1h-2.2v-3.2h-6.8v2.2h-4.3v-1.2h-9.9v2.2h-2.2v2.1h-2.2v3.9h-1.7v6.5l-1.7-.2.3 1h-1.3v19.6h-3.3V122H572v-3.4h-14.3v3.4h-4.3v16.4h-9.9v4.4h-1.3v-23h-3.1v-2.2H527v2.2h-2.9v2.2h-20.3v-7.5h-3.7l.3-13.4H489v13.4h-8.2v4.1h-4.4v3.4h-2.1v3.1h-3.4V99.9h-20.8V112h-10v8.7h-.9v4.4h-3.4v-2.2h-2.2v-4.3h-13.1v5.5h-1.2v1.2h-9.9v-.2h-12.1v2.4H393v20.8h-1v-1.2h-3.4v-17.4h-4.4v-2.2h-2.1v-2.4h-11.2v3.4h-2.1v6.5h-7.5v-4.3h-12.1v-16.5h-3.4v-6.5h-5.6v-1.2h-3.1v1.2h-2.2v4.3h-4.4v-4.3h-2.4v.9h-8.7v19.9h-1v12.1h-6.7V122h-3.2v-8.8h-4.3v3.2h-14.3v26.4h-1.2v1.2h-7.8v-9.9h-4.3v-9h-3.2v-4.4h-14.3V144H257v.9h-5.6v-25.1h-15.5V135h-8.7v-16.4h-22v24.2h-9.9v6.5h-5.4V122h-4.3v-4.4h-3.4v-4.4h-12.1v5.4h-4.4V135h-16.4v18.6h-7.7v-7.5h-13.1v-21h-5.6v-6.5h-3.4v-5.4h-4.3V97.8H112v15.4h-5.5v6.6h-3.4v5.3h-4.4v22H82.3V144h-4.4v16.4h-3.4V157H63.6v4.4zM852.5 161.4h24.9l-.3-44.5h-7.7v3.8h-1.9v-2.6l-11.9.2.2 3.4h-3.6zM7.7 161.4V157H3.1v1.2H0v3.2zM834.5 161.4h13.4V150h-3.7v-3.6h-4.8v3.6h-4.9zM1253.2 161.4h16.6v-14.5h-4.6v-4.4h-6v4.6l-6.3-.2z"/></g><defs><path id="a" d="M1269.4 0H1928v161.4h-658.6z"/></defs><clipPath id="b"><use xlink:href="#a" overflow="visible"/></clipPath><path opacity=".5" clip-path="url(#b)" fill="#575757" enable-background="new" d="M2054.2 189.2l-222-98.4-123.6 67.1-117.5-50-231.9 80.4v17.6h695zM1569.9 183.1l-222-98.5-123.5 67.1-117.5-50L875 182.1v17.6h694.9z"/><g clip-path="url(#b)"><circle fill="#FDAB0B" cx="2108.8" cy="53.7" r="20.1"/><path opacity=".45" fill="#FDAB0B" enable-background="new" d="M1673 61.7L1576.4 76v4.6z"/><path fill="#BFBFBF" d="M1674.4 61.2l-1.2 5.1 1.2-.2 1.7-3.6 4.6-1-.7 8.2 1.9-.5 4.4-9 3.6-.7 2.2-.5c.2 0 .7-.2 1-.5.2-.2.5-1 .2-1.2 0-.5-.5-1-1-1.2-.2-.2-.7-.2-1-.2l-2.2.5-3.6.7-7.7-6.3-1.9.5 4.1 7-4.6 1-3.4-2.4-1 .2 3.4 4.1z"/><path fill="#C4C4C4" d="M1680 57.8l5.5-.9-7.7-6.6-1.9.5z"/><path fill="#C9C9C9" d="M1681 61.2l-1 8.2 1.9-.2 4.1-9.2z"/><path fill="#D3DCE2" d="M1874 68.2c2.4 0 4.6 1 6 2.4 2.4-4.6 7.3-7.5 12.8-7.5 3.1 0 5.8 1 8.2 2.4 4.1-6.8 11.4-11.1 19.8-11.1 7.5 0 14 3.6 18.4 9 1.2-.2 2.2-.5 3.4-.5 8 0 14.5 6.5 14.5 14.5h-91.9c-.4-5.1 3.8-9.2 8.8-9.2zM1509.2 74c2.2 0 4.1.7 5.8 2.2 2.4-4.1 6.8-7 11.9-7 2.9 0 5.3 1 7.5 2.4 3.6-6 10.6-10.4 18.1-10.4 7 0 13.1 3.4 16.9 8.2 1-.2 2.2-.5 3.1-.5 7.3 0 13.3 6 13.3 13.3h-85.2c.1-4.3 4-8.2 8.6-8.2zM1117.4 66.8c-2.4 0-4.8 1-6.5 2.4-2.7-4.8-7.7-8.2-13.8-8.2-3.4 0-6.3 1-8.7 2.7-4.4-7-12.1-11.9-21.3-11.9-8 0-15.2 3.9-19.6 9.7-1.2-.2-2.4-.5-3.6-.5-8.5 0-15.5 7-15.5 15.5h99c-.1-5.4-4.4-9.7-10-9.7zM2121.6 60.2c-1.7 0-3.4.5-4.6 1.7-1.7-3.4-5.3-5.6-9.4-5.6-2.2 0-4.4.7-6 1.9-2.9-4.8-8.2-8.2-14.3-8.2-2.9 0-5.6.7-7.7 1.9-4.4-4.8-10.6-8.2-17.7-8.2-8.2 0-15.7 4.6-19.8 11.1-2.4-1.5-5.1-2.4-8.2-2.4-5.6 0-10.4 3.1-12.8 7.5-1.7-1.5-3.6-2.2-6-2.2-5.1 0-9.2 3.9-9.2 9.4h121.9c.3-4.4-2.6-6.9-6.2-6.9z"/><path fill="#6B6B6B" d="M1065.9 132.8h12.1v18.1h-12.1z"/><g fill="#6B6B6B"><path d="M1667.6 161.4v-16.5h-5.5v7.8h-3.2v-13.3h-9.9v14.2h-3.4v-22.9h-13v30.7zM1892.7 161.4v-2.2h-2.2v-16.4h-3.2v-1h-3.3v-5.6h-5.6v3.2h-4.4v-2.2h-9.9v3.4h-2.2v2.2h-2.1v15.4h-4.4v3.2zM1926.8 161.4v-16.5h-12.1v-6.5h-2.2v6.5h-6.5v16.5zM1671 161.4h147.1v-18.6h-2.1v-3.4h-13.3v3.4h-2.2v3.3h-3.2v-1.2h-16.4v-10.8h-1.2v-23h-6.6v15.2h-2.1v-3.4h-4.4v3.4h-3.4v3.4h-2.2v5.3h-3.3v5.6h-4.4v4.3h-1v4.4h-4.6v-33.9h-20.8v16.5h-9.9v10.9h-1v6.5h-2.4v-.7h-1v-2.5h-.9v-4.3h-13.3v6h-1.7v.5h-.5v3.2h-4.4v-2.2h-4.1v-1.5h-10.1v1.5h-3.4v2.4h-1.2l.4 1h-2.4zM1852 161.4V144h-3.1v-2.2h-14.3v3.1h-4.4v-10.8h-9.9v27.3zM1005.6 161.4v-3.2h-14v3.2zM2067.4 161.4v-8.7h-3.4v-2.2h-3.2v-3.4h-9.9v4.4h-3.4v8.9h-13v1zM2211.1 161.4v-14.3h-7.7v1.2h-4.4v2.2h-15.5v-10.9h-3.4v-9.2h-17.7v3.6h-3.4v23h-4.4v-8.2c0-1-.7-1.2-1.7-1.2v-.7h-3.9v-16.5h-20.3v-1.2h-8.7v10.9h-2.2v6.5h-3.4v-3.4h-1.2v-4.4h-13.1v6.5h-2.2v3.4h-4.4v-13.1H2077V150h-4.4v10.9h138.2v.5zM2027.7 161.4v-28.6h-2.2v-8.7h-5.3v-1.2h-4.4v1.2h-1.2v5.6h-4.3v-5.6h-2.2v2.2h-9v35.1zM1375.3 161.4h33v-28.3l-10.5.2v4.9h-2.4V135h-15.5v4.6h-4.6zM1312.7 161.4h30l-.3-9.2-3.1.2v-14.2H1318v6.3l-5.3-.3zM1626 161.4V135h-2.2v-8.7h-5.5v-1.2h-4.4v1.2h-1.2v5.6h-4.3v-5.6h-2.2v2.2h-8.7v32.9zM1016.5 161.4h39.7v-23h-20.8v9.4h-16.5v4.2l-2.4-.3zM1056.7 161.4h200.8l-.2-14.8H1243l-.3-21.7-20.8.2v7h-5l.2 17.2h-6.1v-5.8l-13.7.2v6.1h-6.3l.2 11.4h-3.9v-41.7h-3.8v-8.2h-7.3l-9.4.2v4.2h-8l.2 24.2h-8.4v-5.8h-9.5v4.1h-11.8v8.7h-4.1v-4.1h-4.2v-4.6h-9.4v4.8h-6.3v2.7h-3.1v9.4h-4.6v-6h-9.7v-3.9h-4.1V143h-9.2v4.6h-6.6v4.4h-7.7v5.3h-3.6zM1428.6 161.4h17.6l-.2-9.9h-2.4l-2.4-3.2h-8.5v3.9h-4.1zM1590 161.4v-1.2h-8.7v1.2zM1483.3 161.4h36.5v-24.9h-2.7v-13.8h-4.1v-8.5l-23 .3v7.9l-7-.2zM1456.4 161.4h16v-9h-4.9v4.9h-6v3.4l-5.1-.3z"/></g><g fill="#555"><path d="M1891 161.4h15l-.3-22.5h-2.6v-7.5h-3.7v3.6h-4.5v2.7h-4.2zM1911.3 161.4h307.5V157h-9.9v-4.3h-5.5v5.5h-8.8v-6.7h-22v-9.7h-10.9v-4.6h-4.3v8.2h-3.2l-.2 3.9h-12.6v-4.6h-3.1v4.6h-1.7v-16.5h-4.4v-6.5h-5.5V122h-14.3v-4.4h-4.4v13.1h-6.8v25.4h-14.7l-.3-27.4h-2.6l.2-3.6h-5.5v-4.4h-5.6v-5.3h-5.3v-6.8h-6.6V93.4h-5.5v15.2h-4.4v5.6h-5.5v6.5h-7.8v21.1h-17.4v7.5h-11.1v-18.6h-23v-16.5h-6.6v-5.6h-15.4v4.6h-5.4v4.4h-5.5v27.3h-7.8v-6.5h-6.3l-.2-19.4-1.7.3-.2-10.7h-3v-6.2l-17.6.2v6h-5.3zM1869.9 161.4h17.7V159l-4.4.2-.2-28.3h-1.9l-1.7-2.4h-6.6v2.9l-2.9-.3zM1034.2 161.4v-7.8h-15.3V144h-3.4v2.1h-7.7v15.3zM1804.6 161.4l-.2-30h-2.5v-10.7h-16.2v4.6h-4.1l.3 20.4h-11.2l-.2-72.9h-1.5v-4.3h-9.7v2.2h-5.5l.2 76.9h-5.1v-2.7h-3.3v-.9h-5.4v.9h-.5v-18.1l-11.1.2v-16.4h-16l.3 5.3h-3.9V129h-4.6v-4.1H1694l.3 4.6h-4.9v8.7h-2.9v-31.7h-2.9v-6.3h-5.6l-7.2.2v3.2h-6.1l.3 18.4h-6.6v-4.4h-7v2.9l-8.9.2v6.6l-3.2.2v-3.4h-3.1v-3.4h-7.3v3.4h-1.9V122h-10.9v-4.4h-3.4v4.4h-6.5v2.4h-5.3v3.4h-5.1v3.3h-4.9v-10.4h-3.3v-2.1h-2.2v-3.2h-6.6v2.2h-4.6v-1.2h-9.6v2.2h-2.2v2.1h-2.4v3.9h-1.5v6.5l-1.9-.2.2 1h-1.2v19.6h-3.1V122h-3.4v-3.4h-14.3v3.4h-4.4v16.4h-9.9v4.4h-.9v-23h-3.4v-2.2h-12.1v2.2h-2.7v2.2h-20.3v-7.5h-3.6v-13.4h-11.2v13.4h-8.2v4.1h-4.6v3.4h-2.2v3.1h-3.1V99.9h-21.1V112h-9.7v8.7h-1.2v4.4h-3.3v-2.2h-2.2v-4.3h-13.1v5.5h-1.2v1.2h-9.7v-.2h-12.1v2.4h-4.3v20.8h-1.2v-1.2h-3.4v-17.4h-4.4v-2.2h-2.2v-2.4h-10.9v3.4h-2.1v6.5h-7.8v-4.3h-12.1v-16.5h-3.4v-6.5h-5.3v-1.2h-3.4v1.2h-2.2v4.3h-4.3v-4.3h-2.2v.9h-8.7v19.9h-1.2v12.1h-6.5V122h-3.4v-8.8h-4.4v3.2h-14.3v26.4h-1.2v1.2h-7.5v-9.9h-4.3v-9h-3.4v-4.4h-14.3V144h-2.2v.9h-5.5v-25.1h-15.3V135h-8.9v-16.4h-21.8v24.2h-9.9v6.5h-5.6V122h-4.3v-4.4h-3.4v-4.4h-12.1v5.4h-4.4V135h-16.4v18.6h-7.8v-7.5h-13v-21h-5.6v-6.5h-3.2v-5.4h-4.3V97.8h-3.4v15.4h-5.6v6.6h-3.1v5.3h-4.6v22h-16.5V144h-4.3v16.4h-3.2V157h-11.1v4.4zM1829.5 161.4h24.9l-.2-44.5h-7.7v3.8h-2v-2.6l-11.6.2v3.4h-3.6zM984.8 161.4V157h-4.3v1.2h-3.4v3.2zM1811.6 161.4h13.3V150h-3.6v-3.6h-4.8v3.6h-4.9z"/></g></g></svg>