<svg id="Layer_1" data-name="Layer 1" xmlns="http://www.w3.org/2000/svg" viewBox="0 0 340.63 261.07"><defs><style>.cls-1{fill:#e3710a;}</style></defs><title>tick</title><path class="cls-1" d="M346,90.87a20.41,20.41,0,0,1-6.15,14.95L180.73,264.92,150.85,294.8a21.22,21.22,0,0,1-29.88,0L91.08,264.92,11.52,185.36a21.22,21.22,0,0,1,0-29.88l29.9-29.88a20.29,20.29,0,0,1,14.93-6.15,20.35,20.35,0,0,1,14.95,6.15l64.61,64.83L280.06,46a21.22,21.22,0,0,1,29.88,0l29.9,29.9A20.4,20.4,0,0,1,346,90.87Z" transform="translate(-5.37 -39.88)"/></svg>