<svg width="482" height="369" viewBox="0 0 482 369" xmlns="http://www.w3.org/2000/svg" xmlns:xlink="http://www.w3.org/1999/xlink"><title>img_home_co_illustration_young</title><defs><linearGradient x1="95.493%" y1="50%" x2=".121%" y2="50%" id="a"><stop stop-color="#0E5D8B" offset="0%"/><stop stop-color="#2C98DB" offset="100%"/></linearGradient><path id="b" d="M191.398936 0.119054417L0 0.119054417 0 41.4295471 0 82.7400397 191.398936 82.7400397z"/><linearGradient x1="50%" y1="100%" x2="50%" y2=".43%" id="c"><stop stop-color="#FFF" offset="0%"/><stop stop-color="#E7E7E7" offset="100%"/></linearGradient><linearGradient x1="50%" y1="100%" x2="50%" y2="-35.944%" id="e"><stop stop-color="#FFF" offset="0%"/><stop stop-color="#E4E4E4" offset="100%"/></linearGradient><linearGradient x1="50%" y1="96.779%" x2="50%" y2="-21.622%" id="f"><stop stop-color="#FFF" offset="0%"/><stop stop-color="#E0E0E0" offset="99.119%"/></linearGradient><path id="g" d="M10.964 0.152698192L10.964 16.983072 0.176117269 16.983072 0.176117269 0.152698192z"/><linearGradient x1="97.987%" y1="50%" x2="0%" y2="50%" id="i"><stop stop-color="#51BFFF" offset="0%"/><stop stop-color="#4EA9E1" offset="100%"/></linearGradient></defs><g fill="none" fill-rule="evenodd"><path d="M280.393 120.126c1.631-31.118-31.014-63.617-52.06-59.455-18.473 3.654-14.63 23.486-42.848 38.22-28.217 14.735-85.924 21.67-36.642 44.666 49.282 22.996 128.427 36.145 131.55-23.43z" fill="url(#a)" transform="scale(-1 1) rotate(-17 0 1483.525)"/><g transform="translate(219 191)"><mask id="d" fill="#fff"><use xlink:href="#b"/></mask><path d="M0 82.74c3.874-10.201 30.237-16.081 39.646-30.246 9.41-14.165 15.918-24.92 25.048-37.704C73.823 2.006 81.782-1.877 95.124 1.036c13.343 2.913 22.238 16.505 27.388 30.583 5.15 14.078 59.055 31.055 68.887 51.121H0z" fill="url(#c)" fill-rule="nonzero" mask="url(#d)"/></g><path d="M273 272.829s11.02-16.925 29.15-17.896c18.13-.97 30.927-17.14 35.548-22.638 4.621-5.498 19.552-13.906 40.17-13.26 20.618.647 22.054 9.447 29.163 17.856 7.11 8.408 33.518 8.49 37.43 17.969 4.777 11.575 37.278 17.493 37.278 17.493L273 272.83z" fill="url(#e)"/><g transform="matrix(-1 0 0 1 311 184)" fill-rule="nonzero"><g transform="translate(0 .289)"><path d="M128 68.981s21.733-19.096 23.654-27.218c1.923-8.122 14.093-13.392 14.617-21.022.524-7.63 9.436-12.06 12.93-16.86 3.495-4.799 15.202-4.307 18.347-2.953 3.145 1.354 16.426 8.983 20.619 17.967 4.194 8.984 16.25 18.705 28.306 19.813 12.056 1.107 9.96 5.784 14.853 13.537C266.218 59.998 299.86 61.154 311 69c-11.355 0-183-.019-183-.019" fill="url(#f)"/><path d="M87.185 48.015C84.477 48.015 0 80.926 0 80.926l12.277 39.228 26.81 8.518v55.604l169.44-25.002 66.75-39.12L285 61.024 87.185 48.014z" fill="#FFF"/><rect fill-opacity=".05" fill="#000" x="81" y="63.711" width="137" height="9" rx="4.5"/></g><path d="M159.732 98.318c-4.32-.328-54.958-4.853-151.916-13.577l.722-.633-.328 10.105-.35 10.104-.739 20.207-.5-.592c4.263.594 8.52 1.233 12.78 1.848l12.777 1.862c4.261.61 8.515 1.27 12.772 1.91 4.256.641 8.512 1.286 12.765 1.959-4.277-.495-8.55-1.018-12.822-1.544-4.272-.527-8.547-1.036-12.815-1.593l-12.808-1.64c-4.269-.553-8.54-1.082-12.807-1.656l-.516-.07.016-.522.599-20.211.319-10.106.341-10.104.024-.702.698.07 151.788 14.885zM31.794 147.375l-.026-4.509-.068-4.509a849.724 849.724 0 0 0-.242-9.017h.672c.093 3.006.18 6.012.24 9.017.022 1.503.058 3.006.068 4.51l.024 4.508-.026 4.508-.068 4.509a874.772 874.772 0 0 1-.241 9.017h-.666c.093-3.006.18-6.011.24-9.017l.067-4.509.026-4.508zm0 0l.025 4.508.068 4.509c.06 3.006.147 6.011.24 9.017h-.666c-.093-3.006-.18-6.011-.242-9.017l-.068-4.509-.026-4.508.025-4.509c.01-1.503.045-3.006.067-4.509.06-3.005.147-6.011.24-9.017h.673c-.093 3.006-.181 6.012-.242 9.017l-.069 4.51-.025 4.508z" fill="#818181"/></g><g transform="translate(10)"><g transform="translate(0 73)"><path d="M0 130c58.316-47.084 164.982-79.084 320-96" stroke="#208FC0" opacity=".548" stroke-dasharray="5"/><g transform="rotate(-10 258.72 -1904.749)"><path d="M84.032 12.906c-1.227-1.218-3.852-2.207-5.861-2.207H16.665L8.508.804C8.142.36 7.386 0 6.804 0H3.282c-.575 0-1.04.467-1.04 1.046v10.51h.282C1.127 11.555 0 12.416 0 13.48c0 1.062 1.13 1.926 2.524 1.926h4.933l17.758 5.48c0 .046 1.87.084 4.164.084h56.072c2.327 0 4.203-1.437 4.203-3.21 0-1.707-1.752-3.108-3.96-3.205l-1.662-1.65z" fill="#FFF" fill-rule="nonzero"/><path d="M2.241 4.708S6.115 4.54 9.806 6.42c3.69 1.879 7.565 4.707 7.565 4.707H2.24v-6.42z" fill="#B4343E" fill-rule="nonzero"/><path d="M89.654 17.119c0 2.415-1.876 3.852-4.203 3.852h-59.83l-7.13-2.14s3.851-4.708 35.582-4.708c31.73 0 35.581 1.869 35.581 2.996z" fill="#FD6666" fill-rule="nonzero"/><path d="M89.654 17.547c0 2.415-1.68 2.568-4.203 3.424h-59.83l-3.768-1.712s2.17-3.852 33.9-3.852c31.731 0 33.901 1.013 33.901 2.14z" fill="#B13E3E" fill-rule="nonzero"/><path stroke="#27516D" stroke-width=".521" d="M2.50177369 11.294836L2.24135702 11.294836 2.50177369 11.5552527z"/><g transform="translate(56 18)"><path d="M.594.403H9.1c1.183 0 2.142.95 2.142 2.14 0 1.181-.964 2.14-2.142 2.14H2.736a2.136 2.136 0 0 1-2.142-2.14V.403z" fill="#FF5A66"/><path d="M.855.663v1.88c0 1.043.839 1.88 1.88 1.88H9.1a1.883 1.883 0 0 0 1.881-1.88c0-1.044-.839-1.88-1.88-1.88H.854z" stroke="#27516D" stroke-width=".521"/></g><g transform="translate(0 11)"><path fill="#FFF" d="M0 0.555H15.689V4.407H0z"/><path stroke="#27516D" stroke-width=".521" d="M0.26 0.816H15.429V4.147H0.26z"/></g><g transform="translate(41 16)"><path fill="#FFF" d="M0.465 0.263H23.439V2.831H0.465z"/><path stroke="#27516D" stroke-width=".521" d="M0.726 0.523H23.179V2.5700000000000003H0.726z"/></g><g transform="translate(22.414 13.267)" fill-rule="nonzero" fill="#27516D"><rect width="1.681" height="1.712" rx=".841"/><rect x="3.362" width="1.681" height="1.712" rx=".841"/><rect x="6.724" width="1.681" height="1.712" rx=".841"/><rect x="10.086" width="1.681" height="1.712" rx=".841"/><rect x="13.448" width="1.681" height="1.712" rx=".841"/><rect x="16.81" width="1.681" height="1.712" rx=".841"/><rect x="20.172" width="1.681" height="1.712" rx=".841"/><rect x="23.534" width="1.681" height="1.712" rx=".841"/><rect x="26.896" width="1.681" height="1.712" rx=".841"/><rect x="30.258" width="1.681" height="1.712" rx=".841"/><rect x="33.62" width="1.681" height="1.712" rx=".841"/><rect x="36.982" width="1.681" height="1.712" rx=".841"/><rect x="40.344" width="1.681" height="1.712" rx=".841"/><rect x="43.706" width="1.681" height="1.712" rx=".841"/><rect x="47.068" width="1.681" height="1.712" rx=".841"/><rect x="50.431" width="1.681" height="1.712" rx=".841"/><path d="M56.034.856c0-.473.385-.856.851-.856h4.752l2.242 1.712h-6.99a.853.853 0 0 1-.855-.856z"/></g></g></g><g transform="translate(158 52)"><path d="M63.885 65c-2.585 0-4.215-.147-4.344-.16a3.904 3.904 0 0 1 .724-7.773c.214.02 21.626 1.83 32.884-9.423 4.67-4.667 7.77-10.318 9.215-16.796 1.1-4.928.78-8.517.776-8.553a3.897 3.897 0 0 1 3.487-4.274 3.909 3.909 0 0 1 4.284 3.492c.074.72 1.65 17.77-12.24 31.652-5.811 5.808-14.454 9.664-24.993 11.153-3.839.542-7.27.682-9.793.682" fill="#F8BA9B" fill-rule="nonzero"/><g transform="translate(102 11)"><mask id="h" fill="#fff"><use xlink:href="#g"/></mask><path d="M5.157 16.974c2.97-.215 5.563-4.153 5.791-8.796.228-4.642-1.995-8.231-4.965-8.016C3.013.377.42 4.315.193 8.957c-.229 4.643 1.994 8.232 4.964 8.017" fill="#F8BA9B" fill-rule="nonzero" mask="url(#h)"/></g><path d="M2.563 84.46c-10.527-3.267 17.16-2.811 6.66-39.272-10.5-36.46 8.263-42.796 18.79-39.529 10.527 3.267 9.036 34.33 3.548 52.256C26.073 75.842 13.09 87.726 2.563 84.46z" fill="#F8C789" fill-rule="nonzero"/><path d="M41.41 117.607c4.966 7.337 15.972 8.535 24.582 2.677 8.61-5.858 11.564-16.555 6.598-23.891-4.966-7.337-15.971-8.535-24.581-2.677-8.61 5.858-11.565 16.555-6.599 23.891" fill="#555" fill-rule="nonzero"/><path d="M39.628 104s4.106-13.07.807-19.367c-3.299-6.297-6.939-13.678-6.939-13.678-3.548-6.774-.393-15 5.346-17.755l6-2.417c5.739-2.755 17.068 2.128 20.617 8.902 0 0-1.317 19.505 8.541 39.372L39.628 104z" fill="#FFF" fill-rule="nonzero"/><path d="M49.234 58.574l-1.02.713c-1.836 1.284-4.359.786-5.605-1.106l-5.917-8.98c-1.246-1.892-.763-4.49 1.074-5.775l1.02-.713c1.836-1.284 4.359-.786 5.605 1.106l5.917 8.98c1.246 1.892.763 4.49-1.074 5.775" fill="#F8BA9B" fill-rule="nonzero"/><path d="M50.009 16.974c7.825 11.537 8.434 22.802-.851 29.106-9.286 6.304-23.157 2.062-30.983-9.474-7.826-11.537-6.642-26 2.643-32.304 9.285-6.304 21.365 1.135 29.19 12.672" fill="#D06934" fill-rule="nonzero"/><path d="M50.009 16.974c7.825 11.537 8.434 22.802-.851 29.106-9.286 6.304-23.157 2.062-30.983-9.474-7.825-11.537-6.642-26 2.643-32.304 9.285-6.304 21.365 1.135 29.19 12.672" fill="#F8BA9B" fill-rule="nonzero"/><path d="M41 35.916L48 33s-1.442 6.514-7 2.916M32 23c.14-.405.398-.764.685-1.084.29-.322.625-.598.977-.848.353-.25.735-.454 1.124-.637.196-.09.398-.165.597-.244.207-.063.41-.132.617-.187-.186.108-.378.2-.565.3l-.557.306c-.363.215-.729.424-1.068.67a9.047 9.047 0 0 0-.982.778c-.302.288-.599.587-.828.946m8-5c.14-.405.398-.764.685-1.084a5.82 5.82 0 0 1 .977-.848 7.32 7.32 0 0 1 1.124-.637c.196-.09.398-.165.597-.245.207-.062.41-.132.617-.186-.186.108-.378.2-.565.3l-.557.306c-.363.215-.729.424-1.068.67a9.038 9.038 0 0 0-.982.778c-.302.287-.599.587-.828.946" fill="#0A1A3B" fill-rule="nonzero"/><path d="M17.775 15s3.7 18.836 18.484 25.933c14.784 7.098 12.632 4.37 12.632 4.37s-7.028 8.56-24.242-.37c0 0-20.739-18.393-6.874-29.933" fill="#E9AE91" fill-rule="nonzero"/><path d="M48 14a54.682 54.682 0 0 1 5.278 7.731c1.515 2.732 2.849 5.621 3.467 8.74.156.777.236 1.571.255 2.369l-.001.6-.045.599c-.036.398-.107.783-.162 1.175-.258 1.555-.657 3.096-1.284 4.547a15.57 15.57 0 0 1-2.47 4.006 20.194 20.194 0 0 1-1.636 1.682c-.569.533-1.17 1.026-1.745 1.551.537-.565 1.11-1.093 1.653-1.648a20.02 20.02 0 0 0 1.539-1.742 16.126 16.126 0 0 0 2.3-4 20.11 20.11 0 0 0 1.176-4.47c.106-.771.226-1.526.186-2.291a13.291 13.291 0 0 0-.257-2.284c-.276-1.515-.777-2.989-1.343-4.43-.572-1.44-1.254-2.838-1.974-4.215a67.164 67.164 0 0 0-2.339-4.036A68.294 68.294 0 0 0 48 14" fill="#FFF" fill-rule="nonzero"/><path d="M53.93 9.878s-8.122-1.348-16.689 4.514c-8.566 5.862-20.165 19.297-23.265 14.69-3.1-4.607-2.656-19.062 5.91-24.924 8.567-5.861 12.603-2.307 23.324-1.153 10.72 1.153 10.72 6.873 10.72 6.873z" fill="#F8C789" fill-rule="nonzero"/><path d="M24.893 38.562c1.505 2.235 1.471 4.903-.076 5.961-1.548 1.058-4.35.328-5.856-1.907-1.506-2.234-1.144-5.127.404-6.184 1.547-1.058 4.022-.104 5.528 2.13" fill="#E9AE91" fill-rule="nonzero"/><path d="M66 57a81.918 81.918 0 0 0 5.146-.539 70.897 70.897 0 0 0 5.094-.845c1.683-.352 3.357-.745 4.992-1.255 1.632-.516 3.235-1.13 4.72-1.947.748-.405 1.447-.861 2.136-1.376.347-.248.694-.498 1.031-.759.338-.26.685-.51 1.015-.78a52.732 52.732 0 0 0 3.858-3.352 32.788 32.788 0 0 0 3.405-3.789c.527-.666.997-1.373 1.446-2.093A19.47 19.47 0 0 0 100 38c-.282.8-.634 1.579-1.04 2.33-.417.743-.86 1.477-1.36 2.172-.996 1.394-2.125 2.692-3.33 3.916-1.2 1.23-2.505 2.355-3.844 3.434-.33.276-.677.53-1.015.796-.338.266-.685.52-1.032.774-.68.518-1.416 1.01-2.178 1.428-1.537.827-3.173 1.436-4.83 1.944-1.662.495-3.35.903-5.055 1.198a68.95 68.95 0 0 1-5.14.711c-1.723.155-3.448.281-5.176.297" fill="#FFF" fill-rule="nonzero"/><path d="M49 50c.84.013 1.679.096 2.51.22.832.125 1.658.288 2.475.493 1.63.42 3.222.999 4.717 1.772 1.501.763 2.896 1.735 4.105 2.898.312.28.586.598.877.899.265.322.552.63.793.97.519.657.946 1.374 1.356 2.098l-.016-.025c.02.037.037.08.047.124.012.056.007.05.01.072l.008.095.008.175.01.343.013.68.018 1.356a117.9 117.9 0 0 0 .4 8.119 75.834 75.834 0 0 0 1.075 8.06c.178.887.375 1.77.594 2.651-.556-1.73-.964-3.503-1.307-5.286a75.935 75.935 0 0 1-.77-5.389 91.777 91.777 0 0 1-.396-5.427c-.042-.906-.073-1.812-.096-2.718l-.03-1.359-.011-.677-.007-.336-.006-.164-.005-.074c-.004-.05-.004.01.028.03l-.016-.027c-.392-.704-.799-1.404-1.296-2.045-.23-.333-.507-.633-.761-.949-.28-.294-.544-.605-.845-.88a15.93 15.93 0 0 0-1.878-1.573c-.66-.484-1.36-.922-2.084-1.318-1.444-.8-3.003-1.402-4.6-1.872A24.781 24.781 0 0 0 49 50" fill="#9F9F9F" fill-rule="nonzero"/><path d="M50 91c1.326-1.41 2.559-2.893 3.758-4.4a77.522 77.522 0 0 0 3.42-4.647 74.613 74.613 0 0 0 3.079-4.872c.98-1.655 1.86-3.364 2.743-5.081-.175.449-.355.896-.54 1.341-.184.446-.362.896-.57 1.33l-.619 1.311c-.204.439-.446.858-.667 1.288-.436.863-.944 1.688-1.43 2.525-.244.417-.518.818-.775 1.227-.26.41-.523.816-.801 1.212a52.403 52.403 0 0 1-3.533 4.613C52.806 88.32 51.465 89.728 50 91m15.017 108.33c-.02-.786-.42-19.563 4.048-45.505 4.114-23.888-2.61-39.974-2.678-40.133a4.779 4.779 0 0 1 2.485-6.294c2.427-1.055 4.673-10.438 5.73-8.014.327.75 8.54 29.183 3.912 56.064-4.299 24.957-8.594 42.665-8.59 42.849.063 2.642-4.843 3.637-4.907 1.034zm-26 0c-.02-.787-.42-19.566 4.047-45.509 2.178-12.643 1.293-22.997.167-29.457-1.174-6.735-2.821-10.626-2.837-10.664a4.785 4.785 0 0 1 2.48-6.3c2.428-1.056 11.645-2.425 12.702 0 .327.75 1.567 21.162-3.063 48.044-4.31 25.03-8.71 43.702-8.706 43.885.065 2.644-4.726 2.604-4.79 0z" fill="#555" fill-rule="nonzero"/><path d="M22 37.25c0-7.864 1.746-14.225 5.24-19.082C25.498 16.558 20.42 19.836 12 28l5.25 10 4.75-.75z" fill="#F8C789" fill-rule="nonzero"/></g><g opacity=".32" transform="translate(13 51)" fill-rule="nonzero" fill="#E2E2E2"><circle cx="67" cy="25" r="25"/><ellipse cx="95.5" cy="34" rx="12.5" ry="13"/><circle cx="7" cy="36" r="7"/><circle cx="112" cy="32" r="7"/><circle cx="36" cy="30" r="18"/></g><g opacity=".1" transform="matrix(-1 0 0 1 424 9)" fill-rule="nonzero" fill="#E2E2E2"><circle cx="51" cy="19" r="19"/><ellipse cx="72.5" cy="26" rx="9.5" ry="10"/><circle cx="5.5" cy="27.5" r="5.5"/><circle cx="84.5" cy="24.5" r="5.5"/><circle cx="27.5" cy="22.5" r="13.5"/></g><g opacity=".321" transform="matrix(-1 0 0 1 199 0)" fill-rule="nonzero" fill="#E2E2E2"><ellipse cx="33.5" cy="15.5" rx="12.5" ry="15.5"/><ellipse cx="47" cy="21" rx="6" ry="8"/><ellipse cx="3.5" cy="22.5" rx="3.5" ry="4.5"/><ellipse cx="54.5" cy="20.5" rx="3.5" ry="4.5"/><ellipse cx="17.5" cy="18" rx="8.5" ry="11"/></g><path d="M210.827 54.933c-8.658-.683-14.606-1.224-17.844-1.622-4.856-.599-11.874-.915-14.699 4.065 0-.399.974-6.05 14.7-4.664 9.15.924 15.098 1.664 17.843 2.221z" fill="#818181" fill-rule="nonzero"/></g><g transform="scale(-1 1) rotate(-75 -8.833 218.677)"><path d="M30.595 67.958a68.73 68.73 0 0 1-6.999-10.132c-5.192-9.197-7.355-18.356-6.253-26.484C19.976 11.913 34.483 2.702 35.1 2.318c1.839-1.14 4.24-.588 5.361 1.232 1.123 1.822.543 4.224-1.295 5.365-.017.011-3.064 1.96-6.316 5.844-4.276 5.107-6.892 11.009-7.778 17.54-2.143 15.816 12.252 31.468 12.399 31.624 1.452 1.568 1.357 4.029-.228 5.502-1.584 1.474-4.051 1.4-5.51-.165a35.75 35.75 0 0 1-1.138-1.302" fill="#F8BA9B" fill-rule="nonzero"/><path d="M43.005 81.219c-2.913.923-6.845-1.784-8.78-6.047-1.937-4.263-1.144-8.467 1.77-9.39 2.913-.924 6.844 1.783 8.78 6.046 1.937 4.263 1.144 8.467-1.77 9.39" fill="#F8BA9B" fill-rule="nonzero"/><g transform="rotate(56 -36.077 78.66)"><rect fill="#545454" fill-rule="nonzero" width="12" height="23" rx="1.5"/><rect fill="url(#i)" fill-rule="nonzero" x=".484" y="1.777" width="11.032" height="17.571" rx=".1"/><rect fill="#FFF" fill-rule="nonzero" x=".484" y="1.777" width="11.032" height="2.665" rx=".1"/><g transform="translate(.9 2.3)" fill-rule="nonzero"><path d="M.977 1.119a.134.134 0 0 0-.107-.052.168.168 0 0 0-.128.047.175.175 0 0 0-.045.126c0 .052.015.094.045.126s.073.048.128.048a.119.119 0 0 0 .062-.016.188.188 0 0 0 .045-.037l.143.147A.278.278 0 0 1 1 1.58a.458.458 0 0 1-.282-.005.34.34 0 0 1-.238-.335.352.352 0 0 1 .113-.262.369.369 0 0 1 .125-.073A.452.452 0 0 1 1 .9a.278.278 0 0 1 .119.072l-.143.147zm.445.121c0 .052.016.094.047.126a.174.174 0 0 0 .131.048c.056 0 .1-.016.131-.048a.173.173 0 0 0 .047-.126.173.173 0 0 0-.047-.126.174.174 0 0 0-.131-.048c-.056 0-.1.016-.131.048a.173.173 0 0 0-.047.126m-.222 0a.345.345 0 0 1 .244-.335.474.474 0 0 1 .44.073A.343.343 0 0 1 2 1.24a.345.345 0 0 1-.244.335.474.474 0 0 1-.44-.073.341.341 0 0 1-.116-.262" fill="#444"/><path d="M.76 0a.36.36 0 1 1 0 .72.36.36 0 0 1 0-.72" fill="#088AB7"/></g><g transform="translate(1 17)"><rect x=".46" y=".09" width="9.387" height="1.579" rx=".2" fill-rule="nonzero" fill="#000"/><rect x=".46" y=".09" width="9.387" height="1.579" rx=".2" fill="#9BE356"/></g><g transform="translate(1.258 5.43)"><rect width="9.387" height="3.455" rx=".2" fill-rule="nonzero" fill="#000"/><rect width="9.387" height="3.455" rx=".2" fill="#FFF"/><ellipse fill="#F1F1F1" fill-rule="nonzero" cx="1.672" cy="1.652" rx="1.161" ry="1.185"/></g><g transform="translate(1.258 9.279)"><rect width="9.387" height="3.455" rx=".2" fill-rule="nonzero" fill="#000"/><rect width="9.387" height="3.455" rx=".2" fill="#FFF"/><ellipse fill="#F1F1F1" fill-rule="nonzero" cx="1.672" cy="1.652" rx="1.161" ry="1.185"/></g><g transform="translate(1.355 13.129)"><rect width="9.387" height="3.455" rx=".2" fill-rule="nonzero" fill="#000"/><rect width="9.387" height="3.455" rx=".2" fill="#FFF"/><ellipse fill="#F1F1F1" fill-rule="nonzero" cx="1.672" cy="1.652" rx="1.161" ry="1.185"/></g><ellipse fill="#3F3F3F" fill-rule="nonzero" cx="6.048" cy="21.174" rx="1.306" ry="1.333"/><circle fill="#D8D8D8" fill-rule="nonzero" cx="9.677" cy="1.036" r="1"/></g></g><path d="M216 66s14.424 10.65 5.526 31.003C232.524 76.473 216 66 216 66zm19 44.058c24.408-3.619 36.114-14.971 35.12-34.058-.424 19.087-12.13 30.44-35.12 34.058z" fill="#818181"/><path d="M212 75.303c1.884-2.774.63-2.313 3.343-2.212M204 80.303c1.884-2.774.63-2.313 3.343-2.212" stroke="#0A1A3B"/><path d="M290.523 82c-6.908-.153-18.92-8.338-20.523-33-1.603-24.662 27.266-13.173 28.592-5.474 1.326 7.7-1.16 38.627-8.069 38.474z" fill="#FFDCAE"/><path d="M289.161 50.616c.838 5.266 1.63 8.228 2.376 8.887.746.659-.672.888-4.255.686" stroke="#3A3A3A" opacity=".445" stroke-linecap="round"/><path d="M281 52.247c2.11-1.003 3.73-1.113 4.863-.332 1.7 1.173-.124-3.222-2.127-2.898-1.336.216-2.248 1.293-2.736 3.23z" fill="#3A3A3A"/><path d="M288.929 72.983c4.252 0 6.175-6.46 7.716-10.037-2.906 3.437-9.211 3.437-18.914 0 4.63 6.692 8.363 10.037 11.198 10.037zm7.606-20.736c-2.109-1.003-3.73-1.113-4.863-.332-1.699 1.173.125-3.222 2.128-2.898 1.335.216 2.247 1.293 2.735 3.23z" fill="#3A3A3A"/></g></svg>